<svg xmlns="http://www.w3.org/2000/svg" width="150" height="99.647" viewBox="0 0 150 99.647"><g transform="translate(-872.034 -3500.999)"><path d="M42.481,2.5c20.11,0,30.344,12.083,30.344,31.507S58.8,66.247,38.688,66.247,0,53.431,0,34.007,22.371,2.5,42.481,2.5Z" transform="translate(872.034 3534.399)" fill="#ffdc4d"/><path d="M1311.262,3771.869l-2.726,15.047v23.443h33.91l23.988-.763,2.181-30.53-13.084-7.2-17.991-6s-13.084-.981-13.411-.545-5.452,3.38-5.452,3.38Z" transform="translate(-414 -235.822)" fill="#fff"/><g transform="translate(892.866 3500.999)"><g transform="translate(0 15.625)"><path d="M-1458.566,3103.345a25.391,25.391,0,0,0-6.551,7.79,39.346,39.346,0,0,0-3.744,10.2,78.394,78.394,0,0,0-1.621,12.27c-.258,3.885-.363,7.776-.37,11.669q-.007,3.326.054,6.651a27.925,27.925,0,0,0,.521,6.545c.211.819,1.621.914,1.765,0a15.8,15.8,0,0,0,.223-2.806c-.021-.965-.108-1.933-.148-2.9-.081-1.927-.148-3.854-.184-5.782-.07-3.81-.063-7.624.092-11.432.311-7.595,1.057-15.441,4.16-22.48a32.041,32.041,0,0,1,6.268-9.26c.3-.312-.142-.719-.466-.463Z" transform="translate(1470.852 -3103.265)" fill="#040505"/></g><g transform="translate(1.132 68.406)"><path d="M-1468.6,3177.42c5.832.332,11.7.211,17.538.176q8.322-.05,16.643-.161c10.917-.144,21.832-.355,32.747-.574q4.781-.1,9.561-.171l4.91-.081a21.771,21.771,0,0,0,5.24-.319,1,1,0,0,0,0-1.921,7.277,7.277,0,0,0-1.165-.218c-.367-.019-.751.028-1.118.042-.8.029-1.6.053-2.406.078l-4.378.136c-2.848.089-5.7.181-8.545.256-5.553.146-11.106.294-16.66.412q-16.366.349-32.734.516c-3.182.029-6.364.05-9.546.081-3.367.032-6.726.035-10.088.222a.764.764,0,0,0,0,1.527Z" transform="translate(1469.342 -3174.146)" fill="#040505"/></g><g transform="translate(80.488 9.611)"><path d="M-1363.36,3095.785c1.24.046,2.466.234,3.7.328s2.454.273,3.684.46a20.51,20.51,0,0,1,6.218,1.919,24.2,24.2,0,0,1,8.7,7.619c5.4,7.6,6.446,17.084,6.936,26.125q.238,4.387.241,8.784,0,2.175-.05,4.349c-.036,1.479-.135,2.96-.123,4.439a1.068,1.068,0,0,0,1.054,1.047,1.074,1.074,0,0,0,1.054-1.047,78.252,78.252,0,0,0,.151-8.047q-.039-4.026-.262-8.046a82.906,82.906,0,0,0-1.84-14.824,39.2,39.2,0,0,0-5.108-12.662,25.544,25.544,0,0,0-8.859-8.481,21.148,21.148,0,0,0-6.9-2.3,28.778,28.778,0,0,0-4.2-.256c-1.48-.007-2.932.2-4.408.262a.167.167,0,0,0,0,.334Z" transform="translate(1363.523 -3095.188)" fill="#040505"/></g><g transform="translate(81.483 13.339)"><path d="M-1348.73,3101.032a4.938,4.938,0,0,0-4.895-.357,7.7,7.7,0,0,0-3.687,4.2,37.817,37.817,0,0,0-1.68,5.9q-.756,3.191-1.359,6.415a93.9,93.9,0,0,0-1.5,26.037,68.046,68.046,0,0,0,2.917,14.414,1.131,1.131,0,0,0,1.237.8,1.14,1.14,0,0,0,.978-1.1c.084-.838.068-1.68.076-2.523.01-1.038-1.665-1.322-1.87-.251-.177.922-.368,1.838-.461,2.773l2.214-.3a72.083,72.083,0,0,1-3.216-24.336,115.264,115.264,0,0,1,3.56-24.479c.467-1.875,1.029-3.978,2.478-5.362,1.188-1.135,3.177-1.849,4.668-.92.6.372,1.076-.518.539-.917Z" transform="translate(1362.195 -3100.195)" fill="#040505"/></g><g transform="translate(83.806 66.375)"><path d="M-1356.765,3176.21c-1.395,1.411-.415,3.384.625,4.683a49.48,49.48,0,0,0,3.833,4.056,98.926,98.926,0,0,0,8.362,7.42,107.873,107.873,0,0,0,9.234,6.563c3.215,2.035,6.607,4.009,10.471,4.418,3.09.326,6.643-.687,8.664-3.135,2.44-2.956,2.239-7.006.654-10.313-1.639-3.417-4.637-6.067-7.258-8.732l-4.371-4.446a36.776,36.776,0,0,0-4.286-4.12,7.514,7.514,0,0,0-5.723-1.053c-2.04.289-4.07.7-6.1,1.053-4.092.714-8.18,1.457-12.278,2.137l-3.122.518,1.714.967c.046.306.044-.384.032-.246s.068-.137.016-.052a2.026,2.026,0,0,0,.134-.184,1.14,1.14,0,0,0-.18-1.384,1.192,1.192,0,0,0-1.393-.178,2.7,2.7,0,0,0-1.069,1.013,2.442,2.442,0,0,0-.226,1.765,1.42,1.42,0,0,0,1.714.966c3.864-.732,7.735-1.433,11.606-2.133l5.761-1.042a27.773,27.773,0,0,1,5.392-.792c1.559.033,2.566.913,3.672,2.029q2.078,2.1,4.142,4.2l4.113,4.177c1.233,1.252,2.484,2.492,3.594,3.856a13.1,13.1,0,0,1,2.3,3.98,7.607,7.607,0,0,1,.279,4.253,5.42,5.42,0,0,1-.884,1.907c-.143.208-.075.1-.039.055-.054.068-.112.134-.169.2-.1.114-.205.224-.313.331a4.606,4.606,0,0,1-.7.589,7.872,7.872,0,0,1-.845.505c-.156.082-.316.158-.477.228-.134.058-.031.013,0,0-.124.049-.249.1-.376.139a9.568,9.568,0,0,1-.967.278q-.229.053-.462.1l-.266.045c-.424.068.11-.009-.134.016-3.275.345-6.345-1.031-9.126-2.627a95.313,95.313,0,0,1-8.8-5.778c-2.8-2.048-5.477-4.253-8.066-6.557q-1.952-1.736-3.813-3.567-.945-.929-1.866-1.884a11.132,11.132,0,0,1-1.5-1.684,1.3,1.3,0,0,1-.154-1.514c.583-.79-.678-1.707-1.345-1.031Z" transform="translate(1359.097 -3171.418)" fill="#040505"/></g><g transform="translate(11.614 12.498)"><path d="M-1454.79,3103.111a18.761,18.761,0,0,0,1.878-.652c.632-.2,1.276-.378,1.92-.536a29.937,29.937,0,0,1,3.814-.656c2.544-.283,5.1-.462,7.655-.626,2.4-.154,4.781-.351,7.183-.351.8,0,1.6,0,2.405.006.6,0,1.2.031,1.8.057a5.015,5.015,0,0,0,2.259-.032c.563-.238.292-.986-.152-1.156a4.683,4.683,0,0,0-2.031.095c-.547.045-1.093.1-1.642.126-.768.041-1.537.081-2.3.134-.973.067-1.941.184-2.912.257-1.4.105-2.8.139-4.2.179-2.576.075-5.166,0-7.734.236a33.423,33.423,0,0,0-4.276.65,18.2,18.2,0,0,0-2.074.6,7.224,7.224,0,0,0-2.024.942c-.377.29.044.808.427.729Z" transform="translate(1455.365 -3099.067)" fill="#040505"/></g><g transform="translate(64.541 9.806)"><path d="M-1384.292,3097.456a24.075,24.075,0,0,0,2.943-.084c.91-.048,1.819-.1,2.728-.159,1.648-.1,3.3-.175,4.949-.21,3.241-.071,6.481.011,9.716.2.984.058,1.967.121,2.952.169a12.5,12.5,0,0,0,3.315-.117c.451-.1.353-.67,0-.814a11.557,11.557,0,0,0-2.871-.559c-.913-.116-1.839-.167-2.758-.218-1.678-.093-3.359-.162-5.039-.194-3.265-.062-6.529.034-9.786.256-.985.067-1.968.145-2.949.255a22.719,22.719,0,0,0-3.333.49.5.5,0,0,0,.134.985Z" transform="translate(1384.788 -3095.451)" fill="#040505"/></g><g transform="translate(43.225 70.515)"><path d="M-1412.844,3179.15a85.545,85.545,0,0,0-.345,9.645,81.528,81.528,0,0,0,.844,9.733,1.154,1.154,0,0,0,1.281.831,1.176,1.176,0,0,0,1.013-1.138c.43-6,1-12,1.8-17.967l-2.118.284a67.334,67.334,0,0,1,1.565,8.447,76.653,76.653,0,0,1,.625,8.687,1.169,1.169,0,0,0,2.337,0c.015-6.151-.024-12.3-.054-18.451l-1.109,1.1a5.47,5.47,0,0,0,3.276-1.4l-1.936-1.119a39.841,39.841,0,0,0-1.39,20.191,1.255,1.255,0,0,0,1.387.9,1.262,1.262,0,0,0,1.1-1.233,38.094,38.094,0,0,0-.239-5.446.971.971,0,0,0-.832-.936.948.948,0,0,0-1.053.683,39.654,39.654,0,0,0-.4,5.7l2.483-.333a39.853,39.853,0,0,1,1.186-18.913,1.167,1.167,0,0,0-1.936-1.119,2.72,2.72,0,0,1-1.638.825,1.13,1.13,0,0,0-1.109,1.1c-.034,6.15-.076,12.3-.065,18.451h2.337a77.956,77.956,0,0,0-.694-8.927,87.267,87.267,0,0,0-1.753-8.774,1.092,1.092,0,0,0-1.04-.787,1.077,1.077,0,0,0-1.039.787c-.9,6.056-1.615,12.141-2.019,18.251l2.294-.308a90.423,90.423,0,0,1-.935-18.762.914.914,0,0,0-.908-.9.924.924,0,0,0-.908.9Z" transform="translate(1413.212 -3176.979)" fill="#040505"/></g><g transform="translate(38.374 3.124)"><path d="M-1419.679,3086.911a60.73,60.73,0,0,0,4.5,17.8.823.823,0,0,0,.982.553,91.486,91.486,0,0,1,13.188-2.109c1.053-.09,1.063-1.734,0-1.644a87.467,87.467,0,0,0-13.612,2.224l.981.553a96.224,96.224,0,0,1-5.158-17.5c-.1-.483-.918-.384-.877.117Z" transform="translate(1419.681 -3086.478)" fill="#040505"/></g><g transform="translate(38.521)"><path d="M-1418.994,3086.309a31.6,31.6,0,0,0,5.891-.221q2.942-.272,5.874-.627c1.962-.238,3.924-.495,5.876-.8a53.683,53.683,0,0,0,5.8-1.063l-.829-.468a41.729,41.729,0,0,1,1.236,4.125q.591,2.069,1.139,4.152,1.075,4.076,1.988,8.193,1.833,8.325,3,16.774c.431,3.134.8,6.28,1.118,9.427a.735.735,0,0,0,.718.713.721.721,0,0,0,.718-.713,212.477,212.477,0,0,0-6-33.7q-.606-2.344-1.264-4.676-.317-1.122-.646-2.241c-.235-.8-.533-1.6-.708-2.41a.674.674,0,0,0-.65-.491c-1.961.181-3.9.58-5.852.869s-3.883.566-5.831.81-3.913.46-5.874.647a44.429,44.429,0,0,0-5.839.726c-.582.135-.4.921.132.972Z" transform="translate(1419.484 -3082.282)" fill="#040505"/></g><g transform="translate(63.145 43.114)"><path d="M-1378.921,3141.026c.772.274,1.552.557,2.309.867a3.775,3.775,0,0,1,1.713,1.245,4.234,4.234,0,0,1,.525,2.684,3.1,3.1,0,0,1-.907,2.213c-1.325,1.274-3.325,1.287-5.018.92-1.46-.317-3.693-.737-4.239-2.356a6.536,6.536,0,0,1-.281-1.552,1.771,1.771,0,0,1,.2-1.254,6.493,6.493,0,0,1,.936-.814,2.3,2.3,0,0,0,.778-1.237.75.75,0,0,0-1.366-.572c-.486.794-1.51,1.089-1.989,1.923a5.244,5.244,0,0,0-.148,3.606c.551,2.505,2.972,3.314,5.221,3.8,2.321.5,4.835.526,6.755-1.054a4.379,4.379,0,0,0,1.56-2.685,6.994,6.994,0,0,0-.274-3.637,4.473,4.473,0,0,0-2.365-2.326,7.385,7.385,0,0,0-3.3-.615.431.431,0,0,0-.115.843Z" transform="translate(1386.649 -3140.181)" fill="#040505"/></g><g transform="translate(56.529 18.165)"><path d="M-1395.205,3107.853a9.779,9.779,0,0,0,2.7.119c.084,0,.27.039.329-.005.135-.1-.075.041-.061-.087a2.366,2.366,0,0,0,.156.654c.124.472.256.942.385,1.412.486,1.8.962,3.593,1.448,5.389.978,3.621,1.929,7.249,2.821,10.892q.762,3.111,1.486,6.229l1.036-1.028c-.206-.03-.217-.016-.284-.163a.608.608,0,0,0-1.1.142,1.42,1.42,0,0,0,.733,1.549.852.852,0,0,0,1.237-.944c-1.89-7.76-3.893-15.5-6.179-23.154-.243-.813-.417-2.129-1.5-2.179a11.31,11.31,0,0,0-1.584.142,5.921,5.921,0,0,0-1.624.316.374.374,0,0,0,0,.716Z" transform="translate(1395.471 -3106.677)" fill="#040505"/></g><path d="M-1399.35,3185.918c-.6-.227-.719-.661-.295-1.123a.566.566,0,0,0,.095-.728c-.677-.82-.219-1.14.852-1.335-1.208-.315-.8-.686-.356-1.066a1.7,1.7,0,0,0,.253-2.195c-.649-.853-.619-1.261.247-2,.34-.29.1-.489-.031-.678v0c-1.947-.052-3.906-.006-5.856.029v14.441l.014-.007c.432-.229.882-.425,1.328-.627a.617.617,0,0,1,.749.144c.1.1.179.209.1.351-.13.223-.364.2-.581.22-.136.01-.274.015-.409.038a.334.334,0,0,0-.294.245c-.034.16.1.245.232.28.336.089.734.315,1.015.108a1.065,1.065,0,0,1,1.414.115c.382.277.636.222.858-.161a10.145,10.145,0,0,0,1.055-2.927.822.822,0,0,0-.264-.876c-.216-.174-.353-.354.051-.51s.826-.353.786-.894C-1398.433,3186.185-1398.909,3186.084-1399.35,3185.918Z" transform="translate(1454.244 -3106.409)" fill="#040505"/><path d="M-1353.928,3158.221s-5.375-21.346-1.875-39.962,9.249-18.12,14.248-13.9,8.212,12.316,9.98,28.311,1.519,20.836-2.106,22.45S-1353.928,3158.221-1353.928,3158.221Z" transform="translate(1442.376 -3087.304)" fill="#040505"/><path d="M-1401.276,3188.3s-.667,8.688-.583,10.756-9.832,1.241-10.332.993-2.5-19.692-.916-23,10.166-.745,10.166-.745l.416,10.591Z" transform="translate(1456.561 -3106.049)" fill="#040505"/><g transform="translate(100.128 23.462)"><path d="M-1337.312,3113.972c1.726,2.662,3.579,5.353,4.4,8.452a11.588,11.588,0,0,1,.315,4.755,5.189,5.189,0,0,1-2.1,3.832l.29.076c-.394-.561-.012-1.213.356-1.68s1.014-1.165,1.7-.927c.547.191.909.873,1.174,1.344a6.832,6.832,0,0,1,.655,1.613,6.933,6.933,0,0,1-1.585,6.333l.325.249a2.5,2.5,0,0,1,.791-.886,2.679,2.679,0,0,1,.373-.217c.333-.159.517-.205.689.17a4.444,4.444,0,0,1,.208,1.035q.117.665.191,1.338a33.3,33.3,0,0,1,.08,4.732c-.007.214.352.272.385.051a17.49,17.49,0,0,0-.295-6.22c-.1-.492-.14-1.618-.877-1.556a2.968,2.968,0,0,0-1.9,1.346c-.14.194.163.411.325.249a7.027,7.027,0,0,0,1.253-7.961c-.478-.982-1.354-2.416-2.641-1.773-.93.465-2.173,1.9-1.567,2.973a.22.22,0,0,0,.291.075,4.9,4.9,0,0,0,2.259-3.505,11.148,11.148,0,0,0-.086-4.924c-.769-3.391-2.769-6.323-4.785-9.1-.093-.128-.307-.012-.217.126Z" transform="translate(1337.333 -3113.791)" fill="#a8a8a9"/></g></g></g></svg>