<svg xmlns="http://www.w3.org/2000/svg" width="186" height="140" viewBox="0 0 186 140"><g transform="translate(-3684.73 331.833)"><g transform="translate(3725.384 -229.837)"><path d="M3730.5-218.089c-.2,4.992-.287,9.989-.364,14.983s-.216,10-.023,14.987a.287.287,0,0,0,.574,0c.364-9.981.1-19.985.43-29.97.013-.4-.6-.4-.617,0Z" transform="translate(-3730.013 218.387)"/></g><g transform="translate(3700.439 -288.44)"><path d="M3702.8-280.153c.744-.285,1.489-.568,2.231-.858a13.045,13.045,0,0,1,2.247-.8l-.865-.229c1.7,1.42,3.4,2.839,5.069,4.3.793.695,1.542,1.466,2.383,2.1a2.8,2.8,0,0,0,2.567.734.668.668,0,0,0,.29-1.1c-.61-.548-1.362-.929-1.984-1.484-.776-.694-1.538-1.405-2.323-2.09a59.217,59.217,0,0,0-4.924-3.862.9.9,0,0,0-1.078.139,13.1,13.1,0,0,1-2,1.173c-.66.374-1.316.753-1.973,1.131-.441.254-.146,1.039.357.847Z" transform="translate(-3702.228 283.569)"/></g><g transform="translate(3703.506 -287.049)"><path d="M3706.559-280.259a3.12,3.12,0,0,0,.526.272l.516.24,1.053.492a.7.7,0,0,0,.889-.178.663.663,0,0,0,.148-.418.8.8,0,0,0-.2-.487c.017.022.089.115.046.035a.736.736,0,0,0-.149-.178c-.048-.044-.1-.085-.15-.126-.136-.112-.276-.219-.417-.326l.162.125a7.5,7.5,0,0,0-2.208-1.156.9.9,0,0,0-.691.091.931.931,0,0,0-.368.43.907.907,0,0,0,.368,1.123,9.309,9.309,0,0,0,2.052,1.009.925.925,0,0,0,.711-.093.961.961,0,0,0,.378-.443.927.927,0,0,0-.378-1.155,6.967,6.967,0,0,0-.893-.432l-.493,1.79,1.322.3a.939.939,0,0,0,1.1-.54.929.929,0,0,0-.381-1.166c-.63-.329-1.256-.672-1.916-.94l-.481,1.749c.127.045.254.094.378.147l-.205-.087a3.84,3.84,0,0,0,.434.175,2.664,2.664,0,0,1,.271.1l-.182-.076a1.169,1.169,0,0,0,.458.138.724.724,0,0,0,.28-.051.667.667,0,0,0,.463-.61,1.184,1.184,0,0,0-.5-.891,3.755,3.755,0,0,0-.7-.5.915.915,0,0,0-1.239.325.926.926,0,0,0,.325,1.241c.532.34,1.112.609,1.672.9l.719-1.706-1.326-.289a.98.98,0,0,0-.715.094.946.946,0,0,0-.425.555.937.937,0,0,0,.093.716l.145.188a.923.923,0,0,0,.41.238l.087.037-.222-.094a5.416,5.416,0,0,1,.588.3l.712-1.692q-.281-.1-.554-.211l.22.093a10.213,10.213,0,0,1-1.3-.658l-.691,1.644a10.877,10.877,0,0,1,1.161.4l-.2-.085c.238.1.467.217.7.334.111.057.225.109.336.167l.155.083a1.143,1.143,0,0,0,.486.148l-.191-.026a.243.243,0,0,1,.08.022l.367-1.33-1.076-.441-.526-.216a3.093,3.093,0,0,0-.555-.2.616.616,0,0,0-.72.353.621.621,0,0,0,.25.763Z" transform="translate(-3705.643 282.022)"/></g><g transform="translate(3725.934 -235.495)"><path d="M3730.826-224.1a2.369,2.369,0,0,1,1.853-.085,2.211,2.211,0,0,1,.774.46,1.562,1.562,0,0,1,.319.39c.079.145.087.312.172.45a.164.164,0,0,0,.221.058c.45-.254-.019-.868-.256-1.094a2.741,2.741,0,0,0-.993-.605,2.737,2.737,0,0,0-2.226.194c-.151.085-.018.307.135.231Z" transform="translate(-3730.625 224.68)"/></g><g transform="translate(3728.438 -238.094)"><path d="M3736.908-227.135a3.379,3.379,0,0,0-2.617-.261,1.556,1.556,0,0,0-.795.756.5.5,0,0,0,.018.574.271.271,0,0,0,.469-.094.2.2,0,0,0-.186-.245c-.02,0,.226.164.145.089-.009-.039-.013-.044-.011-.015s0,.023.007,0a.656.656,0,0,1,.059-.138,1.038,1.038,0,0,1,.231-.284,1.505,1.505,0,0,1,.661-.324,3.493,3.493,0,0,1,1.916.325c.24.086.336-.289.1-.379Z" transform="translate(-3733.415 227.571)"/></g><g transform="translate(3723.266 -279.953)"><path d="M3730.123-273.71a2.7,2.7,0,0,0-1.451-.411,1.347,1.347,0,0,0-.6.2.9.9,0,0,0-.411.531.226.226,0,0,0,.412.174.9.9,0,0,1,.258-.318.994.994,0,0,1,.419-.16,2.361,2.361,0,0,1,1.194.294.187.187,0,0,0,.247-.065.184.184,0,0,0-.065-.248Z" transform="translate(-3727.654 274.129)"/></g><g transform="translate(3723.237 -285.799)"><path d="M3727.834-280.073a1.294,1.294,0,0,1,1.145-.177,1.4,1.4,0,0,1,.507.271,1.673,1.673,0,0,1,.362.477.2.2,0,0,0,.363-.153,1.557,1.557,0,0,0-1.127-.922,1.669,1.669,0,0,0-1.4.248c-.149.114-.006.372.15.257Z" transform="translate(-3727.622 280.632)"/></g><g transform="translate(3773.013 -224.846)"><path d="M3813.72-212.49c-.031,5.232.037,10.463.11,15.694q.026,1.848.041,3.7c.01,1.29-.312,2.544-1.721,2.939a16.274,16.274,0,0,1-4.154.089c-6.323-.03-12.653-.077-18.972-.286-1.79-.059-3.935-.084-5.536-.039a.439.439,0,0,0,0,.877c.3-.008,1.11.108,1.594.11,1.131,0,2.261,0,3.393,0,3.3,0,6.595.07,9.893.127,3.407.059,6.814.114,10.221.139,1.32.009,2.99.27,4.226-.271,1.859-.812,1.99-2.555,1.968-4.339-.073-6.247-.3-12.491-.346-18.738a.358.358,0,0,0-.716,0Z" transform="translate(-3783.065 212.836)"/></g><g transform="translate(3803.631 -225.337)"><path d="M3817.294-212.382a5.906,5.906,0,0,0,2.46.635,22.186,22.186,0,0,0,2.7.156,6.7,6.7,0,0,0,2.174-.312,2.379,2.379,0,0,0,1.557-1.207.212.212,0,0,0-.258-.26,14.37,14.37,0,0,1-1.744.793,7.69,7.69,0,0,1-1.981.2c-.791-.007-1.585-.035-2.371-.118s-1.6-.365-2.4-.379a.269.269,0,0,0-.135.5Z" transform="translate(-3817.169 213.383)"/></g><g transform="translate(3760.062 -225.86)"><path d="M3768.741-213.572a12.322,12.322,0,0,0,5.376,2.049,15.95,15.95,0,0,0,2.815.177c.784-.022,2.032.052,2.647-.505a.284.284,0,0,0-.124-.469,2.827,2.827,0,0,0-1.342.035q-.634.077-1.272.1a15,15,0,0,1-2.657-.125,19.834,19.834,0,0,1-5.229-1.633.214.214,0,0,0-.215.37Z" transform="translate(-3768.64 213.965)"/></g><g transform="translate(3799.962 -251.835)"><path d="M3825.528-215.293a14.338,14.338,0,0,0,7.659-14.413,14.408,14.408,0,0,0-9.927-11.778c-3.027-.947-6.776-1.813-9.938-1.122-.388.085-.266.627.089.655a43.69,43.69,0,0,1,10.135,1.6,12.917,12.917,0,0,1,7.268,6.148,13.622,13.622,0,0,1-5.593,18.382c-.347.187-.041.707.308.528Z" transform="translate(-3813.082 242.855)"/></g><path d="M3768.147-217.651c-3.967-2.352-5.909-5.152-5.992-9.768,0,0,.275-.275,1.173.024s1.546-.7.7-1.9a9.448,9.448,0,0,0-3.94-2.846c-1.048-.3-.6-.7,1.446-.9s12.021-.3,12.569-.3.449-.649-1.5-1.748a6.129,6.129,0,0,0-3.342-.949,7.581,7.581,0,0,1,3.691.25c1.846.649.15-1.748-2.294-2.248s-3.042-.649-3.042-.649,2.194.45,1.346-.45-2.993-1-2.993-1,.9-1.2,4.589-2.447a24.618,24.618,0,0,1,8.679-.75s1.159-8.418,5.567-10.927,11.99-4.707,17.925-.561a16.993,16.993,0,0,1,6.683,11.139s12.869-.5,16.409,8.042-1.546,16.084-4.239,17.831-10.324,1.1-10.324,1.1.648,17.483.8,19.181a4.116,4.116,0,0,1-2.02,3.5c-.407.081-20.942.027-28.455,0a2.846,2.846,0,0,1-2.829-2.794c-.159-6.613.307-14.548-.064-20.71C3778.689-217.529,3770.847-216.05,3768.147-217.651Z" transform="translate(-7.647 -7.539)"/><g transform="translate(3758.795 -251.825)"><path d="M3780.239-242.344a11.438,11.438,0,0,0-6.9.091,18.481,18.481,0,0,0-5.913,2.552c-.469.329-.021,1.109.454.776a18.339,18.339,0,0,1,5.587-2.493,18.63,18.63,0,0,1,6.73-.616c.189.016.2-.251.041-.31Z" transform="translate(-3767.228 242.844)"/></g><g transform="translate(3771.416 -265.197)"><path d="M3781.946-244.368c.933-3.379,2.156-7.136,5.086-9.331a15.959,15.959,0,0,1,10.289-2.947c3.075.192,6.94,1.112,9.229,3.283,2.373,2.249,3.045,5.536,3.5,8.641.092.628,1.188.486,1.116-.151a16.957,16.957,0,0,0-2.387-7.6,11.036,11.036,0,0,0-6.4-4.3,19.35,19.35,0,0,0-8.743-.718,14.79,14.79,0,0,0-8.257,3.944,16.714,16.714,0,0,0-4.084,9c-.058.421.536.618.656.182Z" transform="translate(-3781.286 257.717)"/></g><g transform="translate(3754.617 -316.332)"><g transform="translate(1.009)"><path d="M3763.729-313.77c1.341,4.091,3,8.057,4.683,12.016q1.243,2.918,2.536,5.816c.886,1.984,1.7,4.053,2.735,5.964a1.3,1.3,0,0,0,1.633.536,1.335,1.335,0,0,0,.757-1.545,4.893,4.893,0,0,0-.729-2.149c-.351-.468-1.238-.683-1.538,0a5.205,5.205,0,0,0-.3,2.5l2.437-.661c-.84-1.924-1.9-3.775-2.82-5.661q-1.415-2.887-2.787-5.8c-1.81-3.837-3.522-7.72-5.413-11.52a.655.655,0,0,0-1.192.5Z" transform="translate(-3763.698 314.592)"/></g><g transform="translate(0 10.41)"><path d="M3762.754-296.569a59.646,59.646,0,0,0,9.52,7.8c.893.608,1.946,1.193,2.954.432a3.63,3.63,0,0,0,1-2.491c.32-1.708.741-3.4,1.153-5.085.233-.956.464-1.911.677-2.87.238-1.07.749-2.494.314-3.558a.916.916,0,0,0-1.512-.4,5.21,5.21,0,0,0-.984,2.559c-.185.812-.384,1.62-.591,2.427-.38,1.481-.785,2.955-1.1,4.451q-.254,1.191-.45,2.392c-.033.2-.06.407-.1.609-.061.285-.133.22.263.027.415-.2.324-.135.035-.3-.241-.138-.48-.279-.719-.42q-2.37-1.4-4.631-2.973c-1.7-1.181-3.349-2.429-5-3.667-.634-.475-1.342.531-.824,1.071Z" transform="translate(-3762.575 303.014)"/></g><g transform="translate(96.019 101.522)"><path d="M3869.748-200.435c4.778,3.952,9.59,7.865,14.5,11.656a1.2,1.2,0,0,0,1.631-.429,1.2,1.2,0,0,0-.428-1.633,4.054,4.054,0,0,0-1.552-.419.65.65,0,0,0-.622.817,3.422,3.422,0,0,0,.544,1.234l1.63-1.633c-4.872-3.671-9.841-7.215-14.833-10.72-.659-.462-1.495.606-.867,1.126Z" transform="translate(-3869.526 201.674)"/></g><g transform="translate(94.818 100.567)"><path d="M3874.375-189.64c-1.277-4.141-2.651-8.235-4.1-12.317l-1.016,1.337q3.84.49,7.681.966l3.785.468c.988.122,2.529.213,2.74-1.123a.925.925,0,0,0-1.34-1.031,4.2,4.2,0,0,1-.844-.066c-.594-.059-1.188-.133-1.782-.2l-3.339-.373q-3.45-.386-6.9-.754a1.06,1.06,0,0,0-1.017,1.336c1.562,4.127,3.2,8.209,4.932,12.265.295.69,1.423.2,1.2-.509Z" transform="translate(-3868.189 202.737)"/></g><g transform="translate(69.589 10.836)"><path d="M3856.179-302.326l-15.818,15.477c-.846.829.466,2.144,1.3,1.3l15.56-15.736a.737.737,0,0,0-1.042-1.043Z" transform="translate(-3840.087 302.54)"/></g><g transform="translate(69.119 14.942)"><path d="M3844.334-297.605c-.818,1.911-1.469,3.893-2.215,5.832-.738,1.92-1.572,3.8-2.431,5.662a1.154,1.154,0,0,0,1.283,1.671q3.365-.695,6.73-1.393l3.256-.673,1.737-.36a2.09,2.09,0,0,0,1.594-.83.953.953,0,0,0-.335-1.279,2.3,2.3,0,0,0-1.854-.049l-1.738.354L3847.1-288l-6.737,1.371,1.284,1.671c.894-1.942,1.675-3.937,2.387-5.953a33.529,33.529,0,0,0,1.68-6.106.775.775,0,0,0-.439-.9.747.747,0,0,0-.946.311Z" transform="translate(-3839.563 297.973)"/></g><g transform="translate(94.5 68.102)"><path d="M3888.594-237.371c-3.487-.021-6.941-.356-10.407-.7-1.53-.151-3.059-.321-4.589-.46q-1.127-.1-2.256-.183a17.235,17.235,0,0,0-2.357-.121,1.172,1.172,0,0,0-1.143,1.011,1.151,1.151,0,0,0,.834,1.279c1.582.236,3.237.2,4.835.315q2.294.162,4.586.323c3.492.24,7,.318,10.5.306a.886.886,0,0,0,0-1.77Z" transform="translate(-3867.834 238.846)"/></g><g transform="translate(93.33 63.405)"><path d="M3875.263-244c-1.874.9-3.756,1.781-5.641,2.66a9.846,9.846,0,0,0-2.46,1.259,1.91,1.91,0,0,0-.331,2.454,12.9,12.9,0,0,0,1.835,2.1c.664.7,1.344,1.382,2.045,2.042s1.421,1.3,2.156,1.925,1.62,1.679,2.648,1.088a1.012,1.012,0,0,0,.45-1.107.991.991,0,0,0-1.437-.635.77.77,0,0,0-.389.679l0,.046c.015.366.331.795.744.745l.039-.005-.677-.389.022.04-.113-.418v.058l.12-.445-.022.049.556-.429c.375.085.471.065.288-.057l-.239-.2-.475-.4q-.434-.367-.859-.743c-.594-.522-1.176-1.059-1.752-1.6q-.825-.78-1.62-1.591a15.129,15.129,0,0,1-1.552-1.653,1.6,1.6,0,0,1-.135-.229c.069.142-.162.191.077.051s.458-.3.694-.441c.736-.427,1.481-.837,2.224-1.252q2.229-1.246,4.469-2.468c.753-.41.091-1.5-.666-1.14Z" transform="translate(-3866.531 244.07)"/></g></g><g transform="translate(3776.711 -220.09)"><path d="M3807.209-198.237a60.216,60.216,0,0,0-7.584-.486c-3.008-.078-6.018-.1-9.026-.146-1.024-.014-2.712-.361-3.289.739a1.123,1.123,0,0,0,.26,1.355,2.611,2.611,0,0,0,1.931.421c2.88.006,5.762.031,8.642-.009a77.317,77.317,0,0,0,8.862-.37C3807.765-196.831,3808.148-198.093,3807.209-198.237Z" transform="translate(-3787.184 206.677)" fill="#f7f6f4"/><path d="M3790.115-205.276c.957.061,1.921.082,2.88.1s1.913.028,2.87.032c.833,0,2.215.242,2.8-.465a1.07,1.07,0,0,0,0-1.469c-.642-.7-1.937-.415-2.8-.4-1,.019-2,.026-3.005.035-.97.009-1.948-.011-2.918.032-.819.036-2.445-.043-2.24,1.2C3787.854-205.284,3789.39-205.322,3790.115-205.276Z" transform="translate(-3787.235 207.547)" fill="#f7f6f4"/></g><g transform="translate(3696.385 -331.833)"><path d="M3702.555-318.644a10.661,10.661,0,0,1,3.512-8.182,17.87,17.87,0,0,1,7.775-3.908,34,34,0,0,1,13.372-.762c1.607.227,3.518.851,4,2.53a4.553,4.553,0,0,1-.727,3.34,31.83,31.83,0,0,1-5.883,7.751l-1.492,1.15a9.565,9.565,0,0,1-7.3,2.721,80.784,80.784,0,0,1-8.372-.932,1.47,1.47,0,0,0-1.262.269,1.425,1.425,0,0,0-.214,1.143,13.426,13.426,0,0,0,1.138,4.057l3.565,6.253-2.094.041s-1.329-4.032-3.391-5.137a4.122,4.122,0,0,0-3.52-.424,23.009,23.009,0,0,1-2.908-4.656,9.4,9.4,0,0,1-1.048-3.834,4.343,4.343,0,0,1,1.56-3.531,2.856,2.856,0,0,1,3.657.141" transform="translate(-3697.712 331.833)"/><g transform="translate(3.069 22.079)"><path d="M3705.783-306.962a26.52,26.52,0,0,0,2.508,6.33c.256.458.912.026.681-.431-1.155-2.282-2.408-5.733-5.4-5.987a2.176,2.176,0,0,0-1.787.546,2.637,2.637,0,0,0-.654,1.724,4.459,4.459,0,0,0,1.3,3.16,3.915,3.915,0,0,0,3.6,1.341.489.489,0,0,0-.028-.937,5.376,5.376,0,0,1-2.394-.963,3.663,3.663,0,0,1-1.332-2.195,2.1,2.1,0,0,1,.121-1.286,1.158,1.158,0,0,1,1.293-.507,3.964,3.964,0,0,1,2.49,1.738,32.009,32.009,0,0,1,2.109,3.8l.681-.431a29.946,29.946,0,0,1-2.716-6.044.248.248,0,0,0-.473.144Z" transform="translate(-3701.13 307.275)"/></g><g transform="translate(26.309 20.785)"><path d="M3728.918-308.128l-.134-.112a3.707,3.707,0,0,0-.3-.225l-.137-.093a.671.671,0,0,0-.26-.117.752.752,0,0,0-.232-.024.281.281,0,0,1-.039,0l.2.022a.771.771,0,0,0-.47,0,.753.753,0,0,0-.333.209.762.762,0,0,0-.18.337c-.005.053-.022.15-.021.2l.033.2a1.551,1.551,0,0,0,.088.192l.03.055-.088-.193,0,.012-.035-.212a.954.954,0,0,0,.137.465l.139.167.021.021.026.025.119.118a3.348,3.348,0,0,0,.261.21.649.649,0,0,0,.281.166.645.645,0,0,0,.324.062.645.645,0,0,0,.332-.084.64.64,0,0,0,.276-.19l.126-.179a.852.852,0,0,0,.1-.427l-.037-.227a.855.855,0,0,0-.237-.381Z" transform="translate(-3727.016 308.715)"/></g><g transform="translate(17.132 23.19)"><path d="M3716.827-305.069a1.094,1.094,0,0,0,.1.222l.013.018.006.008c.042.052.088.11.132.159l.016.015.162.115a.626.626,0,0,0,.189.072h.009a1.191,1.191,0,0,0,.238.022l.02,0c.067-.009.139-.021.207-.033l.01,0a.213.213,0,0,0,.041-.014c.058-.024.128-.057.185-.085l.009,0,.019-.011a1.266,1.266,0,0,0,.173-.144l.1-.147a.527.527,0,0,0,.074-.261.356.356,0,0,0-.005-.185.537.537,0,0,0-.094-.267l-.118-.141-.147-.105a.535.535,0,0,0-.26-.074.535.535,0,0,0-.279.021h0l.188-.031a.207.207,0,0,1-.052,0l.186.02a.214.214,0,0,1-.052-.013l.177.067a.243.243,0,0,1-.054-.029l.159.113a.174.174,0,0,1-.024-.021l-.005-.005-.161-.115-.185-.07-.017-.005.184.07a.215.215,0,0,1-.045-.023l.158.112a.187.187,0,0,1-.025-.022l-.156-.111a.564.564,0,0,0-.276-.079.374.374,0,0,0-.2.006.56.56,0,0,0-.282.1l-.15.124-.111.157a.561.561,0,0,0-.08.277.567.567,0,0,0,.023.3Z" transform="translate(-3716.794 306.039)"/></g><g transform="translate(23.446 21.452)"><path d="M3723.907-307.8l-.029.042a.4.4,0,0,0,.014.411c.338.568.787,1.073,1.174,1.608.376.52.735,1.051,1.07,1.6a20.267,20.267,0,0,1,1.791,3.452,2.149,2.149,0,0,1,.082.314.353.353,0,0,1,.169-.266l-.036.023c0-.007.092-.018-.041.005-.094.017-.094.021-.126.024a6.907,6.907,0,0,1-1.056.014c-.656-.015-1.319-.038-1.945,0a.367.367,0,0,0-.162.685,5.7,5.7,0,0,0,2.322.552c.713.046,1.923.036,2.076-.872a3.7,3.7,0,0,0-.656-2c-.338-.692-.708-1.369-1.112-2.025a21.189,21.189,0,0,0-1.328-1.893,9.113,9.113,0,0,0-1.6-1.737.428.428,0,0,0-.5-.046.339.339,0,0,0-.112.111Z" transform="translate(-3723.827 307.973)"/></g><g transform="translate(19.209 32.141)"><path d="M3723.363-293.224a1.744,1.744,0,0,1,1.415.128l.077-.78a6.391,6.391,0,0,0-1.142.506,5.95,5.95,0,0,1-1.051.373,2.539,2.539,0,0,1-1.615-.086,1.587,1.587,0,0,1-.594-.434c-.018-.022-.07-.1-.1-.146-.009-.015-.075-.159-.044-.084a1.558,1.558,0,0,1-.058-.172s-.04-.178-.026-.092a1.886,1.886,0,0,1-.016-.351s.021-.127.031-.165c0-.014.047-.165.021-.092a1.035,1.035,0,0,1,.074-.158s.094-.136.046-.076a.564.564,0,0,1,.245-.207l-.676-.063a7.487,7.487,0,0,0,2.361,1.719,7.9,7.9,0,0,0,1.38.493,2.286,2.286,0,0,0,1.6.016.439.439,0,0,0,.064-.69,1.521,1.521,0,0,0-.681-.263c-.216-.046-.432-.089-.646-.14a6.349,6.349,0,0,1-1.218-.421,6.738,6.738,0,0,1-2.1-1.531.563.563,0,0,0-.675-.063,2.015,2.015,0,0,0-.921,1.9,2.348,2.348,0,0,0,1.176,1.857,3.4,3.4,0,0,0,2.3.361,5.387,5.387,0,0,0,1.428-.482,4.313,4.313,0,0,0,1.273-.814.43.43,0,0,0-.321-.714,4.457,4.457,0,0,0-1.7.453c-.124.058-.028.263.1.218Z" transform="translate(-3719.108 296.084)"/></g><g transform="translate(21.684 15.024)"><path d="M3727.647-314.809a24.436,24.436,0,0,1,3.023,12.554,23.253,23.253,0,0,1-1.075,6.4,14.252,14.252,0,0,1-2.075,4.361,7.344,7.344,0,0,1-2.058,1.875,6.213,6.213,0,0,1-1.455.628,19.106,19.106,0,0,0-1.893.427.367.367,0,0,0,.021.7,4.638,4.638,0,0,0,3.047-.517,7.569,7.569,0,0,0,2.259-1.6,11.769,11.769,0,0,0,2.445-4.065,24.08,24.08,0,0,0,1.082-13.7,22.852,22.852,0,0,0-2.977-7.289c-.138-.225-.472-.011-.344.218Z" transform="translate(-3721.865 315.122)"/></g><g transform="translate(11.14 34.07)"><path d="M3722.335-286.673a8.813,8.813,0,0,1-6.409-1.473,17.576,17.576,0,0,1-4.879-5.559.5.5,0,0,0-.852.539,16.989,16.989,0,0,0,5.375,6.022,8.223,8.223,0,0,0,6.948,1.074.315.315,0,0,0-.183-.6Z" transform="translate(-3710.12 293.938)"/></g><g transform="translate(8.297 28.492)"><path d="M3708.075-289.989a62.3,62.3,0,0,0,.558,7.949,11.04,11.04,0,0,1,1.378.649c-.2-1.277-.412-2.545-.519-3.843-.144-1.733-.218-3.47-.319-5.206-.185-3.2-.3-6.722-1.826-9.608-.094-.179-.423-.089-.393.12.233,1.637.556,3.26.749,4.9C3707.9-293.35,3708-291.671,3708.075-289.989Z" transform="translate(-3706.953 300.143)"/></g><path d="M3704.429-300.149l4.242,8.665s-.032-4.389-.293-5.969-.828-3.211-2.61-3.03S3704.429-300.149,3704.429-300.149Z" transform="translate(-3698.393 328.67)"/><g transform="translate(12.001 2.145)"><path d="M3711.15-317.86a14.868,14.868,0,0,0,3.784.185,9.707,9.707,0,0,0,3.462-.788,1.883,1.883,0,0,0,1.152-2.223c-.374-1.022-1.588-1.331-2.522-1.59l-.049.2a11.778,11.778,0,0,0,2.675.253,4.718,4.718,0,0,0,2.416-.533c.486-.292,1.093-.891.691-1.489a1.963,1.963,0,0,0-.9-.587c-.492-.218-.982-.437-1.466-.671l-.11.29a6.069,6.069,0,0,0,5.97-1.7c.547-.577,1.608-1.879.7-2.582a2.37,2.37,0,0,0-1.352-.345,12.549,12.549,0,0,0-2.1.079,23.7,23.7,0,0,0-4.7,1.082.107.107,0,0,0,.061.2c2.31-.528,4.616-1.32,7.023-1.079.6.059,1.319.327,1.043,1.072a4.087,4.087,0,0,1-.889,1.3,5.859,5.859,0,0,1-2.438,1.536,5.826,5.826,0,0,1-3.249.129c-.168-.041-.278.221-.11.29a12.07,12.07,0,0,1,2.014.914c.962.634-.542,1.433-1.091,1.6a10.7,10.7,0,0,1-4.172.03c-.119-.012-.139.19-.023.209a4.083,4.083,0,0,1,1.477.422,1.8,1.8,0,0,1,.949,1.24c.166,1.175-1.11,1.789-2.036,2.045a14.613,14.613,0,0,1-6.172.32c-.119-.019-.165.163-.044.184Z" transform="translate(-3711.079 329.447)" fill="#b6b6b7"/></g></g><path d="M3822.749-275.76c0,.16.186.1.3.1q2.354.013,4.71.016c.216,0,.351.041.438.184v0c1.061.021,2.124-.009,3.19-.066-.024-.1.021-.1.281-.1l1.247.005a77.614,77.614,0,0,1,9.681-.424c2.612.141,5.181.419,7.821.421.726,0,1.456-.005,2.185-.005a.656.656,0,0,1,.127-.106c.11-.053.113.058.177.107.488,0,.974.009,1.46.023l1.184,0c.162,0,.221-.049.158-.159s-.109-.211-.159-.317c-.032-.067,0-.126.08-.174a.132.132,0,0,1,.125-.019c.071.033.055.087.051.138a.674.674,0,0,0,0,.1.078.078,0,0,0,.072.071.1.1,0,0,0,.1-.05c.045-.077.138-.167.08-.236-.115-.133-.026-.233.1-.329s.1-.146-.019-.2a4.178,4.178,0,0,0-.958-.281.4.4,0,0,0-.311.051c-.069.048-.136.078-.173-.018a.249.249,0,0,0-.273-.194c-.2,0-.253.112-.329.214a.263.263,0,0,1-.4.055.256.256,0,0,0-.245-.031c-.31.148-.4.038-.421-.215-.159.279-.269.178-.38.071a.76.76,0,0,0-.741-.085c-.32.141-.458.129-.673-.081-.085-.084-.164-.03-.233,0a.951.951,0,0,1-.894-.041c-.411-.227-.481-.2-.808.111-.093.087-.138.251-.361.119-.108-.063-.353.068-.387-.136-.013-.085-.178-.166-.3-.214s-.17.077-.256.12a.369.369,0,0,1-.415-.038c-.183-.175-.4-.138-.646-.067a.48.48,0,0,1-.472-.038c-.08-.072-.164-.038-.264,0a.823.823,0,0,1-.542.076,3.037,3.037,0,0,1-.519-.245c-.142-.107-.267-.06-.3.052-.051.2-.146.12-.277.067a.948.948,0,0,1-.18-.106.188.188,0,0,0-.167-.04c-.084.022-.09.075-.113.126-.034.076.075.15-.027.249l-.1-.23a.266.266,0,0,0-.271-.15c-.138,0-.134.093-.153.162s-.115.105-.2.121a.143.143,0,0,1-.16-.08.973.973,0,0,0-.261-.277c-.159-.129-.257-.125-.435.009-.436.326-.368.324-.614-.032-.07-.1-.143-.13-.32-.067s-.359.2-.585.141a1,1,0,0,0-.662-.045.157.157,0,0,1-.1-.023.425.425,0,0,0-.362-.006.29.29,0,0,1-.373-.06.134.134,0,0,0-.159-.039,1.147,1.147,0,0,1-.866-.062c-.214-.087-.312-.07-.452.076-.09-.143-.236-.144-.409-.092-.1.031-.213.052-.312.088-.151.054-.28.047-.355-.049-.119-.151-.217-.314-.522-.116a.75.75,0,0,0-.651.2c-.148.1-.2.065-.251-.031-.1-.2-.451-.167-.615-.311a.155.155,0,0,0-.185.05c-.053.111-.234.174-.237.307,0,.075-.1.126-.215.131-.237.011-.432-.158-.7-.045a.034.034,0,0,1-.024,0c-.034-.163-.292-.156-.4-.258-.043-.04-.072-.094-.164-.066-.075.023-.065.079-.063.12.012.158-.111.183-.3.173-.125-.007-.131-.105-.211-.123-.181-.042-.066.153-.172.136-.143-.022-.293-.026-.428-.058-.062-.014-.092-.107-.188-.049-.079.046-.029.107,0,.159s.088.127-.022.171c-.13.053-.163-.046-.225-.088s-.056-.132-.161-.1a.4.4,0,0,1-.459-.12c-.065-.052-.15-.15-.259-.062-.21.171-.421.1-.641.073-.026.04.032.085-.031.126a1.052,1.052,0,0,1-.7,0c-.037-.026-.079-.071-.119-.068a.551.551,0,0,1-.5-.234.2.2,0,0,0-.27-.044,1.116,1.116,0,0,1-.357.133c-.1.037-.234.02-.294.1-.134.171-.24.111-.332,0s-.17-.122-.285-.009c-.048.046-.109.1-.176.041-.17-.136-.285-.069-.409.056a.3.3,0,0,1-.162.072,2.611,2.611,0,0,0-1.154.463c-.082.052-.2.134-.286.11-.375-.1-.445.132-.551.271a.311.311,0,0,1-.3.132,1.061,1.061,0,0,0-.4.075.483.483,0,0,0-.352.317.243.243,0,0,1-.194.154C3822.713-276.063,3822.749-275.9,3822.749-275.76Z" transform="translate(-14.108 -5.414)"/><g transform="translate(3777.668 -282.64)"><path d="M3852.024-276.745c-7.934.008-15.873-.206-23.807-.287q-13.344-.138-26.693-.049c-4.125.03-8.293-.036-12.409.261a.9.9,0,0,0,0,1.8c7.933-.04,15.864-.279,23.8-.275,8.9.005,17.8.134,26.7.012,4.138-.058,8.277-.17,12.414-.293a.583.583,0,0,0,0-1.166Z" transform="translate(-3788.25 277.118)"/></g><g transform="translate(3840.132 -282.21)"><path d="M3859.382-275.933l-.569.177.011.294a2.93,2.93,0,0,0,.014.606c.007.426.008.853.015,1.279q.02,1.381,0,2.762c-.022,1.94-.082,3.88-.113,5.821-.039,2.382.028,4.761.044,7.141.03,4.76-.042,9.519-.1,14.278-.127,10.015-.38,20.033-.349,30.049q.02,6.338-.135,12.674c-.051,2.2-.117,4.406-.185,6.609a44.254,44.254,0,0,0-.035,7.306c.126.922,1.642.875,1.813,0a41.769,41.769,0,0,0,.343-6.918q.073-3.055.132-6.11c.076-3.955.119-7.91.1-11.866q-.034-7.078.034-14.155c.088-10.917.295-21.841.171-32.758-.039-3.541-.021-7.085-.1-10.626a36.313,36.313,0,0,0-.435-6.258c-.092-.457-.343-1.108-.941-1a.57.57,0,0,0-.4.879.368.368,0,0,0,.68-.184Z" transform="translate(-3857.825 276.64)"/></g><g transform="translate(3725.789 -282.273)"><path d="M3770.08-276.679q-16.327-.072-32.653.014c-2.091.01-4.182.017-6.272.034a.7.7,0,0,0-.688.69q.011,4.05.012,8.1a62.863,62.863,0,0,0,.161,6.861,53.336,53.336,0,0,1,.3,5.952c0,1,.049,2.008.049,3.011a.168.168,0,0,0,.336,0,56.34,56.34,0,0,1,.218-8.15c.62-4.173.286-8.549.294-12.762q0-1.506.007-3.011l-.688.689c10.884-.036,21.77.1,32.653-.038,2.091-.026,4.182-.049,6.272-.083a.654.654,0,0,0,0-1.306Z" transform="translate(-3730.464 276.71)"/></g><g transform="translate(3769.909 -283.939)"><path d="M3779.717-275.588a5.888,5.888,0,0,0,5.695,1.246,9.41,9.41,0,0,0,2.853-1.585,10.881,10.881,0,0,1,1.429-.9c.5-.25,1.27-.345,1.618-.789a.542.542,0,0,0-.235-.889,2.039,2.039,0,0,0-1.457.272,9.088,9.088,0,0,0-1.409.722,20.442,20.442,0,0,1-2.6,1.725,6.527,6.527,0,0,1-5.45-.378.365.365,0,0,0-.44.571Z" transform="translate(-3779.608 278.563)"/></g><g transform="translate(3767.241 -288.063)"><path d="M3777.046-277.076c3.688-1.565,7.414-3.236,11.214-4.508a6.009,6.009,0,0,1,3.434-.412,8.45,8.45,0,0,1,2.385,1.211c1.716,1.127,3.226,2.674,5.047,3.62.574.3,1.3-.5.733-.951a63.138,63.138,0,0,0-5.484-3.785,6.438,6.438,0,0,0-5.481-1.01c-4.26,1.171-8.177,3.448-12.121,5.371-.316.154-.039.6.271.464Z" transform="translate(-3776.635 283.15)"/></g><g transform="translate(3774.316 -286.118)"><path d="M3784.879-278.8c.717-.183,1.474-.264,2.206-.383s1.471-.253,2.209-.353q.541-.073,1.084-.128a1.968,1.968,0,0,1,.841-.009c.181.071.184.266.19.441a1.84,1.84,0,0,1-.11.658.633.633,0,0,0,.77.771c.9-.183.771-1.671.489-2.293-.409-.9-1.35-.971-2.21-.829-.936.155-1.865.359-2.786.589-.978.245-1.888.65-2.839.967a.3.3,0,0,0,.156.569Z" transform="translate(-3784.516 280.986)"/></g><g transform="translate(3766.287 -284.851)"><path d="M3778.933-277.922a.94.94,0,0,0,.046-.329c0-.058-.008-.038-.021.064.011-.058.019-.115.024-.174-.022.165-.019.148.007-.051l-.021-.162a1.164,1.164,0,0,0-.488-.736,1.61,1.61,0,0,0-.775-.262,1.659,1.659,0,0,0-.859.2,2.1,2.1,0,0,0-.964,1.011,2.972,2.972,0,0,0-.24.741c-.071.431-.177,1.012.225,1.325l-.138-.179.021.028.309-1.18-.021.012.2-.085c-.1.04-.189.065-.291.109l.176-.074a.748.748,0,0,0-.384.253.749.749,0,0,0-.156.458.978.978,0,0,0,.3.682.846.846,0,0,0,.724.237.887.887,0,0,0,.628-.412l.021-.028-.318.317a1.278,1.278,0,0,0,.274-.248,1.027,1.027,0,0,0,.168-.331,1.348,1.348,0,0,0,.036-.4,3.207,3.207,0,0,1,.023-.375l-.032.24a2.154,2.154,0,0,1,.141-.532l-.088.21a1.549,1.549,0,0,1,.175-.3l-.135.175a1.422,1.422,0,0,1,.24-.243l-.171.133a1.282,1.282,0,0,1,.231-.138l-.2.085a1.45,1.45,0,0,1,.319-.087l-.215.03a.875.875,0,0,1,.217,0l-.208-.028c.134.021.265.067.4.1s-.139-.062-.037-.014a.7.7,0,0,0,.19.073c-.17-.12-.222-.147-.157-.077l-.045-.055s.079.178.02.022a.457.457,0,0,0,.427.325.459.459,0,0,0,.426-.325Z" transform="translate(-3775.573 279.577)"/></g><g transform="translate(3750.057 -282.932)"><path d="M3757.887-275.243c1.6.048,3.188.174,4.788.223s3.188-.028,4.788-.063,3.192-.044,4.787-.067a5.316,5.316,0,0,0,2.151-.105,1.25,1.25,0,0,0,.605-1.439,1.011,1.011,0,0,0-1.237-.7l-.056.02c-.71.262-1.068,1.406-.234,1.8l.049.023-.361-1.378q.771-.494.041-.271l-.32.018c-.371.032-.745.041-1.117.062l-1.915.107c-1.33.075-2.658.146-3.99.194-2.684.1-5.313.5-7.98.767a.408.408,0,0,0,0,.815Z" transform="translate(-3757.496 277.443)"/></g><g transform="translate(3730.703 -275.528)"><path d="M3738.376-267.82a.7.7,0,0,0-.155-.216c-.057-.058-.383-.316-.057-.042a.94.94,0,0,0-.635-.263,1.031,1.031,0,0,0-.635.263,1.848,1.848,0,0,0-.4.5,2.2,2.2,0,0,0-.246.605,2.05,2.05,0,0,0-.062.647,1.318,1.318,0,0,0,.578,1.024,2.91,2.91,0,0,0,1.329.361,2.6,2.6,0,0,0,1.177-.157,2.387,2.387,0,0,0,.69-.4,2.407,2.407,0,0,0,.4-.444,1.982,1.982,0,0,0,.4-1.109,2.129,2.129,0,0,0-1.126-1.863,2.3,2.3,0,0,0-2.241.012,3,3,0,0,0-1.356,1.713,1.967,1.967,0,0,0,.1,1.5,1.879,1.879,0,0,0,1.067.881,2.3,2.3,0,0,0,2.4-.685,1.865,1.865,0,0,0,.5-1.364,1.716,1.716,0,0,0-.773-1.346,1.44,1.44,0,0,0-1.521.016,1.423,1.423,0,0,0-.637,1.569.92.92,0,0,0,.865.661.929.929,0,0,0,.766-.375,1,1,0,0,0,.2-.575.742.742,0,0,0-.382-.667c-.069-.031-.031,0,.114.1a1.728,1.728,0,0,0-.189-.146.969.969,0,0,0-.508-.132l.866.66a.349.349,0,0,1-.018-.075l.032.239a.7.7,0,0,1,0-.111l-.031.239a.632.632,0,0,1,.028-.106l-.091.214a.8.8,0,0,0,.043-.083c.021-.066-.152.17-.058.077s-.09.072-.093.066a.672.672,0,0,1,.1-.058l-.215.091a.756.756,0,0,1,.148-.044l-.239.032a.62.62,0,0,1,.153,0l-.238-.032a.826.826,0,0,1,.111.032l-.215-.091c.031.014.069.042.1.053-.124-.1-.159-.129-.106-.083a.421.421,0,0,1,.041.039c.1.094-.113-.192-.047-.059.018.035.038.067.054.1l-.091-.215a1.013,1.013,0,0,1,.063.227l-.032-.239a.956.956,0,0,1-.005.2l.032-.241a1.075,1.075,0,0,1-.058.2l.091-.218a1.219,1.219,0,0,1-.13.221l.144-.187a1.39,1.39,0,0,1-.215.215l.189-.147a1.656,1.656,0,0,1-.34.2l.227-.1a1.946,1.946,0,0,1-.437.126l.255-.034a1.447,1.447,0,0,1-.358,0l.256.034a1.27,1.27,0,0,1-.23-.061l.231.1a1.333,1.333,0,0,1-.256-.147l.2.151a1.073,1.073,0,0,1-.179-.176l.151.194a.9.9,0,0,1-.1-.18l.1.228a1.05,1.05,0,0,1-.05-.18l.034.254a1.246,1.246,0,0,1,0-.307l-.034.252a2.051,2.051,0,0,1,.13-.457l-.094.223a2.359,2.359,0,0,1,.284-.488l-.144.187a2.152,2.152,0,0,1,.333-.337l-.184.143a1.826,1.826,0,0,1,.4-.237l-.216.091a1.761,1.761,0,0,1,.369-.1l-.236.031a1.389,1.389,0,0,1,.323,0l-.233-.031a1.243,1.243,0,0,1,.18.036c.041.011.219.081.069.019s.039.026.077.05l.068.045c.115.076-.135-.117-.063-.048.04.038.079.072.115.112.07.076,0,.067-.045-.066a.452.452,0,0,0,.04.068c.005.009.04.062.035.07s-.073-.217-.044-.1c.016.064.034.125.044.191l-.031-.234a1.152,1.152,0,0,1,0,.243l.031-.236a1.408,1.408,0,0,1-.089.327l.091-.215a1.567,1.567,0,0,1-.134.242c-.048.076.161-.181.028-.051a1.443,1.443,0,0,1-.114.1l.185-.142a1.945,1.945,0,0,1-.414.236l.223-.094a1.894,1.894,0,0,1-.444.113l.25-.033a2.508,2.508,0,0,1-.586-.01l.251.033a2.915,2.915,0,0,1-.656-.173l.227.1a.648.648,0,0,1-.11-.066l.192.149-.03-.031.148.193a.317.317,0,0,1-.044-.07l.1.227a.873.873,0,0,1-.043-.163l.034.253a1.475,1.475,0,0,1,0-.336l-.033.248a1.526,1.526,0,0,1,.1-.377l-.093.218c.028-.06.06-.116.091-.174q.078-.117-.054.069a.549.549,0,0,1,.07-.062.883.883,0,0,0,.231-.875l0-.013v.454c.024-.1-.021-.051-.136.162-.17.166-.21.227-.12.181a.671.671,0,0,0,.31-.4.8.8,0,0,0-.068-.52Z" transform="translate(-3735.937 269.208)"/></g><g transform="translate(3737.442 -275.537)"><path d="M3745.343-268.955a1.893,1.893,0,0,0-1.9,1.875,2.246,2.246,0,0,0,1.743,2.234,3.224,3.224,0,0,0,1.635.076,2.775,2.775,0,0,0,1.287-.841,2.376,2.376,0,0,0,.68-1.421,1.859,1.859,0,0,0-.521-1.371,2.428,2.428,0,0,0-1.415-.755,4.307,4.307,0,0,0-.961-.052,1.562,1.562,0,0,0-1.091.353.6.6,0,0,0,.119.926,1.3,1.3,0,0,0,.855.109c.01,0,.133-.02.042-.007l.112-.013c.113-.012.226-.022.338-.025s.2,0,.3,0a.836.836,0,0,1,.193.024c.073.017.144.034.214.058.016.005.129.051.06.021s.07.037.083.044a1.707,1.707,0,0,1,.2.127c-.092-.07.074.077.091.094-.069-.069.032.048.052.083.009.014.065.12.032.051s.02.071.026.085.029.127.009,0c.006.04,0,.081.006.12,0,.019-.009.127.006.018,0,.03-.013.06-.02.091s-.022.079-.035.119c-.033.1.038-.072-.009.021s-.093.166-.144.248c-.006.01-.07.1-.015.026-.026.034-.056.067-.083.1-.049.056-.1.11-.155.162a1.465,1.465,0,0,1-.369.29,1.256,1.256,0,0,1-.814.092,3.728,3.728,0,0,1-.5-.121.517.517,0,0,1-.157-.065c-.029-.015-.059-.031-.088-.049-.01-.005-.17-.126-.077-.046a1.646,1.646,0,0,1-.146-.146c-.068-.073.047.074-.009-.01-.022-.032-.043-.066-.063-.1s-.087-.19-.05-.086a2.1,2.1,0,0,1-.078-.285c.025.118,0-.074,0-.123s0-.079.008-.118c-.015.139.015-.04.02-.058.011-.04.088-.224.034-.115a1.733,1.733,0,0,1,.129-.221c.055-.081-.06.065.006-.007.033-.035.065-.071.1-.1s.056-.052.086-.076c-.068.056,0,0,.036-.019s.092-.058.136-.093c0,0,.156-.133.069-.063a1.543,1.543,0,0,1,.235-.144.5.5,0,0,0,.226-.555.514.514,0,0,0-.474-.361Z" transform="translate(-3743.444 269.217)"/></g><g transform="translate(3744.464 -275.461)"><path d="M3753.119-268.791a.684.684,0,0,0-.666-.335,1.077,1.077,0,0,0-.613.335,2.329,2.329,0,0,0-.534,1.163,2.127,2.127,0,0,0,.726,2.071,2.276,2.276,0,0,0,2.072.454,2.853,2.853,0,0,0,1.652-1.331,1.691,1.691,0,0,0,.2-1.266c-.116-.424-.5-.958-1-.712a.341.341,0,0,0-.174.3.629.629,0,0,0,.17.4.771.771,0,0,1,.146.192.73.73,0,0,1-.031.564,1.6,1.6,0,0,1-.971.858,1.547,1.547,0,0,1-.619.1.9.9,0,0,1-.274-.047l-.076-.023s-.079-.03-.039-.013c0,0-.1-.048-.13-.067s-.091-.056-.135-.085c-.065-.044-.006,0-.063-.05s-.09-.085-.132-.13c-.018-.019-.036-.039-.052-.059.034.044,0,0-.011-.022l-.078-.137c-.046-.081,0,.027-.027-.062-.016-.049-.032-.1-.044-.149-.005-.025-.011-.051-.015-.076-.016-.087,0,.081,0-.007a1.027,1.027,0,0,1,.046-.387c.021-.076.045-.151.071-.226.012-.031.024-.064.035-.1,0-.008.042-.1.018-.043.029-.066.06-.131.095-.194.013-.024.028-.048.043-.072,0,0,.078-.135.042-.082s.017-.019.022-.024c.048-.048.043-.018,0,0a.447.447,0,0,0,.063-.031.418.418,0,0,0,.075-.055c.1-.07.073-.061-.069.029a.47.47,0,0,0,.276-.682Z" transform="translate(-3751.266 269.133)"/></g><g transform="translate(3739.027 -246.803)"><g transform="translate(10.238 2.186)"><path d="M3756.861-230.373c3.369-.022,6.732-.1,10.1-.2l4.875-.142c.911-.027,2.48.281,2.918-.772a.421.421,0,0,0-.192-.471,17.129,17.129,0,0,0-7.062-2.489,32.5,32.5,0,0,0-3.689-.318,12.263,12.263,0,0,0-3.8.165.324.324,0,0,0,0,.619,13.661,13.661,0,0,0,3.348.255c1.262.07,2.524.129,3.779.291a19.015,19.015,0,0,1,7,2.2l-.191-.471c-.1.276-1.867.179-2.115.188l-2.089.074-4.353.156q-4.27.154-8.532.4a.258.258,0,0,0,0,.516Z" transform="translate(-3756.612 234.827)"/></g><g transform="translate(11.464)"><path d="M3771.154-236.117a27.843,27.843,0,0,0-6.554-1.12,26.568,26.568,0,0,0-3.341.076,8.328,8.328,0,0,0-3.118.6.33.33,0,0,0,.165.609,6.306,6.306,0,0,0,1.527-.156c.514-.073,1.029-.126,1.544-.175a28.578,28.578,0,0,1,3.223-.128,28.176,28.176,0,0,1,6.415.8.264.264,0,0,0,.14-.508Z" transform="translate(-3757.979 237.258)"/></g><g transform="translate(0 9.478)"><path d="M3763.033-224.431a28.379,28.379,0,0,0-8.592-2.036,41.194,41.194,0,0,0-4.492-.241,14.815,14.815,0,0,0-4.561.37.254.254,0,0,0,.067.5,41.089,41.089,0,0,0,4.494-.116,41.226,41.226,0,0,1,4.173.233,81.864,81.864,0,0,1,8.716,1.755c.263.058.47-.338.195-.462Z" transform="translate(-3745.209 226.716)"/></g><g transform="translate(9.337 5.611)"><path d="M3755.817-230.447a9.369,9.369,0,0,1,2.5.9,21.534,21.534,0,0,1,2.4,1.259,8.791,8.791,0,0,1,1.868,1.518,5.426,5.426,0,0,1,.633.865,5.793,5.793,0,0,0,.632,1.072.579.579,0,0,0,.976-.4,3.685,3.685,0,0,0-1.213-2.374,7.848,7.848,0,0,0-2.151-1.654,21.254,21.254,0,0,0-2.7-1.148,7.693,7.693,0,0,0-2.868-.6c-.311.007-.412.518-.076.569Z" transform="translate(-3755.609 231.018)"/></g></g><g transform="translate(3751.059 -248.115)"><path d="M3758.9-237.718a15.181,15.181,0,0,1,3.28-.384,13.45,13.45,0,0,1,3.061.12c.632.131,1.27.233,1.906.334.276.044.555.082.829.137a.845.845,0,0,1,.754.719.269.269,0,0,0,.486.064c.5-.738-.534-1.341-1.135-1.446-.783-.138-1.571-.243-2.355-.375a14.765,14.765,0,0,0-3.075-.151,16.653,16.653,0,0,0-3.874.534.232.232,0,0,0,.123.447Z" transform="translate(-3758.611 238.717)"/></g><g transform="translate(3735.735 -247.855)"><path d="M3741.7-235.579a8.947,8.947,0,0,1,4.509-2.155,13.713,13.713,0,0,1,2.518-.294,8.6,8.6,0,0,1,1.139.037c.267.029.671.193.877-.037a.223.223,0,0,0,.034-.263.255.255,0,0,0-.244-.135.2.2,0,0,0-.193.147l0,.028a.2.2,0,0,0,.356.15l.015-.023-.226.093.04.016-.146-.147.007.038.1-.245c-.089.041-.361-.031-.463-.038-.191-.01-.381-.013-.571-.017-.394-.009-.788,0-1.183.022a14.47,14.47,0,0,0-2.521.383,7.529,7.529,0,0,0-4.182,2.3c-.077.1.049.229.138.138Z" transform="translate(-3741.542 238.429)"/></g><g transform="translate(3744.75 -249.4)"><path d="M3764.653-239.408a19.119,19.119,0,0,0-6.726-.692,20.712,20.712,0,0,0-3.213.462q-.842.19-1.668.447a3.642,3.642,0,0,0-1.4.624.2.2,0,0,0,.139.337,4.914,4.914,0,0,0,1.438-.326q.784-.217,1.582-.377a24.519,24.519,0,0,1,3.226-.426,27.424,27.424,0,0,1,6.491.434.251.251,0,0,0,.133-.483Z" transform="translate(-3751.584 240.147)"/></g><g transform="translate(3743.799 -245.095)"><path d="M3750.645-235.03a2.09,2.09,0,0,1,1.359,1.667,8.62,8.62,0,0,0,.1,1.021c.133.379.588.479.923.605.934.351,1.869.694,2.8,1.055q.735.285,1.468.574a5.967,5.967,0,0,0,1.429.48c.377.044.436-.483.178-.658a6.1,6.1,0,0,0-1.405-.552q-.742-.259-1.482-.52c-.964-.342-1.92-.7-2.881-1.051-.216-.078-.412-.085-.453-.327-.028-.169-.025-.343-.055-.512a3.185,3.185,0,0,0-.36-.992,2.153,2.153,0,0,0-1.527-1.115c-.208-.033-.3.265-.089.325Z" transform="translate(-3750.524 235.358)"/></g><g transform="translate(3752.682 -272.366)"><path d="M3760.7-264.75a88.558,88.558,0,0,0,10.039.171c2.942.009,5.884-.027,8.826-.04,4.969-.02,9.938-.028,14.906.007q14.268.1,28.536.12l9.714.007a102.744,102.744,0,0,0,11.2-.09.464.464,0,0,0,0-.927,92.068,92.068,0,0,0-10.039-.09l-8.826.006-14.907.011c-9.512.006-19.022.162-28.535.125-3.238-.013-6.476-.054-9.715-.05a97.369,97.369,0,0,0-11.2.174.288.288,0,0,0,0,.576Z" transform="translate(-3760.419 265.69)"/></g><g transform="translate(3752.617 -274.582)"><path d="M3760.414-267.926a2.354,2.354,0,0,0-.064.534,2.758,2.758,0,0,0,.052.586q.035.243.086.485c.017.079.033.16.056.238.01.037.021.073.033.109a.876.876,0,0,0,.159.279.472.472,0,0,0,.523.1.483.483,0,0,0,.293-.437,1.728,1.728,0,0,0-.147-.561q-.071-.224-.129-.453c-.038-.152-.064-.307-.115-.454a4.537,4.537,0,0,0-.171-.5.313.313,0,0,0-.314-.151.32.32,0,0,0-.263.227Z" transform="translate(-3760.347 268.156)"/></g><g transform="translate(3755.083 -275.208)"><path d="M3763.425-268.051q14.29.082,28.577.091c12.02.016,24.034.008,36.051-.179,4.545-.071,9.091-.1,13.635-.172a.085.085,0,0,0,0-.169c-9.523-.154-19.052-.316-28.577-.353-12.016-.047-24.033.007-36.05.026-4.545.007-9.091.041-13.636.067a.345.345,0,0,0,0,.689Z" transform="translate(-3763.094 268.852)"/></g><g transform="translate(3835.653 -274.331)"><path d="M3853.365-267.62c-.1.359-.188.72-.288,1.08-.048.176-.092.35-.131.528-.021.1-.042.192-.065.287a1.128,1.128,0,0,0-.043.257.946.946,0,0,0,.106.4.583.583,0,0,0,.454.3.6.6,0,0,0,.522-.171.808.808,0,0,0,.211-.348,1.912,1.912,0,0,0,.032-.259c.011-.1.021-.194.029-.291a4.088,4.088,0,0,0,.01-.566,7.454,7.454,0,0,0-.146-1.211.36.36,0,0,0-.69,0Z" transform="translate(-3852.837 267.876)"/></g><g transform="translate(3767.636 -283.615)"><path d="M3778.352-278.175l-.071-.007.3.126a.492.492,0,0,0-.507-.118c-.035.013-.07.024-.106.035a1.918,1.918,0,0,1-.224.051l.146-.019a.586.586,0,0,1-.089,0,.915.915,0,0,0-.235.03.6.6,0,0,0-.264.154.455.455,0,0,0-.124.192.464.464,0,0,0-.051.231.6.6,0,0,0,.082.3.733.733,0,0,0,.244.243.714.714,0,0,0,.347.1.8.8,0,0,0,.211-.027.713.713,0,0,0,.306-.181.451.451,0,0,0,.125-.2.459.459,0,0,0,.053-.236l-.023-.162a.606.606,0,0,0-.156-.27l-.006-.007.1.126a.638.638,0,0,0-.382-.3l-.04-.013a.722.722,0,0,0-.255-.028.953.953,0,0,0-.2.022.634.634,0,0,0-.381.292l-.007.013.081-.105a.606.606,0,0,0-.136.24s-.022.157-.023.162a.493.493,0,0,0,.023.173.289.289,0,0,0,.032.079.315.315,0,0,0,.082.14.315.315,0,0,0,.113.113.3.3,0,0,0,.075.056c.061.032.128.057.191.083a.339.339,0,0,0,.112.022.409.409,0,0,0,.187,0,.9.9,0,0,0,.139-.024l.151-.064a.49.49,0,0,0,.178-.164c.027-.035.038-.05.057-.077l-.958-.74a.132.132,0,0,1-.021.022l.123-.1-.017.01.145-.061a.166.166,0,0,1-.029.008l.161-.022h-.031l.16.022a.165.165,0,0,1-.03-.008l.144.061-.017-.01.121.093-.015-.013-.264,1,.041-.014a.7.7,0,0,0,.279-.163l.065-.054-.112.086c.033-.023.069-.043.1-.066.066-.045.129-.1.191-.144l.086-.071a.5.5,0,0,0,.13-.183.289.289,0,0,0,.037-.13.433.433,0,0,0-.013-.2v.229l.016-.066a.376.376,0,0,0-.067-.325.381.381,0,0,0-.292-.147Z" transform="translate(-3777.075 278.202)"/></g><g transform="translate(3684.73 -285.958)"><g transform="translate(0 9.316)"><path d="M3686.614-270.2c-2.449,12.658-3.025,26.188,1.441,38.483,1.194,3.288,2.67,6.971,4.989,9.636.287.332.727-.09.567-.438-.684-1.483-1.589-2.863-2.315-4.326s-1.389-2.941-1.97-4.46a53.649,53.649,0,0,1-2.55-9.02,72.305,72.305,0,0,1-.9-18.949,103.711,103.711,0,0,1,1.4-10.746c.077-.427-.573-.613-.657-.181Z" transform="translate(-3684.73 270.447)"/></g><g transform="translate(17.816 16.699)"><path d="M3704.58-261.851c1.171,7.092,2.108,14.222,3.287,21.312.087.526.954.4.928-.126-.109-2.215-.427-4.415-.589-6.627a52.571,52.571,0,0,1,0-6.546c.028-.569-.761-.605-.937-.127a7.738,7.738,0,0,0-.259,2.729c.016,1.268.114,2.534.228,3.8.206,2.255.481,4.512.612,6.774l.929-.126c-1.238-7.069-2.361-14.157-3.611-21.223-.068-.388-.652-.221-.588.163Z" transform="translate(-3704.575 262.235)"/></g><g transform="translate(2.021 0)"><path d="M3687.356-271.2c.244-1.168,1.4-2.107,2.274-2.828a26.509,26.509,0,0,1,3.966-2.65c1.448-.806,2.99-1.389,4.462-2.141a8.247,8.247,0,0,1,6.187-.594c3.639.983,6.562,3.637,10.225,4.562,2.442.616,6.218.538,7.756-1.842.226-.351-.236-.844-.59-.591a7.55,7.55,0,0,1-4.615,1.681,12.231,12.231,0,0,1-5.533-1.564c-3.262-1.649-6.737-4.114-10.606-3.561-1.726.246-3.133,1.266-4.689,1.966A29.45,29.45,0,0,0,3692-276.44a22.155,22.155,0,0,0-3.447,2.731,4.917,4.917,0,0,0-1.568,2.406c-.043.242.321.349.372.1Z" transform="translate(-3686.981 280.808)"/></g><g transform="translate(12.527 56.416)"><path d="M3699.416-217.787a34.937,34.937,0,0,0-.283,12.761,63.017,63.017,0,0,0,3.354,13.365.344.344,0,0,0,.662-.182c-.85-4.232-2.25-8.326-2.976-12.592a35.6,35.6,0,0,1-.028-13.15c.1-.475-.623-.68-.73-.2Z" transform="translate(-3698.683 218.059)"/></g><g transform="translate(18.076 70.154)"><path d="M3704.967-202.478a1.893,1.893,0,0,1,.537.154,1.2,1.2,0,0,1,.392.339,1.159,1.159,0,0,1,.216.491,1.211,1.211,0,0,1,.016.247c0,.109-.021.19-.016.3s.165.21.251.1a.883.883,0,0,0,.118-.73,1.486,1.486,0,0,0-.276-.605,1.31,1.31,0,0,0-1.239-.576.145.145,0,0,0,0,.278Z" transform="translate(-3704.864 202.778)"/></g><g transform="translate(23.624 72.3)"><path d="M3713.323-199.571a2.017,2.017,0,0,0-1.688-.82.917.917,0,0,0-.5.137.163.163,0,0,0-.071.211c.047.085.152.084.236.085.16,0,.323-.034.484-.032a1.775,1.775,0,0,1,.441.063,1.646,1.646,0,0,1,.868.534c.106.128.33-.042.232-.178Z" transform="translate(-3711.044 200.392)"/></g><g transform="translate(16.756 60.852)"><path d="M3703.488-212.865a4.325,4.325,0,0,1,2.239.845,1.57,1.57,0,0,1,.459.873,1.2,1.2,0,0,1-.016.473,2.436,2.436,0,0,1-.215.481c-.051.1.059.245.17.171a1.141,1.141,0,0,0,.4-1.055,1.9,1.9,0,0,0-.472-1.076,3.976,3.976,0,0,0-2.529-.971c-.146-.019-.18.23-.035.259Z" transform="translate(-3703.394 213.125)"/></g><g transform="translate(23.853 61.379)"><path d="M3711.682-210.682a.924.924,0,0,1,.383-1.082,2.118,2.118,0,0,1,.717-.322c.131-.035.265-.063.4-.088a.53.53,0,0,0,.374-.162.116.116,0,0,0-.042-.156c-.131-.093-.344-.025-.487,0s-.3.066-.443.111a2.22,2.22,0,0,0-.8.424,1.21,1.21,0,0,0-.371,1.43c.1.18.366.021.272-.159Z" transform="translate(-3711.3 212.539)"/></g><g transform="translate(35.763 57.374)"><path d="M3724.789-216.355a1.806,1.806,0,0,1,1.025-.26,1.761,1.761,0,0,1,.5.087,1.752,1.752,0,0,1,.232.1.529.529,0,0,0,.292.1.162.162,0,0,0,.154-.2c-.054-.207-.346-.3-.526-.36a2.161,2.161,0,0,0-.636-.1,2.077,2.077,0,0,0-1.2.375c-.158.111-.015.37.154.263Z" transform="translate(-3724.566 216.993)"/></g><g transform="translate(34.473 42.288)"><path d="M3723.469-232.3a1.172,1.172,0,0,1,.34-.695,1.324,1.324,0,0,1,.776-.332,1.907,1.907,0,0,1,.96.209,3.413,3.413,0,0,1,.453.267,1.442,1.442,0,0,0,.459.287.191.191,0,0,0,.212-.276,1.2,1.2,0,0,0-.466-.414,3.442,3.442,0,0,0-.553-.3,2.221,2.221,0,0,0-1.235-.188,1.729,1.729,0,0,0-.95.5.958.958,0,0,0-.3.947c.052.128.26.165.3,0Z" transform="translate(-3723.129 233.773)"/></g><g transform="translate(3.666 47.932)"><path d="M3689.013-226.759a4.282,4.282,0,0,1,2.939-.056,1.5,1.5,0,0,1,.459.352c.12.138.172.331.315.448.375.307.838-.325.383-.511-.168-.067-.294.151-.22.287l.016.03-.021-.16c.014-.056.149-.018.162-.083.005-.025-.059-.1-.071-.118a1.783,1.783,0,0,0-.144-.191,1.835,1.835,0,0,0-.376-.328,2.454,2.454,0,0,0-.992-.371,5.557,5.557,0,0,0-2.536.389.162.162,0,0,0,.086.312Z" transform="translate(-3688.814 227.496)"/></g><g transform="translate(25.508 32.254)"><path d="M3717.44-243.62a3.474,3.474,0,0,0-2.677-1.313,1.708,1.708,0,0,0-1.388.6c-.25.334-.411,1.062.128,1.208a.181.181,0,0,0,.225-.172c.014-.145-.02-.294.005-.438a.693.693,0,0,1,.244-.4,1.645,1.645,0,0,1,1.113-.246,3.227,3.227,0,0,1,2.145.971c.132.137.315-.062.2-.2Z" transform="translate(-3713.144 244.933)"/></g><g transform="translate(30.171 29.408)"><path d="M3718.654-246.884a1.039,1.039,0,0,1,.848-.817,1.081,1.081,0,0,1,.609.076,1,1,0,0,1,.257.161c.088.078.147.192.249.252a.183.183,0,0,0,.274-.158c-.026-.278-.355-.5-.59-.6a1.465,1.465,0,0,0-.866-.105,1.381,1.381,0,0,0-1.094,1.1.17.17,0,0,0,.114.2.164.164,0,0,0,.2-.114Z" transform="translate(-3718.337 248.098)"/></g><g transform="translate(33.469 35.154)"><path d="M3724.919-240.932a1.6,1.6,0,0,0-1.614-.759,1.586,1.586,0,0,0-.851.426,1.237,1.237,0,0,0-.441.878.23.23,0,0,0,.163.215.223.223,0,0,0,.251-.1c.048-.113.069-.236.118-.35a1.13,1.13,0,0,1,.194-.3,1.323,1.323,0,0,1,.629-.388,1.231,1.231,0,0,1,1.338.507.123.123,0,0,0,.212-.124Z" transform="translate(-3722.01 241.708)"/></g><g transform="translate(29.973 37.772)"><path d="M3720.223-236.933a6.047,6.047,0,0,0-1.416-1.573c-.074-.057-.146-.114-.224-.166s-.209-.147-.322-.117a.2.2,0,0,0-.137.243c.029.111.16.177.248.237a6.506,6.506,0,0,1,.814.648,5.177,5.177,0,0,1,.743.9c.119.182.41.015.293-.172Z" transform="translate(-3718.117 238.796)"/></g><g transform="translate(35.826 31.267)"><path d="M3727.819-245.762a2.573,2.573,0,0,0-2.647.218,1.613,1.613,0,0,0-.5.518.267.267,0,0,0,.072.36c.148.088.285-.018.377-.128a2.156,2.156,0,0,1,1.059-.7,2.018,2.018,0,0,1,1.434.083c.233.111.439-.229.2-.352Z" transform="translate(-3724.636 246.031)"/></g><g transform="translate(36.692 22.633)"><path d="M3728.762-255.547a2.813,2.813,0,0,0-1.991.234,2.523,2.523,0,0,0-.784.614,1.325,1.325,0,0,0-.383.893c.015.119.166.222.264.11.177-.2.277-.458.459-.663a2.62,2.62,0,0,1,.663-.539,2.3,2.3,0,0,1,1.666-.265.2.2,0,0,0,.106-.383Z" transform="translate(-3725.6 255.635)"/></g><g transform="translate(29.994 22.275)"><path d="M3718.361-255.574a1.618,1.618,0,0,1,1.32.131,1.45,1.45,0,0,1,.479.422,1.225,1.225,0,0,1,.139.254,1.218,1.218,0,0,0,.146.331c.061.08.219.122.271,0a.829.829,0,0,0-.2-.792,1.972,1.972,0,0,0-.611-.532,2,2,0,0,0-1.638-.166c-.219.079-.127.431.1.352Z" transform="translate(-3718.139 256.033)"/></g><g transform="translate(23.449 25.781)"><path d="M3711.172-251.365a1.83,1.83,0,0,1,1.134-.372,1.9,1.9,0,0,1,.59.093,3.061,3.061,0,0,0,.573.218c.123.015.163-.131.126-.218-.1-.225-.392-.328-.607-.394a2.246,2.246,0,0,0-.716-.094,2.245,2.245,0,0,0-1.367.5.191.191,0,0,0,0,.268.193.193,0,0,0,.268,0Z" transform="translate(-3710.85 252.133)"/></g><g transform="translate(23.621 18.571)"><path d="M3713.386-258.778a1.108,1.108,0,0,0-.7-1.3,1.245,1.245,0,0,0-1.466.53c-.138.216-.314.712-.009.866a.143.143,0,0,0,.189-.049c-.011.021,0,.011.024-.029a.158.158,0,0,0,.031-.062.729.729,0,0,0,.012-.125.809.809,0,0,1,.022-.161.772.772,0,0,1,.136-.289.88.88,0,0,1,.6-.35.77.77,0,0,1,.838.878.169.169,0,0,0,.325.09Z" transform="translate(-3711.041 260.152)"/></g><g transform="translate(32.814 15.213)"><path d="M3724.353-263.717a2.331,2.331,0,0,0-2.494.483,2,2,0,0,0-.565,1.112.791.791,0,0,0,.1.574.355.355,0,0,0,.5.135c.1-.066.108-.266-.037-.286-.278-.038-.159-.466-.106-.638a1.77,1.77,0,0,1,.541-.8,2.018,2.018,0,0,1,2-.314c.165.062.229-.2.072-.261Z" transform="translate(-3721.281 263.887)"/></g><g transform="translate(38.215 15.673)"><path d="M3730.479-262.152a1.8,1.8,0,0,0-1.416-1.195,2.126,2.126,0,0,0-1.034.085c-.277.1-.784.308-.727.674a.156.156,0,0,0,.113.112.528.528,0,0,0,.395-.137,1.968,1.968,0,0,1,.347-.187,1.671,1.671,0,0,1,.825-.112,1.542,1.542,0,0,1,1.208.88c.074.164.342.048.289-.121Z" transform="translate(-3727.297 263.376)"/></g><g transform="translate(26.464 10.406)"><path d="M3714.462-268a1.972,1.972,0,0,1,2.122-.79,1.6,1.6,0,0,1,.927.707,1.492,1.492,0,0,1,.2.521,3.97,3.97,0,0,1-.015.6.21.21,0,0,0,.389.106,1.57,1.57,0,0,0-.175-1.4,1.989,1.989,0,0,0-1.171-.9,2.238,2.238,0,0,0-2.51,1.023.137.137,0,0,0,.236.138Z" transform="translate(-3714.208 269.234)"/></g><g transform="translate(34.006 7.962)"><path d="M3724.993-270.8a1.156,1.156,0,0,0-.966-1.13,1.293,1.293,0,0,0-1.406.74c-.056.134.082.26.2.266a1.607,1.607,0,0,0,.42-.031c.162-.036.126-.244,0-.295a1.6,1.6,0,0,0-.42-.1l.181.316a.958.958,0,0,1,.953-.507.8.8,0,0,1,.712.735.161.161,0,0,0,.322,0Z" transform="translate(-3722.609 271.952)"/></g><path d="M3730.262-246.366a29.189,29.189,0,0,1-1.8,4.9,37.742,37.742,0,0,1-2.384,3.523l3.981-.59Z" transform="translate(-3688.957 277.332)"/><path d="M3700.082-214.1c.927.039,3.747-1.09,5.755-1.551,1.179-.271,3.26.077,5.734-.425a43.448,43.448,0,0,1,6.347-.926l3.323-1.117,5.483-1.229s.747-1.644-.857-1.454-23.847,3.221-24.772,3.221-.945-.385-1.289.886-.643,2.438-.643,2.438Z" transform="translate(-3686.206 274.753)"/><g transform="translate(4.393 2.522)"><g transform="translate(17.714 2.07)"><path d="M3710.771-274.651a.335.335,0,0,0,.029-.108c0-.016,0-.033,0-.05v-.033c0,.015,0,.013,0-.007a.472.472,0,0,0-.062-.2c-.011-.02-.023-.039-.036-.058s.011.011-.014-.017a1.1,1.1,0,0,0-.1-.1c-.029-.025.019.01-.017-.013l-.061-.037c-.009,0-.05-.023-.019-.011a.632.632,0,0,0-.069-.023c-.006,0-.068-.016-.046-.012l-.046-.005c-.025,0-.05,0-.075,0-.006,0-.065.007-.019,0a1.2,1.2,0,0,0-.138.027l-.028.008c.023-.007.023-.006,0,0s-.047.019-.069.03l-.05.026c-.021.012-.021.012,0,0l-.031.021a.708.708,0,0,0-.1.083c.032-.032-.017.023-.022.029l-.031.042a.572.572,0,0,1-.118.122c-.1.078-.276.04-.294-.083a.358.358,0,0,1,.094-.3.956.956,0,0,1,.215-.192,1.187,1.187,0,0,1,.578-.188.865.865,0,0,1,.878.578.736.736,0,0,1-.039.564.186.186,0,0,1-.216.1.145.145,0,0,1-.1-.191Z" transform="translate(-3709.355 275.701)"/></g><g transform="translate(12.029)"><path d="M3705.019-276.732a.318.318,0,0,0,.054-.417.852.852,0,0,0-.514-.318,2.118,2.118,0,0,0-.666-.1,1.26,1.26,0,0,0-.326.049,2.074,2.074,0,0,1-.33.106c-.131.012-.254-.079-.2-.206a.621.621,0,0,1,.388-.293,1.767,1.767,0,0,1,.511-.09,2.26,2.26,0,0,1,.909.164,1.1,1.1,0,0,1,.675.61.675.675,0,0,1-.237.767c-.207.15-.465-.109-.263-.27Z" transform="translate(-3703.023 278.003)"/></g><g transform="translate(8.363 8.466)"><path d="M3700.1-268.3a1.609,1.609,0,0,0-.585.551,1.509,1.509,0,0,0-.158.346.863.863,0,0,1-.073.206,1.665,1.665,0,0,0-.068.174.128.128,0,0,1-.236-.009,1.79,1.79,0,0,1-.036-.21.533.533,0,0,1,.048-.269,1.832,1.832,0,0,1,.219-.421,2,2,0,0,1,.746-.638.175.175,0,0,1,.224.064.155.155,0,0,1-.081.207Z" transform="translate(-3698.939 268.587)"/></g><g transform="translate(4.224 5.495)"><path d="M3694.388-269.9a1.75,1.75,0,0,1,.4-1.738c.548-.463,1.26-.162,1.855-.04.15.031.116.241-.028.267a2.947,2.947,0,0,1-.844-.037,1.16,1.16,0,0,0-.366.009.49.49,0,0,0-.142.063c-.008,0-.08.044-.051.025a.61.61,0,0,0-.066.048.838.838,0,0,0-.2.223.985.985,0,0,0-.119.277,2.441,2.441,0,0,0-.017.815.215.215,0,0,1-.175.234.207.207,0,0,1-.25-.147Z" transform="translate(-3694.329 271.891)"/></g><g transform="translate(13.319 8.152)"><path d="M3707.154-267.21a2.492,2.492,0,0,0-1.047-1.068,3.79,3.79,0,0,0-1.528-.4.12.12,0,0,1-.012-.24,2.718,2.718,0,0,1,1.709.379,2.745,2.745,0,0,1,1.14,1.2c.071.153-.187.275-.262.122Z" transform="translate(-3704.46 268.936)"/></g><g transform="translate(10.758 17.27)"><path d="M3704.005-258.083a1.254,1.254,0,0,0-1.184-.334,1.377,1.377,0,0,0-.528.263,1.413,1.413,0,0,0-.213.218,1.127,1.127,0,0,1-.214.248c-.091.064-.236.04-.254-.073-.04-.248.209-.507.4-.664a1.646,1.646,0,0,1,.737-.343,1.583,1.583,0,0,1,1.483.5c.113.135-.1.315-.228.183Z" transform="translate(-3701.607 258.795)"/></g><g transform="translate(5.047 15.61)"><path d="M3695.367-258.306a4.069,4.069,0,0,0-.118-1.044,1.124,1.124,0,0,1,.413-.947,1.46,1.46,0,0,1,1.017-.341,1.212,1.212,0,0,1,.948.51c.059.1-.082.184-.173.139a1.962,1.962,0,0,0-.871-.254,1,1,0,0,0-.721.294.87.87,0,0,0-.192.763,2.429,2.429,0,0,1,.023.933c-.043.17-.358.118-.326-.054Z" transform="translate(-3695.246 260.641)"/></g><g transform="translate(1.318 13.48)"><path d="M3691.093-261.993a1.182,1.182,0,0,1,.363-.675,1.359,1.359,0,0,1,.319-.231,1.082,1.082,0,0,1,.165-.073.472.472,0,0,1,.16-.038.645.645,0,0,1,.094.009.164.164,0,0,1,.155.124.17.17,0,0,1-.1.176l-.071.04a.574.574,0,0,1-.118.037.133.133,0,0,0-.039.012l.024-.008-.027.01c-.024.009-.048.019-.071.03a.8.8,0,0,0-.074.037l-.031.017c-.038.02.028-.02-.006,0a1.3,1.3,0,0,0-.132.1l-.031.028c-.028.025.021-.025-.005.005s-.034.037-.05.056a1.02,1.02,0,0,0-.089.125c-.022.033.012-.025,0,.007l-.018.035a.727.727,0,0,0-.031.072c-.01.024-.017.049-.025.074s0-.02,0,0l-.008.044a.187.187,0,0,1-.193.153.158.158,0,0,1-.157-.167Z" transform="translate(-3691.092 263.01)"/></g><g transform="translate(0 24.56)"><path d="M3692.353-248.945a1.114,1.114,0,0,0-.954-1.266,1.388,1.388,0,0,0-.867.211,1.549,1.549,0,0,0-.352.315c-.1.112-.189.289-.324.362a.155.155,0,0,1-.2-.059c-.087-.16.049-.434.153-.578a1.7,1.7,0,0,1,.439-.4,1.858,1.858,0,0,1,1.242-.307,1.482,1.482,0,0,1,1.3,1.745.233.233,0,0,1-.238.192.2.2,0,0,1-.2-.21Z" transform="translate(-3689.624 250.687)"/></g><g transform="translate(7.232 24.135)"><path d="M3697.8-250.828a3.023,3.023,0,0,1,1.323-.329,2.542,2.542,0,0,1,.677.062,2.027,2.027,0,0,1,.292.1,1.128,1.128,0,0,1,.3.222c.148.13-.049.342-.222.3-.094-.024-.193-.031-.287-.058s-.185-.057-.28-.08a2.608,2.608,0,0,0-.53-.085,2.356,2.356,0,0,0-1.094.229.2.2,0,1,1-.184-.355Z" transform="translate(-3697.679 251.159)"/></g><g transform="translate(13.118 25.271)"><path d="M3704.239-247.852a2.3,2.3,0,0,1,.337-1.412,1.478,1.478,0,0,1,1.233-.631,1.026,1.026,0,0,1,.359.065.95.95,0,0,1,.182.088.629.629,0,0,1,.1.076.22.22,0,0,1,.046.079.11.11,0,0,1,.012.061c0,.042,0,.042,0,0l-.051-.1a.9.9,0,0,1,.1.161.2.2,0,0,1-.286.233.743.743,0,0,0-.125-.074l.112.034-.036,0a.254.254,0,0,1-.127-.038c-.026-.013-.025-.013,0,0l-.039-.015a1.049,1.049,0,0,0-.141-.041c.073.017-.017,0-.033,0s-.058-.006-.088-.007h-.066l-.045,0c.039,0,.042,0,.009,0a1.547,1.547,0,0,0-.157.03c-.013,0-.108.034-.04.01a.863.863,0,0,0-.086.034c-.049.022-.1.048-.143.073-.028.017-.026.015,0,0l-.037.026c-.021.015-.042.031-.062.049a.754.754,0,0,0-.057.052c.031-.031-.037.041-.043.049a1.416,1.416,0,0,0-.109.151l-.027.045c.012-.022.011-.018,0,.01s-.03.063-.044.1a1.717,1.717,0,0,0-.064.173,1.9,1.9,0,0,0-.069.349,3.731,3.731,0,0,0-.02.394.263.263,0,0,1-.275.225.236.236,0,0,1-.231-.245Z" transform="translate(-3704.236 249.895)"/></g><g transform="translate(4.841 31.258)"><path d="M3697.56-242.246c.117-.139-.23-.231-.314-.257a6.045,6.045,0,0,0-.706-.185,2.145,2.145,0,0,0-.63-.034,1.387,1.387,0,0,0-.313.073.873.873,0,0,1-.386.119.2.2,0,0,1-.186-.27c.041-.165.24-.258.394-.319a1.677,1.677,0,0,1,.471-.107,3.081,3.081,0,0,1,.979.088,3.037,3.037,0,0,1,.9.3.551.551,0,0,1,.185.833.268.268,0,0,1-.338.067.214.214,0,0,1-.056-.313Z" transform="translate(-3695.016 243.237)"/></g><g transform="translate(3.691 37.139)"><path d="M3696.188-236.022a1.74,1.74,0,0,0-1.4-.092.836.836,0,0,0-.222.147c-.018.016-.037.033-.054.05.031-.031-.028.032-.028.032-.031.037-.06.075-.087.113,0,0-.046.076-.021.032-.012.021-.021.041-.031.063s-.017.041-.024.063c0,0-.022.085-.011.033-.013.058-.03.114-.044.171.01-.041,0,.038,0,.039a.7.7,0,0,0,0,.078c0,.217-.331.254-.422.087a.682.682,0,0,1-.095-.4,1.1,1.1,0,0,1,.155-.415,1.383,1.383,0,0,1,.616-.543,2.068,2.068,0,0,1,1.855.222c.174.1.016.4-.177.316Z" transform="translate(-3693.735 236.696)"/></g><g transform="translate(12.464 41.698)"><path d="M3703.777-230.844a.272.272,0,0,1-.268-.294.534.534,0,0,1,.223-.352.955.955,0,0,1,.492-.13,1.7,1.7,0,0,1,.433.029,1.774,1.774,0,0,1,1.268.985,1.186,1.186,0,0,1,.11.476c0,.139-.053.381-.2.451a.157.157,0,0,1-.154-.006.324.324,0,0,1-.109-.194c-.014-.048-.04-.111-.058-.181s-.036-.112-.051-.17.01.019-.011-.031c-.013-.031-.025-.063-.039-.094a1.461,1.461,0,0,0-.088-.156c-.005-.008-.062-.09-.032-.049l-.047-.062a1.711,1.711,0,0,0-.123-.134c-.025-.024-.051-.048-.078-.07.036.03-.032-.023-.04-.03a1.669,1.669,0,0,0-.166-.107c-.023-.013-.047-.025-.07-.037s-.032-.016-.008,0l-.049-.021a1.506,1.506,0,0,0-.177-.058l-.077-.021-.051-.011c.027,0,.024,0-.009,0a1.621,1.621,0,0,0-.188-.013c-.009,0-.107,0-.066,0-.028,0-.056.006-.082.01l-.055.01c.026-.011.025-.011,0,0-.007,0-.062.036-.031.013-.025.018-.034.037-.039.037.01-.022.011-.022,0,0a.123.123,0,0,0-.071-.15.178.178,0,0,1,.122.209.2.2,0,0,1-.208.153Z" transform="translate(-3703.508 231.624)"/></g><g transform="translate(17.739 39.046)"><path d="M3711.57-233.892a.908.908,0,0,0-.527-.276c.024,0-.011,0-.013,0l-.045-.005-.079-.005a.594.594,0,0,0-.08,0l-.046,0c.03,0-.012,0-.022,0a1.309,1.309,0,0,0-.156.03c-.026.006-.051.013-.076.022-.045.013-.017.005-.008,0l-.052.022a1.345,1.345,0,0,0-.141.069c-.011.006-.068.041-.034.019-.028.019-.055.039-.081.06s-.039.033-.058.051l-.032.032c.007-.008.026-.033,0,0a1.555,1.555,0,0,0-.1.133c0,.006-.025.046-.011.019s0,.006,0,.01c-.011.026-.023.051-.033.078s-.017.047-.024.07l-.009.031c-.02.063,0-.03,0,.007-.007.052-.017.1-.021.157,0,.024,0,.049,0,.074s.006.108,0,.049c.007.056.013.111.026.166.007.031.015.061.025.091s0-.008,0-.011l.02.049a1.248,1.248,0,0,0,.073.162c.013.023.031.046.042.071a.247.247,0,0,1-.026.245l.017-.2a2.3,2.3,0,0,1,.128.234c.025.075-.059.14-.13.141a.591.591,0,0,1-.3-.122l.156.026c-.216.053-.349-.158-.429-.31a1.188,1.188,0,0,1-.118-.393,1.338,1.338,0,0,1,.166-.836,1.425,1.425,0,0,1,1.479-.635,1.308,1.308,0,0,1,.81.429c.142.171-.126.4-.279.234Z" transform="translate(-3709.383 234.574)"/></g><g transform="translate(24.539 46.046)"><path d="M3718.723-226.292c-.093-.006-.188-.019-.282-.019-.048,0-.1,0-.144,0,.066,0-.01,0-.024.005l-.071.013-.06.014-.04.012c-.028.009-.027.008.006,0a.42.42,0,0,0-.132.058l-.055.029-.035.022c.027-.018.033-.022.017-.01a1.339,1.339,0,0,0-.112.089c-.018.016-.034.033-.051.05-.044.043.029-.038-.006.007s-.059.074-.084.112a.36.36,0,0,0-.04.069l.014-.028-.017.036a1.081,1.081,0,0,0-.048.13c0,.012-.02.044-.017.057.008-.04.01-.044,0-.014l-.006.04c-.007.045-.013.091-.016.136a.5.5,0,0,1-.035.181c-.016.037-.029.076-.042.114a.2.2,0,0,1-.319.066.952.952,0,0,1-.114-.141.415.415,0,0,1-.057-.243,1.088,1.088,0,0,1,.061-.362,1.308,1.308,0,0,1,.407-.6,1.427,1.427,0,0,1,.675-.3,1.065,1.065,0,0,1,.754.119.2.2,0,0,1-.131.359Z" transform="translate(-3716.956 226.788)"/></g><g transform="translate(15.319 49.481)"><path d="M3708.909-222.464a1.223,1.223,0,0,0-1.178.075,1.242,1.242,0,0,0-.391.441c.013-.023-.022.047-.021.045-.011.022-.02.045-.03.067a1.372,1.372,0,0,0-.059.15c-.021.066-.015.084-.036.14s-.051.07-.09.127c.019-.028-.014.039-.014.039a.2.2,0,0,1-.33-.013.528.528,0,0,1-.073-.24,1.117,1.117,0,0,1,.043-.209,1.338,1.338,0,0,1,.164-.37,1.6,1.6,0,0,1,.607-.557,1.691,1.691,0,0,1,1.617.012.168.168,0,0,1,.045.241.2.2,0,0,1-.255.052Z" transform="translate(-3706.688 222.968)"/></g><g transform="translate(10.283 47.279)"><path d="M3702.355-224.962a2.793,2.793,0,0,0-.254.19c-.039.032-.077.067-.114.1-.02.018-.04.037-.059.057s-.074.084-.018.018c-.067.077-.134.153-.194.236-.031.043-.059.088-.09.132a.723.723,0,0,1-.154.144.256.256,0,0,1-.266.036.213.213,0,0,1-.127-.214.612.612,0,0,1,.072-.247c.029-.047.063-.093.1-.138a3.131,3.131,0,0,1,.253-.291,2.973,2.973,0,0,1,.56-.449.288.288,0,0,1,.213-.018.267.267,0,0,1,.134.1.253.253,0,0,1-.053.343Z" transform="translate(-3701.078 225.417)"/></g><g transform="translate(27.635 66.234)"><path d="M3723.452-202.94a2.619,2.619,0,0,0-1.56-.794.888.888,0,0,0-.738.183.7.7,0,0,0-.141.267c.006-.022,0,.059,0,.062,0-.024,0,.026,0,.027a.945.945,0,0,1,.024.235.249.249,0,0,1-.32.212c-.424-.155-.358-.762-.146-1.07a1.317,1.317,0,0,1,1.11-.517,2.825,2.825,0,0,1,2.127,1.083.237.237,0,0,1-.356.311Z" transform="translate(-3720.406 204.334)"/></g><g transform="translate(21.798 63.676)"><path d="M3716.651-206.384a3.114,3.114,0,0,0-1.315-.2,1.186,1.186,0,0,0-.464.164,1.055,1.055,0,0,0-.316.3s-.03.046-.015.022-.042.08-.032.061a.38.38,0,0,1-.165.158.3.3,0,0,1-.4-.123c-.106-.208.051-.468.192-.633a1.66,1.66,0,0,1,1.085-.534,3.75,3.75,0,0,1,1.613.295.26.26,0,0,1-.178.489Z" transform="translate(-3713.904 207.179)"/></g><g transform="translate(24.763 58.875)"><path d="M3720-211.569a1.99,1.99,0,0,0-1.267-.354,2.034,2.034,0,0,0-.592.129c-.051.022-.1.045-.152.07,0,0-.089.053-.053.027s-.027.027-.033.033c.034-.036,0,0-.006.018-.022.049.042-.065,0,.009-.021.04,0,.006,0-.021,0-.049,0-.061,0-.036s0,.013-.012-.025a.3.3,0,0,1-.209.414.4.4,0,0,1-.474-.336.621.621,0,0,1,.262-.54,1.9,1.9,0,0,1,.964-.325,2.374,2.374,0,0,1,1.87.6c.185.171-.1.486-.3.336Z" transform="translate(-3717.206 212.519)"/></g></g><g transform="translate(8.2 36.793)"><path d="M3694.1-218.941a222.134,222.134,0,0,0,29.552-3.221,46.236,46.236,0,0,0,6.289-1.251,64.62,64.62,0,0,0,6.4-1.974,10.1,10.1,0,0,0,2.436-1.43c.5-.407,1.3-.957,1.312-1.643a8.355,8.355,0,0,0-.566-2.212c-1.037-3.432-2.686-7.081-5.757-9.136-.481-.323-.931.456-.452.776,3.4,2.277,5.166,6.927,5.912,10.817l.115-.436c-2.414,2.883-6.545,3.5-9.98,4.5a85.55,85.55,0,0,1-10.662,1.934c-8.159,1.262-16.371,2.1-24.6,2.79-.311.026-.32.5,0,.492Z" transform="translate(-3693.864 239.885)"/></g><g transform="translate(20.9 36.876)"><path d="M3734.577-239.78c-8.272,3.017-17.4,1.56-25.675,4.564l.222.8c2.03-.745,4-1.628,6.034-2.372a.279.279,0,0,0,.066-.5,8.512,8.512,0,0,0-3.109-.877,32.131,32.131,0,0,0-3.807-.368.3.3,0,0,0-.151.557c2.08,1.038,4.7.023,6.79,1.163l.066-.5c-2.021.748-4.089,1.353-6.11,2.1-.5.183-.283.988.222.8,8.277-3.021,17.5-1.41,25.644-4.912.258-.111.074-.552-.191-.456Z" transform="translate(-3708.01 239.793)"/></g><path d="M3727.862-179.2l-.283-9.251-.1-11.3a53.132,53.132,0,0,1-12.851,2.021c-6.048,0-14.179-.294-14.179-.294s.865,9.881,1.407,19.3C3710.394-178.49,3719.323-179.32,3727.862-179.2Z" transform="translate(-3686.338 272.628)"/><path d="M3700.382-193.291c.667-.107.421.334.26.86a4.982,4.982,0,0,1-.331.779.833.833,0,0,0-.111.637c.083.263.263.2.438.21.261.01.5-.477.846-.269l-.762.7a1.429,1.429,0,0,0-.472,1.164c.031.477.334.33.57.294.269-.041.372.247.437.534a.749.749,0,0,1-.249.675,5.923,5.923,0,0,0-.9,1.322c-.42.749-.39,1.086.089,1.517,1.169,1.055,1.15.82-.026,2.219a.985.985,0,0,0-.182,1.232,8.5,8.5,0,0,1,.523,2.919c2.385.071,4.823-1.1,7.206-1.041a22.192,22.192,0,0,1-1.769-8.208c.017-2.7.074-5.389.134-8.059-1.72-.4-3.417-.853-5.136-1.251a1.424,1.424,0,0,1-.031.684,15.618,15.618,0,0,1-.752,2.135C3699.823-193.6,3700-193.23,3700.382-193.291Z" transform="translate(-3686.272 272.356)"/></g><g transform="translate(3727.222 -289.026)"><path d="M3732.337-283.644a18.49,18.49,0,0,1,6.909,2.2,16.243,16.243,0,0,1,2.973,1.983,3.642,3.642,0,0,1,1.047,1.41,3.466,3.466,0,0,1,.216.916,1.206,1.206,0,0,0,.152.658.579.579,0,0,0,.9.115l.031-.033a.533.533,0,0,0,.138-.521l-.013-.036a.512.512,0,0,0-.469-.358l-.023,0a.435.435,0,0,0-.388.223l-.009.021.419-.242q.465.68.41.272a1.792,1.792,0,0,0-.015-.2c-.014-.147-.032-.3-.059-.441a4.359,4.359,0,0,0-.274-.885,4.544,4.544,0,0,0-1.112-1.56,14.568,14.568,0,0,0-3.3-2.2,18.8,18.8,0,0,0-7.532-1.907c-.374-.021-.363.541,0,.576Z" transform="translate(-3732.061 284.221)"/></g></g></svg>