<svg xmlns="http://www.w3.org/2000/svg" width="106" height="70" viewBox="0 0 106 70"><g transform="translate(-4199.974 -623.476)"><g transform="translate(4248.713 668.252)"><path d="M4250.39,670.049l0,0c.136.117.253.239.374.361.076.076.046.148-.08.209a.284.284,0,0,1-.206.031c-.131-.033-.121-.1-.132-.158a.57.57,0,0,0-.024-.113c-.015-.039-.063-.072-.145-.079a.155.155,0,0,0-.162.067c-.05.094-.18.208-.058.283.238.147.12.271-.06.393-.16.109-.127.179.1.236a10.827,10.827,0,0,0,1.718.26.857.857,0,0,0,.51-.084c.1-.062.2-.1.3.009a.548.548,0,0,0,.527.208.515.515,0,0,0,.486-.275.537.537,0,0,1,.654-.094.62.62,0,0,0,.427.018c.475-.2.666-.074.784.221.178-.338.4-.229.622-.111a1.867,1.867,0,0,0,1.284.045,1.16,1.16,0,0,1,1.17.046.419.419,0,0,0,.4-.017,2.281,2.281,0,0,1,1.529-.018c.772.235.882.2,1.336-.19.127-.108.153-.3.573-.166.2.067.576-.105.7.132.05.1.356.182.586.228s.264-.1.395-.159a.892.892,0,0,1,.716.014,1.481,1.481,0,0,0,1.121.031,1.165,1.165,0,0,1,.812.009.526.526,0,0,0,.446-.021,1.835,1.835,0,0,1,.9-.129,7.685,7.685,0,0,1,.96.25c.276.115.474.051.487-.084.022-.234.21-.151.447-.1a2.209,2.209,0,0,1,.341.111.477.477,0,0,0,.3.034c.137-.032.128-.094.151-.156.034-.091-.175-.171-.036-.3.1.105.176.184.252.263a.636.636,0,0,0,.509.157c.234-.015.2-.12.206-.2s.161-.132.306-.156a.341.341,0,0,1,.3.082,1.983,1.983,0,0,0,.535.3.632.632,0,0,0,.734-.042c.633-.414.52-.406,1.054-.007a.533.533,0,0,0,.564.054,1.932,1.932,0,0,1,.947-.208,2.442,2.442,0,0,0,1.138,0,.435.435,0,0,1,.174.021,1.019,1.019,0,0,0,.617-.019.7.7,0,0,1,.651.043.332.332,0,0,0,.282.033,2.81,2.81,0,0,1,1.49.009c.391.086.553.059.741-.122a.774.774,0,0,0,.724.077c.166-.044.344-.077.5-.126a.724.724,0,0,1,.619.03.727.727,0,0,0,.924.1,1.437,1.437,0,0,0,1.04-.276c.22-.126.326-.092.438.017.233.229.819.162,1.144.32.073.034.272,0,.3-.073.053-.135.34-.22.3-.378-.022-.089.133-.156.323-.171.4-.029.784.153,1.193,0a.086.086,0,0,1,.043,0c.111.189.547.162.771.273a.348.348,0,0,0,.3.065c.121-.032.086-.1.067-.146-.071-.184.128-.223.448-.224.214,0,.257.114.4.13.322.035.061-.185.249-.173.25.015.5.009.746.036.11.012.189.118.337.044.119-.059.012-.128-.052-.187s-.19-.143-.018-.2c.2-.072.292.041.412.088.1.037.138.15.306.1a.994.994,0,0,1,.817.107c.128.057.3.165.458.054a1.61,1.61,0,0,1,1.065-.133c.031-.05-.083-.1.009-.15a2.527,2.527,0,0,1,1.2-.047.609.609,0,0,0,.222.072,1.355,1.355,0,0,1,.917.237.467.467,0,0,0,.473.031,2.037,2.037,0,0,1,.562-.182c.154-.05.392-.04.468-.136.17-.21.372-.147.563-.026a.357.357,0,0,0,.487-.01.247.247,0,0,1,.286-.061.535.535,0,0,0,.674-.1.528.528,0,0,1,.253-.1,4.646,4.646,0,0,0,1.8-.629.8.8,0,0,1,.45-.149c.626.086.7-.152.823-.324Z" transform="translate(-4249.803 -669.002)"/></g><g transform="translate(4199.974 639.919)"><path d="M4240.939,648.6c-2.833-.018-5.665.029-8.5.012l.908.912-1-8.166a.988.988,0,0,0-.959-.966l-26.547-.171-3.72-.024a1.171,1.171,0,0,0-1.154,1.161c.1,3.915.2,7.832.316,11.747.24,7.852.072,15.726.234,23.582.109,5.2.256,10.4.414,15.6a1.336,1.336,0,0,0,1.309,1.315l28.367.065,24.39.057,12.863.03a1.482,1.482,0,0,0,1.459-1.466c-.077-5-.2-9.992-.286-14.985a1.435,1.435,0,0,0-2.87,0c.087,4.993.139,9.991.237,14.985l1.458-1.467-28.872.067-22.7.052-14.051.032,1.308,1.316c-.316-9.064-.585-18.128-.705-27.2-.079-5.942-.1-11.867-.335-17.8l-.232-5.928-1.153,1.16,26.546-.17,3.721-.025-.927-.708,1.1,8.152a.909.909,0,0,0,.875.67c2.833-.019,5.665-.1,8.5-.121a.858.858,0,0,0,0-1.715Z" transform="translate(-4199.974 -640.195)"/></g><g transform="translate(4235.037 623.6)"><path d="M4305.333,623.6q-22.044.053-44.085.037-5.58,0-11.161.039a.842.842,0,0,0-.791.606l-4.674,14.2c-2.472,7.514-4.984,15.018-7.3,22.583q-.568,1.853-1.132,3.708a7.849,7.849,0,0,0-.263,1.057c-.021.13-.046.264-.07.391-.093.492.081-.3,0-.046-.231.709.879,1.013,1.109.308a.307.307,0,0,1,.022-.065c-.293.425-.022.07.047-.075.138-.3.273-.6.389-.9.372-.977.692-1.978,1.037-2.965,1.149-3.3,2.251-6.618,3.353-9.937,2.5-7.527,4.927-15.077,7.379-22.621l1.691-5.2-.792.607q22.044-.189,44.084-.415,5.58-.055,11.162-.115a.6.6,0,0,0,0-1.2Z" transform="translate(-4235.821 -623.602)"/></g><g transform="translate(4248.336 623.475)"><path d="M4305.284,624.054c.043,14.733.5,29.467.277,44.2l.737-.742q-9.442.148-18.885.316l-29.858.539-6.908.124.815.819c.092-7.125-.016-14.248-.162-21.371-.149-7.275-.226-14.562-.562-21.83a.61.61,0,0,0-1.219,0c-.246,7.269.018,14.56.15,21.83.132,7.122.243,14.247.164,21.371a.828.828,0,0,0,.814.819l18.886-.377c9.953-.2,19.906-.382,29.858-.6L4306.3,669a.751.751,0,0,0,.738-.742c.129-14.737-.424-29.468-.562-44.2a.6.6,0,0,0-1.19,0Z" transform="translate(-4249.417 -623.475)"/></g><g transform="translate(4207.979 668.477)"><g transform="translate(0 0.347)"><path d="M4208.4,670.135c-.112,1.818-.183,3.626-.229,5.446-.021.86,0,1.721.007,2.581a12.824,12.824,0,0,0,.221,2.838.71.71,0,0,0,1.36,0,12.122,12.122,0,0,0,.221-2.838c0-.86.01-1.722-.03-2.581-.084-1.824-.221-3.629-.413-5.446a.569.569,0,0,0-1.138,0Z" transform="translate(-4208.158 -669.584)"/></g><g transform="translate(0.068 0.248)"><path d="M4208.564,670.466a1.052,1.052,0,0,0,.579.431c.236.094.28.128.514.209.384.134.772.257,1.15.409.185.074.369.145.555.214.084.031.167.064.25.1.015.006.152.064.041.016s.057.027.076.035c.163.075.325.155.481.243.078.043.44.2.454.289,0,0-.17-.139-.079-.062l.081.065c.06.049.116.1.171.155.029.029.193.212.126.132s.019.027.028.04c.032.052.067.1.1.156s.059.107.087.161c.012.023.059.158.016.031s.032.119.042.158c0,.009.03.127.028.127s-.014-.221-.01-.086c0,.114,0,.224,0,.338,0,.135,0-.09.011-.09s-.026.115-.029.124c-.011.041-.028.082-.037.123.009-.038.112-.212.012-.029-.043.079-.094.153-.136.232.008-.017.123-.135.034-.045-.044.044-.084.093-.128.137-.064.065-.248.211-.067.079-.073.054-.148.105-.225.154a4.291,4.291,0,0,1-.591.31c.2-.089-.074.023-.144.047-.129.045-.259.086-.392.123-.235.067-.475.122-.714.167l-.212.037c-.021,0-.246.037-.127.021s-.062.007-.071.008c-.076.008-.153.016-.229.022-.376.032-.748.045-1.123.1a1.179,1.179,0,0,0-.848,1.307,1.2,1.2,0,0,0,1.162,1.033,7.689,7.689,0,0,0,1.967-.233,8.443,8.443,0,0,0,1.713-.548,3.884,3.884,0,0,0,2.3-2.358,3.413,3.413,0,0,0-.938-3.274,5.521,5.521,0,0,0-2.456-1.271,9.221,9.221,0,0,0-1.673-.274,2.177,2.177,0,0,0-1.658.256.577.577,0,0,0-.088.685Z" transform="translate(-4208.227 -669.482)"/></g><g transform="translate(9.754 1.697)"><path d="M4218.141,671.638a27.638,27.638,0,0,1,.291,5.193c0,.582.023,1.164.031,1.747a9.941,9.941,0,0,1-.038,1.194,3.771,3.771,0,0,0-.121,1.287.459.459,0,0,0,.758.2c.607-.5.571-1.789.592-2.512.02-.64.009-1.279-.009-1.918a29.248,29.248,0,0,0-.46-5.483c-.15-.687-1.176-.392-1.044.29Z" transform="translate(-4218.129 -670.956)"/></g><g transform="translate(9.272 0.239)"><path d="M4218.34,671.157a17.253,17.253,0,0,1,2.235.409c.108.029.215.064.321.1q.187.078.028,0c.062.029.121.06.18.094.107.073.113.072.019,0a1.86,1.86,0,0,1,.149.143,1.55,1.55,0,0,1,.245.38,5.177,5.177,0,0,1,.325,1.994c.053,1.019.1,2.038.157,3.056.022.382.06.761.084,1.142.007.1.013.2.013.3,0,.118-.086.428.007.109-.1.333.054-.114-.033.091-.072.105-.065.1.021-.023-.046.053-.095.1-.146.152.018-.017-.261.217-.16.139-.153.118-.478.2-.139.134a7.32,7.32,0,0,1-1.387.2,4.957,4.957,0,0,0-2.092.224,1.038,1.038,0,0,0,0,1.772,3.385,3.385,0,0,0,1.839.212,16.547,16.547,0,0,0,1.78-.113,3.161,3.161,0,0,0,2.657-2.228,6.6,6.6,0,0,0,.026-1.708c-.053-.951-.121-1.9-.182-2.851-.106-1.633-.142-3.452-1.445-4.638s-2.939-.7-4.5-.566a.736.736,0,0,0,0,1.47Z" transform="translate(-4217.636 -669.474)"/></g><g transform="translate(8.955 0.546)"><path d="M4217.7,670.189a18.375,18.375,0,0,0-.353,5.346c.034.839.065,1.678.086,2.517a20.47,20.47,0,0,0,.123,2.955,1.034,1.034,0,0,0,1.983,0,14.255,14.255,0,0,0,.03-2.955c-.035-.839-.08-1.678-.125-2.517s-.122-1.681-.21-2.517a18.277,18.277,0,0,0-.449-2.83.565.565,0,0,0-1.083,0Z" transform="translate(-4217.312 -669.786)"/></g><g transform="translate(19.1 0.169)"><path d="M4228.288,669.573a4.093,4.093,0,0,0-.548,2.426c-.041.961-.054,1.92-.056,2.881,0,1.808.063,3.613.057,5.421a1.212,1.212,0,0,0,2.423,0c-.021-1.81-.106-3.616-.23-5.421q-.1-1.406-.222-2.809a4.639,4.639,0,0,0-.6-2.5.582.582,0,0,0-.823,0Z" transform="translate(-4227.684 -669.403)"/></g><g transform="translate(19.654)"><path d="M4228.6,671.311a3.64,3.64,0,0,0,1.593.3c.454.026.914,0,1.369,0l1.37-.017a3.17,3.17,0,0,0,.743-.066,1.364,1.364,0,0,0,.959-.925,1.082,1.082,0,0,0-.741-1.311,1.465,1.465,0,0,0-.7-.026c.44-.063-.115.015-.2.033-.217.047.287-.029-.015,0l-.33.035-1.276.137c-.48.052-.967.09-1.443.176a3.152,3.152,0,0,0-1.33.408.739.739,0,0,0,0,1.257Z" transform="translate(-4228.251 -669.231)"/></g><g transform="translate(19.427 4.819)"><path d="M4229.069,676.482c.74.047,1.487.094,2.229.094.431,0,.862,0,1.293,0a2.228,2.228,0,0,0,1.382-.34,1.038,1.038,0,0,0,0-1.786,2.115,2.115,0,0,0-1.382-.312c-.431.018-.863.034-1.293.056-.744.036-1.486.133-2.229.182a1.054,1.054,0,0,0,0,2.109Z" transform="translate(-4228.019 -674.13)"/></g></g><g transform="translate(4236.412 667.08)"><path d="M4238,683.784c17.534-3.771,35.128-7.258,52.686-10.919q3.776-.788,7.549-1.579a52.762,52.762,0,0,0,7.545-1.761c.85-.315.814-1.794-.231-1.711a47.478,47.478,0,0,0-6.575,1.3q-3.344.754-6.694,1.491-6.556,1.444-13.121,2.863c-8.8,1.907-17.611,3.786-26.4,5.741q-7.545,1.677-15.083,3.38c-.774.175-.445,1.36.328,1.194Z" transform="translate(-4237.227 -667.811)"/></g><g transform="translate(4260.298 633.372)"><g transform="translate(28.266)"><ellipse cx="3.328" cy="3.347" rx="3.328" ry="3.347"/></g><g transform="translate(0 2.971)"><path d="M4282.027,636.625c-.392-.46-1.307,1.578-2.353,3.352-1.032,1.75-6.062,9.755-6.2,9.979l-1.141-1.1c-1.234-1.213-3.05-3.012-3.18-3.228-.2-.328-2.549,3.286-3.529,4.929s-3.661,5.652-3.921,6.375.523,1.051.523,1.051c2.745,0,11.83.591,18.5.066s12.549-.526,13.006-.526.589-1.183-.653-3.023S4282.419,637.085,4282.027,636.625Z" transform="translate(-4261.647 -636.559)"/></g></g></g></svg>