<svg xmlns="http://www.w3.org/2000/svg" width="100" height="70" viewBox="0 0 100 70"><g transform="translate(-3727.698 -622.066)"><g transform="translate(3741.515 641.932)"><path d="M3743.485,643.692l0,0c.178.085.332.174.49.261.1.055.057.1-.115.143a.713.713,0,0,1-.276.016c-.175-.027-.159-.072-.171-.114a.245.245,0,0,0-.029-.079c-.019-.028-.082-.052-.191-.059a.305.305,0,0,0-.22.042c-.07.063-.247.139-.086.195.314.109.152.192-.093.271-.219.072-.175.121.124.167.717.11,1.5.176,2.294.229a2.125,2.125,0,0,0,.687-.044.471.471,0,0,1,.4.015,1.1,1.1,0,0,0,.7.159.913.913,0,0,0,.661-.177,1.249,1.249,0,0,1,.88-.047,1.58,1.58,0,0,0,.572.024c.645-.123.894-.032,1.044.176.25-.23.54-.147.837-.059a4.727,4.727,0,0,0,1.72.067,2.832,2.832,0,0,1,1.567.065,1.027,1.027,0,0,0,.531,0,5.778,5.778,0,0,1,2.051.031,2.37,2.37,0,0,0,1.8-.095.841.841,0,0,1,.774-.1c.271.052.777-.057.935.111a2.45,2.45,0,0,0,.78.175c.3.038.356-.064.533-.1a2.262,2.262,0,0,1,.96.03,3.719,3.719,0,0,0,1.5.053,2.942,2.942,0,0,1,1.089.029,1.325,1.325,0,0,0,.6,0,4.6,4.6,0,0,1,1.206-.064c.423.066.911.112,1.279.2s.634.049.656-.044c.039-.163.286-.1.6-.055.174.024.312.054.453.086a1.212,1.212,0,0,0,.4.032c.185-.018.175-.062.208-.1.048-.063-.229-.124-.038-.206l.329.188a1.394,1.394,0,0,0,.678.124c.313,0,.267-.077.282-.134s.221-.087.416-.1a.769.769,0,0,1,.4.065,3.65,3.65,0,0,0,.706.227,1.533,1.533,0,0,0,.987-.008c.862-.27.709-.268,1.413.025a1.279,1.279,0,0,0,.754.053,4.7,4.7,0,0,1,1.276-.118,6.35,6.35,0,0,0,1.526.034,1.028,1.028,0,0,1,.232.019,2.576,2.576,0,0,0,.827,0,1.709,1.709,0,0,1,.872.049.794.794,0,0,0,.377.031,7.191,7.191,0,0,1,2,.048,1.6,1.6,0,0,0,1-.063,1.875,1.875,0,0,0,.968.073c.223-.026.464-.043.679-.073a1.787,1.787,0,0,1,.829.039,1.683,1.683,0,0,0,1.235.094,3.369,3.369,0,0,0,1.4-.164.7.7,0,0,1,.586.024,11.65,11.65,0,0,0,1.522.255.707.707,0,0,0,.4-.041c.076-.093.464-.144.416-.255-.028-.062.184-.1.439-.109a9.96,9.96,0,0,0,1.6.034.214.214,0,0,1,.058,0c.142.133.727.128,1.023.211a.819.819,0,0,0,.4.053c.164-.019.119-.065.1-.1-.09-.13.178-.152.608-.143a3.46,3.46,0,0,1,.53.1c.43.034.088-.126.338-.113.334.017.678.021,1,.046a1.084,1.084,0,0,0,.451.041c.162-.039.021-.089-.064-.132s-.25-.1-.017-.141a1.087,1.087,0,0,1,.551.073c.133.029.18.108.406.077a2.418,2.418,0,0,1,1.091.1,1.089,1.089,0,0,0,.614.05,4.056,4.056,0,0,1,1.431-.062c.043-.033-.107-.07.018-.1a6.5,6.5,0,0,1,1.608,0,1.428,1.428,0,0,0,.3.056,3.149,3.149,0,0,1,1.222.19,1.13,1.13,0,0,0,.632.036,4.8,4.8,0,0,1,.76-.111,2.884,2.884,0,0,0,.632-.081.866.866,0,0,1,.754,0,.831.831,0,0,0,.653.006.566.566,0,0,1,.386-.034,1.232,1.232,0,0,0,.906-.048,1.19,1.19,0,0,1,.343-.06,10.706,10.706,0,0,0,2.441-.386,1.822,1.822,0,0,1,.609-.091c.835.076.947-.086,1.113-.2Z" transform="translate(-3742.661 -643.692)"/></g><g transform="translate(3749.326 622.066)"><path d="M3805.187,630.245a53.877,53.877,0,0,1,.094,5.891c-.006,1.6-.009,3.2-.04,4.792h1.805v0a.915.915,0,0,0-.9-.9c-5.96-.067-11.922-.159-17.883-.239-9.491-.128-18.984-.174-28.477-.239l-6.5-.044,1.3,1.3q-.316-7.592-.644-15.185l-.1-2.166-1.364,1.356,17.1.026,2.469,0-1.393-1.385.644,7.115a1.44,1.44,0,0,0,1.4,1.4q8.335.442,16.682.3c2.61-.045,5.22-.123,7.83-.2,2.951-.093,5.943-.067,8.874-.436a1.272,1.272,0,0,0,0-2.543,84.142,84.142,0,0,0-8.874.116c-2.609.089-5.219.175-7.83.227q-8.345.168-16.682-.254l1.4,1.4-.665-7.115a1.418,1.418,0,0,0-1.392-1.385l-17.1.025-2.47,0a1.373,1.373,0,0,0-1.363,1.357q.362,7.592.75,15.184l.11,2.167a1.324,1.324,0,0,0,1.3,1.3l17.883-.039c9.493-.02,18.984-.1,28.476-.182,2.167-.018,4.333-.041,6.5-.056l-.9-.9v0a.9.9,0,0,0,1.805,0c0-1.6-.024-3.195-.048-4.792a54.132,54.132,0,0,0-.2-5.891c-.126-1-1.721-1.033-1.61,0Z" transform="translate(-3751.121 -622.066)"/></g><g transform="translate(3782.144 649.887)"><g transform="translate(0.796)"><path d="M3800.415,665.842l-12.893-13.491h12.893Z" transform="translate(-3787.522 -652.351)"/></g><g transform="translate(0 0.905)"><path d="M0,0,13.618.035l.013,4.9L.013,4.9Z" transform="translate(0 9.845) rotate(-46.444)"/></g></g><g transform="translate(3763.299 668.598)"><g transform="translate(0 0.622)"><path d="M3766.252,673.4l12.893,13.491h-12.893Z" transform="translate(-3766.252 -673.397)"/></g><g transform="translate(0.723)"><path d="M0,0,13.618.035l.013,4.9L.013,4.9Z" transform="translate(0 9.845) rotate(-46.444)"/></g></g><g transform="translate(3727.698 639.987)"><path d="M3741.041,644.19l.585,16.281c.31,8.643.734,17.284,1.119,25.925l.263,5.918a1.262,1.262,0,0,0,1.243,1.237q11.636.038,23.273.05l36.786.043,8.389.009a1.366,1.366,0,0,0,1.345-1.339l.578-16.664q.457-13.169.911-26.339l.206-6.1a1.413,1.413,0,0,0-1.4-1.388c-13.976-.47-27.991-.136-41.971-.053-7.293.043-14.587.133-21.881.107-2.678-.009-5.382-.178-8.057-.107a2.48,2.48,0,0,0-1.672.9l-2.122,1.873c-3.62,3.2-7.022,6.644-10.654,9.823-.866.758.4,2.013,1.265,1.258a1.092,1.092,0,0,1,.093-.082c.163-.114-.229.187.039-.031.079-.064.16-.128.239-.191.34-.274.675-.554,1.012-.83,1.11-.909,2.222-1.816,3.325-2.732,2.524-2.094,5.048-4.182,7.526-6.329l1.7-1.475-.912.376c8.9.338,17.836.3,26.745.254,10.624-.06,21.248-.173,31.872-.157,4.483.006,8.97.022,13.451.171l-1.395-1.387q-.276,8.331-.548,16.664l-.851,26.339-.2,6.1,1.346-1.338-23.274.027c-12.262.015-24.524.007-36.786.049l-8.388.028,1.242,1.236-.833-16.28q-.665-12.968-1.452-25.926l-.354-5.918c-.069-1.151-1.857-1.168-1.815,0Z" transform="translate(-3727.698 -641.574)"/></g><g transform="translate(3812.968 640.507)"><path d="M3820.176,643.516a58.809,58.809,0,0,0,6.723,7.162c1.213,1.207,2.4,2.438,3.588,3.671.556.578,1.1,1.164,1.663,1.737a3.829,3.829,0,0,0,1.757,1.244.691.691,0,0,0,.837-.473c.249-1.485-1.278-3.022-2.162-4.047-1.159-1.342-2.414-2.589-3.685-3.823a83.486,83.486,0,0,0-7.49-6.7c-.713-.542-1.737.518-1.232,1.226Z" transform="translate(-3820.042 -642.141)"/></g></g></svg>