<svg xmlns="http://www.w3.org/2000/svg" width="200.999" height="140" viewBox="0 0 200.999 140"><g transform="translate(-4128.093 330.854)"><path d="M4208.6-300.341l.655,0q-.106-2.06-.211-4.122a2.659,2.659,0,0,1,.024-.761,1.8,1.8,0,0,0,.024-.537q-.093-1.464-.13-2.932a4.942,4.942,0,0,1,.132-1.558,5.1,5.1,0,0,1,.97-1.611,1.622,1.622,0,0,1,.8-.656,2.769,2.769,0,0,1,.7-.012c.4,0,.778-.241,1.165-.15a37.7,37.7,0,0,0,5.6,1.1c2.888.239,5.512-.332,7.536-2.5l1.551-1.193a33.065,33.065,0,0,0,6.154-8.4,5.5,5.5,0,0,0,.792-3.773,4.576,4.576,0,0,0-4.078-3.244c-15.73-1.515-18.008,8.218-20.922,6.847-2.811-1.322-4.623,2.159-4.6,5.808,0,0-1.47,3.08-.318,9.377l.695,2.776s.8-.993,2.02.709A11.546,11.546,0,0,1,4208.6-300.341Z" transform="translate(-13.678 0)"/><path d="M4234.427-307.893c.546,3.044,1.235,5.454,1.223,7.237a17.2,17.2,0,0,0,1.8-8.152c-.05-4.942-1.865-5.642-1.865-5.642l-2.826,3.005Z" transform="translate(-18.862 -2.911)"/><path d="M4227.531-239.278c2.425.1,4.32-1.1,4.9-2.486a4.7,4.7,0,0,0-.489-4.293,3.879,3.879,0,0,0-1.308-1.28,3.744,3.744,0,0,0-2.874-.244,6.547,6.547,0,0,0-2.518,1.518,5.08,5.08,0,0,0-.353-4.457,5.052,5.052,0,0,0-3.772-2.382,6.379,6.379,0,0,0-2.155.193,5.294,5.294,0,0,0-3.068,1.861,3.808,3.808,0,0,0-.339,3.811l.231.594s-3.757-2.741-5.021,1.406,1.674,6.546,2.972,6.854,1.81-.549,1.708,1.713-.1,5.621-.1,6.272.648,1.063,5.294,1.2,6.626-.137,6.934-.378.068-3.427.068-3.427l-.084-6.48c-.02,2.746-.134,6.627.152,9.358" transform="translate(-14.841 -13.832)"/><g transform="translate(4201.701 -220.16)"><path d="M4218.65-185.845l-.1-.025a.5.5,0,0,0-.559.229c-1.049,2.12,5.7,1.578,6.652,1.517a41.917,41.917,0,0,0,9.343-1.656,42.856,42.856,0,0,0,8.738-3.7,39.78,39.78,0,0,0,4.054-2.6,8.658,8.658,0,0,0,3.247-3.4.62.62,0,0,0-.9-.7c-1.1.841-2.046,1.854-3.172,2.678a39.8,39.8,0,0,1-3.456,2.262,40.6,40.6,0,0,1-7.47,3.4,42.754,42.754,0,0,1-7.86,1.853c-1.408.193-2.821.291-4.24.349-.63.025-1.261.048-1.893.055-.164,0-2.132.07-2.137.056l-.229.561.089-.061a.457.457,0,0,0-.108-.823Z" transform="translate(-4217.881 196.273)"/></g><g transform="translate(4261.265 -202.198)"><path d="M4290.579-174.353a.041.041,0,0,0,0-.082.041.041,0,0,0,0,.082Z" transform="translate(-4290.54 174.435)"/></g><path d="M4265.377-181.269c1.326-4.826,2.069-12.337-3.412-18.04-8.11-8.438-26.33-4.317-34.047-1.23l-.792-2.521a20.965,20.965,0,0,1-3.64.4,53.168,53.168,0,0,1-7.417-.48c-2.537-.29-6.7.594-9.219.2a43.552,43.552,0,0,0-8.87-.883,50.292,50.292,0,0,1-6.916.176l.456,2.025c-10.4-2.117-26.766-3.5-37.658,5.111-9.75,7.709-4.462,20.057-4.462,20.057h5.015c.478.124.967.231,1.465.324a1.343,1.343,0,0,0,1.048-.18.764.764,0,0,1,.3-.144h.068c.086.008.163.059.218.2a.844.844,0,0,0,.926.651c.67-.014.852-.387,1.1-.73a1.1,1.1,0,0,1,.127-.123h1.349a.849.849,0,0,0,.691.025c.022-.011.04-.016.061-.025h1.147a1.469,1.469,0,0,1,.219.744c.53-.946.9-.608,1.282-.246a2.564,2.564,0,0,0,2.5.273,2.883,2.883,0,0,1,1.113-.317,10.418,10.418,0,0,1,3.526-3.654,19.126,19.126,0,0,1,7.89-2.783,44.322,44.322,0,0,1,4.958-.139,5.781,5.781,0,0,0,3.054-.686,11.8,11.8,0,0,1,2.212-1.4,5.088,5.088,0,0,1,.9-.233.728.728,0,0,1,.928-1.073,20.133,20.133,0,0,0,4.8,1.965c.992.278,2.425.447,2.791,1.594a7.878,7.878,0,0,1,.2,1.841c.054.785.1,1.57.179,2.353a13.288,13.288,0,0,0,.71,3.389,4.526,4.526,0,0,1,.644.852c.238.34.484.44,1.081.219.613-.228,1.208-.681,1.974-.489a3.355,3.355,0,0,0,2.236.137.558.558,0,0,1,.331.079,1.435,1.435,0,0,0,1.222.015.976.976,0,0,1,1.259.2.451.451,0,0,0,.538.127,3.853,3.853,0,0,1,2.924.192c.725.29,1.057.229,1.524-.265.308.483.8.481,1.384.3.349-.108.718-.181,1.056-.3.506-.185.944-.165,1.2.158.407.507.739,1.056,1.765.382a2.539,2.539,0,0,0,2.194-.674c.5-.332.692-.226.852.1.336.681,1.523.555,2.081,1.039a.521.521,0,0,0,.625-.172c.176-.378.788-.591.793-1.045,0-.253.345-.431.727-.45.8-.04,1.46.525,2.347.137.018-.008.082,0,.083.015.119.55.988.523,1.37.866.147.132.243.314.555.218.256-.079.221-.268.21-.407-.042-.534.371-.623,1-.59.422.023.447.355.716.415.613.137.217-.519.579-.465.482.071.989.083,1.447.186.209.047.311.359.64.165.266-.156.093-.364,0-.54-.105-.2-.3-.427.073-.58.438-.18.55.152.765.3.177.118.191.444.549.317a1.357,1.357,0,0,1,1.549.4c.224.177.51.5.874.2.707-.583,1.422-.359,2.166-.259.086-.139-.11-.289.1-.428a3.55,3.55,0,0,1,2.382,0c.124.087.268.238.4.229a1.86,1.86,0,0,1,1.678.779.659.659,0,0,0,.911.143,3.748,3.748,0,0,1,1.2-.456c.329-.126.791-.072.993-.334.448-.582.81-.38,1.12-.012.289.345.574.41.963.026.159-.157.366-.324.594-.144.574.454.963.229,1.376-.2a1.042,1.042,0,0,1,.549-.248,8.8,8.8,0,0,0,3.887-1.592c.08-.052.169-.11.264-.167h5.652a25.61,25.61,0,0,0,1.44-3.62c.448-.283.372-.716.371-1.111A.5.5,0,0,0,4265.377-181.269Z" transform="translate(-3.581 -22.46)"/><g transform="translate(4224.39 -269.368)"><path d="M4245.56-255.935c.429,5.06.769,10.105.87,15.185.107,5.41.027,10.823-.179,16.23-.105,2.795-.314,5.59-.381,8.385-.01.411.6.4.63,0a58.243,58.243,0,0,0-.066-6.515c-.075-2.55.118-5.085.182-7.633.136-5.364.1-10.726.279-16.091.092-2.744.209-5.49.22-8.237a.32.32,0,0,0-.639,0c-.018,4.908-.119,9.814-.193,14.72-.042,2.8-.021,5.592-.075,8.388-.05,2.632-.283,5.267-.235,7.9a41.093,41.093,0,0,1-.092,7.383l.619.085c.251-2.454.321-4.938.416-7.4q.155-4.036.209-8.074c.072-5.437.019-10.883-.349-16.31a70.542,70.542,0,0,0-.885-8.058.169.169,0,0,0-.332.044Z" transform="translate(-4245.559 256.1)"/></g><g transform="translate(4212.314 -286.115)"><path d="M4257.044-249.984a2.079,2.079,0,0,0,.1-1.533c-.076-.623-.14-1.246-.2-1.871-.13-1.351-.244-2.7-.4-4.051a30.556,30.556,0,0,0-1.826-8.115,12.033,12.033,0,0,0-4.591-5.721,30.346,30.346,0,0,0-7.9-3.289,41.661,41.661,0,0,0-11.222-1.9c-.189,0-.244.308-.046.341,6.036,1.025,12.411,1.921,17.847,4.945a11.272,11.272,0,0,1,4.88,5.255,26.357,26.357,0,0,1,1.965,7.854c.184,1.47.319,2.945.475,4.419.07.671.145,1.342.231,2.01.082.62.054,1.263.573,1.669a.077.077,0,0,0,.12-.016Z" transform="translate(-4230.828 276.461)"/></g><g transform="translate(4260.018 -241.75)"><path d="M4289.172-215.985a4.875,4.875,0,0,0,1.835-1.745c.545-.753,1-1.565,1.6-2.282a5.4,5.4,0,0,1,2.182-1.708,3.264,3.264,0,0,1,1.326-.218,3.63,3.63,0,0,1,1.349.484c.3.137.64-.224.372-.484a3.045,3.045,0,0,0-2.567-.507,4.9,4.9,0,0,0-2.485,1.418,13.074,13.074,0,0,0-1.792,2.394,20.7,20.7,0,0,1-1.942,2.486.1.1,0,0,0,.125.164Z" transform="translate(-4289.018 222.521)"/></g><g transform="translate(4260.362 -236.778)"><path d="M4289.48-209.3a3.02,3.02,0,0,0,3.273.478,4.133,4.133,0,0,0,1.916-2.687,11.189,11.189,0,0,0,.321-2.148c.026-.36.042-.721.067-1.08a1.674,1.674,0,0,1,.286-1.023c.368-.384.58.01.668.353a9.533,9.533,0,0,1,.207,1.048,10.285,10.285,0,0,1,.077,2.04,12.056,12.056,0,0,1-1.23,4.469.212.212,0,0,0,.365.215,9.866,9.866,0,0,0,1.072-8.109.86.86,0,0,0-1.062-.7,1.369,1.369,0,0,0-.875,1.227c-.231,1.527-.052,3.1-.776,4.521a2.951,2.951,0,0,1-1.59,1.549,3.689,3.689,0,0,1-2.575-.341c-.111-.05-.259.095-.144.188Z" transform="translate(-4289.438 216.477)"/></g><g transform="translate(4267.686 -238.764)"><path d="M4298.8-213.343a29.662,29.662,0,0,0,.387-3.885,1.422,1.422,0,0,1,.338-.888c.409-.37.623.135.656.485a13.506,13.506,0,0,1-.034,1.937,30.7,30.7,0,0,1-.495,4.028q-.179.944-.419,1.875a13.313,13.313,0,0,0-.448,1.917c-.021.206.278.261.373.1a8.815,8.815,0,0,0,.814-2.412q.3-1.214.491-2.451a22.078,22.078,0,0,0,.35-5,1.264,1.264,0,0,0-.725-1.221,1.149,1.149,0,0,0-1.3.7,5.52,5.52,0,0,0-.286,2.021,15.943,15.943,0,0,0-.1,2.732c.024.211.331.289.393.053Z" transform="translate(-4298.371 218.892)"/></g><g transform="translate(4253.724 -241.901)"><path d="M4297.729-219.436c.042-.769-.223-1.555-.136-2.317a.644.644,0,0,1,.058-.266.516.516,0,0,1,.428-.162c.19.067.341.384.424.558a5.1,5.1,0,0,1,.376,1.2,22.322,22.322,0,0,1,.182,4.988,12.748,12.748,0,0,1-1.428,5.621,10.211,10.211,0,0,1-7.429,5.452c-2.97.47-5.771-.366-8.6-1.144-.215-.059-.372.275-.157.373a16.107,16.107,0,0,0,8.49,1.355,10.441,10.441,0,0,0,5.4-2.309,11.674,11.674,0,0,0,2.938-3.812,15.689,15.689,0,0,0,1.322-7.318,20.557,20.557,0,0,0-.165-2.987,3.687,3.687,0,0,0-.993-2.308.756.756,0,0,0-1.246.392,2.655,2.655,0,0,0-.013,1.08,9.937,9.937,0,0,0,.29,1.64.135.135,0,0,0,.264-.036Z" transform="translate(-4281.34 222.705)"/></g><g transform="translate(4262.686 -238.706)"><path d="M4298.2-218.383c-.232-.343-.808-.414-1.191-.434a3.578,3.578,0,0,0-1.385.214,4.836,4.836,0,0,0-2.266,1.928,7.086,7.086,0,0,0-1.04,3.319,10.1,10.1,0,0,0,0,1.875c.027.3.069.609.119.911a3.064,3.064,0,0,0,.2.887.182.182,0,0,0,.337-.091,3.679,3.679,0,0,0-.153-.752q-.083-.415-.137-.833a11.433,11.433,0,0,1-.1-1.709,6.6,6.6,0,0,1,.855-3.2,4.434,4.434,0,0,1,2.155-1.814,3.292,3.292,0,0,1,1.305-.281,9.582,9.582,0,0,0,1.231.157.12.12,0,0,0,.071-.175Z" transform="translate(-4292.272 218.822)"/></g><g transform="translate(4139.224 -238.426)"><path d="M4153.475-209.431c-1.609-1.37-1.792-3.575-2.91-5.257-1.2-1.805-2.995-3.547-5.241-3.751-1.073-.1-2.7-.076-3.555.7-.271.249.074.63.374.484a5.686,5.686,0,0,1,4.031-.468,7.337,7.337,0,0,1,3.43,2.641,17.147,17.147,0,0,1,1.871,3.621,4.013,4.013,0,0,0,1.9,2.2c.1.039.177-.109.1-.174Z" transform="translate(-4141.671 218.481)"/></g><g transform="translate(4141.357 -234.207)"><path d="M4157.275-202.783a6.049,6.049,0,0,0-4.541-2.208,18.4,18.4,0,0,0-2.254-.028,2.471,2.471,0,0,1-1.367-.118,4.945,4.945,0,0,1-1.308-2.075,14.148,14.148,0,0,1-.9-2.41,14.884,14.884,0,0,1-.291-1.93,2.445,2.445,0,0,0-.439-1.445,1.06,1.06,0,0,0-.953-.339c-.463.089-.615.5-.713.906a8.4,8.4,0,0,0,1.474,7.077c.15.191.456-.055.332-.257a9.09,9.09,0,0,1-1.328-6.255,2.315,2.315,0,0,1,.158-.706c.261-.427.664-.051.778.271a8.991,8.991,0,0,1,.249,1.739,10.6,10.6,0,0,0,.7,2.5,18.655,18.655,0,0,0,.932,2.051,3.231,3.231,0,0,0,1.17,1.416,2.367,2.367,0,0,0,1.086.13c.621-.012,1.242-.044,1.864-.031a7.659,7.659,0,0,1,5.169,1.86c.095.085.271-.03.187-.145Z" transform="translate(-4144.273 213.351)"/></g><g transform="translate(4138.917 -235.867)"><path d="M4143.854-210.466a14.168,14.168,0,0,0-.22-2.584,3.915,3.915,0,0,0-.417-1.792,1.139,1.139,0,0,0-1.234-.484,1.19,1.19,0,0,0-.685,1.215,19.576,19.576,0,0,0,.544,4.405q.239,1.1.585,2.176a7.333,7.333,0,0,0,.9,2.133.2.2,0,0,0,.365-.155,10.5,10.5,0,0,0-.509-1.649q-.273-.823-.489-1.662a24.889,24.889,0,0,1-.654-3.58,13.334,13.334,0,0,1-.112-1.668c.008-.308.075-.715.494-.586.286.088.405.416.468.679.283,1.175.188,2.453.571,3.605a.2.2,0,0,0,.392-.053Z" transform="translate(-4141.295 215.37)"/></g><g transform="translate(4137.1 -238.622)"><path d="M4141.133-215.741a8.933,8.933,0,0,0,.208-1.358,2.4,2.4,0,0,0-.042-1.109.763.763,0,0,0-1.211-.338,3.166,3.166,0,0,0-.924,2.129,12.2,12.2,0,0,0-.059,2.278,43.825,43.825,0,0,0,1.114,7.292,8.186,8.186,0,0,0,2.038,4.284,10.031,10.031,0,0,0,4.942,2.475,21.276,21.276,0,0,0,4.5.464,25.911,25.911,0,0,0,6.022-.559.205.205,0,0,0-.055-.4,44.746,44.746,0,0,1-8.8.239,11.91,11.91,0,0,1-5.281-1.808,6.141,6.141,0,0,1-2.362-2.989,34.584,34.584,0,0,1-1.32-6.437,25.889,25.889,0,0,1-.3-3.249,6.017,6.017,0,0,1,.445-2.919.96.96,0,0,1,.236-.339l.541-.044.065.161a1.362,1.362,0,0,1,.027.566,11.686,11.686,0,0,0-.047,1.627.135.135,0,0,0,.264.036Z" transform="translate(-4139.08 218.719)"/></g><g transform="translate(4140.375 -235.894)"><path d="M4143.2-214.753a2.81,2.81,0,0,0,.731-.132,3.456,3.456,0,0,1,.754-.056,4.2,4.2,0,0,1,1.6.433,3.626,3.626,0,0,1,2.074,2.25,7.513,7.513,0,0,1,.01,3.163c-.085.524-.191,1.045-.3,1.563a5.456,5.456,0,0,0-.28,1.3.183.183,0,0,0,.337.091,2.725,2.725,0,0,0,.178-.744c.053-.262.107-.525.157-.789.11-.582.2-1.17.258-1.76a6.971,6.971,0,0,0-.241-3.352,4.723,4.723,0,0,0-2.313-2.292,3.932,3.932,0,0,0-1.649-.327c-.444.01-1.137.072-1.414.468-.057.082.022.171.1.18Z" transform="translate(-4143.074 215.402)"/></g><g transform="translate(4174.383 -285.506)"><path d="M4184.792-251.654c.871-3.1,1.169-6.276,1.782-9.43a18.467,18.467,0,0,1,1.161-3.94,15.4,15.4,0,0,1,2.6-3.951,8.143,8.143,0,0,1,2.692-2.148,24.056,24.056,0,0,1,2.686-.982c2.351-.747,4.746-1.355,7.146-1.919,1.212-.284,2.425-.557,3.644-.809.825-.17,1.644-.39,2.474-.531.2-.034.152-.359-.047-.355a26.351,26.351,0,0,0-5.431.883c-2.5.568-4.979,1.221-7.42,1.99a13.245,13.245,0,0,0-5.221,2.494,15.961,15.961,0,0,0-4.621,7.854c-.89,3.524-1.043,7.207-1.675,10.78a.119.119,0,0,0,.23.064Z" transform="translate(-4184.559 275.72)"/></g><path d="M4299.486-185.819l-.219.7-1.758,5.585h46.3l15.816-44.8-5.437-.165-13.016,37.524.329,3.637Z" transform="translate(-30.53 -18.877)"/><g transform="translate(4203.802 -296.001)"><path d="M4220.5-287.948c.116.079.19.212.3.3a1.359,1.359,0,0,0,.261.17,3.976,3.976,0,0,0,.708.249,6.542,6.542,0,0,0,1.5.183,3.525,3.525,0,0,0,1.508-.261,4.153,4.153,0,0,0,.68-.379,1.148,1.148,0,0,0,.5-.5.236.236,0,0,0-.227-.3,1.279,1.279,0,0,0-.57.29,4.207,4.207,0,0,1-.523.308,2.973,2.973,0,0,1-1.418.25,7.411,7.411,0,0,1-1.3-.137,4.939,4.939,0,0,1-.614-.174,2.975,2.975,0,0,1-.683-.211c-.127-.088-.246.119-.121.206Z" transform="translate(-4220.444 288.481)"/></g><g transform="translate(4199.6 -307.395)"><path d="M4215.324-301.829a1.609,1.609,0,0,0,.518,1.3,2.606,2.606,0,0,0,1.137.66,1.2,1.2,0,0,0,1.319-.572,4.021,4.021,0,0,0,.33-.718l.156-.4a1.232,1.232,0,0,0,.14-.483.294.294,0,0,0-.5-.206,2.052,2.052,0,0,0-.324.691,6.108,6.108,0,0,1-.263.6.768.768,0,0,1-.308.36.588.588,0,0,1-.424,0,3.174,3.174,0,0,1-1.541-1.3.132.132,0,0,0-.243.066Z" transform="translate(-4215.319 302.332)"/></g><g transform="translate(4210.497 -307.598)"><path d="M4228.71-302.419a3.11,3.11,0,0,0-.1.749,2.159,2.159,0,0,0,.124.679,2.07,2.07,0,0,0,.774,1.068,1.062,1.062,0,0,0,1.085.073,1.831,1.831,0,0,0,.73-.816,3.349,3.349,0,0,0,.27-.715,3.592,3.592,0,0,0,.072-.368.729.729,0,0,0-.037-.545.31.31,0,0,0-.478-.062c-.163.151-.15.424-.2.628a4.165,4.165,0,0,1-.167.555,1.439,1.439,0,0,1-.081.188c-.036.072-.074.142-.117.211-.021.032-.042.063-.063.095-.006.009-.039.053,0,.006l-.029.035c-.047.055-.1.1-.149.154s.041-.024-.025.019l-.064.039c-.062.036.023,0-.031.016-.035.01-.068.02-.1.027.066-.014,0,0-.03,0s-.094-.016-.031,0c-.03-.007-.06-.014-.09-.024a.387.387,0,0,1-.039-.013c.03.012.027.013,0,0s-.057-.035-.085-.054.034.03,0,0l-.035-.03a1.622,1.622,0,0,1-.151-.162,2.383,2.383,0,0,1-.224-.405,2.721,2.721,0,0,1-.116-.292c-.035-.1-.059-.211-.088-.317a1.712,1.712,0,0,1-.075-.668c.025-.259-.381-.3-.445-.061Z" transform="translate(-4228.611 302.579)"/></g><g transform="translate(4205.886 -309.103)"><path d="M4224.411-304.268a32.6,32.6,0,0,1,1.52,4.8,24.573,24.573,0,0,1,.425,4.612l.4-.4a8.234,8.234,0,0,1-3.371-.758c-.333-.14-.57.426-.247.585a9.6,9.6,0,0,0,1.846.651,6.922,6.922,0,0,0,1.771.327.407.407,0,0,0,.4-.4,18.846,18.846,0,0,0-2.538-9.5c-.064-.108-.259-.037-.21.089Z" transform="translate(-4222.986 304.409)"/></g><g transform="translate(4156.508 -327.964)"><g transform="translate(44.515)"><path d="M4217.127-315.183a13.981,13.981,0,0,0,3.886.534,8.737,8.737,0,0,0,3.569-.61,2.075,2.075,0,0,0,1.215-2.454c-.37-1.205-1.614-1.661-2.571-2.039l-.053.231a11.209,11.209,0,0,0,2.747.517,4.259,4.259,0,0,0,2.49-.406c.5-.294,1.137-.929.731-1.65a2.223,2.223,0,0,0-.914-.75c-.5-.293-1-.585-1.5-.894l-.117.323a5.555,5.555,0,0,0,6.162-1.441c.57-.616,1.678-2.019.753-2.9a2.386,2.386,0,0,0-1.385-.511,11.458,11.458,0,0,0-2.155-.087,21.275,21.275,0,0,0-4.849.842c-.136.039-.077.263.06.239,2.383-.41,4.763-1.122,7.236-.642.612.119,1.351.489,1.058,1.319a4.325,4.325,0,0,1-.931,1.414,5.446,5.446,0,0,1-2.528,1.555,5.4,5.4,0,0,1-3.341-.128c-.172-.062-.29.229-.117.324a12.905,12.905,0,0,1,2.058,1.22c.98.81-.576,1.6-1.143,1.743a9.965,9.965,0,0,1-4.29-.321c-.122-.024-.146.206-.025.237a4.147,4.147,0,0,1,1.512.61,2.254,2.254,0,0,1,.959,1.5c.154,1.363-1.166,1.96-2.122,2.176a13.46,13.46,0,0,1-6.349-.158c-.123-.032-.171.174-.048.208Z" transform="translate(-4217.056 327.34)" fill="#b6b6b7"/></g><g transform="translate(0 103.994)"><path d="M4162.8-197.014a44.349,44.349,0,0,1,20.08-3.663A43.788,43.788,0,0,1,4192.916-199a77.349,77.349,0,0,1,9.848,3.868,64.194,64.194,0,0,0,10.835,4.09.093.093,0,0,0,.05-.179c-6.882-1.855-13.036-5.594-19.82-7.714a44.1,44.1,0,0,0-20.08-1.4,44.426,44.426,0,0,0-10.977,3.27c-.038.016,0,.072.032.055Z" transform="translate(-4162.754 200.904)" fill="#b6b6b6"/><g transform="translate(37.686 3.338)"><path d="M4259.123-196.789a46.73,46.73,0,0,0-13.4,1.548,54.8,54.8,0,0,0-11.08,3.3,14.722,14.722,0,0,0-4.437,3.141,12.817,12.817,0,0,0,.526-2.976.109.109,0,0,0-.138-.105c-4.14,1.54-7.424,4.632-10.489,7.732q.97-2,1.939-4.007a.093.093,0,0,0-.125-.126,36.4,36.4,0,0,0-8.052,6.166c.523-1.305,1.043-2.612,1.545-3.926.032-.086-.081-.123-.137-.08a49.639,49.639,0,0,0-5.6,5.214,25.946,25.946,0,0,0,1.676-4.262.07.07,0,0,0-.115-.067q-1.252,1.125-2.508,2.245c.02.039.039.078.06.117h0q1.173-1.044,2.347-2.088a30.137,30.137,0,0,1-1.59,3.872l0,.012a1.088,1.088,0,0,1-.045.63,39.533,39.533,0,0,1,5.641-5.354q-.855,2.043-1.677,4.1c-.043.108.117.19.189.111a32.724,32.724,0,0,1,8.091-6.369q-1.071,2.163-2.141,4.326a.115.115,0,0,0,.18.14c3.178-3.181,6.44-6.469,10.713-8.107a14.508,14.508,0,0,1-.679,3.222.125.125,0,0,0,.208.122c2.345-2.776,5.82-4.139,9.22-5.111a95.958,95.958,0,0,1,12.3-2.773,43.692,43.692,0,0,1,7.574-.451C4259.251-196.586,4259.249-196.781,4259.123-196.789Z" transform="translate(-4208.726 196.847)" fill="#b6b6b6"/></g></g></g><g transform="translate(4194.979 -261.426)"><path d="M4216.232-245.295a4.427,4.427,0,0,0-3.569-1.085,3.746,3.746,0,0,0-2.616,2.366,5.749,5.749,0,0,0,1.925,6.522,5.533,5.533,0,0,0,1.6.864,3.585,3.585,0,0,0,1.943.279.309.309,0,0,0,.072-.557,15.836,15.836,0,0,0-1.763-.4,4.722,4.722,0,0,1-1.583-.882,5.089,5.089,0,0,1-1.793-3.363,4.156,4.156,0,0,1,1.307-3.568c1.256-1.059,2.915-.446,4.242.127.179.077.419-.153.233-.3Z" transform="translate(-4209.683 246.443)"/></g><g transform="translate(4200.17 -251.684)"><path d="M4216.229-234.383c-.146,1.342-.1,2.706-.131,4.054s-.031,2.7-.083,4.052a.329.329,0,0,0,.325.326,2.87,2.87,0,0,1,.47-.028c.243.04.5.16.747.21a15.273,15.273,0,0,0,1.685.219,30.213,30.213,0,0,0,3.547.086c1.151-.038,2.3-.153,3.444-.233.568-.04,1.14-.03,1.708-.067a1,1,0,0,0,.944-.5.168.168,0,0,0-.143-.249,5.41,5.41,0,0,0-1.114.173,15.963,15.963,0,0,1-1.68.142c-1.05.054-2.108.044-3.16.045-1.024,0-2.048-.016-3.071-.065a13.334,13.334,0,0,0-3.05-.133l.17.069a.664.664,0,0,0-.413-.306l.239.313c.081-1.381.171-2.769.171-4.154a26.5,26.5,0,0,0-.177-4.011c-.04-.265-.405-.166-.43.058Z" transform="translate(-4216.015 234.6)"/></g><g transform="translate(4202.725 -248.848)"><path d="M4219.2-230.756a2.4,2.4,0,0,0,1.053.392c.378.074.76.141,1.144.18a16.85,16.85,0,0,0,2.323.067c.5-.02.5-.8,0-.779a16.811,16.811,0,0,1-2.239-.058c-.362-.035-.725-.064-1.085-.112a3.119,3.119,0,0,0-1.1-.049.217.217,0,0,0-.1.36Z" transform="translate(-4219.131 231.152)" fill="#f7f6f4"/></g><g transform="translate(4202.938 -246.788)"><path d="M4219.526-228.136a5.366,5.366,0,0,0,1.525.351q.784.1,1.573.161c.525.042,1.053.072,1.579.089a3.827,3.827,0,0,0,1.583-.084c.314-.138.16-.548-.084-.648a2.138,2.138,0,0,0-.8-.058c-.234,0-.468,0-.7-.008q-.762-.016-1.52-.068t-1.516-.137a7.184,7.184,0,0,0-1.507-.095c-.23.023-.4.377-.134.5Z" transform="translate(-4219.391 228.647)" fill="#f7f6f4"/></g><g transform="translate(4128.093 -245.801)"><path d="M4128.183-224.726a7.421,7.421,0,0,1,4.273-2.313,3.408,3.408,0,0,1,2.451.85c.5.414.938.907,1.467,1.29a2.288,2.288,0,0,0,3.05.039,13.527,13.527,0,0,1,1.387-1.41,2.639,2.639,0,0,1,1.673-.43,2.981,2.981,0,0,1,1.757.716,4.469,4.469,0,0,1,.971,1.754,4.387,4.387,0,0,0,2.411,2.178,10.751,10.751,0,0,0,7.474-.114,15.244,15.244,0,0,0,7.065-5.192c.039-.051-.049-.121-.091-.07a16,16,0,0,1-6.8,5c-2.486.913-5.654,1.264-8.076-.037a4.2,4.2,0,0,1-1.5-1.291c-.376-.547-.477-1.216-.821-1.776a3.005,3.005,0,0,0-2.331-1.345,3.038,3.038,0,0,0-2.606,1.206c-.493.558-1.013,1.208-1.825,1.23a3.365,3.365,0,0,1-2.214-1.077,7.456,7.456,0,0,0-1.792-1.384,3.537,3.537,0,0,0-1.935-.254,8.027,8.027,0,0,0-4.065,2.363c-.048.044.024.117.074.072Z" transform="translate(-4128.093 227.448)"/></g><g transform="translate(4261.92 -241.572)"><path d="M4291.357-222.265a.021.021,0,0,0,0-.041.021.021,0,0,0,0,.041Z" transform="translate(-4291.338 222.306)"/></g><g transform="translate(4253.991 -248.714)"><path d="M4281.679-223.573a6.026,6.026,0,0,0,5.9.568,6.139,6.139,0,0,0,2.456-1.937c.822-1.1,1.3-2.4,2.047-3.547a5.508,5.508,0,0,1,1.413-1.513c.487-.342,2.028-1.231,2.549-.558.469.605.235,1.713.321,2.428a2.4,2.4,0,0,0,.558,1.361c.671.706,1.475.232,1.951-.429a12.315,12.315,0,0,1,1.116-1.568c.669-.679,1.805-1.388,2.423-.24.516.96-.3,3.062,1.344,3.072.813.006,1.453-.5,2.253-.044a2.292,2.292,0,0,1,1.083,2.051c0,.135.192.129.205,0a2.37,2.37,0,0,0-1.5-2.416,2.742,2.742,0,0,0-1.611.1c-.494.108-1.1.076-1.259-.512a7.218,7.218,0,0,1-.036-1.273c-.086-1.032-.785-2.217-1.964-1.68a4.118,4.118,0,0,0-1.352,1.1c-.409.481-.67,1.082-1.1,1.539a.951.951,0,0,1-1.005.365,1.36,1.36,0,0,1-.74-.9,12.4,12.4,0,0,1-.23-2.218c-.069-.445-.217-1.049-.731-1.143a2.916,2.916,0,0,0-1.5.34c-2.669,1.155-3,4.26-4.859,6.191a6.018,6.018,0,0,1-7.7.818c-.03-.021-.059.029-.028.05Z" transform="translate(-4281.666 230.989)"/></g><g transform="translate(4194.653 -315.566)"><path d="M4227.6-312.011a23.771,23.771,0,0,1,3.271,9.165,28.667,28.667,0,0,1,.274,5.749,18.925,18.925,0,0,1-.966,5.785,11.509,11.509,0,0,1-7.5,6.914,8.664,8.664,0,0,1-5.289-.19,11.058,11.058,0,0,1-4.241-3.3,13.6,13.6,0,0,1-2.517-4.666,29.936,29.936,0,0,1-.947-4.962c-.034-.238-.4-.171-.408.056a16.193,16.193,0,0,0,2.664,9.173,13.215,13.215,0,0,0,3.919,3.781,8.465,8.465,0,0,0,5.315,1.123,11.757,11.757,0,0,0,8.721-5.925,13.421,13.421,0,0,0,1.61-5.355,29.036,29.036,0,0,0,.069-6.38,25.183,25.183,0,0,0-3.681-11.146c-.121-.187-.419-.015-.3.175Z" transform="translate(-4209.285 312.267)"/></g><g transform="translate(4197.321 -292.145)"><path d="M4212.568-283.429a11.368,11.368,0,0,1,1.017,3.552c.076.594.125,1.194.16,1.792a2.719,2.719,0,0,0,.313,1.583.209.209,0,0,0,.325-.042c.34-.455.2-1.25.161-1.781a15.746,15.746,0,0,0-.22-1.833,9.793,9.793,0,0,0-1.338-3.516.242.242,0,0,0-.418.245Z" transform="translate(-4212.539 283.791)"/></g><g transform="translate(4212.388 -290.195)"><path d="M4231.584-281.382c-.661.456-.588,1.558-.622,2.265-.021.426-.045.854-.04,1.281a2.2,2.2,0,0,0,.2,1.263c.079.1.255.174.356.046a1.96,1.96,0,0,0,.259-1.133c.023-.412.034-.824.049-1.237.015-.4.028-.795.058-1.19.013-.177.021-.353.051-.528a2.766,2.766,0,0,0,.067-.551.252.252,0,0,0-.376-.216Z" transform="translate(-4230.919 281.421)"/></g><g transform="translate(4196.901 -287.626)"><path d="M4212.58-276.13a6.05,6.05,0,0,0,.182,5.42c1.063,1.923,3.14,2.815,5.186,3.283a14.336,14.336,0,0,0,7.022-.138,6.4,6.4,0,0,0,4.491-3.363,7.288,7.288,0,0,0,.363-3.6c-.128-1.18-.223-2.676-1.019-3.612-.368-.431-1.074.128-.779.6a8.2,8.2,0,0,1,.872,2.785,7.763,7.763,0,0,1,.142,3.019c-.383,1.939-2.094,2.991-3.849,3.545-3.578,1.128-9.038,1.38-11.354-2.226a6.275,6.275,0,0,1-.689-5.473c.119-.329-.422-.563-.569-.24Z" transform="translate(-4212.027 278.298)"/></g><g transform="translate(4213.165 -287.216)"><path d="M4231.875-277.52a3.2,3.2,0,0,0,.5.8,6.564,6.564,0,0,1,.445.733,4.343,4.343,0,0,1,.44,1.573,6.364,6.364,0,0,1-.093,1.651c-.05.276-.1.548-.178.817a2.7,2.7,0,0,0-.222.9.4.4,0,0,0,.6.346,1.75,1.75,0,0,0,.564-.85,5.889,5.889,0,0,0,.335-.966,5.879,5.879,0,0,0,.106-2.053,4.791,4.791,0,0,0-.631-1.9c-.353-.577-.937-1.291-1.66-1.332a.222.222,0,0,0-.21.279Z" transform="translate(-4231.866 277.799)"/></g><g transform="translate(4197.345 -286.889)"><path d="M4213.625-277.223a5.049,5.049,0,0,0-1.027,2.977,9.182,9.182,0,0,0,0,1.457c.048.512.084,1.308.5,1.669a.572.572,0,0,0,.881-.114,2.5,2.5,0,0,0,.2-1.463c-.008-.471-.045-.94-.034-1.412a9.754,9.754,0,0,1,.454-2.546c.153-.535-.583-1.018-.97-.567Z" transform="translate(-4212.569 277.402)"/></g><g transform="translate(4184.412 -275.492)"><path d="M4197.094-262.5a2.6,2.6,0,0,1,1.371-.521,3.3,3.3,0,0,1,1.452.225.26.26,0,0,0,.252-.067.233.233,0,0,0,.075-.183.259.259,0,0,0-.127-.224,3,3,0,0,0-3.267.523c-.17.151.074.379.245.246Z" transform="translate(-4196.792 263.545)"/></g><g transform="translate(4192.455 -274.557)"><path d="M4208.521-262.4a3.281,3.281,0,0,0-1.2.655,3.067,3.067,0,0,0-.44.46,1.445,1.445,0,0,0-.212.359.447.447,0,0,0-.026.389.206.206,0,0,0,.228.093c.117-.02.189-.127.262-.211.027-.032.053-.066.077-.1l.013-.017c.042-.051.082-.1.122-.155-.035.047.018-.023.021-.026.014-.018.029-.035.044-.053.032-.038.065-.075.1-.111a2.7,2.7,0,0,1,.214-.207c.034-.03.069-.058.1-.087.051-.042-.021.015.028-.021l.065-.048c.083-.057.166-.109.252-.158a2.811,2.811,0,0,1,.254-.127c.028-.012-.029.01.02-.008l.076-.029c.051-.019.1-.035.154-.052a.29.29,0,0,0,.2-.35.287.287,0,0,0-.349-.2Z" transform="translate(-4206.603 262.408)"/></g><g transform="translate(4190.941 -279.739)"><path d="M4207.443-268.7a2.784,2.784,0,0,0-1.648.443,2.823,2.823,0,0,0-.644.558,1.909,1.909,0,0,0-.268.379.676.676,0,0,0-.109.493.225.225,0,0,0,.325.132c.134-.067.2-.216.274-.337.065-.1.125-.2.2-.3a2.312,2.312,0,0,1,.5-.486,2.352,2.352,0,0,1,1.37-.445.219.219,0,0,0,0-.438Z" transform="translate(-4204.757 268.709)"/></g><g transform="translate(4189.057 -283.383)"><path d="M4202.608-272.721a2.5,2.5,0,0,1,1.039.485c-.025-.019.017.015.024.021l.054.045c.036.031.071.063.1.1.071.069.139.142.206.216a4.242,4.242,0,0,1,.355.449.22.22,0,0,0,.273.09.218.218,0,0,0,.126-.258,2.463,2.463,0,0,0-2.125-1.559c-.236-.026-.288.368-.056.417Z" transform="translate(-4202.458 273.139)"/></g><g transform="translate(4194.335 -284.41)"><path d="M4209.546-274.309a1.83,1.83,0,0,0-.534.755,1.781,1.781,0,0,0-.105.419.546.546,0,0,0,.174.556.217.217,0,0,0,.259-.034.212.212,0,0,0,.058-.083c0,.006.032-.073.014-.034s.007-.012.009-.019a.407.407,0,0,0,.032-.086,1.367,1.367,0,0,0,.015-.147c0-.042.007-.027,0,0a.367.367,0,0,0,.006-.041c0-.029.008-.058.011-.087s0-.014,0,.007c0,.044,0,0,0-.012.006-.03.012-.062.02-.092a1.619,1.619,0,0,1,.057-.188l.015-.039c.014-.038-.029.063,0,0,.014-.029.026-.057.041-.084a1.639,1.639,0,0,1,.1-.16c.007-.011.017-.022.024-.034.019-.029-.034.04,0,0l.06-.071a1.635,1.635,0,0,1,.142-.137.28.28,0,0,0,0-.4.286.286,0,0,0-.393,0Z" transform="translate(-4208.897 274.387)"/></g><g transform="translate(4181.548 -278.51)"><path d="M4193.541-266.721a1.906,1.906,0,0,1,1.021.226,1.836,1.836,0,0,1,.421.305c.067.064.13.133.2.2.091.089.165.191.306.187a.2.2,0,0,0,.177-.1.388.388,0,0,0-.074-.4,1.317,1.317,0,0,0-.216-.252,2.434,2.434,0,0,0-.548-.384,2.411,2.411,0,0,0-1.282-.265.249.249,0,0,0-.243.243.245.245,0,0,0,.243.243Z" transform="translate(-4193.298 267.215)"/></g><g transform="translate(4179.443 -271.196)"><path d="M4190.911-257.838a1.9,1.9,0,0,1,.25.068l.061.022c.006,0,.07.032.02.008.04.018.079.036.117.056a2.05,2.05,0,0,1,.211.13l.053.038c.014.012.011.009-.009-.007l.025.021c.034.027.066.056.1.086a1.863,1.863,0,0,1,.171.181c.014.016.027.034.041.051-.036-.047.008.011.012.016.025.035.049.072.072.108s.045.074.068.11a.973.973,0,0,0,.065.085l.014.019a2.087,2.087,0,0,0,.175.215.152.152,0,0,0,.253-.067,1.251,1.251,0,0,0-.51-1.08,2.187,2.187,0,0,0-1.057-.538.253.253,0,0,0-.3.174.252.252,0,0,0,.173.305Z" transform="translate(-4190.731 258.322)"/></g><g transform="translate(4188.368 -270.041)"><path d="M4204.093-256.7a1.815,1.815,0,0,0-1.445-.125c-.442.147-1.037.535-1.03,1.063a.236.236,0,0,0,.4.165c-.048.037.106-.089.061-.047.015-.014.087-.1.058-.067l.029-.033c.018-.02.036-.039.055-.058.066-.067.128-.136.2-.2.021-.016.046-.036.011-.01l.066-.046a1.09,1.09,0,0,1,.115-.07c.043-.025.086-.047.131-.068.024-.012.054-.022.012-.006l.076-.028c.091-.031.182-.047.274-.069.037-.009-.048,0,.012,0,.027,0,.053,0,.081-.006.045,0,.089,0,.134,0l.08,0c.06,0-.024,0,.012,0a1.376,1.376,0,0,1,.144.03c.043.012.085.026.128.04.079.026-.048-.026.027.011l.072.037a.306.306,0,0,0,.411-.108.3.3,0,0,0-.107-.412Z" transform="translate(-4201.618 256.919)"/></g><g transform="translate(4191.769 -265.913)"><path d="M4207.9-251.9a2.255,2.255,0,0,0-1.572.8,2.485,2.485,0,0,0-.464.809,1.121,1.121,0,0,0,.009.938c.086.129.322.171.4,0a.836.836,0,0,0,.075-.253q0-.031,0,0l.006-.044c.007-.034.014-.067.02-.1l.01-.082c0,.032,0,.03,0-.007s.01-.058.017-.088c.012-.058.027-.117.044-.174a1.788,1.788,0,0,1,.06-.17c-.021.05.013-.027.017-.037.015-.032.031-.063.048-.095a1.9,1.9,0,0,1,.1-.168c.016-.025.034-.05.051-.075.033-.048-.013.014.027-.035a1.823,1.823,0,0,1,.531-.461,1.319,1.319,0,0,1,.285-.13q.086-.027.173-.047a.913.913,0,0,1,.164-.025.286.286,0,0,0,.278-.28.282.282,0,0,0-.278-.28Z" transform="translate(-4205.767 251.899)"/></g><g transform="translate(4202.947 -271.364)"><path d="M4219.768-257.373a1.824,1.824,0,0,1,1.586-.6,1.8,1.8,0,0,1,.776.316,2.633,2.633,0,0,1,.329.284.622.622,0,0,0,.388.238.19.19,0,0,0,.178-.137c.135-.336-.369-.73-.6-.884a2.308,2.308,0,0,0-1.019-.356,2.239,2.239,0,0,0-1.947.828c-.174.217.118.529.313.313Z" transform="translate(-4219.402 258.526)"/></g><g transform="translate(4209.053 -274.515)"><path d="M4227.03-261.879a2.044,2.044,0,0,1,.3.081l.068.025c.049.019-.022-.012.029.012s.088.042.129.065a2.025,2.025,0,0,1,.256.162l.028.022,0,0,.065.054c.036.032.071.066.105.1s.068.07.1.107l.046.055c.008.01.046.059.019.023a2.124,2.124,0,0,1,.17.265c.023.043.044.086.066.13l.031.065s.031.077.011.025a2.182,2.182,0,0,1,.094.3.262.262,0,0,0,.319.182.265.265,0,0,0,.181-.32,2.339,2.339,0,0,0-1.886-1.825.253.253,0,0,0-.3.172.248.248,0,0,0,.172.3Z" transform="translate(-4226.85 262.357)"/></g><g transform="translate(4199.217 -274.431)"><path d="M4214.973-261.793a2.291,2.291,0,0,1,.683.672,3.282,3.282,0,0,1,.236.448c.069.153.153.3.215.454a.157.157,0,0,0,.307-.041,1.7,1.7,0,0,0-.056-.581,2.153,2.153,0,0,0-.275-.545,2.832,2.832,0,0,0-.858-.836.251.251,0,0,0-.339.089.253.253,0,0,0,.088.34Z" transform="translate(-4214.852 262.255)"/></g><g transform="translate(4196.24 -269.694)"><path d="M4212.525-256.5a1.3,1.3,0,0,0-.993.464,1.4,1.4,0,0,0-.28.511.881.881,0,0,0-.03.3,1.175,1.175,0,0,0,.02.166.349.349,0,0,0,.111.182.226.226,0,0,0,.351-.045.421.421,0,0,0,.058-.121.579.579,0,0,0,.013-.1c0,.072-.005.039,0,.012a1.725,1.725,0,0,1,.051-.18c.01-.03.023-.059.031-.09-.021.084-.018.04-.006.016l.021-.043c.015-.028.031-.055.048-.082l.026-.039c.006-.01.049-.067.013-.021s0,0,.01-.012l.031-.035c.022-.024.045-.046.068-.067l.036-.031c.051-.043-.04.028-.014.01s.052-.037.079-.053.055-.031.083-.045c.012-.006.067-.03.013-.007s0,0,.014,0a.94.94,0,0,1,.19-.046l-.084.012a1.021,1.021,0,0,1,.142-.007.32.32,0,0,0,.317-.317.323.323,0,0,0-.317-.318Z" transform="translate(-4211.22 256.496)"/></g><g transform="translate(4197.599 -266.051)"><path d="M4215.485-251.872a1.983,1.983,0,0,0-1.563-.066,2.018,2.018,0,0,0-.709.433c-.19.191-.451.572-.279.844a.223.223,0,0,0,.244.1.614.614,0,0,0,.307-.248c.021-.026.04-.053.059-.079-.04.053.016-.019.021-.024.034-.04.071-.076.107-.114s.072-.076.109-.112l.065-.057c.05-.044-.034.021.025-.021a1.917,1.917,0,0,1,.271-.164c.006,0,.073-.034.043-.021s.048-.019.058-.022c.05-.018.1-.035.151-.049a.83.83,0,0,1,.264-.039,1.237,1.237,0,0,1,.557.1.276.276,0,0,0,.368-.1.272.272,0,0,0-.1-.369Z" transform="translate(-4212.877 252.067)"/></g><g transform="translate(4195.76 -261.621)"><path d="M4210.665-246.319l.194.367.1.18a1.143,1.143,0,0,0,.149.2.187.187,0,0,0,.227.029.193.193,0,0,0,.086-.212l-.021-.1a.623.623,0,0,0-.05-.136l-.089-.192-.176-.378a.242.242,0,0,0-.145-.11.242.242,0,0,0-.185.024.247.247,0,0,0-.086.33Z" transform="translate(-4210.634 246.681)"/></g><g transform="translate(4179.602 -260.405)"><path d="M4192.758-245.19a3.347,3.347,0,0,0-1.17.665,3.052,3.052,0,0,0-.448.5.736.736,0,0,0-.178.7.194.194,0,0,0,.217.089.59.59,0,0,0,.268-.188,1.353,1.353,0,0,0,.124-.15l.039-.053c0-.006.059-.073.016-.021a3.657,3.657,0,0,1,.4-.419c.033-.03.065-.058.1-.086.017-.014.063-.049.02-.016l.063-.047c.078-.057.159-.109.242-.158s.162-.089.244-.127l.06-.026c-.062.027.009,0,.023-.009.048-.02.1-.037.147-.054a.314.314,0,0,0,.215-.379.313.313,0,0,0-.378-.215Z" transform="translate(-4190.925 245.203)"/></g><g transform="translate(4175.709 -263.833)"><path d="M4186.3-248.9a4.477,4.477,0,0,1,.81.789c.227.284.429.641.669.934a.162.162,0,0,0,.2.025.168.168,0,0,0,.074-.182,2.206,2.206,0,0,0-.222-.6,2.969,2.969,0,0,0-.362-.529,4.839,4.839,0,0,0-.91-.87.253.253,0,0,0-.344.09.259.259,0,0,0,.09.346Z" transform="translate(-4186.176 249.37)"/></g><g transform="translate(4179.451 -254.034)"><path d="M4193.79-237.119a4.562,4.562,0,0,0-1.705-.333,1.549,1.549,0,0,0-1.32.654.235.235,0,0,0,.319.319,5.029,5.029,0,0,1,.5-.293,1.686,1.686,0,0,1,.582-.115,4.378,4.378,0,0,1,1.47.316c.347.116.5-.433.151-.548Z" transform="translate(-4190.74 237.457)"/></g><g transform="translate(4182.721 -243.999)"><path d="M4194.913-224.753a3.735,3.735,0,0,1,1.045.294c.167.077.331.166.491.26s.353.282.572.217a.2.2,0,0,0,.138-.182c.017-.242-.245-.387-.417-.5a3.257,3.257,0,0,0-.572-.3,4.112,4.112,0,0,0-1.188-.292.252.252,0,0,0-.25.221.252.252,0,0,0,.182.28Z" transform="translate(-4194.729 225.256)"/></g><g transform="translate(4174.726 -255.377)"><path d="M4187.3-239.09a2.638,2.638,0,0,0-1.423.432,2.3,2.3,0,0,0-.6.54,1.383,1.383,0,0,0-.3.711.257.257,0,0,0,.435.181,1.037,1.037,0,0,0,.118-.146c.055-.078-.032.035.028-.036l.048-.057c.02-.025.085-.109.045-.059.015-.02.032-.039.048-.058.036-.042.075-.081.113-.123.07-.074.136-.151.209-.221.038-.035.076-.068.115-.1,0,0,.082-.062.029-.023l.062-.044a2.45,2.45,0,0,1,.261-.159c.049-.025.1-.05.151-.072-.042.018,0,0,.021-.008l.071-.026a1.835,1.835,0,0,1,.573-.113.314.314,0,0,0,.308-.308.312.312,0,0,0-.308-.308Z" transform="translate(-4184.977 239.09)"/></g><g transform="translate(4179.589 -248.336)"><path d="M4193.909-230.4a3.894,3.894,0,0,0-1.547-.09,3.1,3.1,0,0,0-.7.179,1.882,1.882,0,0,0-.691.408.211.211,0,0,0,.2.35c.218-.057.42-.159.635-.226a4.27,4.27,0,0,1,.662-.157,3.248,3.248,0,0,1,1.293.074.28.28,0,0,0,.148-.539Z" transform="translate(-4190.91 230.53)"/></g><g transform="translate(4174.601 -248.4)"><path d="M4184.954-230.1a1.738,1.738,0,0,1,.309.177c.048.034-.047-.039,0,0l.038.031c.021.017.042.035.061.054a1.864,1.864,0,0,1,.128.136l.026.031c.037.044-.036-.049,0,0,.013.018.025.036.04.053.061.08-.031-.041.014.019a1.576,1.576,0,0,1,.1.15,1.48,1.48,0,0,0,.086.155c.018.023.035.048.051.072l.028.038.028.038a.173.173,0,0,0,.169.082.167.167,0,0,0,.142-.123,1.044,1.044,0,0,0,.015-.217.774.774,0,0,0-.078-.276,1.546,1.546,0,0,0-.228-.377,1.767,1.767,0,0,0-.652-.506.291.291,0,0,0-.207-.027.276.276,0,0,0-.161.124.274.274,0,0,0,.1.369Z" transform="translate(-4184.824 230.607)"/></g><g transform="translate(4177.333 -240.765)"><path d="M4188.277-220.854a2.331,2.331,0,0,1,.868.942,2.375,2.375,0,0,1,.21.6,2.1,2.1,0,0,0,.149.675.168.168,0,0,0,.286,0,1.022,1.022,0,0,0,.05-.791,2.888,2.888,0,0,0-.262-.732,2.823,2.823,0,0,0-1.05-1.123.251.251,0,0,0-.251.433Z" transform="translate(-4188.158 221.324)"/></g><g transform="translate(4177.307 -233.895)"><path d="M4188.326-212.549a2.233,2.233,0,0,1,.888.075c.291.086.547.257.834.35a.133.133,0,0,0,.149-.194,1.42,1.42,0,0,0-.859-.551,2.519,2.519,0,0,0-1.012-.084.208.208,0,0,0-.2.2.2.2,0,0,0,.2.2Z" transform="translate(-4188.125 212.972)"/></g><g transform="translate(4183.515 -234.653)"><path d="M4195.7-213.59a1.777,1.777,0,0,0,1,1.264,1.988,1.988,0,0,0,.834.2.929.929,0,0,0,.788-.334.174.174,0,0,0-.148-.257,1.494,1.494,0,0,0-.347.025c-.04,0-.047.006-.02,0l-.04,0-.082,0c-.055,0-.11,0-.165,0a1.579,1.579,0,0,1-.57-.135,1.829,1.829,0,0,1-.286-.172.851.851,0,0,1-.1-.079c-.041-.037-.081-.076-.118-.117a1.189,1.189,0,0,1-.28-.54.242.242,0,0,0-.295-.168.246.246,0,0,0-.168.3Z" transform="translate(-4195.699 213.894)"/></g><g transform="translate(4175.652 -244.322)"><path d="M4186.464-224.917a1.865,1.865,0,0,1,1.042-.192,2.19,2.19,0,0,1,.508.119c.085.031.168.068.252.1a.711.711,0,0,0,.314.016.156.156,0,0,0,.107-.19.714.714,0,0,0-.512-.452,2.188,2.188,0,0,0-.669-.129,2.358,2.358,0,0,0-1.283.317.239.239,0,0,0,.24.412Z" transform="translate(-4186.107 225.649)"/></g><g transform="translate(4169.048 -229.997)"><path d="M4178.22-207.881a2.369,2.369,0,0,1,1.078.345,2.365,2.365,0,0,1,.439.342c.066.067.131.137.191.209.034.039.064.084.1.123a.614.614,0,0,0,.142.108.2.2,0,0,0,.3-.229,1.1,1.1,0,0,0-.411-.553,2.827,2.827,0,0,0-.554-.379,2.8,2.8,0,0,0-1.28-.317.176.176,0,0,0,0,.352Z" transform="translate(-4178.05 208.233)"/></g><g transform="translate(4169.304 -234.797)"><path d="M4178.547-213.682a4.412,4.412,0,0,1,1.592.311,1.515,1.515,0,0,1,.84.924.812.812,0,0,0,.109.311.212.212,0,0,0,.329.043c.188-.187.055-.516-.038-.715a1.99,1.99,0,0,0-1-.932,5.013,5.013,0,0,0-1.835-.327c-.249-.012-.244.367,0,.386Z" transform="translate(-4178.363 214.068)"/></g><g transform="translate(4172.633 -238.052)"><path d="M4182.538-217.583c.05.025.093.058.141.087-.019-.012-.036-.029-.008-.006l.028.025c.02.019.039.038.058.058l.024.029.014.017c.013.015.006.008-.017-.021,0,.019.032.045.042.063s.028.048.041.072l.017.034c.012.027.008.05,0-.007.009.051.036.1.048.151,0,.024.018.12.007.024,0,.025.005.05.008.075,0,.055.008.111.008.165,0,.025,0,.05,0,.075a.31.31,0,0,0,.038.142l.039.051c-.027-.036-.034-.044-.02-.025a.225.225,0,0,0,.3.078c.168-.081.2-.317.189-.487a1.235,1.235,0,0,0-.134-.46,1.2,1.2,0,0,0-.634-.573.235.235,0,0,0-.278.137.236.236,0,0,0,.1.294Z" transform="translate(-4182.423 218.026)"/></g><g transform="translate(4163.529 -237.792)"><path d="M4171.6-217.237c.024,0,.02,0-.015,0l.029,0,.044,0a.736.736,0,0,0,.1,0c-.039-.006-.045-.007-.02,0l.014,0,.057.013a.691.691,0,0,0,.1.033l-.033-.014.026.012.045.024a.727.727,0,0,1,.083.051l.024.017c.023.016.017.012-.018-.016a.3.3,0,0,0,.034.029,1.042,1.042,0,0,1,.078.07c.025.025.047.052.07.079s-.038-.057-.008-.01c.01.014.021.028.029.043s.034.055.049.084.017.036.026.054c-.053-.1.007.02.017.04.03.07-.017-.049,0,0,0,.014.011.028.014.042.011.033.016.067.026.1.024.077.044.159.076.232a.22.22,0,0,0,.195.112.238.238,0,0,0,.2-.112.621.621,0,0,0,.084-.322,1.028,1.028,0,0,0-.055-.276,1.144,1.144,0,0,0-.335-.468,1.121,1.121,0,0,0-1.048-.243.226.226,0,0,0-.154.273.227.227,0,0,0,.272.155Z" transform="translate(-4171.319 217.71)"/></g><g transform="translate(4161.321 -232.183)"><path d="M4168.743-210.437a1.574,1.574,0,0,1,.279.164c.036.025-.032-.026-.008-.007l.028.023c.021.017.042.035.061.053a1.472,1.472,0,0,1,.114.117c.018.021.033.043.052.063-.015-.015-.03-.039-.008-.009l.021.03a1.5,1.5,0,0,1,.087.137c.012.021.023.044.034.065s.053.109.018.035c.029.063.063.124.093.188a.225.225,0,0,0,.282.093.231.231,0,0,0,.131-.268.839.839,0,0,0-.057-.211,1.522,1.522,0,0,0-.076-.152,1.859,1.859,0,0,0-.228-.313,1.691,1.691,0,0,0-.58-.429.266.266,0,0,0-.187-.025.246.246,0,0,0-.145.112.246.246,0,0,0,.087.333Z" transform="translate(-4168.625 210.89)"/></g><g transform="translate(4164.664 -229.55)"><path d="M4173.469-205.392a1.462,1.462,0,0,0,.314-1.34,1.5,1.5,0,0,0-.323-.637.991.991,0,0,0-.271-.226,1.4,1.4,0,0,0-.165-.074.278.278,0,0,0-.237.012.171.171,0,0,0-.078.193.31.31,0,0,0,.124.162.55.55,0,0,1,.083.061,1.735,1.735,0,0,1,.194.19,1.144,1.144,0,0,1,.22.431c.012.045.021.09.029.137q0,.025,0,0l0,.035c0,.023,0,.046.005.07,0,.046,0,.092,0,.138,0,.023,0,.045-.007.068s0,.016,0,0l-.006.034c-.01.044-.019.089-.033.132a.473.473,0,0,1-.035.095.888.888,0,0,1-.136.211c-.192.214.119.53.316.317Z" transform="translate(-4172.703 207.689)"/></g><g transform="translate(4187.704 -252.392)"><path d="M4201.2-234.388a1.469,1.469,0,0,1,.917-.507c.052-.008-.06,0,.03,0l.057,0c.048,0,.1,0,.145,0s.1,0,.144.007l.071,0c.009,0,.07.007.026,0,.1.012.186.044.28.065.033.007.066.007.1.012-.035,0,.022,0,.029.007a.355.355,0,0,0,.229-.03.2.2,0,0,0,.092-.225c-.055-.249-.4-.337-.611-.372a1.871,1.871,0,0,0-.734.031,1.949,1.949,0,0,0-1.127.748c-.15.2.187.466.351.271Z" transform="translate(-4200.807 235.461)"/></g><g transform="translate(4193.646 -252.328)"><path d="M4209.935-235.337a1.308,1.308,0,0,0-1.108.215,2.251,2.251,0,0,0-.464.406c-.069.083-.138.169-.2.257a.75.75,0,0,0-.086.174.419.419,0,0,0-.009.211.228.228,0,0,0,.275.156c.2-.032.317-.242.44-.378a4.588,4.588,0,0,1,.35-.373l.046-.039.028-.023.03-.021.048-.035a1.219,1.219,0,0,1,.208-.117c-.031.013,0,0,.017,0l.052-.016a.834.834,0,0,1,.108-.025c-.04.007.03,0,.031,0,.019,0,.038,0,.057,0a.952.952,0,0,1,.127.009.2.2,0,0,0,.2-.174.2.2,0,0,0-.143-.22Z" transform="translate(-4208.056 235.383)"/></g><g transform="translate(4196.358 -244.258)"><path d="M4211.729-224.6a1.448,1.448,0,0,1,.919-.443,1.605,1.605,0,0,1,.51.038c.191.043.409.173.606.122a.2.2,0,0,0,.136-.239c-.06-.245-.383-.354-.6-.4a1.906,1.906,0,0,0-.719-.013,1.929,1.929,0,0,0-1.162.629c-.181.212.113.517.309.31Z" transform="translate(-4211.364 225.572)"/></g><g transform="translate(4202.082 -240.282)"><path d="M4218.633-219.938a3.006,3.006,0,0,1,.818-.247,3.843,3.843,0,0,1,.875.011c.16.015.423.024.423-.206,0-.2-.24-.279-.4-.313a2.41,2.41,0,0,0-.961.007,2.31,2.31,0,0,0-.947.41.2.2,0,0,0,.2.337Z" transform="translate(-4218.347 220.738)"/></g><g transform="translate(4197.728 -237.725)"><path d="M4215.616-217.182a1.994,1.994,0,0,0-1.317-.447,2.033,2.033,0,0,0-.679.134.953.953,0,0,0-.575.463c-.05.126.095.235.207.208a3.462,3.462,0,0,0,.5-.244,1.618,1.618,0,0,1,.546-.125,1.556,1.556,0,0,1,1.028.3.211.211,0,0,0,.289,0,.207.207,0,0,0,0-.29Z" transform="translate(-4213.035 217.629)"/></g><g transform="translate(4192.978 -235.491)"><path d="M4209.012-213.619a.854.854,0,0,0-.3-1.09,1.2,1.2,0,0,0-.664-.2,1.36,1.36,0,0,0-.722.143.185.185,0,0,0,.044.335.873.873,0,0,0,.173.026c.046,0,.093-.007.139-.006.1,0,.193-.006.292-.007.045,0,.091,0,.137,0,.015,0,.056.006.021,0,.024,0,.049.008.072.013a1.41,1.41,0,0,1,.144.041l.023.008c-.021-.009-.023-.01-.009,0s.034.017.051.027.059.036.088.056c-.044-.029,0,0,.012.011s.024.022.035.034a.435.435,0,0,1,.04.042c.013.016.023.033.005.007a.931.931,0,0,1,.059.1c0,.01.023.061.007.016,0,.014.011.029.015.044a.382.382,0,0,0,.013.053c.009.021,0-.033,0,.006,0,.017,0,.036,0,.053,0,.049.012-.032,0,.016,0,.018-.009.035-.013.053-.01.04.012-.021-.008.021a.2.2,0,0,0,.071.273.2.2,0,0,0,.273-.072Z" transform="translate(-4207.241 214.912)"/></g><g transform="translate(4196.131 -228.069)"><path d="M4211.474-204.316a.843.843,0,0,1,.51-.895,1.954,1.954,0,0,1,.647-.181,5.41,5.41,0,0,0,.742-.085.192.192,0,0,0,0-.367,1.469,1.469,0,0,0-.456-.044,3.645,3.645,0,0,0-.435.027,1.864,1.864,0,0,0-.809.3,1.265,1.265,0,0,0-.542,1.345.178.178,0,0,0,.343-.1Z" transform="translate(-4211.087 205.888)"/></g><g transform="translate(4190.799 -232.09)"><path d="M4204.824-210.353l.362-.055c.12-.018.237-.048.356-.075a.148.148,0,0,0,.106-.164.149.149,0,0,0-.146-.13c-.121,0-.242,0-.364.012l-.365.032a.193.193,0,0,0-.188.219.183.183,0,0,0,.072.126.2.2,0,0,0,.167.035Z" transform="translate(-4204.583 210.777)"/></g><g transform="translate(4206.481 -232.833)"><path d="M4223.939-211.159a2.316,2.316,0,0,1,1.247-.1,2.378,2.378,0,0,1,.583.2,2.51,2.51,0,0,1,.279.163.706.706,0,0,0,.31.151.16.16,0,0,0,.153-.2c-.065-.215-.358-.355-.547-.448a2.753,2.753,0,0,0-.694-.234,2.692,2.692,0,0,0-1.429.109c-.224.083-.128.445.1.363Z" transform="translate(-4223.712 211.68)"/></g><g transform="translate(4214.182 -273.438)"><path d="M4235.489-260.95a2.675,2.675,0,0,0-1.288-.037,2.334,2.334,0,0,0-.6.211c-.187.1-.432.262-.485.48a.212.212,0,0,0,.2.265.68.68,0,0,0,.3-.094l.237-.11c.079-.035.145-.067.224-.1a2.417,2.417,0,0,1,.27-.081,1.8,1.8,0,0,1,.481-.054,1.811,1.811,0,0,1,.514.068.291.291,0,0,0,.351-.2.29.29,0,0,0-.2-.353Z" transform="translate(-4233.106 261.048)"/></g><g transform="translate(4214.355 -278.113)"><path d="M4233.353-266.34a1.475,1.475,0,0,0,1.464.679.6.6,0,0,0,.418-.225.236.236,0,0,0,.02-.229.275.275,0,0,0-.243-.109,1.224,1.224,0,0,0-.217.021s.068-.006.01,0l-.04,0c-.034,0-.068,0-.1,0-.058,0-.116,0-.174,0a.354.354,0,0,1-.051-.006c.008,0,.062.012.012,0-.034-.007-.067-.013-.1-.022s-.065-.018-.1-.03l-.038-.014c-.053-.019.043.023-.012,0a1.47,1.47,0,0,1-.179-.1l-.034-.023c-.04-.028.017.02,0,0s-.052-.045-.075-.069-.046-.049-.069-.076-.035-.049,0,0c-.012-.017-.024-.035-.034-.052a.264.264,0,0,0-.355-.093.265.265,0,0,0-.094.356Z" transform="translate(-4233.317 266.732)"/></g><g transform="translate(4217.404 -280.594)"><path d="M4237.443-268.773c0-.014.009-.028.013-.042.016-.047-.02.041,0,0a.87.87,0,0,1,.042-.076c.007-.012.016-.025.024-.037l.008-.012c.015-.02.011-.016-.009.012l.054-.06c.021-.021.042-.04.064-.059s0,0-.009.007c.01,0,.027-.02.036-.026.024-.016.049-.031.075-.045l.039-.02c.024-.012.052-.011-.007,0,.054-.012.106-.039.16-.051l.043-.01c.044-.009,0,0-.021,0,.029,0,.058-.007.087-.007a.769.769,0,0,1,.087,0l.043,0c.03,0,.049.019-.016,0a.4.4,0,0,0,.2.012l.072-.016a.232.232,0,0,0,.137-.336.827.827,0,0,0-.088-.106.343.343,0,0,0-.191-.087.886.886,0,0,0-.247-.016,1.173,1.173,0,0,0-.475.143,1.074,1.074,0,0,0-.53.717.215.215,0,0,0,.146.258.215.215,0,0,0,.257-.147Z" transform="translate(-4237.036 269.748)"/></g><g transform="translate(4220.924 -283.595)"><path d="M4241.483-272.986a3.907,3.907,0,0,1,.438.179,2,2,0,0,1,.2.112l.05.034s.058.044.031.023l.03.026c.017.016.035.031.052.049s.051.055.077.083c-.038-.043-.006-.009,0,0l.029.044c.019.03.035.062.051.094.025.048,0,0,0-.01a.3.3,0,0,1,.028.081c.009.03.016.061.022.092s0,.065,0-.007c0,.013,0,.028,0,.041a.9.9,0,0,1,0,.1v.021c0,.034,0,.027,0-.021l-.01.081c0,.034,0,.026,0-.02a.887.887,0,0,0-.027.246.242.242,0,0,0,.274.239c.248-.034.348-.308.359-.526a1.147,1.147,0,0,0-.425-.9,2.705,2.705,0,0,0-1.078-.469.213.213,0,0,0-.256.146.215.215,0,0,0,.146.258Z" transform="translate(-4241.33 273.397)"/></g><g transform="translate(4225.582 -282.146)"><path d="M4247.981-271.6a1.86,1.86,0,0,0-.959,1.275,1.153,1.153,0,0,0,.749,1.233.607.607,0,0,0,.79-.268c.049-.134-.073-.236-.189-.25.038,0,.024,0-.042-.007a.422.422,0,0,0-.085.009c-.051.012.032,0-.023,0h-.068c-.032,0-.029,0,.008,0-.033-.006-.064-.01-.1-.012.049.007.014,0-.015,0s-.045-.012-.068-.018l-.043-.015.014.007c-.024-.014-.05-.025-.074-.039s-.041-.026-.062-.039c.053.035-.016-.015-.027-.025s-.042-.039-.062-.062c-.005-.006-.054-.069-.017-.018a1.035,1.035,0,0,1-.087-.15c.029.058,0-.012-.006-.022-.009-.026-.011-.059-.021-.084s0-.016,0,.017c0-.016,0-.033,0-.049s0-.058,0-.086.012-.086,0-.034a1.053,1.053,0,0,1,.025-.109c.008-.027.018-.053.026-.08.021-.063-.013.02.014-.034a1.865,1.865,0,0,1,.1-.173c0-.006.051-.071.022-.033.023-.03.049-.06.075-.089s.082-.085.125-.124c.025-.023.052-.045.079-.067s.015-.012,0,0l.047-.035c.056-.039.112-.077.171-.111a.3.3,0,0,0,.106-.405.3.3,0,0,0-.4-.106Z" transform="translate(-4247.012 271.635)"/></g><g transform="translate(4225.753 -273.121)"><path d="M4248.376-260.653a1.678,1.678,0,0,0-.931.756,1.581,1.581,0,0,0-.216.613,1.288,1.288,0,0,0,0,.267.485.485,0,0,0,.2.386.218.218,0,0,0,.3-.077.569.569,0,0,0,.071-.308c0-.041,0-.082,0-.123a.267.267,0,0,1,.006-.056c-.021.072,0,.006,0-.011s.023-.146.012-.083c-.008.045,0-.018.005-.027.007-.041.017-.081.028-.121s.022-.078.036-.117l.021-.052c.007-.019,0-.014-.006.013l.014-.03a1.458,1.458,0,0,1,.116-.2l.038-.055c-.021.03,0,.007.009-.009.026-.032.053-.062.082-.091a.871.871,0,0,1,.156-.134c.03-.021.062-.041.094-.059l.06-.031c.006,0,.063-.029.028-.014a.231.231,0,0,0,.156-.276.225.225,0,0,0-.275-.156Z" transform="translate(-4247.22 260.662)"/></g><g transform="translate(4221.455 -275.35)"><path d="M4242.273-262.509a8.623,8.623,0,0,1,1.241-.271c.195-.028.392-.046.587-.059a1.518,1.518,0,0,0,.668-.1.208.208,0,0,0,0-.354,1.181,1.181,0,0,0-.668-.057q-.338.028-.674.081a8.776,8.776,0,0,0-1.282.3.241.241,0,0,0,.128.465Z" transform="translate(-4241.977 263.372)"/></g><g transform="translate(4230.284 -276.165)"><path d="M4253.442-264.289a2.356,2.356,0,0,0-.594.93,1.152,1.152,0,0,0,.032,1.007.459.459,0,0,0,.58.229s-.067.027-.023.012a.376.376,0,0,0,.077-.033.261.261,0,0,0,.132-.191.247.247,0,0,0-.177-.271.1.1,0,0,0-.032-.01l.118.093-.046-.06a.465.465,0,0,0-.081-.059c-.048-.032.014,0,.013.011l-.025-.026c-.039-.039.016.015.012.018s-.054-.077-.051-.088c-.007.023.018.054,0,0,0-.018-.011-.035-.015-.053s-.006-.029-.01-.043c-.009-.041-.011,0,0,.016-.012-.016-.007-.077-.006-.1s0-.03,0-.044.009-.09.005-.057.008-.046.007-.044c0-.027.01-.054.016-.082.01-.045.021-.09.035-.135s.027-.088.043-.132c.006-.017.013-.035.02-.051-.017.044.017-.035.017-.036a1.641,1.641,0,0,1,.308-.447.257.257,0,0,0-.363-.364Z" transform="translate(-4252.748 264.363)"/></g><g transform="translate(4230.032 -278.92)"><path d="M4252.725-267.2a1.017,1.017,0,0,1,.14-.04l.031-.006c.03-.006,0,0-.012,0a.535.535,0,0,0,.072-.007,1.08,1.08,0,0,1,.146,0l.032,0c.03,0-.047-.008,0,0l.071.015c.044.012.087.026.131.041s-.028-.014,0,0l.03.014.064.034a1.1,1.1,0,0,0,.289.139.183.183,0,0,0,.221-.222.547.547,0,0,0-.275-.32,1.109,1.109,0,0,0-.335-.128,1.242,1.242,0,0,0-.718.044.227.227,0,0,0-.156.276.225.225,0,0,0,.274.156Z" transform="translate(-4252.44 267.713)"/></g><g transform="translate(4220.176 -268.374)"><path d="M4240.488-254.732a1.681,1.681,0,0,0,.418,1.663,1.58,1.58,0,0,0,.791.417,1.691,1.691,0,0,0,.455.035.607.607,0,0,0,.49-.243.214.214,0,0,0-.076-.29.463.463,0,0,0-.233-.048c-.06,0-.121,0-.181,0a1.362,1.362,0,0,1-.183,0l-.079-.006c-.068-.006.034.009-.027,0s-.12-.025-.179-.044c-.029-.009-.058-.02-.086-.03l.007,0-.048-.021c-.054-.027-.109-.057-.161-.089l-.065-.044c-.026-.019-.028-.021-.007,0l-.03-.025a1.11,1.11,0,0,1-.345-.516,1.381,1.381,0,0,1-.042-.165.841.841,0,0,1-.016-.145,1.027,1.027,0,0,1,.033-.33.226.226,0,0,0-.436-.12Z" transform="translate(-4240.417 254.891)"/></g><g transform="translate(4216.179 -265.279)"><path d="M4235.625-250.95a1.326,1.326,0,0,0,.251,1.335,1.318,1.318,0,0,0,.587.37,1.074,1.074,0,0,0,.339.049.469.469,0,0,0,.383-.179.181.181,0,0,0-.027-.216.374.374,0,0,0-.086-.059c-.016-.006-.121-.024-.093-.02s-.043-.008-.05-.01l-.06-.012a.976.976,0,0,0-.109-.013c.062,0,0,0-.016,0-.041-.008-.082-.019-.123-.031l-.07-.022c-.007,0-.069-.028-.038-.013s-.04-.02-.046-.023l-.055-.031-.053-.035c-.008,0-.06-.048-.016-.01a1.239,1.239,0,0,1-.1-.094c-.015-.016-.028-.032-.042-.048s-.01-.011.006.009l-.024-.035a.881.881,0,0,1-.065-.111c0-.007-.031-.072-.01-.018-.007-.021-.016-.04-.022-.061a1.28,1.28,0,0,1-.036-.136c0-.007-.011-.074-.008-.041s0-.045,0-.053a1.036,1.036,0,0,1,0-.129c0-.008.011-.077,0-.02,0-.021.007-.043.012-.063a1.162,1.162,0,0,1,.043-.145.246.246,0,0,0-.171-.3.25.25,0,0,0-.3.171Z" transform="translate(-4235.542 251.128)"/></g><g transform="translate(4212.431 -264.448)"><path d="M4231.085-249.676l.023.017c.032.022-.01-.008-.013-.012.014.013.03.024.044.036.033.028.065.057.1.087s.05.051.074.078.026.029.038.044l.018.022c.022.028,0,.008-.006-.008.043.068.093.132.132.2s.062.141.1.206c.02.032.039.064.06.1a.209.209,0,0,0,.274.086.226.226,0,0,0,.1-.2.755.755,0,0,0-.019-.164,1.212,1.212,0,0,0-.114-.259,1.842,1.842,0,0,0-.128-.2,2.034,2.034,0,0,0-.446-.44A.236.236,0,0,0,4231-250a.243.243,0,0,0,.084.323Z" transform="translate(-4230.97 250.118)"/></g><g transform="translate(4220.443 -256.088)"><path d="M4240.986-239.464a1.132,1.132,0,0,1,.326.03,1.557,1.557,0,0,1,.151.042c.029.009.059.02.087.03l.037.015c-.021-.009-.017-.007.011.006a1.7,1.7,0,0,1,.534.378c.04.042.077.086.115.13s-.013-.02.021.027c.021.03.041.058.059.087s.057.09.082.137.032.063.047.095c.005.012.034.082.013.028a2.217,2.217,0,0,1,.1.327c.007.03.013.06.018.09l.006.039c0-.035,0-.034,0,0a.516.516,0,0,0,.079.259.254.254,0,0,0,.433,0,.689.689,0,0,0,.038-.521,1.806,1.806,0,0,0-.141-.419,2.15,2.15,0,0,0-.478-.667,2.081,2.081,0,0,0-1.532-.6.247.247,0,0,0-.243.243.246.246,0,0,0,.243.243Z" transform="translate(-4240.743 239.954)"/></g><g transform="translate(4221.888 -261.462)"><path d="M4243.18-246.445a1.583,1.583,0,0,0-.654,1.545,1.464,1.464,0,0,0,.373.744.993.993,0,0,0,.765.387.249.249,0,0,0,.222-.15.244.244,0,0,0-.051-.266,1.6,1.6,0,0,0-.276-.207c-.01-.006-.041-.028-.015-.009l-.062-.05a1.329,1.329,0,0,1-.112-.111.936.936,0,0,1-.14-.209c-.013-.023-.024-.047-.036-.07s-.009-.02,0,0l-.012-.029a1.5,1.5,0,0,1-.045-.152c0-.021-.009-.041-.013-.062.009.047,0-.021,0-.03a1.2,1.2,0,0,1,0-.162c0-.008.008-.077,0-.031,0-.026.01-.053.015-.08a1.207,1.207,0,0,1,.041-.14,1,1,0,0,1,.295-.417.3.3,0,0,0,.1-.4.291.291,0,0,0-.4-.1Z" transform="translate(-4242.505 246.487)"/></g><g transform="translate(4225.69 -258.031)"><path d="M4247.494-241.735c.032,0,.03,0-.006,0l.033,0,.079-.007c.045,0,.09,0,.135,0s.1,0,.157,0l.067.006c.008,0,.1.012.052,0s.043.007.051.009l.066.013c.048.01.1.021.143.035.1.027.191.077.288.1a.294.294,0,0,0,.343-.169.294.294,0,0,0-.119-.364,1.228,1.228,0,0,0-.369-.13,2.883,2.883,0,0,0-.365-.06,2.48,2.48,0,0,0-.7.035.277.277,0,0,0-.193.341.286.286,0,0,0,.339.194Z" transform="translate(-4247.144 242.316)"/></g><g transform="translate(4214.882 -251.75)"><path d="M4234.922-234.5c-.015.052-.034.1-.052.153s.026-.054,0,0l-.015.031c-.013.027-.026.053-.041.079a2.759,2.759,0,0,1-.18.287c-.037.051.035-.043.008-.011l-.028.035c-.016.018-.031.036-.047.053a1.769,1.769,0,0,1-.127.125l-.121.1c-.048.04.046-.034.013-.009l-.036.025-.075.05a1.6,1.6,0,0,0-.164.136.269.269,0,0,0-.031.378.311.311,0,0,0,.31.071.787.787,0,0,0,.219-.082,1.816,1.816,0,0,0,.571-.545,1.74,1.74,0,0,0,.287-.815.247.247,0,0,0-.216-.246.25.25,0,0,0-.274.179Z" transform="translate(-4233.96 234.68)"/></g><g transform="translate(4218.152 -251.136)"><path d="M4238.861-233.922a1.333,1.333,0,0,0-.912,1.258,1.3,1.3,0,0,0,.3.795c.165.208.515.465.785.309a.211.211,0,0,0,.1-.234.429.429,0,0,0-.105-.165c-.016-.015-.031-.03-.047-.044.039.033-.12-.091-.064-.048a1.526,1.526,0,0,1-.2-.2c-.021-.025.019.03-.012-.015-.016-.023-.03-.045-.044-.069s-.022-.039-.033-.06-.026-.055-.009-.015a1.113,1.113,0,0,1-.049-.142c-.006-.022-.01-.044-.016-.067-.019-.081,0,.054,0-.03,0-.046,0-.091,0-.137,0-.083-.012.051,0-.031,0-.022.008-.044.014-.067s.012-.044.019-.066c0,0,.031-.083.011-.035a.923.923,0,0,1,.063-.122c.014-.023.029-.046.045-.068l.016-.022c-.012.016-.012.016,0,0,.034-.038.069-.072.105-.107s0,0,.021-.018a.642.642,0,0,1,.057-.038.72.72,0,0,1,.071-.041c.006,0,.074-.032.038-.018a.268.268,0,0,0,.182-.32.263.263,0,0,0-.32-.182Z" transform="translate(-4237.949 233.933)"/></g><g transform="translate(4188.589 -248.519)"><path d="M4202.036-228.383a2.24,2.24,0,0,0,2.072-.4,2.4,2.4,0,0,0,.667-.8,1.29,1.29,0,0,0,.158-1.071c-.069-.156-.281-.114-.36,0a1.646,1.646,0,0,0-.171.416,2.945,2.945,0,0,1-.155.369,2.041,2.041,0,0,1-.522.646,2.3,2.3,0,0,1-1.632.414c-.255-.017-.27.343-.056.422Z" transform="translate(-4201.887 230.752)"/></g><g transform="translate(4191.312 -243.282)"><path d="M4205.539-224.311l-.252.2a.276.276,0,0,0-.042.33,2.148,2.148,0,0,0,1.25,1,1.008,1.008,0,0,0,.824-.021.534.534,0,0,0,.267-.317.346.346,0,0,0-.143-.387.187.187,0,0,0-.271.11c-.009.038-.013.021,0,.012-.032.018.022-.019,0,0s.052-.029,0,0c-.015.007-.028.018-.043.026l-.048.026c.061-.03-.007,0-.02,0a1.2,1.2,0,0,1-.12.022c.04-.006.035,0,0,0l-.058,0c-.089-.007.06.012-.029,0l-.068-.012a1.919,1.919,0,0,1-.281-.082c-.006,0-.075-.03-.042-.016s-.034-.016-.041-.02c-.042-.02-.083-.041-.125-.065s-.087-.052-.13-.081l-.057-.04c-.072-.052.021.019-.018-.013a2.843,2.843,0,0,1-.218-.2c-.032-.034-.064-.068-.094-.1,0,0-.052-.067-.025-.031-.018-.023-.033-.046-.049-.069l-.042.33.231-.216a.261.261,0,0,0,0-.364.261.261,0,0,0-.363,0Z" transform="translate(-4205.209 224.385)"/></g><g transform="translate(4190.791 -257.516)"><path d="M4205.165-241.682a.892.892,0,0,0-.581,1.026,1.1,1.1,0,0,0,.929.878,1.534,1.534,0,0,0,.479,0,1.581,1.581,0,0,0,.163-.031.493.493,0,0,0,.232-.129.227.227,0,0,0,.058-.22.236.236,0,0,0-.157-.159.934.934,0,0,0-.305-.039l-.06,0c-.078-.008.045.007-.008,0s-.081-.012-.122-.015c-.02,0-.053-.014.024,0l-.038-.006a1.685,1.685,0,0,1-.255-.066c-.012,0-.073-.03-.024-.008s-.02-.011-.03-.016a1.27,1.27,0,0,1-.117-.067l-.022-.016c-.029-.018.026.022.026.021s-.029-.025-.044-.038l-.047-.046-.015-.017c-.029-.03.017.021.021.028-.015-.03-.037-.055-.053-.085l-.011-.021c-.022-.042.012.03.013.032,0-.016-.012-.034-.018-.051a.833.833,0,0,1-.023-.1c0-.016,0-.031-.007-.046.018.1,0,.031,0,0a.848.848,0,0,1,0-.1c0-.012.006-.068,0-.013s0-.014.007-.028.008-.034.014-.05l.01-.027c.011-.036-.008.021-.012.027a.256.256,0,0,0,.023-.045c.006-.01.045-.064.014-.025s.007-.007.016-.016a.3.3,0,0,0,.042-.039s-.046.03-.024.02a.238.238,0,0,0,.031-.02c.018-.01.077-.035,0-.006a.265.265,0,0,0,.18-.317.261.261,0,0,0-.316-.18Z" transform="translate(-4204.573 241.691)"/></g><g transform="translate(4215.4 -243.657)"><path d="M4234.613-224.7a1.312,1.312,0,0,0,.671,1.4,1.34,1.34,0,0,0,.9.1.756.756,0,0,0,.631-.6.182.182,0,0,0-.18-.181,1.477,1.477,0,0,0-.315.066l-.072.03c.031-.013.031-.013,0,0s-.042.015-.063.021c-.047.014-.095.026-.143.037-.026.007-.053.011-.079.016.075-.016-.006,0-.021,0a1.31,1.31,0,0,1-.161,0l-.08-.006c.045,0,.025,0-.008,0-.053-.01-.1-.029-.154-.043-.034-.009.038.021-.013,0-.023-.012-.047-.024-.069-.037s-.044-.028-.067-.043c-.071-.046.043.036-.023-.017l-.059-.046c.024.019.024.018,0,0s-.039-.035-.057-.054-.03-.031-.045-.048-.046-.057-.037-.044a1.3,1.3,0,0,1-.118-.216.876.876,0,0,1-.053-.279.193.193,0,0,0-.167-.19.191.191,0,0,0-.21.138Z" transform="translate(-4234.592 224.84)"/></g><g transform="translate(4220.372 -242.052)"><path d="M4240.946-222.316a1.954,1.954,0,0,1,1.061-.011,1.525,1.525,0,0,1,.461.2c-.03-.021.008.007.019.017s.026.026.04.039.035.043.022.025.02.034.023.039.013.03,0,0c0,.015.007.031.013.046.019.051,0-.029,0,0s.014-.062,0,0a.272.272,0,0,0,.157.319.271.271,0,0,0,.335-.111.574.574,0,0,0-.151-.7,1.485,1.485,0,0,0-.642-.336,2.476,2.476,0,0,0-1.464.014.237.237,0,0,0,.125.456Z" transform="translate(-4240.657 222.889)"/></g><g transform="translate(4222.104 -248.803)"><path d="M4245.9-231.1a3.633,3.633,0,0,0-1.971.67,3.563,3.563,0,0,0-.781.758,2.117,2.117,0,0,0-.262.413c-.072.164-.184.4-.065.564a.19.19,0,0,0,.2.083c.168-.026.259-.211.349-.336s.158-.243.249-.357a3.488,3.488,0,0,1,.628-.617,3.076,3.076,0,0,1,1.649-.624c.352-.021.357-.567,0-.554Z" transform="translate(-4242.771 231.097)"/></g><g transform="translate(4225.601 -252.165)"><path d="M4249.764-234.44a3.037,3.037,0,0,0-1.235-.656,2.9,2.9,0,0,0-.688-.088,1.452,1.452,0,0,0-.716.142.193.193,0,0,0,.045.348,4.884,4.884,0,0,0,.631.039,3.581,3.581,0,0,1,.582.086,3.3,3.3,0,0,1,1.11.48c.207.143.464-.187.27-.352Z" transform="translate(-4247.036 235.184)"/></g><g transform="translate(4222.363 -236.243)"><path d="M4243.588-215.759a1.972,1.972,0,0,0-.453.752,1.2,1.2,0,0,0,.066.859,1.058,1.058,0,0,0,.582.5c.258.1.7.065.785-.257a.267.267,0,0,0-.182-.323.46.46,0,0,0-.222,0c-.018,0-.038.01-.056.015-.055.016.071,0,0,0a.444.444,0,0,0-.057,0c-.026,0,.074.016.006,0-.037-.01-.077-.024-.113-.032s.059.034,0,0c-.021-.012-.042-.022-.062-.035l-.018-.011c-.027-.02-.022-.016.013.012-.016,0-.036-.03-.046-.04s-.03-.029-.044-.044l-.014-.016c-.021-.026-.018-.021.01.014a.339.339,0,0,1-.068-.1l-.014-.027c-.01-.021-.006-.012.01.025a.2.2,0,0,1-.019-.058c-.007-.026-.013-.051-.018-.077-.017-.08,0,.056,0-.025a1.391,1.391,0,0,1,0-.156c0-.067-.009.032,0-.029.006-.025.011-.052.017-.077a1.575,1.575,0,0,1,.251-.577c.136-.212-.182-.462-.351-.272Z" transform="translate(-4243.086 215.826)"/></g><g transform="translate(4214.305 -230.787)"><path d="M4233.5-208.607a2.064,2.064,0,0,1,1.3.067,1.882,1.882,0,0,1,.552.355,1.567,1.567,0,0,1,.214.24c.087.125.161.286.327.313a.25.25,0,0,0,.272-.111c.156-.306-.177-.651-.388-.846a2.316,2.316,0,0,0-.763-.462,1.935,1.935,0,0,0-1.663.091.194.194,0,0,0,.148.352Z" transform="translate(-4233.257 209.194)"/></g><g transform="translate(4217.849 -234.643)"><path d="M4237.953-213.772a1.706,1.706,0,0,0-.311,1.429.934.934,0,0,0,1.007.586.5.5,0,0,0,.327-.175.491.491,0,0,0,.089-.312.163.163,0,0,0-.242-.139l.006,0c-.019.007-.039.016-.057.025.027-.012.031-.014.011-.007s-.015.007.025,0c0,0-.041,0-.046,0a.513.513,0,0,0-.111.021l-.055.014c-.034.009-.077,0,.005,0-.035,0-.069,0-.1,0s-.087-.023,0,0c-.02,0-.041-.007-.06-.012l-.061-.017c-.074-.026.041.022-.005,0a1.09,1.09,0,0,1-.1-.055c-.064-.044.031.03,0,0-.016-.015-.032-.029-.047-.044l-.043-.046c-.033-.035.038.058,0-.006-.01-.016-.018-.032-.027-.049-.028-.049.008.038-.009-.022-.009-.03-.019-.06-.026-.091,0-.015-.006-.03-.009-.046,0,.032,0,.032,0,0a1.113,1.113,0,0,1,0-.189c0-.03,0-.031,0,0,0-.016.005-.032.009-.048s.01-.048.016-.072a1.961,1.961,0,0,1,.058-.188.983.983,0,0,1,.036-.092l.005-.012.021-.045c.028-.059.058-.118.088-.176a.229.229,0,0,0-.08-.309.23.23,0,0,0-.309.081Z" transform="translate(-4237.58 213.881)"/></g><g transform="translate(4210.944 -238.174)"><path d="M4229.243-216.463a1.727,1.727,0,0,0,1.854.013,1.829,1.829,0,0,0,.622-.68,1.536,1.536,0,0,0,.151-.442.669.669,0,0,0-.035-.51.2.2,0,0,0-.332,0,1.068,1.068,0,0,0-.106.379,1.678,1.678,0,0,1-.112.3,1.341,1.341,0,0,1-.435.53,1.428,1.428,0,0,1-1.425.1.181.181,0,0,0-.182.313Z" transform="translate(-4229.156 218.174)"/></g><g transform="translate(4216.076 -238.523)"><path d="M4235.741-218.518a1.029,1.029,0,0,0-.311.6,1.243,1.243,0,0,0,0,.4.7.7,0,0,0,.073.188.378.378,0,0,0,.164.172.24.24,0,0,0,.238,0,.246.246,0,0,0,.116-.2.847.847,0,0,0-.028-.226l.011.074c-.008-.061-.017-.123-.026-.183l.01.076a.87.87,0,0,1,0-.22l-.01.076a.841.841,0,0,1,.026-.121c.006-.022.014-.044.022-.065.014-.037-.013.026-.013.03s.01-.023.014-.031a.932.932,0,0,1,.064-.105c.018-.028-.042.05-.02.026l.022-.026a.491.491,0,0,1,.048-.049.29.29,0,0,0,0-.405.292.292,0,0,0-.4,0Z" transform="translate(-4235.416 218.599)"/></g><g transform="translate(4199.645 -232.116)"><path d="M4215.617-210.322a1.873,1.873,0,0,1,1.283.151,2,2,0,0,1,.529.382,2.129,2.129,0,0,1,.2.228c.033.047.064.1.094.145a.419.419,0,0,0,.23.191.279.279,0,0,0,.343-.195.617.617,0,0,0-.2-.5,1.813,1.813,0,0,0-.274-.285,2.648,2.648,0,0,0-.724-.429,2.381,2.381,0,0,0-1.584-.066.2.2,0,0,0,.1.382Z" transform="translate(-4215.374 210.809)"/></g><g transform="translate(4204.587 -235.942)"><path d="M4221.436-215.094l.1.137a.519.519,0,0,0,.058.076c.01.009.021.017.031.026l.066.052.04.03a.145.145,0,0,0,.072.024.11.11,0,0,0,.052,0,.142.142,0,0,0,.072-.024.224.224,0,0,0,.07-.07.147.147,0,0,0,.023-.072.139.139,0,0,0,0-.077l-.021-.076a.359.359,0,0,0-.012-.04.355.355,0,0,0-.042-.086l-.084-.144a.179.179,0,0,0-.063-.068.179.179,0,0,0-.082-.044.185.185,0,0,0-.1,0,.179.179,0,0,0-.09.03.242.242,0,0,0-.111.145l-.009.065a.239.239,0,0,0,.034.123Z" transform="translate(-4221.402 215.46)"/></g><g transform="translate(4233.11 -259.668)"><path d="M4257.036-244.221a3.6,3.6,0,0,0-.523.582,1.929,1.929,0,0,0-.192.3c-.034.072-.064.146-.093.22a.4.4,0,0,0-.03.1.5.5,0,0,0,.013.163.228.228,0,0,0,.332.135.389.389,0,0,0,.106-.072.77.77,0,0,0,.075-.109c.032-.049.065-.1.1-.146.067-.1.125-.2.2-.29l.022-.03c-.046.064-.018.024-.007.009l.053-.064c.037-.044.075-.088.115-.13a3.175,3.175,0,0,1,.259-.248.3.3,0,0,0,0-.426.306.306,0,0,0-.424,0Z" transform="translate(-4256.195 244.307)"/></g><g transform="translate(4232.852 -267.957)"><path d="M4255.9-254.265a1.14,1.14,0,0,0,.744,1.249,1.742,1.742,0,0,0,.934.072,3.252,3.252,0,0,0,.45-.112c.165-.053.383-.1.471-.265a.21.21,0,0,0-.123-.3.638.638,0,0,0-.42.062,3.8,3.8,0,0,1-.388.108,1.507,1.507,0,0,1-.706.015.775.775,0,0,1-.631-.78c.022-.189-.289-.228-.33-.044Z" transform="translate(-4255.88 254.384)"/></g><g transform="translate(4234.385 -272.483)"><path d="M4260.259-259.453c.143-.266-.188-.452-.416-.433a2.259,2.259,0,0,0-.884.3,3.188,3.188,0,0,0-.742.564,2.475,2.475,0,0,0-.3.373.856.856,0,0,0-.167.482.187.187,0,0,0,.277.16.961.961,0,0,0,.27-.241c.077-.09.153-.181.23-.269a3.754,3.754,0,0,1,.489-.465,3.993,3.993,0,0,1,.586-.372,1.934,1.934,0,0,1,.291-.14.28.28,0,0,1,.1-.012c.018,0,.036,0,.053,0,.085,0-.014.016,0-.035-.025.123.145.211.21.09Z" transform="translate(-4257.75 259.887)"/></g><g transform="translate(4229.759 -260.603)"><path d="M4252.215-245.035a2.476,2.476,0,0,1,.227.126c.037.024.073.048.108.072l.049.035c.062.044-.031-.026.028.021a2.63,2.63,0,0,1,.362.356l.038.046c.048.059-.025-.037.019.025l.068.1c.048.072.092.147.133.224.081.153.15.311.242.456a.209.209,0,0,0,.386-.105,1.8,1.8,0,0,0-.528-1.069,2.674,2.674,0,0,0-.909-.668.229.229,0,0,0-.3.08.225.225,0,0,0,.08.3Z" transform="translate(-4252.107 245.444)"/></g><g transform="translate(4229.675 -250.551)"><path d="M4254.323-232.177a1.127,1.127,0,0,0-.332-.691,1.266,1.266,0,0,0-.729-.346,1.267,1.267,0,0,0-.771.17.855.855,0,0,0-.484.706.253.253,0,0,0,.122.214.262.262,0,0,0,.25,0l.05-.039c-.033.025-.019.015.04-.032a.644.644,0,0,0,.059-.067c-.021.024.025-.027.03-.032s.095-.118.05-.065a1.227,1.227,0,0,1,.112-.119c.017-.016.035-.03.052-.044l.032-.026c-.02.016-.021.017,0,.006a.948.948,0,0,1,.128-.077s.08-.034.033-.016a.788.788,0,0,1,.077-.026c.022-.007.044-.012.066-.016l.04-.008c-.022,0-.024,0,0,0a1.139,1.139,0,0,1,.15,0c.075,0-.033-.011.04,0l.068.015a.729.729,0,0,1,.25.116.946.946,0,0,1,.342.421.173.173,0,0,0,.188.123.168.168,0,0,0,.147-.168Z" transform="translate(-4252.005 233.222)"/></g><g transform="translate(4236.759 -254.145)"><path d="M4262.651-237.511c-.143.266-.5.393-.756.532a2.319,2.319,0,0,0-.761.71,2.377,2.377,0,0,0-.414,1.973.284.284,0,0,0,.263.2.26.26,0,0,0,.137-.037.268.268,0,0,0,.136-.236,2.734,2.734,0,0,1,.493-1.655c.38-.487,1.018-.732,1.2-1.362a.164.164,0,0,0-.3-.126Z" transform="translate(-4260.646 237.591)"/></g><g transform="translate(4235.815 -262.228)"><path d="M4261.459-247.258a4.748,4.748,0,0,0-1.014-.156,2.119,2.119,0,0,0-.5.022c-.152.029-.444.133-.447.325,0,.211.274.227.426.244a2.777,2.777,0,0,0,.46-.018,4.2,4.2,0,0,1,.949.057.253.253,0,0,0,.3-.172.25.25,0,0,0-.171-.3Z" transform="translate(-4259.494 247.419)"/></g><g transform="translate(4235.801 -247.037)"><path d="M4262.8-228.813a4.03,4.03,0,0,0-1.824-.061,3.31,3.31,0,0,0-.873.292c-.247.122-.591.312-.626.614a.166.166,0,0,0,.121.16c.245.076.551-.12.772-.208.254-.1.507-.191.769-.268a5.137,5.137,0,0,1,1.614-.179.179.179,0,0,0,.048-.35Z" transform="translate(-4259.478 228.95)"/></g><g transform="translate(4232.147 -247.42)"><path d="M4255.372-227.7a1.642,1.642,0,0,1,.649-.931,1.866,1.866,0,0,1,.259-.151c.066-.032.068-.032.143-.063-.028.012.042-.015.04-.015l.074-.025c.1-.032.2-.049.3-.074a.664.664,0,0,0,.319-.114.172.172,0,0,0,0-.242.514.514,0,0,0-.38-.1,1.337,1.337,0,0,0-.367.069,1.967,1.967,0,0,0-.659.362,2.028,2.028,0,0,0-.728,1.184c-.042.225.29.324.348.1Z" transform="translate(-4255.02 229.415)"/></g><g transform="translate(4234.532 -242.222)"><path d="M4258.222-222.326a1.633,1.633,0,0,1,.931-.326,1.591,1.591,0,0,1,.475.056,2.62,2.62,0,0,1,.257.079.393.393,0,0,0,.3.047.191.191,0,0,0,.127-.225c-.021-.128-.142-.194-.249-.242a1.542,1.542,0,0,0-.311-.11,2.113,2.113,0,0,0-.614-.041,2.072,2.072,0,0,0-1.147.459c-.168.137.056.433.232.3Z" transform="translate(-4257.93 223.095)"/></g><g transform="translate(4238.968 -242.15)"><path d="M4264.666-223a1.622,1.622,0,0,0-.8.413,1.628,1.628,0,0,0-.487.786.836.836,0,0,0,.015.53.25.25,0,0,0,.292.162.264.264,0,0,0,.176-.174.191.191,0,0,1,.015-.036l-.005.012c.012-.026.022-.051.032-.077.036-.129.058-.262.1-.39.006-.016.011-.031.018-.048.02-.053-.007.013-.007.016,0-.018.035-.072.045-.091s.032-.059.05-.088a.41.41,0,0,1,.07-.1c-.005,0-.042.051-.009.011l.04-.047c.027-.03.055-.06.084-.089s.055-.05.083-.074c.043-.036.007,0,0,0l.05-.035a1.6,1.6,0,0,1,.193-.11c.061-.03-.055.019.011,0l.056-.021a1.151,1.151,0,0,1,.118-.033.267.267,0,0,0,.185-.326.271.271,0,0,0-.325-.185Z" transform="translate(-4263.341 223.008)"/></g><g transform="translate(4242.543 -242.459)"><path d="M4269.3-223.357a2.627,2.627,0,0,0-1.59,1.93.25.25,0,0,0,.168.3.246.246,0,0,0,.295-.169c.021-.049.074-.152.109-.229s.084-.169.126-.252.089-.166.141-.245c.027-.042.055-.082.083-.123l.04-.054c-.032.042.021-.025.022-.027a2.682,2.682,0,0,1,.844-.719.24.24,0,0,0,.084-.323.243.243,0,0,0-.323-.085Z" transform="translate(-4267.702 223.384)"/></g><g transform="translate(4235.071 -235.45)"><path d="M4258.922-213.6a6.345,6.345,0,0,1,.586-.378,2.536,2.536,0,0,1,.653-.22,3.111,3.111,0,0,1,.66-.051,5.065,5.065,0,0,0,.723.021c.155-.022.187-.243.089-.339a1.326,1.326,0,0,0-.812-.285,2.466,2.466,0,0,0-.817.077,2.4,2.4,0,0,0-1.384.87.223.223,0,0,0,.3.3Z" transform="translate(-4258.586 214.862)"/></g><g transform="translate(4240.22 -234.344)"><path d="M4266.536-213.479a1.267,1.267,0,0,0-1.322.547,1.8,1.8,0,0,0-.294.718,1.885,1.885,0,0,0-.006.856.28.28,0,0,0,.266.2.286.286,0,0,0,.265-.2,1.734,1.734,0,0,0,.08-.359c.006-.058.011-.116.018-.174l.009-.078c0-.008.01-.091.005-.049s.006-.042.007-.049c.005-.025.009-.052.015-.077.01-.051.022-.1.037-.151a1.511,1.511,0,0,1,.056-.163c-.014.032,0,.009,0-.009s.024-.051.037-.076a1.348,1.348,0,0,1,.071-.117c0-.006.048-.062.025-.035s.023-.026.028-.031a1.311,1.311,0,0,1,.1-.1c.062-.056-.023.015.016-.012l.056-.038a1,1,0,0,1,.118-.063c-.052.023.026-.007.03-.009l.063-.016c.011,0,.069-.012.015,0a.6.6,0,0,1,.065,0c.022,0,.043,0,.066,0,.057,0-.03-.007.033.006a.273.273,0,0,0,.328-.187.271.271,0,0,0-.187-.329Z" transform="translate(-4264.867 213.518)"/></g><g transform="translate(4243.504 -237.828)"><path d="M4269.4-216.172l-.023.042c.025.025.043-.032.02-.012-.013,0-.014,0,0,0s.012,0-.023,0l-.079.014.282.115c.037.087-.042-.1-.022-.058-.008-.018-.019-.037-.027-.055-.026-.049.014.048,0-.01,0-.016-.011-.031-.016-.048a.926.926,0,0,1-.028-.108l-.007-.04,0,.036a.3.3,0,0,1-.005-.06,1.252,1.252,0,0,1,0-.234.128.128,0,0,1,0-.051c-.007.044-.007.05,0,.017l0-.021c.008-.04.017-.081.028-.119s.026-.072.037-.107-.028.055,0,0l.022-.046a1,1,0,0,1,.063-.105.208.208,0,0,1,.034-.05l-.021.028.026-.03c.109-.127.278-.244.31-.419a.2.2,0,0,0-.089-.217c-.235-.129-.5.046-.655.229a1.534,1.534,0,0,0-.3.565,1.45,1.45,0,0,0-.035.642,1.039,1.039,0,0,0,.285.569.256.256,0,0,0,.3.039.613.613,0,0,0,.243-.37.182.182,0,0,0-.1-.213.179.179,0,0,0-.225.074Z" transform="translate(-4268.875 217.753)"/></g><g transform="translate(4247.762 -236.95)"><path d="M4274.541-215.188s-.029-.06-.016-.025a.618.618,0,0,1-.017-.06c-.014-.045,0,.021,0-.023,0-.024,0-.048,0-.072s0-.013,0,.007l.006-.03c.007-.021.011-.041.018-.061l.011-.03c-.007.016-.008.017,0,0s.021-.039.031-.058a.671.671,0,0,1,.159-.192.793.793,0,0,1,.2-.131,2.132,2.132,0,0,1,.266-.1c.1-.032.2-.061.305-.092a2.379,2.379,0,0,0,.326-.128.472.472,0,0,0,.286-.278.181.181,0,0,0-.124-.22.688.688,0,0,0-.389.091c-.116.043-.235.08-.352.118a2.451,2.451,0,0,0-.666.282.954.954,0,0,0-.412,1.219.22.22,0,0,0,.3.078.221.221,0,0,0,.078-.3Z" transform="translate(-4274.067 216.686)"/></g><g transform="translate(4246.506 -232.837)"><path d="M4274.918-211.652a2.406,2.406,0,0,0-1.416.2,2.03,2.03,0,0,0-.589.4,2.463,2.463,0,0,0-.231.273.439.439,0,0,0-.131.4.215.215,0,0,0,.2.155.337.337,0,0,0,.209-.086,1.48,1.48,0,0,0,.093-.122,2.017,2.017,0,0,1,.212-.22,2.238,2.238,0,0,1,.466-.336,1.882,1.882,0,0,1,1.121-.2c.255.03.316-.412.061-.455Z" transform="translate(-4272.536 211.685)"/></g><g transform="translate(4245.61 -230.162)"><path d="M4272.184-208.4a1.866,1.866,0,0,0-.609.8,1.508,1.508,0,0,0-.08.989.273.273,0,0,0,.332.188.279.279,0,0,0,.189-.332c.008.061,0-.03,0-.051s-.006-.068-.008-.1c0-.065-.01-.128-.01-.193,0-.034,0-.068.005-.1l0-.045c.007-.072-.007.032,0-.009.013-.067.026-.134.044-.2.009-.029.018-.058.027-.086l.02-.053c-.009.023,0,.009,0-.006a1.661,1.661,0,0,1,.1-.179c.018-.029.038-.057.058-.085s-.018.021.006-.008l.03-.035a1.409,1.409,0,0,1,.152-.152.215.215,0,0,0,.017-.282.211.211,0,0,0-.275-.055Z" transform="translate(-4271.443 208.433)"/></g><g transform="translate(4191.44 -306.938)"><path d="M4208.471-300.616c-.532-.841-1.489-1.57-2.461-.9-.934.646-.621,2.238-.476,3.178a16.243,16.243,0,0,0,1.073,3.815,4.664,4.664,0,0,0,.8,1.363c.281.307.76.7,1.19.5a.186.186,0,0,0,.066-.253c-.2-.273-.561-.366-.8-.618a3.582,3.582,0,0,1-.645-1.079,13.916,13.916,0,0,1-.845-2.831,9.945,9.945,0,0,1-.219-2.845.773.773,0,0,1,.779-.771,1.374,1.374,0,0,1,1.2.639c.143.2.466.019.332-.195Z" transform="translate(-4205.366 301.777)"/></g><g transform="translate(4215.757 -307.394)"><path d="M4236.549-300.917c.131-.218.545-1,.818-.589a3.144,3.144,0,0,1,.242,1.2,8.32,8.32,0,0,1-.085,2.471c-.263,1.377-.864,3.227-2.258,3.83-.546.237-.048,1.155.477.818,1.792-1.154,2.511-3.6,2.634-5.616a9.091,9.091,0,0,0-.06-1.694,3.4,3.4,0,0,0-.374-1.477.9.9,0,0,0-1.107-.276,1.455,1.455,0,0,0-.777,1.124.27.27,0,0,0,.492.208Z" transform="translate(-4235.027 302.331)"/></g><g transform="translate(4152.73 -242.052)"><path d="M4158.557-212.916c2.725-1.022,5.318-2.366,7.943-3.615,1.334-.635,2.678-1.265,4.053-1.8,1.331-.521,2.715-.875,4.055-1.373,1.431-.531,3.359-1.278,4.135-2.7a.326.326,0,0,0-.442-.443c-.636.354-1.189.842-1.822,1.207a13.9,13.9,0,0,1-2.055.952c-1.315.494-2.682.841-3.993,1.348a78.725,78.725,0,0,0-7.83,3.75c-1.385.721-2.777,1.431-4.227,2.013-.4.161-.234.818.183.662Z" transform="translate(-4158.146 222.889)"/></g><g transform="translate(4171.532 -258.465)"><path d="M4183.508-242.7c-.692,3.047-.557,6.136-.643,9.234a27.673,27.673,0,0,1-.425,4.394,15.939,15.939,0,0,1-.508,2c-.23.7-.663,1.367-.837,2.074-.105.427.457.821.777.454a5.657,5.657,0,0,0,.887-1.928,15.288,15.288,0,0,0,.521-2.089,25.591,25.591,0,0,0,.348-4.363c.016-3.213-.284-6.485.274-9.668.044-.255-.333-.369-.393-.109Z" transform="translate(-4181.081 242.844)"/></g><g transform="translate(4162.976 -232.455)"><path d="M4170.824-202.735a8.95,8.95,0,0,0,2.517-.3c.861-.163,1.725-.322,2.584-.493,1.475-.3,2.956-.587,4.415-.954a34.267,34.267,0,0,0,8.293-3.067,17.737,17.737,0,0,0,2.07-1.312,6.447,6.447,0,0,0,1.776-1.728.435.435,0,0,0-.589-.591,13.545,13.545,0,0,0-1.749,1.193c-.592.392-1.169.8-1.785,1.151a26.648,26.648,0,0,1-3.868,1.825,68.7,68.7,0,0,1-8.425,2.424c-.889.214-1.776.435-2.664.658a9.745,9.745,0,0,0-2.667.854.183.183,0,0,0,.091.338Z" transform="translate(-4170.644 211.222)"/></g><g transform="translate(4184.288 -245.092)"><path d="M4198.8-226.322a29.028,29.028,0,0,1-.085,6.616,24.616,24.616,0,0,1-.6,3.22,4.564,4.564,0,0,1-.4,1.118,1.971,1.971,0,0,1-.83.732.533.533,0,0,0,.266.985c.937-.032,1.5-1.012,1.782-1.8a16.472,16.472,0,0,0,.68-3.386,24.469,24.469,0,0,0-.283-7.559c-.053-.3-.562-.232-.528.072Z" transform="translate(-4196.641 226.585)"/></g><g transform="translate(4226.579 -261.742)"><g transform="translate(1.274 25.169)"><path d="M4251.961-216.051a1.187,1.187,0,0,1-.271.53,1.515,1.515,0,0,1-.51.378.736.736,0,0,1-.115.048c-.052.018-.106.035-.16.048a1.628,1.628,0,0,1-.163.032c.051-.007-.026,0-.037,0-.027,0-.055,0-.082,0-.055,0-.111,0-.165,0l-.083,0-.04,0a1.719,1.719,0,0,0-.381-.029.173.173,0,0,0-.147.257.924.924,0,0,0,.787.333,1.977,1.977,0,0,0,.834-.2,1.777,1.777,0,0,0,1-1.264.249.249,0,0,0-.168-.3.243.243,0,0,0-.295.169Z" transform="translate(-4249.782 216.227)"/></g><g transform="translate(14.07 17.773)"><path d="M4284.256-217.879c-3.3-1.315-6.606-2.6-9.986-3.681-1.507-.484-3.04-.9-4.522-1.462a14.183,14.183,0,0,1-1.982-.912c-.66-.371-1.224-.9-1.894-1.245a.326.326,0,0,0-.442.443,4.131,4.131,0,0,0,1.566,1.474,12.482,12.482,0,0,0,2.025,1.011c1.5.609,3.069,1.031,4.608,1.522,3.5,1.115,7,2.239,10.444,3.513.416.154.583-.5.182-.662Z" transform="translate(-4265.391 225.22)"/></g><g transform="translate(11.324)"><path d="M4262.045-246.572a49.945,49.945,0,0,1,.426,8.743c0,2.6-.256,5.4.731,7.872.474,1.182,1.474,2.676,2.834,2.91a.468.468,0,0,0,.358-.852,7.278,7.278,0,0,1-1.44-1,4.8,4.8,0,0,1-.917-1.486,12.1,12.1,0,0,1-.736-3.793c-.174-2.714-.068-5.44-.287-8.154a31.132,31.132,0,0,0-.578-4.348c-.059-.259-.439-.147-.394.109Z" transform="translate(-4262.041 246.828)"/></g><g transform="translate(2.561 27.364)"><path d="M4275.141-204.436a23.083,23.083,0,0,0-3.777-1.435,42.385,42.385,0,0,0-4.172-1.23,49.328,49.328,0,0,1-10.133-3.262,22.776,22.776,0,0,1-2.562-1.449c-.408-.269-.821-.534-1.223-.813a10.2,10.2,0,0,0-1.268-.887.435.435,0,0,0-.588.591,7.187,7.187,0,0,0,1.909,1.822,17.731,17.731,0,0,0,2.3,1.413,30.205,30.205,0,0,0,5.034,2.059c3.212,1.02,6.543,1.514,9.774,2.445.828.239,1.654.486,2.483.722a6.333,6.333,0,0,0,2.136.362.183.183,0,0,0,.091-.338Z" transform="translate(-4251.354 213.559)"/></g><g transform="translate(0 14.731)"><path d="M4248.687-228.726a24.484,24.484,0,0,0-.284,7.559,16.516,16.516,0,0,0,.68,3.386c.278.785.846,1.765,1.782,1.8a.533.533,0,0,0,.266-.985,2.007,2.007,0,0,1-.8-.674,4.133,4.133,0,0,1-.411-1.081,23.9,23.9,0,0,1-.625-3.315,29.029,29.029,0,0,1-.085-6.616c.034-.3-.474-.371-.528-.072Z" transform="translate(-4248.229 228.919)"/></g></g><g transform="translate(4250.901 -237.312)"><path d="M4287.075-215.92a4.315,4.315,0,0,0-3.414-1.193,6.192,6.192,0,0,0-3.555,1.467,6.283,6.283,0,0,0-2,3.328,7.605,7.605,0,0,0-.207,1.976,3.5,3.5,0,0,0,.452,1.908.292.292,0,0,0,.526-.069,10.245,10.245,0,0,0,.074-1.649,7.033,7.033,0,0,1,.287-1.656,6.106,6.106,0,0,1,1.591-2.69,5.28,5.28,0,0,1,2.649-1.314,5.209,5.209,0,0,1,1.474-.06,2.882,2.882,0,0,1,1.564.514.4.4,0,0,0,.559-.562Z" transform="translate(-4277.896 217.126)"/></g><g transform="translate(4223.137 -235.49)"><path d="M4245.844-214.576c-.024,1.9-.109,3.806-.056,5.708q.02.714.039,1.427a4.058,4.058,0,0,1-.018,1.214,3.5,3.5,0,0,1-.7,1.032c-.117.15-.233.3-.351.447-.051.068-.1.135-.158.2q-.321.171.293.049c-.542-.388-1.025.338-.815.818a.825.825,0,0,0,1.05.387c.476-.169.769-.7,1.065-1.081a4.867,4.867,0,0,0,.874-1.328,3.94,3.94,0,0,0,.09-1.536c-.138-2.456-.389-4.891-.624-7.339a.346.346,0,0,0-.691,0Z" transform="translate(-4244.03 214.911)"/></g><g transform="translate(4186.063 -266.944)"><path d="M4198.808-252.8c.139,1.595.162,3.207.227,4.806q.2,4.8.358,9.6.2,5.6.408,11.2.171,4.723.326,9.446c.055,1.765.052,3.524.068,5.288a4.1,4.1,0,0,0,.537,2.075.593.593,0,0,0,1.1-.3l.016-.447c.021-.618-.985-.778-1.1-.149l-.076.438h1.134a9.552,9.552,0,0,1-.246-3.413c-.023-.92-.06-1.84-.1-2.76q-.178-4.522-.4-9.04c-.178-3.691-.36-7.381-.567-11.071q-.278-4.954-.572-9.906c-.109-1.848-.2-3.7-.355-5.546-.006-.076-.013-.152-.021-.229-.049-.466-.78-.479-.738,0Z" transform="translate(-4198.806 253.153)"/></g><g transform="translate(4152.586 -232.611)"><path d="M4158.166-210.607a9.254,9.254,0,0,1,3.9,4.739,5.1,5.1,0,0,1,.061,2.668,4.55,4.55,0,0,1-.5,1.213c-.235.394-.646.707-.776,1.149a.546.546,0,0,0,.662.665c.525-.085.929-.677,1.2-1.092a4.955,4.955,0,0,0,.649-1.518,6.421,6.421,0,0,0-.065-3.277c-.681-2.378-2.651-4.08-4.706-5.286-.479-.282-.88.432-.431.739Z" transform="translate(-4157.97 211.411)"/></g><g transform="translate(4149.063 -231.84)"><path d="M4153.7-210.064a2.322,2.322,0,0,0,.944.907,3.39,3.39,0,0,0,1.323.544,1.614,1.614,0,0,0,1.232-.291,1.142,1.142,0,0,0,.509-1.18.385.385,0,0,0-.736,0,.743.743,0,0,1-.128.3.725.725,0,0,1-.207.193c-.028.016-.056.031-.084.045-.058.029-.012.007-.048.02a1.123,1.123,0,0,1-.207.05c.059-.007-.018,0-.035,0-.049,0-.1,0-.149,0a1.18,1.18,0,0,1-.207-.031,5.016,5.016,0,0,1-.94-.378,2.826,2.826,0,0,1-.843-.506c-.226-.227-.551.058-.422.327Z" transform="translate(-4153.672 210.473)"/></g><g transform="translate(4178.874 -202.755)"><path d="M4190.108-174.322l.072.146a1.42,1.42,0,0,0,.087.145c.059.092.127.183.18.279v-.7a.734.734,0,0,0,.009.744c.02.031.041.062.06.093a1.422,1.422,0,0,0,.165.212.812.812,0,0,0,.392.22.565.565,0,0,0,.3.013.559.559,0,0,0,.277-.089l.151-.117a.763.763,0,0,0,.193-.331v-.007l-.184.316a.468.468,0,0,0,.063-.078c.021-.026.041-.053.06-.08a1.261,1.261,0,0,0,.073-.172,1.361,1.361,0,0,0,.026-.194.641.641,0,0,0-.025-.19.566.566,0,0,0-.129-.248.608.608,0,0,0-.2-.186.655.655,0,0,0-.331-.09.489.489,0,0,0-.251.057.49.49,0,0,0-.211.136.66.66,0,0,0-.168.29l0,.011.067-.159-.009.015.105-.137-.008.007.138-.107-.009,0,.165-.07,0,0,.184-.025h-.012l.187.026-.009,0,.168.071-.008,0,.354.618v0a.744.744,0,0,0-.1-.378.751.751,0,0,0-.268-.269.347.347,0,0,1-.031-.017l.153.118c-.091-.072-.177-.136-.273-.2-.024-.016-.049-.034-.074-.049l-.169-.072c-.036-.007-.072-.012-.107-.015a.528.528,0,0,0-.281.012.863.863,0,0,0-.171.073h.7c-.1-.053-.186-.121-.277-.181a1.531,1.531,0,0,0-.138-.085l-.152-.076-.126-.053a.4.4,0,0,0-.208-.009.255.255,0,0,0-.131.035.393.393,0,0,0-.168.109.611.611,0,0,0-.134.231.4.4,0,0,0-.009.21.394.394,0,0,0,.062.195Z" transform="translate(-4190.036 175.112)"/></g><g transform="translate(4182.369 -203.997)"><path d="M4195.479-176.59l-.024-.007a1.558,1.558,0,0,0-.186-.025.223.223,0,0,0-.047,0,1.873,1.873,0,0,0-.189.026l-.021.006a1.322,1.322,0,0,0-.2.084l.516-.067a.753.753,0,0,0-.107-.016.532.532,0,0,0-.278.012.684.684,0,0,0-.168.072l-.012.008a1.324,1.324,0,0,0-.189.147.673.673,0,0,0-.145.195c-.03.065-.06.134-.084.2,0,.011-.007.022-.011.033a.811.811,0,0,0-.034.26c.007.074.018.151.03.225,0,.01,0,.021.007.03l.01.03a2.163,2.163,0,0,0,.084.2.186.186,0,0,0,.016.026c.02.03.046.061.066.087a.525.525,0,0,0,.067.086.549.549,0,0,0,.237.151.542.542,0,0,0,.282.063l.195-.025a.556.556,0,0,0,.25-.132.372.372,0,0,0,.131-.132.551.551,0,0,0,.131-.25l.026-.2a.726.726,0,0,0-.1-.371c-.005-.014-.014-.026-.02-.04l.073.177a.322.322,0,0,1-.02-.074l.027.2a.569.569,0,0,1,0-.077.516.516,0,0,1,0-.077l-.026.2c0-.014.005-.029.008-.043a2.247,2.247,0,0,0,.031-.229l-.025.192a.393.393,0,0,1,.012-.057l0-.012a.2.2,0,0,0,.014-.1.533.533,0,0,0-.012-.278l0-.015-.067.517.014-.02-.1.135a.221.221,0,0,1,.038-.039l-.131.1a.234.234,0,0,1,.047-.028l-.151.064a.2.2,0,0,1,.04-.012l.149-.063a.478.478,0,0,0,.174-.16.318.318,0,0,0,.081-.138.473.473,0,0,0,.053-.241l-.022-.165-.063-.15a.478.478,0,0,0-.16-.175.479.479,0,0,0-.213-.112Z" transform="translate(-4194.299 176.622)"/></g><g transform="translate(4180.957 -204.023)"><path d="M4193.226-175.3a.675.675,0,0,0,0-1.35.675.675,0,0,0,0,1.35Z" transform="translate(-4192.576 176.654)"/></g><g transform="translate(4180.021 -205.169)"><path d="M4191.458-173.756c.531,1.562,1.148,3.107,1.806,4.619a.6.6,0,0,0,1.094-.143,8.477,8.477,0,0,0,.135-3.167,7.683,7.683,0,0,0-.358-1.465,2.333,2.333,0,0,0-.277-.708c-.011-.112-.062-.119-.15-.021-.156.039-.158.081-.01.128a1.477,1.477,0,0,0,.251.171c1.618,1.244,1.7,3.5,1.547,5.357-.062.747,1.081.863,1.275.174a14.932,14.932,0,0,0,.568-4.3,14.925,14.925,0,0,0-.2-2.127,8.007,8.007,0,0,1-.2-2.217l-1.025.426c1.842,1.556,1.508,4.332,2.325,6.4a.644.644,0,0,0,1.26-.17,41.63,41.63,0,0,0,.135-6.247c-.044-.8-1.292-.81-1.253,0a41.764,41.764,0,0,1-.164,6.247l1.259-.171c-.894-2.292-.65-5.209-2.713-6.912a.61.61,0,0,0-1.026.426,7.654,7.654,0,0,0,.152,2.066,14.37,14.37,0,0,1,.216,2.12,12.991,12.991,0,0,1-.586,4.113l1.275.173c.218-2.4-.252-5.3-2.546-6.6a1,1,0,0,0-1.448.279c-.352.6.018,1.2.215,1.782a7.1,7.1,0,0,1,.188,3.924l1.1-.143c-.634-1.468-1.321-2.926-2.074-4.336a.421.421,0,0,0-.766.323Z" transform="translate(-4191.436 178.047)"/></g><g transform="translate(4186.474 -206.316)"><path d="M4199.728-177.211c1.152-.215,2.3-.433,3.454-.647q.863-.16,1.729-.307l.315-.053-.1-.044a2.937,2.937,0,0,1,.178.376q.16.355.3.718a20.657,20.657,0,0,1,1.458,6.325l.73-.733-2.907-.015q-.686,0-1.372-.006c-.193,0-.393-.013-.586,0-.1,0-.067-.233-.031.083a.5.5,0,0,0-.623-.475c-.613.09-.752.866-.474,1.329.374.622,1.168.562,1.793.563,1.4,0,2.8-.007,4.2-.01a.737.737,0,0,0,.73-.733,20.532,20.532,0,0,0-1.894-7.4c-.258-.541-.509-1.161-1.2-1.2a6.676,6.676,0,0,0-1.908.428c-1.334.352-2.66.727-3.976,1.145a.34.34,0,0,0,.179.655Z" transform="translate(-4199.308 179.441)"/></g><g transform="translate(4162.994 -203.463)"><path d="M4173.922-175.965c-.467.2-.756.809-1.036,1.211-.353.507-.69,1.025-1,1.559a8.478,8.478,0,0,0-1.181,3.359,7.477,7.477,0,0,0,.37,3.2c.312.888.888,2.18,1.862,2.5.313.1.534-.211.487-.489a5.154,5.154,0,0,0-.58-1.267,9.689,9.689,0,0,1-.548-1.247,6.921,6.921,0,0,1-.324-2.857,9.783,9.783,0,0,1,.922-3.034c.216-.483.447-.959.663-1.442a3.01,3.01,0,0,0,.469-1.433.071.071,0,0,0-.1-.06Z" transform="translate(-4170.666 175.972)"/></g><path d="M4236.646-169.611c12.419,1.764,16.5,7.568,24.318,4.084s6.2-12.331,1.826-14.62-19.142-1.821-19.142-1.821-8.454.4-8.637,3.1S4236.646-169.611,4236.646-169.611Z" transform="translate(-19.265 -26.419)"/></g></svg>