<svg xmlns="http://www.w3.org/2000/svg" width="100" height="70" viewBox="0 0 100 70"><g transform="translate(-609 -320)"><path d="M59.5,23.442c3.585-1.158,5.452-.24,6.138,3.474s4.911,25.111,4.911,25.111-4.223.36-6.678-4.724S59.5,23.442,59.5,23.442" transform="translate(602.687 317.122)" fill="#1d1c1d"/><path d="M62.586,37.058c5.163.639,10.4.89,15.6,1.113,2.686.115,5.372.231,8.059.331q1.834.069,3.667.123c1.151.033,2.58.353,3.51-.438a1.049,1.049,0,0,0,0-1.474c-.846-.785-2.264-.539-3.351-.569q-1.913-.054-3.826-.118-4.03-.133-8.059-.293a130.041,130.041,0,0,0-15.6.027.65.65,0,0,0,0,1.3" transform="translate(602.803 315.677)" fill="#1d1c1d"/><path d="M60.147,26.675c.416.9,1.9.839,2.736.958,1.257.18,2.56.243,3.828.312,2.984.161,5.967.359,8.952.487q4.529.194,9.059.381a45.839,45.839,0,0,0,7.745.148c1.112-.149,1.656-1.926.3-2.184a55.045,55.045,0,0,0-8.04-.424q-4.786-.184-9.571-.388c-3.064-.126-6.146-.229-9.213-.236-.482,0-6.238-.015-5.791.947" transform="translate(603.017 316.867)" fill="#1d1c1d"/><path d="M81.3,16.3l0-.024a.854.854,0,0,0-.6-.786,28.766,28.766,0,0,0-5.981-.836c-1.157-.119-2.323-.181-3.485-.227-1.191-.047-2.383-.059-3.574-.07-.9-.007-1.792,0-2.688.007-1.214.01-2.806-.3-3.735.6a1.111,1.111,0,0,0,0,1.553c.919.874,2.4.57,3.59.565.909,0,1.818-.009,2.728-.025,1.226-.021,2.453-.041,3.679-.024,1.13.016,2.258.083,3.389.11a29.264,29.264,0,0,0,6.077-.08.8.8,0,0,0,.569-.569A1.412,1.412,0,0,0,81.3,16.3" transform="translate(602.608 318.257)" fill="#1d1c1d"/><path d="M65.309,53.706c.752.882,2.363,1.049,3.458,1.211a23.661,23.661,0,0,0,3.49.266c.954,0,1.913-.064,2.863-.148.635-.057,1.287-.25,1.923-.255.932-.007,1.708,1.174,2.3,1.818.826.906,1.63,1.833,2.424,2.766,1.764,2.069,3.479,4.181,5.246,6.246a1,1,0,0,0,1.693-.7c.037-4.894.806-9.76.932-14.648.029-1.126-1.626-1.088-1.726,0-.445,4.856-1.162,9.766-1.189,14.648l1.693-.7c-1.813-2.108-3.569-4.265-5.379-6.375-.828-.964-1.668-1.917-2.55-2.832a6.909,6.909,0,0,0-2.41-2.04,5.294,5.294,0,0,0-2.248.156c-.887.143-1.765.293-2.662.355a22.8,22.8,0,0,1-3.449-.017c-.77-.064-1.538-.166-2.3-.285a3.983,3.983,0,0,0-1.941-.087.378.378,0,0,0-.164.623" transform="translate(602.199 313.832)" fill="#1d1c1d"/><path d="M43.542,20.134a16.636,16.636,0,0,1,2.842-8.34A19.128,19.128,0,0,1,54.141,5.8,39.208,39.208,0,0,1,64.574,2.86a37.168,37.168,0,0,1,11.867-.27A33.226,33.226,0,0,1,86.724,6.563a37.953,37.953,0,0,1,8.349,5.989c4.8,4.693,7.834,11.646,5.551,18.291a18.5,18.5,0,0,1-5.64,7.893A26.943,26.943,0,0,1,90.772,41.7c-1.478.837-3.063,1.451-4.517,2.324-.572.343-.372,1.381.359,1.325,3.2-.247,6.44-2.113,8.98-3.991a21.711,21.711,0,0,0,6.448-7.408c3.471-6.769,1.775-14.609-2.761-20.442a31.915,31.915,0,0,0-8.63-7.469A45.644,45.644,0,0,0,79.818,1.024,32.216,32.216,0,0,0,67.025.316,46.918,46.918,0,0,0,55.261,3.043a23,23,0,0,0-9.905,6.782,15.092,15.092,0,0,0-3.222,10.309.7.7,0,0,0,1.409,0" transform="translate(605.11 320)" fill="#1d1c1d"/><path d="M89.382,46.851a.044.044,0,0,0,0-.088.044.044,0,0,0,0,.088" transform="translate(599.421 314.318)" fill="#1d1c1d"/><path d="M36.018,47.972c-.433-3-1.665-5.547-4.641-6.686a7.651,7.651,0,0,0-8.161,1.972,7.028,7.028,0,0,0-.707,8.244,7.293,7.293,0,0,0,8.5,2.715c4.108-1.515,4.772-6.129,4.8-9.956.012-1.786-2.471-1.66-2.691,0-.308,2.324-.317,4.922,1.042,6.947a5.54,5.54,0,0,0,5.414,2.457c2.4-.457,3.65-2.885,4.306-5.024a12.09,12.09,0,0,0-.1-7.318C40.647,31.971,28.794,29.4,21.03,34.63c-3.308,2.23-5,5.509-5.856,9.317a14.837,14.837,0,0,0,2.9,12.879c4.652,5.815,12.676,7.551,19.566,5.046a13.4,13.4,0,0,0,7.544-5.9,23.3,23.3,0,0,0,2.335-6.331,14.759,14.759,0,0,0,.378-5.936.647.647,0,0,0-1.238,0c-.794,5.308-1.79,11.822-7.057,14.5-4.425,2.252-10.35,2.783-14.846.484a13.392,13.392,0,0,1-6.83-8.049c-.838-3.054-.16-6.112.88-9.02,2.476-6.921,12.415-8.857,18.179-5.1a10.26,10.26,0,0,1,4.34,11.414c-.585,1.891-1.875,4.131-4.071,2.7-1.94-1.267-1.807-4-1.494-6.016l-2.643-.358c-.083,2.789-.174,6.986-3.669,7.645a4.3,4.3,0,0,1-5.338-4.314,4.723,4.723,0,0,1,5.133-4.235A7.1,7.1,0,0,1,35.206,48.2c.133.54.887.3.812-.224" transform="translate(607.285 315.982)" fill="#1d1c1d"/><path d="M47.593,20.086c-6.242.963-12.463,2.041-18.675,3.187Q21.73,24.6,14.546,25.952q-2.933.549-5.863,1.1a37.37,37.37,0,0,0-4.9,1.017c-2.383.8-4.046,2.66-3.753,5.274C.2,34.8.72,36.274,1,37.717c.968,4.946,1.771,9.925,2.646,14.887.473,2.681.953,5.361,1.471,8.034a39.827,39.827,0,0,0,1.8,7.369c.842,2.084,2.276,4.019,4.593,4.5,2.142.445,4.4-.2,6.5-.6,7.439-1.42,14.863-2.92,22.289-4.4,3.5-.7,7.027-1.625,10.573-2.01,2.528-.274,5.186-.313,7.362,1.231a7.87,7.87,0,0,1,2.568,3.47,1.163,1.163,0,0,0,2.241-.618q-2.309-11.972-4.7-23.926-1.16-5.84-2.309-11.682-.6-3.056-1.194-6.114A37.251,37.251,0,0,0,53.7,22.582a5,5,0,0,0-2.212-2.934,4.623,4.623,0,0,0-4,.065.8.8,0,0,0,.211,1.56,5.337,5.337,0,0,1,2.806.545,4.463,4.463,0,0,1,1.256,2.7c.831,3.667,1.452,7.393,2.182,11.082q2.148,10.85,4.324,21.7,1.281,6.45,2.537,12.9l2.241-.618a9.833,9.833,0,0,0-5.633-5.856,15.348,15.348,0,0,0-7.546-.41c-3.6.478-7.172,1.377-10.728,2.089q-5.285,1.059-10.569,2.116-5.576,1.111-11.157,2.2c-1.793.354-4.087,1.145-5.9.478-2.289-.843-2.968-3.916-3.448-6-.52-2.256-.963-4.529-1.4-6.8-1.008-5.269-1.924-10.557-2.9-15.833-.351-1.906-.7-3.816-1.114-5.711-.312-1.419-1.176-3.142-.346-4.506,1.009-1.655,3.494-1.78,5.231-2.122s3.454-.68,5.18-1.024q6.848-1.367,13.693-2.739c7.015-1.421,14.08-2.752,21.021-4.507.122-.031.246-.057.369-.086.521-.122.289-.864-.217-.786" transform="translate(609 317.342)" fill="#1d1c1d"/></g></svg>