<svg xmlns="http://www.w3.org/2000/svg" width="94" height="70" viewBox="0 0 94 70"><g transform="translate(-3729.639 -311.937)"><g transform="translate(3756.398 345.183)"><path d="M3796.049,350.134a36.874,36.874,0,0,1-5.391,5.59c-2.222,1.956-4.4,3.873-7.476,4.122-1.646.133-3.3-.054-4.949-.059a24.188,24.188,0,0,1-5.137-.417,19.169,19.169,0,0,1-4.448-1.617,17.4,17.4,0,0,1-3.785-2.37c-1.9-1.678-2.889-4.091-4.617-5.912a.346.346,0,0,1-.319-.031c-.18-.084-.24-.018-.2.216a6.691,6.691,0,0,0,.529,1.654.681.681,0,0,0,.336.376c.11.043.2.1.143.252a.516.516,0,0,0,.077.571.462.462,0,0,0,.521.2c.228-.018.4.148.445.437a.473.473,0,0,0,.223.334c.448.2.446.429.259.747.4-.135.433.1.469.357a1.319,1.319,0,0,0,.761.912.9.9,0,0,1,.727.791c.044.187.176.2.278.229a1.736,1.736,0,0,1,1.068.876c.385.65.506.673,1.08.528.163-.042.3-.221.521.121.106.167.484.168.434.464-.021.123.162.35.31.5s.259.012.39.01a.614.614,0,0,1,.541.317.962.962,0,0,0,.859.471.8.8,0,0,1,.642.3c.093.14.219.136.366.129a1.266,1.266,0,0,1,.775.139,7.125,7.125,0,0,1,.7.552c.193.2.379.182.432.033.092-.258.218-.117.4,0a1.749,1.749,0,0,1,.253.2.319.319,0,0,0,.239.1c.124-.007.134-.081.167-.146.051-.1-.1-.232.046-.344.055.14.1.246.143.351a.469.469,0,0,0,.392.28c.2.027.192-.1.216-.2s.162-.122.287-.128a.256.256,0,0,1,.233.143,1.618,1.618,0,0,0,.4.433.432.432,0,0,0,.635.047c.59-.413.477-.417.906.1a.369.369,0,0,0,.483.1c.253-.089.478-.272.82-.2a1.471,1.471,0,0,0,.975.017.282.282,0,0,1,.15.023.632.632,0,0,0,.526-.036.478.478,0,0,1,.563.021.223.223,0,0,0,.247.022,1.964,1.964,0,0,1,1.277-.122c.351.054.488,0,.6-.233a.52.52,0,0,0,.633-.021c.128-.077.268-.145.387-.229a.486.486,0,0,1,.527-.082c.262.138.513.3.8-.09a.938.938,0,0,0,.748-.563c.127-.2.225-.188.36-.1.287.187.733-.059,1.069,0,.076.014.218-.092.205-.174-.023-.161.162-.347.051-.5-.062-.086.027-.209.165-.288.289-.165.687-.114.912-.425a.061.061,0,0,1,.034-.013c.191.153.507-.044.742-.025.093.008.177.043.266-.059.072-.084.007-.133-.038-.174-.166-.155-.043-.275.191-.413.157-.093.261,0,.375-.047.257-.109-.077-.207.067-.279.19-.1.369-.221.558-.31.085-.04.217.021.27-.119.043-.114-.082-.127-.167-.152s-.229-.044-.154-.182c.091-.164.229-.1.347-.116.1-.014.2.072.281-.059.177-.3.4-.291.636-.323.13-.017.333-.016.351-.2.033-.354.33-.508.593-.713-.019-.06-.132-.035-.115-.133a1.727,1.727,0,0,1,.71-.746c.066-.02.162-.035.2-.079a1.061,1.061,0,0,1,.762-.4c.118-.023.316-.109.308-.29a1.617,1.617,0,0,1,.157-.515c.04-.141.183-.3.136-.419-.1-.265.062-.36.281-.413s.305-.148.25-.357c-.021-.085-.037-.19.088-.248a.394.394,0,0,0,.246-.56.413.413,0,0,1,.028-.248A2.64,2.64,0,0,0,3796.049,350.134Z" transform="translate(-3759.713 -349.405)"/></g><g transform="translate(3774.331 312.382)"><path d="M3801.469,324.891a25.677,25.677,0,0,0-20.841-12.451c-1.014-.04-1.013,1.532,0,1.571a24.044,24.044,0,0,1,19.48,11.673.788.788,0,0,0,1.361-.793Z" transform="translate(-3779.868 -312.439)"/></g><g transform="translate(3752.934 311.936)"><path d="M3789.6,315.106a22.674,22.674,0,0,0-22.827-.17c-7.084,4.17-11.337,12.713-10.92,20.847a24.367,24.367,0,0,0,8.547,16.453,21.764,21.764,0,0,0,5.5,3.015,22.843,22.843,0,0,0,12.275,1.6c3.886-.648,7.356-2.876,10.259-5.448,6.582-5.832,10.426-14.831,8.214-23.557a1.183,1.183,0,0,0-2.28.626c1.752,6.911-.812,14.053-5.527,19.215a23.149,23.149,0,0,1-8.373,6.108,17.658,17.658,0,0,1-10.917.214,19.929,19.929,0,0,1-9.679-5.518,21.785,21.785,0,0,1-5.346-10.1c-1.363-7.152,1.513-15.447,7.319-19.978a20.214,20.214,0,0,1,22.563-1.261,1.181,1.181,0,0,0,1.193-2.036Z" transform="translate(-3755.821 -311.936)"/></g><g transform="translate(3752.91 313.103)"><path d="M3795.031,346.316a24.934,24.934,0,0,1-20.574,8.5c-7.793-.519-13.237-6.764-15.595-13.769-1.335-3.965-2.233-8.722-.883-12.8a19.617,19.617,0,0,1,6.554-8.7,22.029,22.029,0,0,1,16.443-4.557,20.551,20.551,0,0,1,15.68,11.244.8.8,0,0,0,1.238.16c-.275.214-.012.01.1-.059.226-.134.449-.267.686-.382a7.49,7.49,0,0,1,2.328-.68,9.562,9.562,0,0,1,7.322,2.4c2.692,2.428,3.515,6.175,3.451,9.663a16.24,16.24,0,0,1-.208,2.475c-.186.988,1.333,1.412,1.52.418a18.275,18.275,0,0,0-.346-8.089,11.29,11.29,0,0,0-11.124-8.491,8.574,8.574,0,0,0-4.844,1.629l1.238.159a22.017,22.017,0,0,0-14.795-11.637,23.641,23.641,0,0,0-25.775,11.714c-2.1,4.024-1.935,8.573-.959,12.9,1.734,7.694,6.707,15.536,14.84,17.517a24.914,24.914,0,0,0,13.531-.923,25.632,25.632,0,0,0,11.286-7.588c.652-.768-.458-1.885-1.114-1.112Z" transform="translate(-3755.794 -313.251)"/></g><g transform="translate(3782.73 328.044)"><path d="M3790.506,356.32a25.308,25.308,0,0,0,11.437-10.53,18.963,18.963,0,0,0,1.157-15.159c-.325-.953-1.847-.544-1.52.418a17.408,17.408,0,0,1-1.125,14.183,23.991,23.991,0,0,1-10.744,9.731c-.912.442-.114,1.8.8,1.357Z" transform="translate(-3789.308 -330.09)"/></g><g transform="translate(3734.206 344.947)"><path d="M3749.857,352.549a6.635,6.635,0,0,0-6.386-3.391,10.027,10.027,0,0,0-6.957,3.429c-2.422,2.881-1.946,6.521-.81,9.832,1.4,4.082,5.726,10.517,10.756,7.132a13.287,13.287,0,0,0,4.048-5.024,13.976,13.976,0,0,0,1.889-5.415,9.96,9.96,0,0,0-1.523-5.8c-1.06-1.668-3.5-4.136-5.694-3.455a.476.476,0,0,0-.208.787,10.625,10.625,0,0,0,2.226,1.406,7.076,7.076,0,0,1,1.8,1.661,8.758,8.758,0,0,1,1.637,4.139,7.5,7.5,0,0,1-.6,3.9,14.2,14.2,0,0,1-2.772,4.65c-1.251,1.336-2.591,2.713-4.6,2.139-2.159-.617-3.49-2.9-4.431-4.772-1.2-2.377-2.4-5.667-1.432-8.313,1.768-4.848,9.006-5.971,12.553-2.516a.321.321,0,0,0,.5-.387Z" transform="translate(-3734.772 -349.139)"/></g><g transform="translate(3729.661 366.69)"><path d="M3731.031,382.071l.022-.005a.714.714,0,0,0,.514-.513,6.674,6.674,0,0,0,.039-1.855c-.034-.587-.058-1.171-.064-1.758,0-.026.016-.082.006-.1.033.082-.049.235-.071.31-.055.193-.037.074.012.014a3.978,3.978,0,0,1,.347-.422,3.251,3.251,0,0,1,.967-.711q.131-.069.264-.133l.136-.063c.152-.068-.11.043.045-.02.223-.089.449-.167.678-.237.46-.142.929-.253,1.4-.35.541-.112,1.085-.206,1.629-.3a5.358,5.358,0,0,0,1.841-.457,1,1,0,0,0,.449-1.1,1.018,1.018,0,0,0-.942-.715,3.042,3.042,0,0,0-.908.139c-.288.061-.577.119-.866.176-.524.1-1.049.2-1.57.314a11.644,11.644,0,0,0-3.05,1.031,5.608,5.608,0,0,0-1.256.909,3.288,3.288,0,0,0-.932,1.318,5.452,5.452,0,0,0,.059,1.768,8.23,8.23,0,0,0,.439,2.425.72.72,0,0,0,.636.364c-.4,0,.121,0,.175-.021Z" transform="translate(-3729.664 -373.643)"/></g><g transform="translate(3747.037 362.059)"><path d="M3749.886,368.68a27.527,27.527,0,0,0-.692,4.632.52.52,0,0,0,.378.5q1.876.546,3.744,1.124c.99.3,1.974.622,2.947.976.584.213,1.458.383,1.658.981a3.9,3.9,0,0,1,.052,1.544,3.805,3.805,0,0,0,.037,2.2.541.541,0,0,0,.842.108,3.313,3.313,0,0,0,.551-2.1,7.06,7.06,0,0,0-.023-1.7,2.459,2.459,0,0,0-1.772-1.99,45.576,45.576,0,0,0-6.1-1.752c-.555-.131-1.11-.261-1.668-.377l.377.494a23.1,23.1,0,0,1,.349-4.443c.079-.443-.579-.641-.686-.189Z" transform="translate(-3749.194 -368.423)"/></g><g transform="translate(3737.916 361.96)"><path d="M3738.953,368.737a10.569,10.569,0,0,1,.344,3.082c-.018.377-.055.754-.077,1.132-.005.093-.011.185-.019.279,0,.046-.009.092-.013.138-.01.116.017-.1,0,.013a1.34,1.34,0,0,0-.042.716.671.671,0,0,0,.968.393c.476-.268.465-.922.485-1.4a11.672,11.672,0,0,0-.013-1.271,7.485,7.485,0,0,0-1.01-3.343.342.342,0,0,0-.622.262Z" transform="translate(-3738.941 -368.312)"/></g><g transform="translate(3800.558 344.947)"><path d="M3824.429,352.549a6.634,6.634,0,0,0-6.385-3.391,10.027,10.027,0,0,0-6.958,3.429c-2.422,2.881-1.945,6.521-.809,9.832,1.4,4.082,5.726,10.517,10.755,7.132a13.284,13.284,0,0,0,4.048-5.024,13.966,13.966,0,0,0,1.89-5.415,9.969,9.969,0,0,0-1.523-5.8c-1.061-1.668-3.5-4.136-5.694-3.455a.476.476,0,0,0-.209.787,10.637,10.637,0,0,0,2.226,1.406,7.065,7.065,0,0,1,1.8,1.661,8.759,8.759,0,0,1,1.638,4.139,7.513,7.513,0,0,1-.6,3.9,14.192,14.192,0,0,1-2.772,4.65c-1.251,1.336-2.59,2.713-4.6,2.139-2.159-.617-3.49-2.9-4.432-4.772-1.2-2.377-2.4-5.667-1.431-8.313,1.769-4.848,9.006-5.971,12.553-2.516a.321.321,0,0,0,.5-.387Z" transform="translate(-3809.345 -349.139)"/></g><g transform="translate(3796.013 366.69)"><path d="M3805.6,382.071l.021-.005a.713.713,0,0,0,.514-.513,6.674,6.674,0,0,0,.039-1.855c-.034-.587-.058-1.171-.064-1.758a.418.418,0,0,0,.007-.1c.032.082-.05.235-.07.31-.056.193-.038.074.011.014a3.983,3.983,0,0,1,.347-.422,3.252,3.252,0,0,1,.967-.711c.087-.046.176-.091.265-.133l.136-.063c.152-.068-.111.043.044-.02.222-.089.449-.167.679-.237.46-.142.929-.253,1.4-.35.541-.112,1.085-.206,1.63-.3a5.347,5.347,0,0,0,1.84-.457,1,1,0,0,0,.449-1.1,1.019,1.019,0,0,0-.941-.715,3.045,3.045,0,0,0-.909.139c-.287.061-.576.119-.865.176-.524.1-1.049.2-1.571.314a11.649,11.649,0,0,0-3.049,1.031,5.632,5.632,0,0,0-1.256.909,3.3,3.3,0,0,0-.932,1.318,5.466,5.466,0,0,0,.059,1.768,8.2,8.2,0,0,0,.44,2.425.719.719,0,0,0,.635.364c-.4,0,.121,0,.175-.021Z" transform="translate(-3804.236 -373.643)"/></g><g transform="translate(3813.39 362.059)"><path d="M3824.458,368.68a27.427,27.427,0,0,0-.691,4.632.52.52,0,0,0,.377.5q1.876.546,3.744,1.124c.99.3,1.976.622,2.948.976.584.213,1.458.383,1.657.981a3.9,3.9,0,0,1,.054,1.544,3.8,3.8,0,0,0,.035,2.2.542.542,0,0,0,.843.108,3.322,3.322,0,0,0,.551-2.1,7.123,7.123,0,0,0-.024-1.7,2.459,2.459,0,0,0-1.771-1.99,45.59,45.59,0,0,0-6.1-1.752c-.554-.131-1.11-.261-1.667-.377l.378.494a23.078,23.078,0,0,1,.35-4.443c.079-.443-.58-.641-.687-.189Z" transform="translate(-3823.766 -368.423)"/></g><g transform="translate(3761.289 336.266)"><g transform="translate(0 5.472)"><path d="M3766.527,354.688c.378-.473.237-1.131.212-1.7-.03-.715-.1-1.432-.1-2.148,0-.12.042-.338-.011-.078-.013.062-.151.245-.01.059.03-.041.056-.086.085-.128a3.015,3.015,0,0,1,.2-.262,5.944,5.944,0,0,1,1.083-.984,11.925,11.925,0,0,1,2.9-1.434c.6-.213,1.212-.4,1.826-.565a10.171,10.171,0,0,0,1.881-.532.754.754,0,0,0-.379-1.4,7.153,7.153,0,0,0-1.8.407c-.574.161-1.144.337-1.707.536a14.244,14.244,0,0,0-3.285,1.575,7.468,7.468,0,0,0-1.339,1.13,3.323,3.323,0,0,0-.834,1.233,2.867,2.867,0,0,0-.006.85c.027.4.063.793.1,1.19.043.453.107.905.166,1.357a1.343,1.343,0,0,0,.349.888.481.481,0,0,0,.671,0Z" transform="translate(-3765.21 -345.522)"/></g><g transform="translate(17.572)"><path d="M3785.319,339.612a14.931,14.931,0,0,0-.2,2.975c-.017,1.1-.108,2.188-.163,3.288a.551.551,0,0,0,.4.526c1.3.362,2.6.75,3.9,1.146.995.3,1.984.626,2.965.973.619.219,1.535.4,1.739,1.036.4,1.254-.448,2.624.084,3.823a.54.54,0,0,0,.843.108,3.639,3.639,0,0,0,.554-2.108,7.413,7.413,0,0,0-.019-1.773,2.506,2.506,0,0,0-1.8-2.036,47.283,47.283,0,0,0-6.232-1.82q-.868-.209-1.74-.4l.4.527c0-1.056.008-2.1-.051-3.151a13.356,13.356,0,0,1,0-2.925c.075-.442-.586-.642-.687-.188Z" transform="translate(-3784.959 -339.355)"/></g></g><g transform="translate(3804.268 361.96)"><path d="M3813.526,368.737a10.6,10.6,0,0,1,.343,3.082c-.018.377-.055.754-.076,1.132-.005.093-.011.185-.019.279,0,.046-.009.092-.013.138-.011.116.018-.1,0,.013a1.33,1.33,0,0,0-.041.716.671.671,0,0,0,.968.393c.476-.268.465-.922.484-1.4a11.142,11.142,0,0,0-.013-1.271,7.484,7.484,0,0,0-1.009-3.343.342.342,0,0,0-.622.262Z" transform="translate(-3813.515 -368.312)"/></g><g transform="translate(3766.154 319.312)"><path d="M3785.762,323.658a6.634,6.634,0,0,0-6.385-3.391,10.03,10.03,0,0,0-6.958,3.428c-2.422,2.882-1.945,6.522-.809,9.832,1.4,4.082,5.726,10.517,10.756,7.132a13.282,13.282,0,0,0,4.047-5.025,13.939,13.939,0,0,0,1.889-5.414,9.958,9.958,0,0,0-1.523-5.8c-1.06-1.669-3.5-4.137-5.693-3.455a.476.476,0,0,0-.208.787,10.636,10.636,0,0,0,2.226,1.406,7.049,7.049,0,0,1,1.8,1.661,8.765,8.765,0,0,1,1.638,4.138,7.5,7.5,0,0,1-.6,3.9,14.2,14.2,0,0,1-2.771,4.65c-1.251,1.336-2.591,2.713-4.6,2.138-2.158-.616-3.489-2.9-4.431-4.771-1.2-2.377-2.4-5.667-1.432-8.313,1.769-4.848,9.006-5.971,12.553-2.516a.321.321,0,0,0,.5-.387Z" transform="translate(-3770.678 -320.249)"/></g><g transform="translate(3796.07 367.053)"><path d="M3804.562,385c-.014-.19-.338-6.741-.245-6.909,1.417-2.532,5.779-2.925,8.658-3.642a5.018,5.018,0,0,0,4.539,2.393c4.647,0,4.468-2.792,4.468-2.792a80.018,80.018,0,0,1,9.156,2.708c1.281.583.236,5.565-.082,8.171a27.779,27.779,0,0,1-14.022,4C3809.028,388.937,3804.562,385,3804.562,385Z" transform="translate(-3804.3 -374.052)"/></g><g transform="translate(3729.639 367.053)"><path d="M3729.9,385c-.014-.19-.338-6.741-.244-6.909,1.416-2.532,5.778-2.925,8.657-3.642a5.019,5.019,0,0,0,4.539,2.393c4.646,0,4.468-2.792,4.468-2.792a79.989,79.989,0,0,1,9.156,2.708c1.28.583.237,5.565-.082,8.171a27.777,27.777,0,0,1-14.021,4C3734.366,388.937,3729.9,385,3729.9,385Z" transform="translate(-3729.639 -374.052)"/></g><g transform="translate(3769.864 336.325)"><path d="M3774.859,339.846a10.6,10.6,0,0,1,.343,3.083c-.018.377-.055.754-.076,1.132-.005.092-.011.185-.02.279,0,.046-.009.092-.013.138-.011.116.018-.1,0,.013a1.34,1.34,0,0,0-.042.716.671.671,0,0,0,.969.392c.476-.267.465-.922.484-1.4a11.489,11.489,0,0,0-.013-1.271,7.485,7.485,0,0,0-1.01-3.343.341.341,0,0,0-.621.261Z" transform="translate(-3774.847 -339.422)"/></g><g transform="translate(3803.446 333.612)"><path d="M3812.636,337a25.223,25.223,0,0,0,2.343,3.627c.467.618.946,1.23,1.44,1.827a15.551,15.551,0,0,0,1.384,1.6,1.156,1.156,0,0,0,1.717-.077c.6-.668,1.109-1.461,1.65-2.182l3.163-4.215a.814.814,0,0,0-.291-1.108.833.833,0,0,0-1.113.29l-2.715,3.627-1.327,1.772c-.126.169-.253.336-.378.507-.149.2-.488.412.03.258.394-.117.265-.1.077-.3-.113-.121-.23-.237-.345-.355-1.782-1.822-3.311-3.86-5-5.759-.315-.354-.831.1-.631.485Z" transform="translate(-3812.591 -336.365)"/></g></g></svg>