<svg xmlns="http://www.w3.org/2000/svg" width="107" height="140" viewBox="0 0 107 140"><g transform="translate(-4619.271 336.573)"><path d="M4709.839-204.314a.5.5,0,0,1-.315.156c-.533.045-.667.456-.767.976-.069.349-.175.688-.537.729-.223.025-.238.215-.256.44-.031.39-.119.89-.376,1.018a4.613,4.613,0,0,1-1,.5c-.355.076-.383.355-.184.573.346.379.1.423-.137.559a1.456,1.456,0,0,1-.39.142.282.282,0,0,0-.244.219c-.039.173.063.261.144.375.12.172.376.1.478.419l-.566-.17a.45.45,0,0,0-.57.225c-.128.236.059.363.18.5a.506.506,0,0,1,.045.52.238.238,0,0,1-.317.145,1.974,1.974,0,0,0-.813.022c-.418.07-.5.241-.408.737.233,1.213.294,1.1-.665.975-.272-.034-.4.041-.447.432s.052.9-.287,1.185c-.32.273-.684.479-.736,1.035,0,.049-.088.1-.143.128a.65.65,0,0,0-.368.592c-.017.424-.205.511-.485.53-.1.007-.217.03-.233.207a1.705,1.705,0,0,1-.971,1.349c-.384.226-.446.416-.289.865-.377-.064-.521.179-.583.544-.038.219-.1.433-.129.653-.037.331-.178.536-.445.519-.421-.026-.846-.108-.745.7-.432.367-.3.9-.241,1.375.052.392-.068.44-.308.374-.5-.138-.776.5-1.227.558-.1.013-.169.254-.081.383.174.254.122.649.391.853a.282.282,0,0,1,.083.1,19.12,19.12,0,0,0,4.387-3.264.732.732,0,0,1,.1-.074c2.256-4.07,4.541-8.12,6.964-12.074q1.727-2.819,3.494-5.609C4710.5-204.028,4710.168-204.169,4709.839-204.314Z" transform="translate(-15.805 -27.115)"/><g transform="translate(4635.432 -264.553)"><path d="M4639.7-245.922a.029.029,0,0,0,0-.058.029.029,0,0,0,0,.058Z" transform="translate(-4639.667 245.98)"/></g><path d="M4719.893-326.289a10.026,10.026,0,0,0-4.208-7.24,16.762,16.762,0,0,0-7.695-2.76,31.888,31.888,0,0,0-12.556.821c-1.473.4-3.183,1.2-3.44,2.822a4.283,4.283,0,0,0,1.058,3.038,29.935,29.935,0,0,0,6.37,6.567l1.523.9a8.966,8.966,0,0,0,7.113,1.705,75.357,75.357,0,0,0,7.7-1.831,1.38,1.38,0,0,1,1.208.107,1.347,1.347,0,0,1,.329,1.043,12.633,12.633,0,0,1-.6,3.922l-2.611,6.25,1.958-.2s.778-3.919,2.576-5.188a3.865,3.865,0,0,1,3.233-.8,21.641,21.641,0,0,0,2.179-4.683,8.835,8.835,0,0,0,.541-3.7,4.091,4.091,0,0,0-1.857-3.12,2.678,2.678,0,0,0-3.393.552" transform="translate(-15.095 0)"/><g transform="translate(4700.839 -317.76)"><path d="M4724.542-312.51a24.993,24.993,0,0,1-1.615,6.2c-.186.456-.848.129-.685-.324.816-2.264,1.591-5.632,4.348-6.212a2.046,2.046,0,0,1,1.73.3,2.48,2.48,0,0,1,.8,1.535,4.2,4.2,0,0,1-.851,3.1,3.678,3.678,0,0,1-3.2,1.665.46.46,0,0,1-.081-.878,5.043,5.043,0,0,0,2.122-1.174,3.44,3.44,0,0,0,.99-2.2,1.96,1.96,0,0,0-.259-1.187,1.086,1.086,0,0,0-1.263-.325,3.724,3.724,0,0,0-2.124,1.908,30.269,30.269,0,0,0-1.533,3.789l-.685-.324a28.239,28.239,0,0,0,1.843-5.958.232.232,0,0,1,.457.08Z" transform="translate(-4722.217 312.909)"/></g><g transform="translate(4683.757 -316.651)"><path d="M4700.844-310.828l.113-.12a2.972,2.972,0,0,1,.252-.245l.117-.1a.633.633,0,0,1,.229-.139.718.718,0,0,1,.215-.049.293.293,0,0,0,.036,0l-.188.044a.722.722,0,0,1,.438-.058.7.7,0,0,1,.335.157.707.707,0,0,1,.206.294,1.652,1.652,0,0,1,.044.188l-.007.193a1.507,1.507,0,0,1-.061.191l-.021.055.06-.192v.011l.008-.2a.9.9,0,0,1-.074.45l-.111.173-.016.021-.021.027-.1.123a3.127,3.127,0,0,1-.219.227.619.619,0,0,1-.243.188.6.6,0,0,1-.295.1.606.606,0,0,1-.319-.041.6.6,0,0,1-.279-.145l-.139-.153a.8.8,0,0,1-.143-.387l.008-.217a.811.811,0,0,1,.177-.383Z" transform="translate(-4700.658 311.513)"/></g><g transform="translate(4692.943 -315.454)"><path d="M4713.87-309.18a1.014,1.014,0,0,1-.068.219l-.009.018-.005.009c-.034.053-.069.112-.1.164l-.013.016-.138.126a.616.616,0,0,1-.168.088l-.008,0a1.256,1.256,0,0,1-.22.048h-.018c-.063,0-.133,0-.2-.007h-.01a.178.178,0,0,1-.041-.008c-.056-.016-.126-.038-.183-.057l-.008,0-.018-.009a1.047,1.047,0,0,1-.178-.114l-.114-.126a.486.486,0,0,1-.1-.235.335.335,0,0,1-.016-.174.5.5,0,0,1,.058-.26l.094-.146.125-.114a.494.494,0,0,1,.234-.1.493.493,0,0,1,.261-.013h0l-.178-.006a.2.2,0,0,0,.049-.006l-.172.04a.19.19,0,0,0,.048-.017l-.159.083a.182.182,0,0,0,.047-.033l-.134.124a.156.156,0,0,0,.019-.021l.005-.006.137-.126.165-.087.015-.007-.164.087a.244.244,0,0,0,.039-.027l-.134.123a.2.2,0,0,0,.021-.023l.133-.122a.524.524,0,0,1,.249-.1.351.351,0,0,1,.183-.017.54.54,0,0,1,.275.061l.154.1.121.134a.529.529,0,0,1,.1.25.535.535,0,0,1,.013.279Z" transform="translate(-4712.251 310.008)"/></g><g transform="translate(4684.215 -316.394)"><path d="M4705.361-311.065l.033.037a.378.378,0,0,1,.033.385c-.25.57-.611,1.092-.911,1.637-.292.529-.565,1.067-.815,1.617a19.061,19.061,0,0,0-1.277,3.43,2.2,2.2,0,0,0-.04.3.33.33,0,0,0-.188-.229l.037.017c0-.007-.087-.006.039,0,.09,0,.091.008.12.008a6.671,6.671,0,0,0,.988-.107c.609-.09,1.225-.187,1.813-.222a.345.345,0,0,1,.229.621,5.344,5.344,0,0,1-2.1.783c-.658.124-1.789.254-2.035-.577a3.5,3.5,0,0,1,.383-1.948c.236-.685.5-1.36.807-2.019a20.034,20.034,0,0,1,1.022-1.921,8.608,8.608,0,0,1,1.291-1.805.4.4,0,0,1,.457-.1.312.312,0,0,1,.117.09Z" transform="translate(-4701.236 311.19)"/></g><g transform="translate(4687.929 -306.799)"><path d="M4707.919-296.1a1.633,1.633,0,0,0-1.3.282l-.162-.721a5.983,5.983,0,0,1,1.123.342,5.493,5.493,0,0,0,1.021.228,2.379,2.379,0,0,0,1.5-.266,1.5,1.5,0,0,0,.505-.473c.014-.023.053-.1.071-.147.006-.015.052-.157.032-.083a1.659,1.659,0,0,0,.034-.168s.017-.171.013-.089a1.739,1.739,0,0,0-.024-.329s-.034-.115-.047-.15c0-.013-.062-.149-.03-.083a1.071,1.071,0,0,0-.087-.138s-.1-.117-.052-.066a.537.537,0,0,0-.252-.165l.623-.136a7.072,7.072,0,0,1-2,1.877,7.494,7.494,0,0,1-1.231.618,2.149,2.149,0,0,1-1.486.2.414.414,0,0,1-.138-.638,1.434,1.434,0,0,1,.605-.324c.2-.068.392-.132.586-.2a6.024,6.024,0,0,0,1.087-.533,6.334,6.334,0,0,0,1.783-1.671.528.528,0,0,1,.623-.136,1.9,1.9,0,0,1,1.076,1.667,2.216,2.216,0,0,1-.885,1.869,3.2,3.2,0,0,1-2.1.6,5.05,5.05,0,0,1-1.386-.287,4.037,4.037,0,0,1-1.279-.614.4.4,0,0,1,.219-.7,4.177,4.177,0,0,1,1.64.227c.122.04.055.242-.068.215Z" transform="translate(-4705.922 299.121)"/></g><g transform="translate(4681.573 -321.96)"><path d="M4700.278-317.92a23.064,23.064,0,0,0-1.387,12.075,21.929,21.929,0,0,0,1.733,5.854,13.433,13.433,0,0,0,2.433,3.836,6.878,6.878,0,0,0,2.133,1.516,5.842,5.842,0,0,0,1.428.421,17.773,17.773,0,0,1,1.814.181.346.346,0,0,1,.061.658,4.347,4.347,0,0,1-2.9-.134,7.11,7.11,0,0,1-2.29-1.232,11.1,11.1,0,0,1-2.744-3.517,22.7,22.7,0,0,1-2.57-12.671,21.545,21.545,0,0,1,1.943-7.15.191.191,0,0,1,.346.164Z" transform="translate(-4697.901 318.192)"/></g><g transform="translate(4690.411 -306.003)"><path d="M4709.395-289.989a8.277,8.277,0,0,0,5.809-2.112,16.543,16.543,0,0,0,3.915-5.753.474.474,0,0,1,.856.406,16.011,16.011,0,0,1-4.325,6.241,7.716,7.716,0,0,1-6.356,1.8.3.3,0,0,1,.1-.585Z" transform="translate(-4709.056 298.119)"/></g><g transform="translate(4702.174 -311.573)"><path d="M4725.075-304.949c-.031,1.557-.146,3.11-.139,4.667.009,1.586.107,3.166.229,4.746.236,3.058.705,6.34.191,9.391l-.829-.528a.991.991,0,0,0,.306-.3.333.333,0,0,1,.468-.04c.413.4.225.879-.164,1.212a.533.533,0,0,1-.834-.385c.042-1.588.144-3.155.082-4.745-.064-1.635-.194-3.267-.3-4.9-.193-3.007-.491-6.315.605-9.184.068-.179.385-.132.381.066Z" transform="translate(-4723.901 305.126)"/></g><g transform="translate(4674.945 -297.365)"><path d="M4700.507-287.242c-.891.222-1.753.607-2.624.9q-1.365.458-2.761.814c-.9.23-1.805.428-2.715.6a6.7,6.7,0,0,0-2.621.742.555.555,0,0,0,.468.991c.437-.088.852-.257,1.286-.358s.885-.18,1.326-.273c.938-.2,1.865-.441,2.784-.717q1.332-.4,2.631-.894a13.3,13.3,0,0,0,2.537-1.152.367.367,0,0,0-.31-.655Z" transform="translate(-4689.536 287.254)"/></g><g transform="translate(4704.595 -294.792)"><path d="M4727.165-283.221c2.07,1.265,4.339,2.286,6.5,3.4l6.729,3.488c1.788.926,3.826,1.718,5.007,3.448a8.283,8.283,0,0,1,1.057,2.484,11.12,11.12,0,0,1,.314,1.519,2.441,2.441,0,0,0,.331,1.313.475.475,0,0,0,.74.063c.574-.767.127-2.105-.1-2.949a10.8,10.8,0,0,0-1.1-2.716c-1.076-1.813-2.882-2.75-4.685-3.682l-7.241-3.743c-1.182-.611-2.359-1.234-3.549-1.831a18.481,18.481,0,0,0-3.711-1.58.423.423,0,0,0-.289.782Z" transform="translate(-4726.957 284.018)"/></g><g transform="translate(4715.658 -277.302)"><path d="M4750.384-261.76c.971,11.434.275,23.351-4.668,33.873a43.682,43.682,0,0,1-4.675,7.8c-.43.567.386,1.324.818.753,6.921-9.142,9.586-20.672,9.671-31.992a85.7,85.7,0,0,0-.638-10.453c-.037-.324-.537-.308-.508.022Z" transform="translate(-4740.919 262.017)"/></g><g transform="translate(4696.836 -234.817)"><path d="M4735.643-207.957c.207-.032.467-.029.53.209l.374-.539c-3.149.019-6.3.068-9.445.065q-2.325,0-4.649-.033-1.162-.014-2.325-.038c-.388-.007-.775-.027-1.163-.051-.278-.017-.824.052-1.058-.129a.429.429,0,0,0-.7.218c-.415,1.442,2.307,1.01,2.966,1.017q2.758.032,5.519.023c3.63-.012,7.263-.062,10.889-.248a.416.416,0,0,0,.328-.635c-.325-.512-.829-.34-1.331-.215-.2.048-.14.388.064.356Z" transform="translate(-4717.165 208.576)"/></g><g transform="translate(4657.701 -288.021)"><path d="M4710.462-275.18c1.394,7.362.133,14.795-1.551,22a120.8,120.8,0,0,1-6.286,19.209,198.457,198.457,0,0,1-8.765,17.983c-1.559,2.868-3.1,5.771-4.843,8.533a71.193,71.193,0,0,1-5.6,7.591,107.663,107.663,0,0,1-15.487,14.912.375.375,0,0,0,.4.63,55.6,55.6,0,0,0,7.434-5.615,72.276,72.276,0,0,0,7.09-7.094,78.148,78.148,0,0,0,6.061-7.692c1.86-2.7,3.432-5.587,5.016-8.459,6.595-11.957,12.338-24.43,15.646-37.735a86.8,86.8,0,0,0,2.247-12.108,29.309,29.309,0,0,0-.9-12.3c-.1-.309-.525-.151-.468.152Z" transform="translate(-4667.772 275.5)"/></g><g transform="translate(4619.271 -295.002)"><path d="M4699.572-277.211a78.294,78.294,0,0,0-15.536-4.832,96.787,96.787,0,0,0-16.081-2.112,92.806,92.806,0,0,0-16.572.595c-5.639.739-10.921,2.565-16.248,4.489-5.461,1.974-10.914,4.218-15.522,7.834-.85.667.052,2.1.918,1.429a50.67,50.67,0,0,1,13.452-7.025c5.133-1.934,10.354-3.94,15.787-4.818a98.534,98.534,0,0,1,32.159.429,134.344,134.344,0,0,1,17.437,4.572c.323.1.516-.421.207-.56Z" transform="translate(-4619.271 284.282)"/></g><g transform="translate(4620.158 -281.97)"><path d="M4620.395-267.4c.5,3.746,1.133,7.459,1.514,11.224.368,3.641.708,7.288,1.271,10.9a104.053,104.053,0,0,0,4.172,17,105.859,105.859,0,0,0,17.029,32.048,89.939,89.939,0,0,0,6.426,7.319,49.9,49.9,0,0,0,7.213,6.362c.34.231.695-.312.405-.578-2.072-1.906-4.216-3.706-6.188-5.724a84.239,84.239,0,0,1-5.754-6.6,103.567,103.567,0,0,1-9.682-14.99,112.693,112.693,0,0,1-11.842-33.3c-.705-3.86-1.093-7.762-1.548-11.656-.472-4.046-.815-8.291-2.084-12.179-.163-.5-1.007-.383-.933.169Z" transform="translate(-4620.39 267.889)"/></g><g transform="translate(4695.311 -288.158)"><path d="M4720.728-275.26c1.837,2.512,4.034,4.785,6.053,7.15a5.614,5.614,0,0,1,1.139,1.782,7.487,7.487,0,0,1,.29,2.159,14.4,14.4,0,0,1-.038,1.7,68.3,68.3,0,0,1-1.634,9.667,203.387,203.387,0,0,1-7.19,23.675,97.254,97.254,0,0,1-4.072,9.805.3.3,0,0,0,.531.281,58.087,58.087,0,0,0,4.034-8.537c1.563-3.86,2.931-7.79,4.184-11.762,1.285-4.074,2.473-8.188,3.432-12.351a61.322,61.322,0,0,0,1.673-10.151c.11-1.908.213-4.191-.88-5.83a35.588,35.588,0,0,0-3.263-3.763c-1.259-1.406-2.482-2.868-3.851-4.17-.218-.206-.59.094-.407.345Z" transform="translate(-4715.24 275.673)"/></g><g transform="translate(4698.554 -239.905)"><path d="M4719.443-214.942l-.11,1.014c0,.029.04.04.044.01l.154-1c.009-.059-.083-.078-.089-.021Z" transform="translate(-4719.333 214.976)"/></g><g transform="translate(4680.037 -245.986)"><path d="M4716.944-222.475c-1.751,3.95-3.071,8.059-5.022,11.925a104.084,104.084,0,0,1-6.8,11.529,105.238,105.238,0,0,1-9.156,11.609l.8.712a15.942,15.942,0,0,1,2.086-2.1,101.9,101.9,0,0,0,13.28-19.779,54.229,54.229,0,0,0,2.755-6.087c.92-2.522,1.7-5.089,2.6-7.614C4717.6-222.584,4717.077-222.774,4716.944-222.475Z" transform="translate(-4695.963 222.625)"/></g><g transform="translate(4687.923 -233.474)"><path d="M4724.881-206.568c.021,2.3-.126,4.644-.206,6.949s-.205,4.624-.4,6.932l.6-.657c-3.117,0-6.234.012-9.35.068q-2.359.043-4.719.121-1.142.039-2.283.089a7.36,7.36,0,0,0-2.224.227.591.591,0,0,0,.049,1.127,7.35,7.35,0,0,0,2.109,0q1.14-.056,2.279-.1,2.422-.093,4.847-.145,4.672-.106,9.346-.135a.644.644,0,0,0,.6-.657c.174-2.3.284-4.616.3-6.927.018-2.332-.175-4.608-.327-6.926a.314.314,0,0,0-.627.028Z" transform="translate(-4705.915 206.887)"/></g><g transform="translate(4706.755 -220.306)"><path d="M4730.868-183.167c.409.016.818.025,1.226.033-.021-.1-.042-.2-.062-.293-.456-2.183-.777-4.427-1.4-6.57a.489.489,0,0,0-.95.173,57.433,57.433,0,0,0,1.012,5.8C4730.753-183.737,4730.813-183.453,4730.868-183.167Z" transform="translate(-4729.683 190.323)"/></g><path d="M4724.846-184.86c-.375-2.65-.946-3.86-2.111-3.809s-12.45-.167-15.1-.05-2.731-.205-5.171,3.283a31.088,31.088,0,0,1-2.724,3.1l.872.07c.109-.078.21-.165.322-.239a8.716,8.716,0,0,1,4.59-1.093,112.372,112.372,0,0,1,11.571.238c2.708.208,5.417.452,8.13.53C4725.017-183.887,4724.884-184.6,4724.846-184.86Z" transform="translate(-16.71 -30.305)"/><g transform="translate(4704.298 -254.434)"><path d="M4735.277-233.026a13.952,13.952,0,0,0-4.061-.15,31.1,31.1,0,0,0-4.114.595l.646,1.366a2.383,2.383,0,0,0,.774-.891.552.552,0,0,0-.5-.8,2.316,2.316,0,0,0-1.1.407.762.762,0,0,0-.269.964.773.773,0,0,0,.915.4c1.279-.276,2.564-.483,3.859-.666s2.6-.264,3.877-.569a.345.345,0,0,0-.029-.66Z" transform="translate(-4726.582 233.252)"/></g><g transform="translate(4704.165 -256.194)"><path d="M4732.155-235.466a9.419,9.419,0,0,0-2.924.644c-.463.165-.912.359-1.357.566q-.376.174-.748.358a1.068,1.068,0,0,0-.688.7.689.689,0,0,0,.5.807c.372.119.672-.095.983-.264q.3-.165.609-.32c.421-.215.849-.418,1.275-.624a26.713,26.713,0,0,0,2.533-1.28.323.323,0,0,0-.187-.588Z" transform="translate(-4726.415 235.466)"/></g><g transform="translate(4702.394 -297.278)"><path d="M4725.172-286.987a2.554,2.554,0,0,0-.205.719c-.062.259-.126.519-.2.777-.142.524-.274,1.048-.369,1.584a13.639,13.639,0,0,0-.185,1.667,5.306,5.306,0,0,0,.054,1.669.559.559,0,0,0,1.07-.048,12.625,12.625,0,0,0,.039-1.673c.027-.533.077-1.067.155-1.595s.2-1.064.285-1.6a2.2,2.2,0,0,0-.129-1.525.3.3,0,0,0-.519.023Z" transform="translate(-4724.178 287.144)"/></g><g transform="translate(4695.622 -295.11)"><path d="M4715.8-278.163a6.446,6.446,0,0,0,3.311.173,7.5,7.5,0,0,0,3.067-.913,6.334,6.334,0,0,0,1.9-1.871,7.152,7.152,0,0,0,.655-1.182c.185-.424.264-.917.465-1.326a.8.8,0,0,0-1.286-.908,2.1,2.1,0,0,0-.415.579.567.567,0,0,0,.52.823,2.122,2.122,0,0,0,.723-.108l-1.036-.722a3.093,3.093,0,0,1-.276,1.039,6.556,6.556,0,0,1-.472,1,4.861,4.861,0,0,1-1.521,1.642,6.469,6.469,0,0,1-2.62.846,20.032,20.032,0,0,0-2.964.338.328.328,0,0,0-.051.6Z" transform="translate(-4715.633 284.418)"/></g><g transform="translate(4636.279 -277.613)"><g transform="translate(0 9.837)"><path d="M4646.292-235.2a8.78,8.78,0,0,1-3.937-4.109,6.767,6.767,0,0,1,.428-5.8,7.553,7.553,0,0,1,4.806-3.418,10.354,10.354,0,0,1,3.26-.242c1.234.089,2.412.479,3.633.622a.45.45,0,0,0,.307-.832,10.347,10.347,0,0,0-6.165-.963,9.716,9.716,0,0,0-5.074,2.112,7.932,7.932,0,0,0-1.888,9.77,6.41,6.41,0,0,0,4.434,3.387.284.284,0,0,0,.2-.526Z" transform="translate(-4640.736 250.034)"/></g><g transform="translate(12.82 0)"><path d="M4657.91-251.705a18.1,18.1,0,0,1,.516-3.333,8.792,8.792,0,0,1,1.546-2.924,8.692,8.692,0,0,1,6.083-3.171,7.2,7.2,0,0,1,3.538.532,9.083,9.083,0,0,1,2.7,2.257,6.136,6.136,0,0,1,1.615,3.334c.177,1.187.089,2.385.324,3.56.079.394.625.285.719-.031a8.476,8.476,0,0,0-.689-6.3,11.564,11.564,0,0,0-2.056-2.422,7.375,7.375,0,0,0-2.643-1.728A9.771,9.771,0,0,0,4658.6-258.1a8.483,8.483,0,0,0-1.511,6.432.431.431,0,0,0,.825-.037Z" transform="translate(-4656.917 262.408)"/></g><g transform="translate(30.662 8.805)"><path d="M4679.889-249.717c3.161-1,6.988-.34,8.971,2.544a11.838,11.838,0,0,1,1.664,6.067,5.432,5.432,0,0,1-.349,3.081,6.582,6.582,0,0,1-2.15,2.027,23.882,23.882,0,0,1-6.589,2.63c-.3.091-.313.614.029.651a11.054,11.054,0,0,0,6.845-1.919,9.616,9.616,0,0,0,2.614-2.189,4.958,4.958,0,0,0,.949-3.228,15.349,15.349,0,0,0-1.475-7.007,8.156,8.156,0,0,0-4.485-3.779,7.272,7.272,0,0,0-6.321.492.353.353,0,0,0,.3.63Z" transform="translate(-4679.435 251.332)"/></g><g transform="translate(4.067 24.117)"><path d="M4645.986-231.484c1.891,1.379,4.231,1.6,6.472,1.883l-.462-.739a26.481,26.481,0,0,0-.052,3.952q.032,2.111.087,4.22c.074,2.76.117,5.537.346,8.289a.652.652,0,0,0,1.3-.057c-.039-2.715-.2-5.431-.273-8.146q-.053-2.037-.084-4.074a31.611,31.611,0,0,0-.111-4.072.63.63,0,0,0-.64-.589c-2.173.108-4.212-.75-6.28-1.244-.307-.073-.585.374-.3.579Z" transform="translate(-4645.869 232.071)"/></g><g transform="translate(10.733 41.879)"><path d="M4654.37-209.043c.854,1.058,2.481,1.066,3.733,1.219a43.643,43.643,0,0,0,4.926.334,46.6,46.6,0,0,0,4.9-.222q1.254-.123,2.5-.314a4.138,4.138,0,0,0,2.19-.657c.369-.316.063-.843-.3-.965a4.592,4.592,0,0,0-2.094.177q-1.107.175-2.221.3-2.229.243-4.472.273c-1.491.018-2.987-.021-4.474-.129a13.232,13.232,0,0,1-4.144-.606c-.338-.146-.827.238-.541.593Z" transform="translate(-4654.283 209.729)"/></g><g transform="translate(13.953 26.701)"><path d="M4677.223-228.645a4.433,4.433,0,0,0-.1,1.954c.044.875.059,1.753.064,2.629.012,1.664-.042,3.327-.064,4.99-.011.806-.023,1.612-.03,2.418,0,.383-.005.767,0,1.151a3.815,3.815,0,0,1-.022,1.083,2.7,2.7,0,0,1-.144.265c.057-.122.117-.113.012-.052.063-.036-.038.02-.144.058a7.914,7.914,0,0,1-.894.256,36.948,36.948,0,0,1-5.483.681c-2.214.169-4.436.246-6.655.312a36.475,36.475,0,0,1-4.9.051.434.434,0,0,0-.194.846,14.387,14.387,0,0,0,4.564.518c2.337.043,4.675-.053,7.008-.219a39.3,39.3,0,0,0,6.018-.762,3.678,3.678,0,0,0,1.729-.7,2.136,2.136,0,0,0,.568-1.305c.068-.89-.023-1.828-.021-2.723.006-1.98.02-3.959-.041-5.939-.029-.972-.073-1.945-.153-2.914a5.285,5.285,0,0,0-.533-2.627.34.34,0,0,0-.582.026Z" transform="translate(-4658.346 228.821)"/></g><path d="M4682.594-249.556c-.236-.149-.482-.281-.732-.407a.59.59,0,0,0-.233-.42,10.833,10.833,0,0,0-6.05-1.973,12.251,12.251,0,0,0-1.566,0c-.27-.44-1.844.572-2.034.154-.412-.9.482-3.222-.216-3.887a.722.722,0,0,0,.02-.653,7.727,7.727,0,0,0-10.73-3.44c-3.487,1.948-5.473,5.782-5.928,9.677-.053-.009-.109-.018-.159-.025-2.31-.32-4.875-.673-7.116.2a8.2,8.2,0,0,0-4.661,5.272,5.861,5.861,0,0,0,.156,3.6,9.235,9.235,0,0,0,1.488,2.852,4.9,4.9,0,0,0,2,1.3c1.055.414,2.1.891,3.17,1.252a7.154,7.154,0,0,0,2.519.365c.215,5.163-.213,10.33,0,15.494a.969.969,0,0,0,1.641.624c2.667.023,5.311.412,7.97.589a42.634,42.634,0,0,0,8.183-.143c1.422-.184,3.719-.245,4.39-1.8a6.49,6.49,0,0,0,.186-2.815l-.179-4.081c-.043-1-.123-1.973-.261-2.968a8.6,8.6,0,0,1-.149-2.528c.048-.288.033-.225.249-.352a3.835,3.835,0,0,1,1-.363,21.573,21.573,0,0,1,2.518-.427,24.8,24.8,0,0,0,2.783-.474,10.38,10.38,0,0,0,2.29-1,5.792,5.792,0,0,0,3.321-4.107C4687.065-243.611,4685.721-247.594,4682.594-249.556Zm-26.8,18.437q1.691-.154,3.389-.282c.555-.041,1.11-.074,1.663-.117a4.885,4.885,0,0,1,1.8-.045.764.764,0,0,1,.555.592.732.732,0,0,1-.32.754,4.34,4.34,0,0,1-1.83.246c-.577.017-1.155.036-1.733.037-1.157,0-2.323-.052-3.475-.145A.521.521,0,0,1,4655.79-231.12Zm13.979,5.463a1.81,1.81,0,0,1-1.468.646c-1.357.1-2.727.118-4.086.128-1.4.01-2.807-.014-4.208-.087-.656-.034-1.31-.085-1.96-.163a5.443,5.443,0,0,1-1.928-.413.5.5,0,0,1,.1-.948,5.072,5.072,0,0,1,1.623-.134c.493-.006.986-.008,1.479,0,1.071.017,2.143.05,3.214.056s2.147-.009,3.22-.044q.743-.024,1.484-.061c.289-.014.577-.034.866-.047.087-.007.175-.01.264-.009.1-.1.112-.08.05.023a1.8,1.8,0,0,1,.919.141C4669.9-226.353,4670.084-226.124,4669.769-225.657Z" transform="translate(-4641.202 262.149)"/></g><g transform="translate(4656.465 -234.065)"><path d="M4666.355-207.4q-.439,14.532.461,29.052c.082,1.332.167,2.662.267,3.992a25.908,25.908,0,0,0,.39,3.806c.1.417.692.258.7-.127a29.324,29.324,0,0,0-.277-3.348q-.16-1.734-.295-3.471c-.189-2.442-.322-4.889-.436-7.335q-.34-7.36-.4-14.733-.029-3.929.04-7.857c.005-.295-.446-.272-.455.02Z" transform="translate(-4666.213 207.631)"/></g><g transform="translate(4656.589 -294.285)"><path d="M4667.546-283.079c0,2.92-.375,5.847-.646,8.751-.145,1.551-.3,3.1-.4,4.658a20.877,20.877,0,0,0-.056,3.854c.027.217.386.29.414.038.328-2.888.465-5.812.728-8.708a86.257,86.257,0,0,0,.554-8.619c0-.383-.591-.355-.592.026Z" transform="translate(-4666.37 283.38)"/></g><path d="M4727.133-305.49l-2.967,8.582s-.471-4.1-.407-5.61.4-3.094,2.087-3.13S4727.133-305.49,4727.133-305.49Z" transform="translate(-21.697 -6.339)"/><g transform="translate(4707.965 -286.264)"><path d="M4731.571-272.192a.36.36,0,0,1-.024-.112c0-.017,0-.036,0-.053v-.035c0,.016,0,.014,0-.007a.535.535,0,0,1,.065-.207c.011-.021.023-.041.036-.061.022-.036-.011.011.014-.018a1.231,1.231,0,0,1,.094-.1c.028-.027-.019.01.017-.013.02-.014.038-.027.059-.039s.047-.025.017-.011a.647.647,0,0,1,.066-.025c.006,0,.065-.017.043-.012s.038,0,.044,0a.68.68,0,0,1,.07,0c.007,0,.061.007.018,0a.869.869,0,0,1,.128.029l.026.008c-.021-.007-.021-.007,0,0s.042.02.063.031.03.018.046.028.02.013,0,0l.028.022a.627.627,0,0,1,.089.085c-.029-.033.015.024.02.031s.019.029.027.044a.546.546,0,0,0,.106.128.169.169,0,0,0,.278-.087.394.394,0,0,0-.077-.312.864.864,0,0,0-.194-.2.989.989,0,0,0-.535-.2.851.851,0,0,0-.843.6.849.849,0,0,0,.016.589.161.161,0,0,0,.2.1.161.161,0,0,0,.1-.2Z" transform="translate(-4731.21 273.29)"/></g><g transform="translate(4705.822 -291.577)"><path d="M4728.9-278.168a1.16,1.16,0,0,1-.02-.256,1.208,1.208,0,0,1,.038-.228.983.983,0,0,1,.092-.236,1.282,1.282,0,0,1,.066-.115.506.506,0,0,1,.036-.056c-.018.025.023-.029.028-.035a2,2,0,0,1,.186-.2c.014-.012.039-.033.076-.06a1.155,1.155,0,0,1,.119-.078,1.171,1.171,0,0,1,.214-.1,1.111,1.111,0,0,0,.151-.058.189.189,0,0,0,.057-.043l-.029.018c0-.01.071-.025.081-.028a.153.153,0,0,0-.013-.291c-.027,0-.055-.009-.083-.011-.117-.013.072.011-.069-.018a.525.525,0,0,0-.227.025,1.128,1.128,0,0,0-.312.133,1.6,1.6,0,0,0-.492.457,1.555,1.555,0,0,0-.246,1.3.185.185,0,0,0,.23.118.188.188,0,0,0,.117-.231Z" transform="translate(-4728.506 279.974)"/></g><g transform="translate(4712.685 -288.438)"><path d="M4737.66-274.688a.358.358,0,0,1-.033-.438.841.841,0,0,1,.5-.335,1.839,1.839,0,0,1,.628-.107,1.076,1.076,0,0,1,.3.052,1.635,1.635,0,0,0,.306.111.171.171,0,0,0,.2-.216.568.568,0,0,0-.351-.308,1.46,1.46,0,0,0-.476-.095,1.968,1.968,0,0,0-.86.173,1.151,1.151,0,0,0-.66.641.742.742,0,0,0,.189.805.192.192,0,0,0,.258-.283Z" transform="translate(-4737.168 276.025)"/></g><g transform="translate(4716.955 -279.622)"><path d="M4742.64-264.638a1.47,1.47,0,0,1,.517.567,1.546,1.546,0,0,1,.13.356.937.937,0,0,0,.057.211,1.552,1.552,0,0,1,.055.178.114.114,0,0,0,.219-.01,2.008,2.008,0,0,0,.044-.215.589.589,0,0,0-.031-.277,1.885,1.885,0,0,0-.183-.432,1.793,1.793,0,0,0-.661-.657.159.159,0,0,0-.213.066.16.16,0,0,0,.066.212Z" transform="translate(-4742.556 264.935)"/></g><g transform="translate(4719.868 -282.693)"><path d="M4748.338-266.741a1.913,1.913,0,0,0-.281-1.8c-.487-.481-1.167-.168-1.728-.041-.142.032-.12.25.012.277a2.5,2.5,0,0,0,.788-.037.936.936,0,0,1,.34.01.39.39,0,0,1,.13.065c.007,0,.072.044.045.025a.578.578,0,0,1,.059.049.777.777,0,0,1,.175.231,1.082,1.082,0,0,1,.1.287,2.821,2.821,0,0,1-.028.843.206.206,0,0,0,.15.241.2.2,0,0,0,.24-.151Z" transform="translate(-4746.232 268.798)"/></g><g transform="translate(4710.717 -279.945)"><path d="M4734.935-263.566a2.611,2.611,0,0,1,1.014-1.1,3.358,3.358,0,0,1,1.436-.407c.134-.013.169-.224.022-.248a2.393,2.393,0,0,0-1.6.391,2.888,2.888,0,0,0-1.105,1.236c-.072.157.161.282.238.126Z" transform="translate(-4734.683 265.342)"/></g><g transform="translate(4713.037 -270.653)"><path d="M4737.846-252.937a1.12,1.12,0,0,1,1.1-.335,1.161,1.161,0,0,1,.474.263,1.265,1.265,0,0,1,.185.219,1.115,1.115,0,0,0,.186.25.145.145,0,0,0,.236-.074c.047-.249-.168-.51-.338-.667a1.372,1.372,0,0,0-.662-.345,1.434,1.434,0,0,0-1.383.5c-.109.137.082.316.2.185Z" transform="translate(-4737.612 253.653)"/></g><g transform="translate(4718.603 -272.328)"><path d="M4746.637-253.407a4.448,4.448,0,0,1,.163-1.051,1.133,1.133,0,0,0-.332-.955,1.211,1.211,0,0,0-.918-.345,1.159,1.159,0,0,0-.9.516c-.059.1.066.185.153.14a1.753,1.753,0,0,1,.813-.257.832.832,0,0,1,.648.3.914.914,0,0,1,.138.77,2.713,2.713,0,0,0-.069.94c.031.171.323.119.3-.055Z" transform="translate(-4744.637 255.761)"/></g><g transform="translate(4723.218 -274.489)"><path d="M4751.571-257.445a1.155,1.155,0,0,0-.3-.686,1.156,1.156,0,0,0-.28-.235.944.944,0,0,0-.149-.073.369.369,0,0,0-.145-.039.51.51,0,0,0-.086.01.166.166,0,0,0-.151.126.167.167,0,0,0,.083.18l.063.04a.446.446,0,0,0,.106.037.107.107,0,0,1,.037.013l-.022-.009.024.01.064.029.066.037.026.017c.033.021-.024-.019,0,0a1.169,1.169,0,0,1,.117.1l.025.029c.025.025-.018-.025.006.006s.028.037.042.056a1.092,1.092,0,0,1,.076.126c.018.034-.01-.025,0,.007l.014.036c.009.024.017.048.024.073s.014.049.02.075,0-.02,0,0,0,.03.005.045a.165.165,0,0,0,.168.155.164.164,0,0,0,.154-.169Z" transform="translate(-4750.461 258.479)"/></g><g transform="translate(4721.979 -263.377)"><path d="M4749.311-242.783a1.159,1.159,0,0,1,.936-1.248,1.144,1.144,0,0,1,.778.208,1.392,1.392,0,0,1,.3.311c.084.111.155.285.274.357a.139.139,0,0,0,.187-.058c.088-.158-.018-.429-.105-.571a1.485,1.485,0,0,0-.376-.4,1.524,1.524,0,0,0-1.114-.3,1.542,1.542,0,0,0-1.277,1.722.205.205,0,0,0,.207.19.2.2,0,0,0,.189-.207Z" transform="translate(-4748.898 244.502)"/></g><g transform="translate(4715.865 -263.797)"><path d="M4743.6-244.7a2.484,2.484,0,0,0-1.189-.326,2.162,2.162,0,0,0-.619.061,1.9,1.9,0,0,0-.271.1,1.133,1.133,0,0,0-.286.22c-.142.13.027.338.188.293.087-.024.177-.03.263-.057s.171-.056.259-.079a2.257,2.257,0,0,1,.486-.084,1.933,1.933,0,0,1,.985.227.2.2,0,0,0,.185-.351Z" transform="translate(-4741.181 245.03)"/></g><g transform="translate(4710.851 -262.674)"><path d="M4736.916-241.6a2.367,2.367,0,0,0-.248-1.39,1.254,1.254,0,0,0-1.1-.622.894.894,0,0,0-.329.064.826.826,0,0,0-.169.087.616.616,0,0,0-.092.076.242.242,0,0,0-.045.078.123.123,0,0,0-.014.06c0,.042,0,.041,0,0l.049-.094a1.011,1.011,0,0,0-.1.158c-.073.148.1.342.25.23a.676.676,0,0,1,.117-.072l-.1.033c-.05,0-.04,0,.033,0a.234.234,0,0,0,.117-.037c.024-.013.023-.013,0,0l.036-.014a.955.955,0,0,1,.13-.041c-.067.017.016,0,.031,0s.053-.006.079-.007h.062l.041,0c-.035,0-.038,0-.008,0a1.28,1.28,0,0,1,.142.029c.012,0,.1.034.035.01.025.01.052.021.076.033.045.021.086.048.128.072.024.017.023.015,0,0l.033.025c.019.016.037.032.055.048s.034.033.05.052c-.027-.03.031.041.037.048a1.291,1.291,0,0,1,.092.149c.008.014.015.029.022.045-.01-.021-.009-.017,0,.01s.025.062.037.094a1.726,1.726,0,0,1,.05.17,2,2,0,0,1,.049.343,3.777,3.777,0,0,1,0,.386.233.233,0,0,0,.241.221.237.237,0,0,0,.219-.241Z" transform="translate(-4734.853 243.617)"/></g><g transform="translate(4717.414 -256.808)"><path d="M4743.6-235.275c-.1-.135.218-.224.3-.25a5.216,5.216,0,0,1,.645-.179,1.786,1.786,0,0,1,.57-.033,1.152,1.152,0,0,1,.278.07c.117.047.208.129.342.116a.2.2,0,0,0,.182-.262c-.029-.16-.2-.251-.34-.31a1.342,1.342,0,0,0-.419-.1,2.636,2.636,0,0,0-.888.085,2.757,2.757,0,0,0-.827.3.571.571,0,0,0-.207.809.226.226,0,0,0,.3.065.222.222,0,0,0,.065-.3Z" transform="translate(-4743.134 236.238)"/></g><g transform="translate(4718.515 -251.13)"><path d="M4744.742-228.45a1.48,1.48,0,0,1,1.26-.088.692.692,0,0,1,.19.142c.016.016.032.031.046.048-.027-.03.023.031.024.031.025.035.05.072.072.109,0,0,.036.072.019.031.008.019.015.04.022.06a.521.521,0,0,1,.019.06s.016.081.008.032c.009.055.021.109.031.164-.007-.04,0,.036,0,.036,0,.025,0,.05,0,.075-.01.208.283.243.373.084a.719.719,0,0,0,.1-.382,1.082,1.082,0,0,0-.117-.4,1.186,1.186,0,0,0-.525-.52,1.778,1.778,0,0,0-1.671.213c-.161.095-.034.382.142.3Z" transform="translate(-4744.526 229.095)"/></g><g transform="translate(4710.607 -246.783)"><path d="M4736.582-222.89a.264.264,0,0,0,.25-.277.486.486,0,0,0-.184-.334.782.782,0,0,0-.434-.124,1.41,1.41,0,0,0-.387.028,1.687,1.687,0,0,0-1.166.933,1.187,1.187,0,0,0-.116.45c0,.131.033.359.163.425a.134.134,0,0,0,.137-.006.322.322,0,0,0,.1-.184c.015-.045.04-.1.06-.17s.037-.107.052-.161-.01.018.01-.029c.013-.029.025-.059.039-.088a1.532,1.532,0,0,1,.084-.147c0-.007.059-.085.031-.047.014-.02.029-.039.044-.058.037-.045.075-.087.115-.127.023-.023.047-.045.072-.067-.033.029.029-.022.036-.027a1.406,1.406,0,0,1,.153-.1l.063-.035.008,0,.045-.02a1.6,1.6,0,0,1,.159-.056l.069-.018.047-.011c-.024,0-.022,0,.007,0a1.487,1.487,0,0,1,.168-.012c.008,0,.1,0,.059,0l.073.01.049.01c-.023-.01-.022-.01,0,0,.005,0,.053.033.026.013.021.017.029.035.033.035-.008-.021-.009-.021,0,0a.124.124,0,0,1,.069-.142.178.178,0,0,0-.117.2.173.173,0,0,0,.179.145Z" transform="translate(-4734.545 223.629)"/></g><g transform="translate(4706.05 -249.306)"><path d="M4729.074-226.151a.831.831,0,0,1,.48-.262l.012,0,.041-.006c.024,0,.047,0,.07-.006h.072l.04,0c-.025,0,.011,0,.021,0,.046.007.092.016.138.028l.067.021.007,0,.045.02a1.3,1.3,0,0,1,.124.067c.008.006.06.04.029.018.024.018.047.037.07.057s.034.033.051.049l.028.03c-.007-.008-.022-.031,0,0a1.374,1.374,0,0,1,.08.126c0,.006.021.044.009.017s0,.006,0,.01c.01.025.02.049.028.075s.013.045.019.067l.007.029c.016.06,0-.029,0,.006,0,.05.011.1.012.15,0,.023,0,.046,0,.07s-.009.1,0,.047c-.008.053-.016.106-.028.158-.008.029-.017.058-.026.087s0-.008,0-.011l-.019.047a1.27,1.27,0,0,1-.072.153c-.013.022-.029.044-.04.068a.247.247,0,0,0,.014.233l-.007-.185a1.959,1.959,0,0,0-.122.222c-.025.072.047.134.111.134a.527.527,0,0,0,.271-.117l-.14.025c.19.051.316-.149.393-.294a1.165,1.165,0,0,0,.119-.373,1.313,1.313,0,0,0-.119-.8,1.2,1.2,0,0,0-1.3-.6,1.2,1.2,0,0,0-.739.409c-.132.163.1.381.242.222Z" transform="translate(-4728.793 226.801)"/></g><g transform="translate(4703.548 -250.246)"><path d="M4725.958-227.579c.006.006.024.045.014.017,0,.025,0,.029,0,.01v.021c.005-.022.011-.026,0,0,.011-.018.02-.027,0-.006s-.008.009,0,0c.034-.024-.038.011,0,0,.021-.006.048-.007,0,0,.041,0-.052-.016,0,0a.3.3,0,0,1,.045.014c-.073-.028,0,.006,0,.006-.024-.018-.029-.022-.016-.011l.018.015.018.017c.013.013.008.007-.012-.016a.749.749,0,0,0,.057.083c.008.014.015.032.024.045-.033-.042-.008-.018,0,.006a.741.741,0,0,1,.033.1c0,.018.027.064,0,0a.207.207,0,0,1,.008.054c0,.037.005.072.005.109a.2.2,0,0,1,0,.055l0-.032,0,.036a1.407,1.407,0,0,1-.04.205c0,.007-.023.064-.009.03s-.011.023-.014.029a.51.51,0,0,0-.032.19.2.2,0,0,0,.107.169.21.21,0,0,0,.2-.01.326.326,0,0,0,.138-.12.852.852,0,0,0,.057-.1.979.979,0,0,0,.085-.268,1.231,1.231,0,0,0-.047-.546.784.784,0,0,0-.336-.444.414.414,0,0,0-.526.074.365.365,0,0,0,0,.509.166.166,0,0,0,.229-.01.166.166,0,0,0-.01-.229Z" transform="translate(-4725.635 227.984)"/></g><g transform="translate(4700.277 -242.684)"><path d="M4721.692-218.007c.083-.006.167-.017.25-.017.042,0,.085,0,.127,0-.059,0,.009,0,.021,0l.063.012.053.014.035.011c.025.009.023.007-.006,0a.367.367,0,0,1,.116.054l.048.027.03.02-.014-.01c.033.028.066.053.1.083l.045.047c.037.041-.025-.034,0,.007s.05.069.072.106a.429.429,0,0,1,.034.064l-.013-.026.014.034a1.068,1.068,0,0,1,.041.122c0,.011.016.041.012.053-.006-.037-.007-.042,0-.014l0,.037c0,.042.009.085.01.127a.5.5,0,0,0,.026.169.8.8,0,0,1,.034.106.167.167,0,0,0,.281.061.862.862,0,0,0,.1-.131.419.419,0,0,0,.056-.227,1.044,1.044,0,0,0-.043-.338,1.185,1.185,0,0,0-.345-.564,1.2,1.2,0,0,0-.59-.281.911.911,0,0,0-.67.111.184.184,0,0,0,.106.336Z" transform="translate(-4721.508 218.472)"/></g><g transform="translate(4707.856 -239.477)"><path d="M4731.322-213.968a1.024,1.024,0,0,1,1.036.069,1.064,1.064,0,0,1,.328.409c-.01-.021.019.043.019.041l.024.062c.017.046.033.092.046.139s.01.078.027.13.043.065.075.118c-.016-.026.011.036.011.036a.169.169,0,0,0,.291-.013.532.532,0,0,0,.072-.222,1.035,1.035,0,0,0-.03-.194,1.238,1.238,0,0,0-.131-.343,1.378,1.378,0,0,0-.515-.518,1.426,1.426,0,0,0-1.427.011.164.164,0,0,0-.048.224.164.164,0,0,0,.223.049Z" transform="translate(-4731.074 214.438)"/></g><g transform="translate(4713.394 -241.53)"><path d="M4738.141-216.595a2.225,2.225,0,0,1,.216.177c.033.03.066.063.1.1l.048.053c.014.014.064.078.016.016.056.072.111.144.161.22.026.041.049.083.074.124a.635.635,0,0,0,.131.134.212.212,0,0,0,.232.033.212.212,0,0,0,.121-.2.58.58,0,0,0-.053-.23,1.413,1.413,0,0,0-.08-.129,2.839,2.839,0,0,0-.209-.272,2.505,2.505,0,0,0-.477-.42.241.241,0,0,0-.189-.017.254.254,0,0,0-.123.094.241.241,0,0,0,.033.32Z" transform="translate(-4738.063 217.02)"/></g><g transform="translate(4695.814 -224.206)"><path d="M4716.226-193.985a2.3,2.3,0,0,1,1.363-.708.738.738,0,0,1,.633.163.616.616,0,0,1,.116.238c0-.018,0,.053,0,.056,0-.021,0,.024,0,.025a.771.771,0,0,0-.026.209.209.209,0,0,0,.271.188c.37-.138.327-.679.15-.953a1.094,1.094,0,0,0-.948-.462,2.485,2.485,0,0,0-1.861.967.205.205,0,0,0,.3.277Z" transform="translate(-4715.875 195.229)"/></g><g transform="translate(4701.251 -226.498)"><path d="M4723.032-197.4a2.648,2.648,0,0,1,1.145-.181.967.967,0,0,1,.4.146.9.9,0,0,1,.266.272s.024.041.012.02.034.072.025.055a.327.327,0,0,0,.138.142.264.264,0,0,0,.355-.111c.1-.186-.031-.419-.148-.568a1.37,1.37,0,0,0-.926-.479,3.18,3.18,0,0,0-1.406.265.231.231,0,0,0,.142.439Z" transform="translate(-4722.737 198.112)"/></g><g transform="translate(4692.88 -227.437)"><path d="M4712.419-198.52a4.373,4.373,0,0,1,2.065-.207,4.157,4.157,0,0,1,.989.26,4.506,4.506,0,0,1,.469.219c.054.029.157.121.217.126s.059-.211.081-.215c-.02,0-.051.04-.063.055l.2-.064.057.032a.182.182,0,0,0-.251.011.258.258,0,0,0,.146.419.345.345,0,0,0,.392-.445c-.071-.241-.392-.378-.6-.483a4.328,4.328,0,0,0-.759-.3,4.394,4.394,0,0,0-3.072.215c-.225.1-.125.466.122.378Z" transform="translate(-4712.171 199.293)"/></g><g transform="translate(4698.727 -230.838)"><path d="M4719.862-202.708a1.718,1.718,0,0,1,1.113-.321,1.674,1.674,0,0,1,.512.117c.044.02.088.041.131.064,0,0,.076.048.045.025s.023.024.029.029c-.029-.033,0,0,.006.017.018.044-.036-.059,0,.008.018.036,0,.006,0-.018q.007-.067,0-.033c-.006.02,0,.012.01-.023a.263.263,0,0,0,.172.375.358.358,0,0,0,.422-.305.551.551,0,0,0-.214-.49,1.574,1.574,0,0,0-.833-.3,2.068,2.068,0,0,0-1.646.547c-.165.155.073.44.256.305Z" transform="translate(-4719.551 203.571)"/></g><g transform="translate(4682.119 -294.77)"><path d="M4699.274-282.208a.468.468,0,0,1-.159-.155.351.351,0,0,1-.049-.1c-.005-.017-.011-.034-.016-.052s-.006-.024,0,0l0-.036c0-.043,0-.086,0-.129,0-.018,0-.037,0-.056l0-.037c0,.03,0,.032,0,.006a1.23,1.23,0,0,1,.026-.126c.008-.027.019-.046,0-.01.009-.021.019-.044.03-.065s.02-.037.031-.055.049-.066.006-.014a.891.891,0,0,1,.085-.092c-.053.048.01,0,.023-.012a.525.525,0,0,1,.053-.03l.038-.019c-.029.014-.031.015,0,0l.059-.026c.239-.1.605-.282.5-.611a.245.245,0,0,0-.362-.129.3.3,0,0,0-.089.076c.059-.072-.038.033-.054.054s-.018.019.01-.006l-.032.025c-.023.016-.046.03-.069.044-.1.057-.208.1-.305.158a.843.843,0,0,0-.391.566,1.052,1.052,0,0,0-.01.339.98.98,0,0,0,.119.324.809.809,0,0,0,.468.4c.143.047.208-.168.088-.238Z" transform="translate(-4698.59 283.99)"/></g><g transform="translate(4681.845 -334.273)"><path d="M4714.52-324.36a13.946,13.946,0,0,1-3.507.607,9.1,9.1,0,0,1-3.318-.339,1.771,1.771,0,0,1-1.328-1.945c.232-1,1.329-1.425,2.17-1.774l.069.186a11.042,11.042,0,0,1-2.465.543,4.416,4.416,0,0,1-2.312-.221c-.487-.217-1.121-.707-.816-1.312a1.845,1.845,0,0,1,.77-.651c.433-.261.866-.521,1.291-.8l.137.259a5.692,5.692,0,0,1-5.761-.9c-.576-.477-1.714-1.571-.947-2.333a2.234,2.234,0,0,1,1.222-.477,11.671,11.671,0,0,1,1.962-.166,22.208,22.208,0,0,1,4.508.471.1.1,0,0,1-.035.2c-2.213-.228-4.454-.7-6.671-.2-.549.124-1.192.457-.85,1.121a3.826,3.826,0,0,0,.976,1.111,5.5,5.5,0,0,0,2.449,1.154,5.46,5.46,0,0,0,3.043-.252c.151-.058.285.175.137.259a11.305,11.305,0,0,0-1.774,1.084c-.824.7.669,1.277,1.2,1.369a10.056,10.056,0,0,0,3.894-.451c.108-.025.151.161.044.192a3.847,3.847,0,0,0-1.329.564,1.7,1.7,0,0,0-.744,1.267c-.021,1.116,1.24,1.544,2.132,1.677a13.7,13.7,0,0,0,5.792-.409c.11-.032.172.133.063.167Z" transform="translate(-4698.245 333.68)" fill="#b6b6b7"/></g><path d="M4694.843-180.487l-2.638,4.58h32.924l-1.273-8.76-20.555-1.46Z" transform="translate(-15.146 -30.843)"/><g transform="translate(4627.229 -302.221)"><path d="M4629.444-285.807a76.173,76.173,0,0,1,18.218-5.857,76.161,76.161,0,0,1,19.165-1.161,95.265,95.265,0,0,1,10.76,1.471c.179.033.259-.233.077-.278a59.647,59.647,0,0,0-9.531-1.469,75.575,75.575,0,0,0-9.685-.184,75.1,75.1,0,0,0-19.006,3.324,73.958,73.958,0,0,0-10.085,4.007c-.1.048-.012.194.086.148Z" transform="translate(-4629.314 293.363)"/></g><g transform="translate(4716.694 -241.142)"><path d="M4751.462-216.425c.406,6.366-4.772,10.933-9.187,14.642a.161.161,0,0,0,.113.273,1.588,1.588,0,0,1,1.563,1.354,6,6,0,0,1-.134,2.415,36.962,36.962,0,0,1-1.226,4.263.145.145,0,0,0,.264.111,16.451,16.451,0,0,0,1.427-5.328c.153-1.285-.2-3.244-1.894-3.135l.111.273c4.472-3.745,9.706-8.421,9.186-14.868-.012-.142-.232-.145-.223,0Z" transform="translate(-4742.228 216.532)"/></g></g></svg>