<svg xmlns="http://www.w3.org/2000/svg" width="536.776" height="300" viewBox="0 0 536.776 300"><g transform="translate(-1012 -5935.5)"><path d="M-13703.63-96.71c57.754-6.746,115.836-11.481,173.135-21.66,58.539-10.4,114.535-29.089,168.06-55.032,33.787-16.375,65.85-36.069,96.493-57.723a50.031,50.031,0,0,0,18.575-17.051,49.853,49.853,0,0,0,11.85-22.515,50.137,50.137,0,0,0,1.183-26.4,49.263,49.263,0,0,0-7.856-24.615c-9.113-14.136-22.686-26.58-39.566-30.426-16.511-3.76-36.629-3.492-51.016,6.674-38.711,27.355-79.711,51.446-123.419,69.913l15.815-6.673c-53.082,22.259-108.941,34.756-165.835,42.405l17.6-2.365c-38.251,5.1-76.693,8.579-115.019,13.056a49.865,49.865,0,0,0-25.508,5.7,49.625,49.625,0,0,0-21.307,13.689c-11.482,11.482-20.129,30.322-19.391,46.814.766,17.122,6.391,34.881,19.391,46.815l13.4,10.352a65.9,65.9,0,0,0,33.415,9.039Z" transform="translate(14781.879 6320.375)" fill="#ffdc4d"/><path d="M-13341.13-128.791s-5.116-112.582-5.116-123.03-1.919-21.109-13.86-19.4-45.417,5.97-56.931.639-13.06-15.6-5.171-18.794,33.05-2.666,40.3-3.518,4-9.972-3.039-22.229c-6.947-12.1-13.965-18.359-19.083-18.359s-33.477-21.749-16.631-29.212,47.761,8.1,63.327,21.109,47.121,39.02,53.732,60.982,12.153,141.367,12.153,141.367l-49.255,11.088" transform="translate(14768 6320.792)" fill="#fff"/><path d="M-13689.694-92.968s37.1-145.632,37.1-156.08,9.942-23.881,21.882-22.175,45.417,5.97,56.932.639,14.712-21.748,6.823-24.947-32.411,3.838-39.66,2.986-8.955-13.007-.213-23.881,14.926-17.058,20.043-17.058,33.476-21.749,16.631-29.212-47.762,8.1-63.327,21.109-47.123,39.02-53.732,60.982-48.535,137.1-48.535,137.1l-21.749,58.21" transform="translate(14781.378 6320.792)" fill="#fff"/><path d="M-13673.133-296.2a64.006,64.006,0,0,0-8.51,14.551,4.716,4.716,0,0,1,2.361-.657c5.6-11.073,13.517-20.446,21.9-29.513,3.283-3.553,6.647-7.019,10.055-10.435a2.1,2.1,0,0,1,.186-2.907c1.943-1.9,4.224-3.379,6.3-5.126a19.86,19.86,0,0,0,3.67-4.437A279.191,279.191,0,0,0-13673.133-296.2Z" transform="translate(14778.307 6319.581)"/><path d="M-13553.508-317.013a51.29,51.29,0,0,0,1.842-7.18c.83-7.511,1.429-15.048,2.079-22.578.6-6.934-2.651-12.1-7.871-16.143-1.68-1.3-2.974-2.422-3.7-4.619-.988-3-10.721-9.514-25.656-1.822-5.914,3.045-9.509,5.9-14.4,10.156-14.236,12.382-26.722,26.439-38.827,40.849a18.443,18.443,0,0,0-1.523,2.526l.786.667c.634-.568,1.322-1.087,1.9-1.713,10.354-11.3,20.552-22.756,31.11-33.864a123.55,123.55,0,0,1,13.763-11.921,35.975,35.975,0,0,1,24.532-7.725,6.737,6.737,0,0,1,5.854,3.511c-2.848-.6-5.385-1.278-7.963-1.661-7.106-1.055-13.169,1.7-18.622,5.78a169.238,169.238,0,0,0-37.662,39.241c-2.555,3.677-5.268,7.244-7.89,10.874-.473.652-.861,1.365-1.288,2.051l.687.6a15.716,15.716,0,0,0,2.783-2.65,197.839,197.839,0,0,1,31.938-38.146,118.728,118.728,0,0,1,17.434-13.465c8.489-5.406,22.119-2.758,28.753,4.833,3.113,3.56,3.82,7.883,3.582,12.3-.4,7.343-1.084,14.674-1.823,21.992a53.63,53.63,0,0,1-1.552,6.783c-.383.009-.156.138-.54.146a5.708,5.708,0,0,1-1.507-3.778c.216-4.467,1-8.93.921-13.383-.072-4.324-.164-8.915-1.608-12.895-3.786-10.436-11.008-13.757-22.111-11.169-10.739,2.5-18.925,9-26.312,16.721-9.755,10.2-17.311,22.041-25.055,33.734a28.022,28.022,0,0,0-1.86,4.039l.883.478c.469-.642.977-1.26,1.4-1.931,8.311-13.135,16.857-26.091,27.8-37.263,6.989-7.135,15.046-12.278,25.08-14.064,10.449-1.86,17.057,3.542,19,13.356.983,4.964.286,10.268.254,15.418a26.651,26.651,0,0,1-.293,3.139c-.026,3.312.431,6.762,2.707,9.145.112.118.214.24.312.361,4.132,2.5,10.086,8.219,5.714,11.843-.059-.024,2.777.093,2.718.069.081.355-.586.417-.585.784.6-.108,2.217-.743,2.825-.8.336-.9-1.549-.154-1.279-.906C-13544.486-311.678-13550.012-314.46-13553.508-317.013Z" transform="translate(14776.684 6321.13)"/><path d="M-13601.122-291.466a4.19,4.19,0,0,1-4.61-5.209,54.287,54.287,0,0,1,4.418-12.553,107.662,107.662,0,0,1,5.77-9.305,13.645,13.645,0,0,1-2.138-.995c-.054-.031-.1-.065-.152-.1a78.089,78.089,0,0,0-9.263,17.4,22.7,22.7,0,0,0-1.092,4.63c-.735,5.013,1.91,7.946,7.115,7.8,5.252-.142,12.731-.428,19.821.958-.947-.574-.832-2-1.759-2.612C-13587.27-291.245-13588.449-292.887-13601.122-291.466Z" transform="translate(14775.337 6318.97)"/><path d="M-13638.234-249.988l.035-2.707-19.594-2.45C-13651.294-253.341-13644.78-251.6-13638.234-249.988Z" transform="translate(14777.341 6316.358)" fill="#fff"/><path d="M-13585.1-265.187c.159-1.97.254-3.042.33-4.114.411-5.832,2.212-8.254,7.957-8.915a67.645,67.645,0,0,1,13.255.144c1.3.107,2.482,1.69,3.717,2.6-.929,1.245-1.655,2.752-2.838,3.67a14.271,14.271,0,0,1-4.98,2.562C-13573.286-267.782-13578.981-266.588-13585.1-265.187Z" transform="translate(14774.398 6317.304)" fill="#fff"/><path d="M-13375.318-298.724a22.906,22.906,0,0,0-1.32-4.57,85.069,85.069,0,0,0-17.088-25.015c-2.608-2.732-6.489-4.549-10.115-5.935-3.605-1.379-6.279.109-7.525,3.321l.021-.022a2.807,2.807,0,0,1,3.431-.635,3.719,3.719,0,0,1,3.682-.693,19.257,19.257,0,0,1,10.46,7.056A163.793,163.793,0,0,1-13382.76-310a54.282,54.282,0,0,1,5.031,12.32c.88,2.88-1.346,5.391-4.348,5.43q-2.8.037-5.588.053c-19.674-.088-20.873.831-21.44,2.084,9.021-.055,18.043-.262,27.063-.462C-13376.836-290.693-13374.339-293.753-13375.318-298.724Z" transform="translate(14767.362 6319.582)"/><path d="M-13289.765-110.025q-2.159-34.148-4.313-68.295c-1.778-28.327-3.748-56.643-5.223-84.985a61.8,61.8,0,0,0-15.133-38.063,279.112,279.112,0,0,0-38.327-37.122c-9.491-7.571-19.061-15.063-28.893-22.179a198.077,198.077,0,0,0-18.282-11.256c-4.667-2.658-9.442-2.961-13.912.806a4.631,4.631,0,0,1-2.508.627c-1.687.124-3.4-.016-5.076.171-3.058.341-5.831,1.661-6.668,4.708-.612,2.23-1.851,3.412-3.465,4.8-5.014,4.3-8,9.615-7.063,16.512.862,6.321,1.7,12.647,2.655,18.954a5.171,5.171,0,0,1,1.768-2.567c-.816-5.6-1.573-11.207-2.155-16.831-.459-4.4.035-8.756,2.967-12.466,6.252-7.908,19.734-11.227,28.48-6.247a118.72,118.72,0,0,1,18.078,12.589,215.727,215.727,0,0,1,15.882,14.943,5.9,5.9,0,0,1,.962-1.588,166.187,166.187,0,0,0-28.854-24.751c-5.647-3.808-11.838-6.259-18.884-4.853-2.556.51-5.056,1.309-7.87,2.052a6.731,6.731,0,0,1,5.673-3.8,35.974,35.974,0,0,1,24.884,6.5q1.689,1.187,3.37,2.39a7.787,7.787,0,0,0,1.594,1.135.687.687,0,0,0,.988-.643c-.087-1.227-1.542-2.059-2.429-2.7-1.158-.83-2.34-1.628-3.557-2.373a35.883,35.883,0,0,0-7.74-3.636q-.835-.268-1.684-.486c-2.461-.628-4.9-1.348-7.782-2.146,3.877-1.927,7.4-1.832,10.645,0a194.339,194.339,0,0,1,17.365,10.489,439.909,439.909,0,0,1,53.338,44.137c8.856,8.68,17.263,17.688,23.409,28.533a43.753,43.753,0,0,1,5.3,18.056l-43.179,7.483c-1.526-7.188-6.6-11.144-12.692-10.356-8.09,1.046-16.19,2.033-24.3,2.891-4.217.446-8.47.561-12.668.823-.682.155-.135.412-.6.995,12.346-.533,23.884-1.785,36.191-3.048,7.136-.732,11.274,3.344,11.236,10.54-.034,6.121.356,12.245.756,18.368a5.252,5.252,0,0,1,2.21.014l-.012-.208,2.768-.349a12.064,12.064,0,0,1,2.112-.547,52.354,52.354,0,0,1,6.765-.619l9.473-1.365,0,.028c5.479-1.523,10.953-3.268,16.685-3.138a2.178,2.178,0,0,1,1.472.573l5.154-.7c.091,1.45.16,2.6.235,3.754q3.442,53.369,6.9,106.735.987,15.2,2.14,30.4a7.606,7.606,0,0,0,1.166,2.415l.954-.366Q-13289.615-107.656-13289.765-110.025Zm-55.6-133.295-1.007-16.133,44.189-7.758,1.1,17.6Z" transform="translate(14768.473 6321.168)"/><path d="M-13361.18-318.772c-6.19-8.318-12.608-16.453-20.185-23.626-7.759-7.348-16.257-13.432-27.105-15.4-11.217-2.037-18.267,1.638-21.533,12.247-1.246,4.046-1.11,8.637-.97,12.959.132,4.078.979,8.128,1.455,12.2.182-.36.363-.719.521-1.09l-.064.154a5.837,5.837,0,0,1,1.369-1.889,25.772,25.772,0,0,1-.442-3.084c-.285-5.142-1.245-10.406-.508-15.412,1.458-9.9,7.792-15.621,18.32-14.278,10.109,1.289,18.41,6.028,25.742,12.808a177.342,177.342,0,0,1,21.6,24.74A5.984,5.984,0,0,1-13361.18-318.772Z" transform="translate(14768.16 6320.537)"/><path d="M-13297.182-245.107l-44.281,6.291-1.007-16.133,44.189-7.758Zm-5.235-4.258c1.212-.6,2.085-1.888,3.1-2.894-.948-.615-2.033-1.864-2.811-1.7-1.167.252-2.12,1.5-3.971,2.959C-13304.208-250.11-13302.986-249.082-13302.417-249.365Z" transform="translate(14764.572 6316.664)" fill="#fff"/><path d="M-13319.737-239.539l-9.476,1.366.531,7.2c2.934-.146,5.873-.231,8.793-.522.334-.034.807-1.219.783-1.854C-13319.177-235.218-13319.466-237.075-13319.737-239.539Z" transform="translate(14764.035 6315.727)" fill="#fff"/><path d="M-13315.24-239.908c.019,1.143.019,1.923.043,2.7.187,5.716,1.5,6.671,7.178,5.006a2.406,2.406,0,0,0,1.4-1.741c.041-2.239-.208-4.484-.355-6.836a15.19,15.19,0,0,0-1.847-.034C-13310.865-240.543-13312.906-240.239-13315.24-239.908Z" transform="translate(14763.47 6315.778)" fill="#fff"/><path d="M-13334.14-237.486l-7.207.911.4,6.4,7.235-.452Z" transform="translate(14764.526 6315.643)" fill="#fff"/><path d="M-13671.254-297.766a169.644,169.644,0,0,0-20.486,32.226,20.047,20.047,0,0,1,4-3.238,5.113,5.113,0,0,1,2.5-.765c3.619-6.379,6.943-11.517,13.8-25.007C-13670.943-295.517-13670.416-298.789-13671.254-297.766Z" transform="translate(14778.715 6318.092)"/><path d="M-13700.791-246.148c-2.045,5.224-3.957,10.462-5.781,15.632-8.632,24.476-17.35,48.921-25.478,73.57-.434,1.315,1.57,1.82,2.047.564,8.836-23.247,17.122-46.693,25.489-70.113,1.667-4.669,3.341-9.332,5.109-13.955A13.239,13.239,0,0,1-13700.791-246.148Z" transform="translate(14780.349 6315.994)"/><path d="M-13669.66-150.094c4.906-21.621,8.909-43.444,13.887-65.043a152.282,152.282,0,0,1,9.341-28.79c4.028-8.891,7.863-14.076,13.185-22.123a1.521,1.521,0,0,0-2.239-2c-7.01,5.8-10.046,13.288-13.8,21.424a177.008,177.008,0,0,0-9.653,27.773c-6.067,22.27-9.746,45.219-13.739,67.926-.344,1.954,2.567,2.825,3.021.833Z" transform="translate(14777.943 6316.895)"/><path d="M-13440.685-310.917c-8.7.056-20.965,1.373-27.256,8.12a.669.669,0,0,0,.646,1.109c4.191-.987,8.038-3.361,12.16-4.7a56.451,56.451,0,0,1,14.45-2.667.93.93,0,0,0,0-1.859Z" transform="translate(14769.659 6318.616)"/><path d="M-13430.329-312.893a.028.028,0,0,0,0-.057.028.028,0,0,0,0,.057Z" transform="translate(14768.131 6318.699)"/><path d="M-13429.341-323.009c-1.068,4.084-8.285,9.477-6.9,14.115,1.092,3.66,7.579,3.005,10.177,2.736,5.193-.54,9.217-2.225,12.436-6.467,2.019-2.661,1.747-9.84,2.8-12.953,1.265-3.739,1.52-5.6,4.878-7.037,1.175-.5-2.36-2.5-3.6-1.679-7.5,4.974-1.858,15.435-8.153,20.991-2.477,2.188-16.806,8.017-14.326-.249.953-3.179,3.516-5.617,4.277-9.018a.824.824,0,0,0-1.588-.438Z" transform="translate(14768.376 6319.572)"/><path d="M-13435.145-310.48a3.933,3.933,0,0,1,.092-2.073c.024-.093.057-.184.085-.277a13.774,13.774,0,0,1-4.573.912c-.65,0-4.039-.026-4.306-.868-.125-.4,3.148-2.964,3.563-3.377,3.168-3.159,6.925-7.066,5.5-11.958-.4-1.386-2.362-.681-2.133.693.431,2.569-.908,3.694-2.389,5.375a47.66,47.66,0,0,1-5.191,5.109c-1.895,1.58-5.273,3.929-2.626,6.549,2.2,2.18,6.831,2.378,9.678,2.027a16.6,16.6,0,0,0,2.71-.554A3.82,3.82,0,0,1-13435.145-310.48Z" transform="translate(14768.848 6319.344)"/><ellipse cx="10.141" cy="22.002" rx="10.141" ry="22.002" transform="matrix(0.998, -0.062, 0.062, 0.998, 1240.852, 6015.122)"/><path d="M-13398.882-307.31A29.345,29.345,0,0,0-13415-299.2c-.02-.053-.044-.1-.063-.154-1.047-3.417-4.1-6.638-11.473-7.694a20.251,20.251,0,0,1-3.674.5,21.158,21.158,0,0,0-7.869-1.891,23.347,23.347,0,0,0-12.072-1.77c-3.357.48-20.682,3.374-20.682,3.374s.319,15.938,2.4,26.013,5.6,15.832,5.6,15.832,18.32-3.916,26.914-7.717a23.035,23.035,0,0,0,8.252-5.3,13.781,13.781,0,0,1,1.322-5.205c1.735-3.667,5.41-4.958,9.039-5.994a4.946,4.946,0,0,1,1.238-.185,17.978,17.978,0,0,0,1.443-5.806,27.568,27.568,0,0,1,16.535-9.243C-13396.208-304.76-13397.009-307.62-13398.882-307.31Z" transform="translate(14769.77 6318.595)"/><path d="M-13487.7-267.582c7.807-1.267,15.979-2.027,23.27-5.281,1.127-.5.152-2.157-.968-1.657-7.106,3.171-15.207,3.853-22.811,5.088-1.218.2-.7,2.047.509,1.85Z" transform="translate(14770.502 6317.146)"/><path d="M-13490.781-275.866c-.131.728-.515,1.38-.649,2.109a6.3,6.3,0,0,0,0,2.3,5.318,5.318,0,0,0,2.2,3.465l.484-1.789-.266-.031a.965.965,0,0,0-.96.96.982.982,0,0,0,.96.96l.266.031a.962.962,0,0,0,.925-.7.991.991,0,0,0-.44-1.083c-.049-.033-.1-.065-.146-.1.137.1-.021-.023-.046-.045-.1-.093-.194-.184-.285-.284-.041-.045-.079-.091-.117-.137.063.078.019.028-.017-.023-.079-.115-.155-.23-.225-.35s-.134-.248-.194-.374c-.022-.049-.052-.128-.016-.033-.028-.074-.055-.149-.081-.225a5.21,5.21,0,0,1-.208-.842c-.027-.161.01.129,0-.034-.008-.065-.013-.13-.017-.195-.01-.146-.014-.292-.011-.438a4.371,4.371,0,0,1,.03-.438c.018-.162-.024.126.007-.035.015-.08.029-.159.047-.238.152-.657.489-1.253.61-1.918a.988.988,0,0,0-.67-1.181.969.969,0,0,0-1.181.671Z" transform="translate(14770.608 6317.227)"/><path d="M-13488.991-275.194a129.465,129.465,0,0,0,24.283-4.829.961.961,0,0,0-.511-1.851,126.781,126.781,0,0,1-23.772,4.761c-1.217.123-1.229,2.044,0,1.919Z" transform="translate(14770.541 6317.443)"/><path d="M-13490.364-285.084c7.871-1.254,16.133-1.978,23.443-5.367,1.12-.518.146-2.173-.968-1.657-7.126,3.3-15.316,3.951-22.985,5.174-1.216.194-.7,2.043.51,1.85Z" transform="translate(14770.609 6317.857)"/><path d="M-13493.213-294.066c-.156.8-.564,1.514-.721,2.311a7.09,7.09,0,0,0-.064,2.351,5.745,5.745,0,0,0,2.122,3.855l.739-1.754-.266-.038a.992.992,0,0,0-1.18.67.968.968,0,0,0,.67,1.181l.266.037a.964.964,0,0,0,.738-1.753c.107.082-.158-.156-.192-.192s-.088-.093-.131-.141c-.01-.012-.12-.144-.078-.09a5.218,5.218,0,0,1-.4-.667,1.728,1.728,0,0,1-.127-.3c-.049-.132-.092-.267-.13-.4a5.174,5.174,0,0,1-.163-.808,4.908,4.908,0,0,1,.1-1.709c.174-.7.523-1.336.661-2.044a.985.985,0,0,0-.67-1.18.969.969,0,0,0-1.181.67Z" transform="translate(14770.711 6317.963)"/><path d="M-13491.408-293.412a120.9,120.9,0,0,0,24.442-4.862c1.178-.363.675-2.215-.509-1.85a118.472,118.472,0,0,1-23.934,4.793c-1.22.114-1.231,2.034,0,1.919Z" transform="translate(14770.64 6318.182)"/><path d="M-13567.106-275.787a46.978,46.978,0,0,1,5.133,7.22c1.239,2.019,2.473,4.139,4.424,5.554,3.407,2.469,7.522,3.415,11.59,4.12,4.408.764,8.867,1.253,13.323,1.649,4.042.359,8.337.879,12.255-.476s6.1-4.513,7.225-8.363a.96.96,0,0,0-1.851-.51c-.908,3.113-2.578,5.841-5.764,6.981-3.7,1.325-7.777.808-11.608.471-4.062-.357-8.124-.792-12.15-1.449-3.756-.613-7.432-1.353-10.766-3.261-2.457-1.407-3.766-3.64-5.206-5.987a47.617,47.617,0,0,0-5.248-7.307c-.833-.914-2.187.445-1.356,1.358Z" transform="translate(14773.679 6317.261)"/><path d="M-13564.739-276.819a7.388,7.388,0,0,1-2.344-6.522c.421-2.773,2.6-4.729,4.645-6.438a41.877,41.877,0,0,1,14.974-7.957.961.961,0,0,0-.511-1.851,43.821,43.821,0,0,0-16.97,9.448c-2.217,2.007-3.98,4.4-4.12,7.486a9.253,9.253,0,0,0,2.968,7.191c.911.83,2.272-.523,1.358-1.357Z" transform="translate(14773.746 6318.159)"/><path d="M-13563.506-292.159c-1.619.178-2.987-1.085-4.55-1.321a5.123,5.123,0,0,0-4.591,2.166,13.181,13.181,0,0,0-2.39,4.975,5.2,5.2,0,0,0,1.215,5.284,12.567,12.567,0,0,0,5.679,2.973.961.961,0,0,0,.511-1.851c-1.812-.453-4.019-1.338-5.2-2.87-1.2-1.564-.213-3.911.536-5.473.662-1.379,2-3.5,3.794-3.337a7.956,7.956,0,0,1,2.275.813,5.409,5.409,0,0,0,2.717.561.989.989,0,0,0,.96-.96.966.966,0,0,0-.96-.96Z" transform="translate(14773.999 6317.912)"/><path d="M-13570.273-293.382a7.768,7.768,0,0,1-1.957-1.268,8.723,8.723,0,0,0-2.189-1.128,6.046,6.046,0,0,0-4.837.54c-1.244.66-2.874,1.692-3.234,3.157-.417,1.7,1.078,3.215,2.127,4.366a21.362,21.362,0,0,0,4.241,3.549c1.042.67,2-.991.968-1.657a19.426,19.426,0,0,1-3.914-3.318,7.374,7.374,0,0,1-1.513-2c-.246-.642.373-1.147.831-1.5,1.27-.979,2.83-1.834,4.472-1.4,1.72.458,2.827,1.973,4.5,2.5,1.181.375,1.685-1.478.511-1.85Z" transform="translate(14774.293 6318.016)"/><path d="M-13579.785-296.491c-3.049-5.066-9.314-5.931-14.656-6.838-3.295-.559-6.6-1.06-9.916-1.522a4.357,4.357,0,0,1-1.137,1.49c-.055.152-.1.306-.156.456-.314.852-.672,1.688-1.031,2.522,1.143.155,2.322.326,3.639.522q3.375.5,6.738,1.059c1.9.319,3.8.654,5.686,1.075,2.5.558,5.287,1.324,6.691,3.659C-13582.336-291.427-13578.187-293.836-13579.785-296.491Z" transform="translate(14775.271 6318.371)"/><path d="M-13410.875-296.53a40.588,40.588,0,0,1,28.663-9.139,2.421,2.421,0,0,0,2.4-2.4,2.445,2.445,0,0,0-2.4-2.4,45.454,45.454,0,0,0-32.057,10.544,2.419,2.419,0,0,0,0,3.393,2.453,2.453,0,0,0,3.394,0Z" transform="translate(14767.507 6318.604)"/><ellipse cx="1.972" cy="3.412" rx="1.972" ry="3.412" transform="translate(1250.32 6024.02)" fill="#fff"/><ellipse cx="1.972" cy="3.412" rx="1.972" ry="3.412" transform="translate(1250.746 6041.077)" fill="#fff"/><path d="M-13599.015-360.209a49.074,49.074,0,0,0,4.051-10.37,43.546,43.546,0,0,0,1.768-11.291c.006-1.436.106-3.422-1.466-4.091-1.78-.757-3.183.764-3.967,2.168a93.129,93.129,0,0,1-7.62,11.513c-5.332,6.906-11.229,13.4-17.042,19.9q-8.827,9.872-17.885,19.537-9.787,10.465-19.821,20.7c-.866.881.49,2.238,1.356,1.357q17.005-17.27,33.244-35.275c5.309-5.862,10.564-11.773,15.7-17.784,2.761-3.23,5.463-6.515,7.965-9.952,1.265-1.738,2.478-3.515,3.612-5.34q.794-1.278,1.536-2.589c.329-.583,1.143-2.7,2.033-2.425.952.3.351,4.418.26,5.307a45.611,45.611,0,0,1-1.142,6.284,48.051,48.051,0,0,1-4.242,11.383c-.588,1.086,1.067,2.056,1.656.969Z" transform="translate(14777.482 6321.664)"/><path d="M-13631.545-266.817a1.9,1.9,0,0,1,1.1-.873,10.4,10.4,0,0,1,2.209-.594,36.505,36.505,0,0,1,7.149-.34,153.373,153.373,0,0,1,19.363,1.952c6,.915,12,2,17.912,3.382a54.171,54.171,0,0,1,5.238,1.415c4.945,1.7,9.538,4.778,14.713,5.789,2.474.483,4.688-.645,5.108-3.258.44-2.733-1.469-5.535-2.889-7.7-1.721-2.628-3.712-5.078-5.634-7.56-1.573-2.03-3.169-4.145-5.752-4.881a.961.961,0,0,0-.51,1.851c2.33.663,3.761,2.91,5.165,4.725,1.691,2.184,3.424,4.347,4.952,6.65,1.2,1.807,3.554,4.869,2.636,7.173-.591,1.484-2.059,1.306-3.348.962a34.572,34.572,0,0,1-4.091-1.417c-3.627-1.468-7.1-3.386-10.861-4.506-1.942-.578-3.92-1.035-5.9-1.475-5.89-1.309-11.843-2.362-17.812-3.235a148.577,148.577,0,0,0-18.728-1.792,35.228,35.228,0,0,0-7.651.5c-1.456.3-3.289.839-4.026,2.269-.564,1.1,1.092,2.068,1.657.968Z" transform="translate(14776.349 6317.346)"/><path d="M-13590.65-288.894c5.214.353,10.564,1.409,13.894,5.808.676.894,1.139,1.936,1.852,2.8a7.424,7.424,0,0,0,2.82,1.9,11.3,11.3,0,0,1,5.233,4.632.96.96,0,0,0,1.657-.968,12.619,12.619,0,0,0-5.057-4.922c-1.258-.624-2.64-1.027-3.461-2.247a31.681,31.681,0,0,0-2.241-3.233c-3.7-4.276-9.309-5.326-14.7-5.692-1.233-.084-1.227,1.836,0,1.919Z" transform="translate(14774.659 6317.803)"/><path d="M-13578.825-263.51c2.368-3.375,7.15-2.043,10.14-.471a22.823,22.823,0,0,1,5.146,3.249,7.546,7.546,0,0,1,1.983,4.093c.156,1.207,2.077,1.222,1.919,0a10,10,0,0,0-2.3-5.211,12.657,12.657,0,0,0-2.9-2.144c-1.138-.682-2.282-1.36-3.471-1.948-3.934-1.945-9.306-2.62-12.17,1.464-.711,1.013.952,1.973,1.656.968Z" transform="translate(14774.217 6316.857)"/><path d="M-13652.419-320.178c.032-.039.069-.071.1-.108-28.075-12.087-61.665-5.248-78.013,15.582a2.4,2.4,0,0,0,.513,3.45h0a2.392,2.392,0,0,0,3.258-.486c14.841-18.939,45.383-25.226,71.313-14.569A43.862,43.862,0,0,1-13652.419-320.178Z" transform="translate(14780.298 6319.238)"/><path d="M-13234.94-312.624c-2.081-4.1-6.841-5.917-11.231-5.8a22.666,22.666,0,0,0-2.645.253,22.73,22.73,0,0,0-3.576-6.9,9.412,9.412,0,0,0-5.588-3.755,17.241,17.241,0,0,0-7.239.658,33.232,33.232,0,0,0-12.758,5.961c-3.631-1.095-7.363-1.9-10.857-2.674a103.093,103.093,0,0,0-22.746-2.647,116.073,116.073,0,0,0-23.878,2.61c.343.333.679.672,1.043.983.225.192.454.378.684.566.05.042.079.064.116.1,1.014.759,2.042,1.5,3.058,2.256a103.915,103.915,0,0,1,30.9-1.049,142.193,142.193,0,0,1,16.137,3.295q.885.214,1.757.437a18.238,18.238,0,0,0-3,6.128,15.011,15.011,0,0,0,1.7,12.317c2.569,3.783,6.707,6.3,10.861,8.022,4.125,1.708,9.258,1.964,12.623-1.463,3.117-3.177,2.451-8.239,1.364-12.167-2.111-7.627-7.682-11.956-14.28-14.755a25.166,25.166,0,0,1,3.913-1.866,41.4,41.4,0,0,1,5.2-1.556c1.634-.381,3.612-.945,5.227-.216,1.445.653,2.395,2.212,3.151,3.531a19.99,19.99,0,0,1,1.459,3.182c-.131.033-.262.063-.391.1-2.348.606-4.558,1.748-5.275,4.249-.651,2.267.162,4.612,1.047,6.688.906,2.122,2.265,4.171,4.689,4.656,5.919,1.187,6.223-6.589,5.891-10.563-.042-.5-.1-1-.173-1.5a11.187,11.187,0,0,1,5.56.548,5.837,5.837,0,0,1,3.112,2.806C-13237.685-307.448-13233.545-309.874-13234.94-312.624Zm-29.693,4.243a17.19,17.19,0,0,1,2.413,7.381c.136,1.388.338,3.033-.638,4.161a4.772,4.772,0,0,1-3.591,1.451c-3.409.011-7.155-2.168-9.792-4.2a10.184,10.184,0,0,1-4.342-8.153,13.442,13.442,0,0,1,3.251-8.556c.172-.2.358-.387.539-.578a30.527,30.527,0,0,1,7.56,3.7A17.047,17.047,0,0,1-13264.634-308.381Zm12.334-1.462a18.751,18.751,0,0,1-.186,2.563,9.747,9.747,0,0,1-.194,1c-.9-.585-1.37-2.283-1.668-3.25a3.7,3.7,0,0,1-.273-1.861c.161-.586.7-.705,1.244-.867.3-.09.62-.182.937-.273A20.946,20.946,0,0,1-13252.3-309.843Z" transform="translate(14764.287 6319.348)"/><path d="M-13697.766-236.215c3.592,2.548,8.432,4.4,12.9,3.964,4.417-.435,8.6-3.368,11.644-6.448,6.278-6.346,10.684-16.46,5.8-24.864-3.452-5.937-11.049-9.57-17.8-7.91-4.511,1.108-8.146,4.413-10.928,7.991a26.4,26.4,0,0,0-5.116,10.717,23.8,23.8,0,0,0,.056,10.393,10.555,10.555,0,0,0,3.448,6.157,2.412,2.412,0,0,0,3.281-.861,2.458,2.458,0,0,0-.86-3.282c.207.157.461.362.165.092-.258-.237-.122-.177.049.1-.182-.292-.38-.564-.543-.869-.087-.162-.164-.329-.246-.493-.183-.367.144.436-.061-.141-.16-.455-.321-.9-.45-1.369-.135-.483-.246-.971-.339-1.463-.025-.131-.128-.753-.1-.592.015.106-.065-.593-.079-.759a21.444,21.444,0,0,1,.023-3.83c.579-6.092,4.694-12.957,10.272-16.089a9.955,9.955,0,0,1,7.876-.869,11.2,11.2,0,0,1,2.987,1.346q.6.361,1.175.769c.16.115.582.443.2.14.334.266.657.543.965.839a11.2,11.2,0,0,1,3.341,9.137c-.358,3.625-2.326,7.226-4.52,10.073-2.292,2.977-5.562,5.884-9.214,7.021-3.851,1.2-8.4-.839-11.5-3.039a2.42,2.42,0,0,0-3.282.861A2.451,2.451,0,0,0-13697.766-236.215Z" transform="translate(14779.123 6317.036)"/><path d="M-13670.349-237.97a35.946,35.946,0,0,1,14.152,2.844,3.326,3.326,0,0,0,3.854-.49,16.5,16.5,0,0,0,2.154-3.653l4.351-7.909a2.418,2.418,0,0,0-3.282-3.282,16.429,16.429,0,0,0-7.984,9.683l4.712.638c.09-1.731,1.261-3.364,2.331-4.75a46.806,46.806,0,0,0,3.75-5.08,2.409,2.409,0,0,0-3.768-2.906c-4.123,3.9-8.216,7.838-11.433,12.543l4.385,1.848a31.418,31.418,0,0,1,5.685-11.911l-4.144-2.422a54.712,54.712,0,0,1-7.9,10.663l4.009,2.334a114.936,114.936,0,0,1,3.414-11.128,2.421,2.421,0,0,0-1.676-2.95,2.453,2.453,0,0,0-2.95,1.675,22.57,22.57,0,0,1-4.09,6.672l4.009,1.058a8.185,8.185,0,0,1,.03-3.68c.717-3.052-3.547-4.127-4.626-1.275l-2.417,6.382,4.626,1.275a78.448,78.448,0,0,0,2.17-8.222c.417-2.666-.826-5.6-3.749-6.1a2.5,2.5,0,0,0-2.708,1.1,4.16,4.16,0,0,0,2.895,6.072,2.463,2.463,0,0,0,2.95-1.676,2.42,2.42,0,0,0-1.676-2.95c-.7-.131-.059-.046-.076.079-.03.216.223.609.049.9l-2.708,1.1c.373.064.344-.013.358.274a8.1,8.1,0,0,1-.544,2.31l-1.587,5.839a2.44,2.44,0,0,0,1.676,2.95,2.45,2.45,0,0,0,2.95-1.675l2.417-6.382-4.626-1.275a13.767,13.767,0,0,0-.03,6.23,2.414,2.414,0,0,0,4.009,1.059,29.139,29.139,0,0,0,5.324-8.79l-4.626-1.275a114.855,114.855,0,0,0-3.414,11.128c-.568,2.256,2.317,4.122,4.01,2.334a60.043,60.043,0,0,0,8.649-11.633,2.442,2.442,0,0,0-.861-3.282,2.46,2.46,0,0,0-3.282.861,34.776,34.776,0,0,0-6.167,13.058,2.41,2.41,0,0,0,4.384,1.848c2.975-4.349,6.872-7.971,10.683-11.572l-3.768-2.906c-2.386,4.129-6.47,7.138-6.735,12.25-.144,2.753,3.97,3.185,4.712.637a11.577,11.577,0,0,1,5.779-6.816l-3.282-3.282-3.076,5.594-1.486,2.7-.742,1.35-.425.772q-.505.786.189-.008l1.211-.327c.153.067.146.068-.019,0q-.223-.082-.437-.175c-.316-.127-.635-.251-.955-.37-.612-.229-1.233-.442-1.857-.643q-2.057-.662-4.172-1.128a35.178,35.178,0,0,0-8.6-.936c-3.08.094-3.093,4.892,0,4.8Z" transform="translate(14777.942 6316.399)"/><path d="M-13328.633-238.462a4.175,4.175,0,0,0-2.3,1.861,4.709,4.709,0,0,0-.578,2.437,4.749,4.749,0,0,0,.763,2.467,5.3,5.3,0,0,0,2.54,1.93,6.772,6.772,0,0,0,4.98-.286,9.2,9.2,0,0,0,3.852-3.138,8.886,8.886,0,0,0,1.65-5.026,2.42,2.42,0,0,0-3.036-2.313l-8.194,2.519a2.437,2.437,0,0,0-1.676,2.951,2.461,2.461,0,0,0,2.951,1.675,27.263,27.263,0,0,0,7.09-2.5,2.391,2.391,0,0,0,.981-3,2.4,2.4,0,0,0-2.829-1.388,15.486,15.486,0,0,0-4.074,1.709l2.907,3.767,1.054-1.141a2.437,2.437,0,0,0,0-3.392,2.433,2.433,0,0,0-3.392,0l-1.055,1.14a2.416,2.416,0,0,0-.187,3.15,2.4,2.4,0,0,0,3.095.618c.252-.151.506-.3.766-.431q.2-.1.394-.195l.249-.117c-.374.177.11-.038.19-.068.139-.052.276-.1.416-.147.3-.1.6-.188.912-.268l-1.848-4.384c-.5.257-1.022.476-1.53.721.614-.3.136-.059,0-.006l-.358.14c-.263.1-.528.2-.795.288a24.906,24.906,0,0,1-3.266.873l1.275,4.627,8.193-2.519-3.036-2.313a6.893,6.893,0,0,1-.052.723l.085-.638a6.64,6.64,0,0,1-.2.943c-.045.154-.1.305-.151.458-.107.314.068-.211.106-.238-.04.028-.078.174-.1.22a7.219,7.219,0,0,1-.477.841c-.045.067-.093.132-.138.2-.193.284.127-.2.156-.2a3.48,3.48,0,0,0-.356.412,8.711,8.711,0,0,1-.706.656c-.217.184.437-.309.2-.156-.067.042-.132.092-.2.136-.135.089-.271.173-.413.25s-.287.144-.43.219c-.253.13.509-.192.24-.1-.077.025-.15.057-.228.083a5.438,5.438,0,0,1-1.011.235l.639-.085a4.9,4.9,0,0,1-1.215,0l.639.085a3.835,3.835,0,0,1-.466-.1c-.271-.078-.318-.223.131.08-.111-.075-.245-.123-.36-.2-.445-.287.354.364.066.044-.321-.357.144.144.128.195,0-.008-.177-.326-.188-.333.088.044.233.656.11.211a2.653,2.653,0,0,1-.074-.379l.085.638a2.9,2.9,0,0,1,.01-.67l-.085.638c.021-.125.056-.243.085-.365.067-.286-.11.3-.139.317a.653.653,0,0,0,.109-.2c.068-.167-.354.383-.213.272a.827.827,0,0,0,.127-.127c.146-.185-.461.353-.268.213.14-.1.493-.2-.279.1a2.6,2.6,0,0,0,1.433-1.1,2.449,2.449,0,0,0,.242-1.848,2.425,2.425,0,0,0-2.95-1.675Z" transform="translate(14764.129 6315.77)"/><path d="M-13712.819-191.066a4.724,4.724,0,0,0-4.034-1.1,4.73,4.73,0,0,0-2.8,1.593,5.136,5.136,0,0,0-1.074,4.275,5.563,5.563,0,0,0,1.7,3.086,6.95,6.95,0,0,0,7.755.786,5.035,5.035,0,0,0,2.668-3.276,6.361,6.361,0,0,0-.288-3.755,7.488,7.488,0,0,0-2.162-3.12,5.511,5.511,0,0,0-3.917-1.416c-3.078.282-4.99,3.032-5.292,5.929a5.976,5.976,0,0,0,.863,3.747,5.946,5.946,0,0,0,3.165,2.425,5.1,5.1,0,0,0,3.949-.366,5.03,5.03,0,0,0,2.326-2.974,4.591,4.591,0,0,0-.98-4.38,4.781,4.781,0,0,0-3.834-1.47,5.459,5.459,0,0,0-2.307.668,5.71,5.71,0,0,0-1.8,1.7,6.807,6.807,0,0,0-1.162,3.877,2.422,2.422,0,0,0,2.4,2.4,2.442,2.442,0,0,0,2.4-2.4,6.154,6.154,0,0,1,.044-.656l-.086.638a5.063,5.063,0,0,1,.312-1.165l-.243.573a4.377,4.377,0,0,1,.482-.845l-.375.486a3.718,3.718,0,0,1,.6-.614l-.485.375a3.06,3.06,0,0,1,.6-.354l-.573.242a3.223,3.223,0,0,1,.741-.2l-.638.085a3.306,3.306,0,0,1,.767,0l-.639-.085a2.965,2.965,0,0,1,.639.169l-.572-.242a2.507,2.507,0,0,1,.56.328l-.485-.375a2.422,2.422,0,0,1,.328.333l-.374-.486a2.358,2.358,0,0,1,.235.392l-.241-.574a2.365,2.365,0,0,1,.163.6l-.086-.637a2.812,2.812,0,0,1,0,.536l.086-.637a3.057,3.057,0,0,1-.186.7l.241-.573a3.047,3.047,0,0,1-.37.634l.375-.486a2.935,2.935,0,0,1-.453.451l.485-.375a2.675,2.675,0,0,1-.473.277l.572-.242a2.812,2.812,0,0,1-.662.178l.637-.085a3.117,3.117,0,0,1-.688,0l.638.086a3.534,3.534,0,0,1-.863-.24l.572.242a3.855,3.855,0,0,1-.694-.408l.484.374a3.684,3.684,0,0,1-.64-.642l.375.486a3.721,3.721,0,0,1-.375-.651l.241.574a4.252,4.252,0,0,1-.272-1l.086.637a4.737,4.737,0,0,1,.012-1.164l-.085.638a5.228,5.228,0,0,1,.31-1.133l-.241.573a4.968,4.968,0,0,1,.632-1.086l-.374.486a4.152,4.152,0,0,1,.631-.633l-.486.375a3.326,3.326,0,0,1,.666-.391l-.574.242a2.937,2.937,0,0,1,.64-.17l-.638.085a2.954,2.954,0,0,1,.645,0l-.639-.086a3.322,3.322,0,0,1,.723.2l-.572-.242a4.285,4.285,0,0,1,.854.509l-.485-.375a5.412,5.412,0,0,1,.876.9l-.376-.486a5.655,5.655,0,0,1,.669,1.165l-.241-.573a5.354,5.354,0,0,1,.328,1.185l-.085-.638a4.269,4.269,0,0,1,.016.98l.086-.637a3.314,3.314,0,0,1-.184.718l.241-.573a2.888,2.888,0,0,1-.312.556l.375-.486a3.056,3.056,0,0,1-.5.5l.485-.375a4.269,4.269,0,0,1-.844.481l.572-.242a5.551,5.551,0,0,1-1.342.369l.638-.085a5.235,5.235,0,0,1-1.268,0l.639.085a4.507,4.507,0,0,1-1.1-.3l.573.242a3.974,3.974,0,0,1-.765-.453l.485.375a3.732,3.732,0,0,1-.571-.581l.375.486a3.805,3.805,0,0,1-.456-.8l.241.573a3.6,3.6,0,0,1-.214-.78l.087.638a3.259,3.259,0,0,1-.006-.8l-.086.638a2.976,2.976,0,0,1,.187-.674l-.241.573a2.641,2.641,0,0,1,.274-.47l-.375.486a2.833,2.833,0,0,1,.438-.438l-.484.375a2.973,2.973,0,0,1,.617-.355l-.574.242a3.088,3.088,0,0,1,.686-.182l-.639.085a2.832,2.832,0,0,1,.611,0l-.638-.085a2.348,2.348,0,0,1,.579.156l-.572-.242a2.383,2.383,0,0,1,.375.217l-.485-.375c.047.035.092.073.137.112a2.547,2.547,0,0,0,1.7.7,2.438,2.438,0,0,0,1.7-.7,2.428,2.428,0,0,0,0-3.393Z" transform="translate(14779.893 6313.883)"/><path d="M-13688.073-166.319a4.723,4.723,0,0,0-4.035-1.1,4.738,4.738,0,0,0-2.8,1.593,5.132,5.132,0,0,0-1.072,4.275,5.555,5.555,0,0,0,1.7,3.086,6.95,6.95,0,0,0,7.755.786,5.041,5.041,0,0,0,2.668-3.276,6.362,6.362,0,0,0-.288-3.755,7.5,7.5,0,0,0-2.162-3.12,5.511,5.511,0,0,0-3.917-1.416c-3.078.283-4.99,3.032-5.292,5.929a5.968,5.968,0,0,0,.863,3.747,5.949,5.949,0,0,0,3.166,2.425,5.1,5.1,0,0,0,3.948-.366,5.034,5.034,0,0,0,2.326-2.974,4.59,4.59,0,0,0-.981-4.379,4.778,4.778,0,0,0-3.833-1.471,5.463,5.463,0,0,0-2.308.668,5.707,5.707,0,0,0-1.8,1.7,6.816,6.816,0,0,0-1.163,3.878,2.424,2.424,0,0,0,2.4,2.4,2.444,2.444,0,0,0,2.4-2.4,5.879,5.879,0,0,1,.044-.656l-.086.637a5.014,5.014,0,0,1,.312-1.165l-.242.573a4.369,4.369,0,0,1,.48-.845l-.375.486a3.675,3.675,0,0,1,.6-.613l-.485.374a3.068,3.068,0,0,1,.6-.354l-.573.242a3.212,3.212,0,0,1,.741-.2l-.638.085a3.3,3.3,0,0,1,.767,0l-.639-.085a2.966,2.966,0,0,1,.639.169l-.573-.242a2.49,2.49,0,0,1,.561.328l-.484-.375a2.488,2.488,0,0,1,.328.334l-.375-.486a2.312,2.312,0,0,1,.235.391l-.241-.573a2.307,2.307,0,0,1,.162.6l-.086-.637a2.734,2.734,0,0,1,0,.536l.087-.637a3.058,3.058,0,0,1-.186.7l.241-.573a3.109,3.109,0,0,1-.37.634l.375-.486a2.935,2.935,0,0,1-.453.451l.485-.375a2.674,2.674,0,0,1-.473.277l.572-.242a2.811,2.811,0,0,1-.662.178l.638-.085a3.185,3.185,0,0,1-.689,0l.637.085a3.539,3.539,0,0,1-.862-.24l.572.242a3.855,3.855,0,0,1-.694-.408l.485.375a3.7,3.7,0,0,1-.641-.643l.375.486a3.656,3.656,0,0,1-.374-.651l.241.574a4.163,4.163,0,0,1-.273-1l.086.637a4.689,4.689,0,0,1,.013-1.164l-.087.638a5.285,5.285,0,0,1,.311-1.133l-.241.573a4.93,4.93,0,0,1,.632-1.086l-.374.486a4.144,4.144,0,0,1,.63-.633l-.485.375a3.327,3.327,0,0,1,.666-.391l-.574.242a2.992,2.992,0,0,1,.64-.17l-.638.085a2.945,2.945,0,0,1,.644,0l-.638-.085a3.267,3.267,0,0,1,.723.2l-.573-.242a4.264,4.264,0,0,1,.855.509l-.485-.375a5.41,5.41,0,0,1,.876.9l-.376-.486a5.637,5.637,0,0,1,.669,1.166l-.242-.574a5.318,5.318,0,0,1,.329,1.185l-.085-.638a4.163,4.163,0,0,1,.015.98l.087-.637a3.315,3.315,0,0,1-.184.718l.242-.573a2.892,2.892,0,0,1-.313.556l.375-.486a3.056,3.056,0,0,1-.5.5l.485-.375a4.3,4.3,0,0,1-.844.481l.573-.242a5.582,5.582,0,0,1-1.343.369l.638-.085a5.235,5.235,0,0,1-1.268,0l.638.085a4.488,4.488,0,0,1-1.1-.3l.573.242a3.975,3.975,0,0,1-.765-.453l.485.375a3.64,3.64,0,0,1-.57-.581l.374.486a3.853,3.853,0,0,1-.457-.8l.242.573a3.6,3.6,0,0,1-.214-.78l.085.638a3.358,3.358,0,0,1,0-.8l-.086.638a2.975,2.975,0,0,1,.187-.674l-.241.573a2.583,2.583,0,0,1,.274-.47l-.375.486a2.757,2.757,0,0,1,.438-.438l-.485.375a3.019,3.019,0,0,1,.616-.355l-.573.242a3.087,3.087,0,0,1,.686-.182l-.638.085a2.83,2.83,0,0,1,.611,0l-.639-.085a2.358,2.358,0,0,1,.579.156l-.572-.242a2.384,2.384,0,0,1,.375.217l-.485-.375c.047.035.093.073.136.112a2.552,2.552,0,0,0,1.7.7,2.438,2.438,0,0,0,1.7-.7,2.427,2.427,0,0,0,0-3.392Z" transform="translate(14778.891 6312.881)"/><path d="M-13296.359-238.692a5.308,5.308,0,0,0-2.2,1.971,2.857,2.857,0,0,0-.205.39,4.919,4.919,0,0,0-.361.967,4.725,4.725,0,0,0,.006,2.029,4.222,4.222,0,0,0,1.91,2.637,4.136,4.136,0,0,0,.881.384,1.464,1.464,0,0,0,.209.049,4.508,4.508,0,0,0,.826.1,3.972,3.972,0,0,0,.957-.131,5.352,5.352,0,0,0,.728-.295,1.8,1.8,0,0,0,.22-.109,3.915,3.915,0,0,0,.8-.628,3.835,3.835,0,0,0,.621-.832,3.622,3.622,0,0,0,.324-2.613,2.464,2.464,0,0,0-1.1-1.434,2.452,2.452,0,0,0-1.848-.242,2.423,2.423,0,0,0-1.434,1.1,2.538,2.538,0,0,0-.242,1.849,1.443,1.443,0,0,1,.03.157l-.085-.637a1.22,1.22,0,0,1,0,.26l.085-.638a1.337,1.337,0,0,1-.086.3l.242-.573a1.635,1.635,0,0,1-.163.272l.374-.486a1.73,1.73,0,0,1-.265.268l.485-.375a1.769,1.769,0,0,1-.376.218l.572-.242a1.6,1.6,0,0,1-.312.085l.638-.085a1.455,1.455,0,0,1-.323,0l.639.085a1.559,1.559,0,0,1-.359-.1l.573.242a1.711,1.711,0,0,1-.314-.184l.486.374a1.866,1.866,0,0,1-.3-.294l.375.486a2.1,2.1,0,0,1-.27-.461l.242.574a2.239,2.239,0,0,1-.139-.52l.086.637a2.046,2.046,0,0,1,0-.483l-.086.638a2.382,2.382,0,0,1,.139-.506l-.242.573a2.741,2.741,0,0,1,.324-.559l-.374.486a3.219,3.219,0,0,1,.549-.546l-.485.375a3.548,3.548,0,0,1,.67-.4,2.4,2.4,0,0,0,1.1-1.434,2.448,2.448,0,0,0-.241-1.848,2.418,2.418,0,0,0-1.433-1.1l-.638-.085a2.39,2.39,0,0,0-1.212.327Z" transform="translate(14762.822 6315.705)"/><path d="M-13700.455-221.422c15.134.971,30.4.65,45.549.441q5.486-.075,10.972-.194a1.2,1.2,0,0,0,0-2.4c-15.18.336-30.381.509-45.562.178-3.654-.08-7.31-.191-10.958-.425-1.542-.1-1.535,2.3,0,2.4Z" transform="translate(14779.115 6315.09)"/><path d="M-13335.64-225.828a7.158,7.158,0,0,0-5.255-1.869,3.173,3.173,0,0,0-.615.133,5.43,5.43,0,0,1,.169,1.62c-.186,4.561-.808,9.22-.854,13.836.031,0,.062,0,.094,0,3.169-.351,6.4-1.729,8.084-4.59A7.267,7.267,0,0,0-13335.64-225.828Zm-4.54,5.477c0,.025.008.053.008.073,0,.037-.007.086-.012.134l-.011.034a.425.425,0,0,1,.013-.247Zm-.1-.321c.019.064.029.122.054.188a.435.435,0,0,1-.067-.209Zm-.424-.4a.186.186,0,0,1-.046-.029A.22.22,0,0,0-13340.7-221.068Z" transform="translate(14764.562 6315.248)"/><path d="M-13307.658-224.1a4.724,4.724,0,0,0-4.036-1.1,4.745,4.745,0,0,0-2.8,1.592,5.134,5.134,0,0,0-1.071,4.276,5.554,5.554,0,0,0,1.7,3.086,6.952,6.952,0,0,0,7.756.786,5.043,5.043,0,0,0,2.668-3.276,6.361,6.361,0,0,0-.289-3.755,7.5,7.5,0,0,0-2.161-3.121,5.516,5.516,0,0,0-3.917-1.415c-3.078.282-4.99,3.031-5.292,5.929a5.97,5.97,0,0,0,.862,3.747,5.956,5.956,0,0,0,3.166,2.425,5.1,5.1,0,0,0,3.949-.366,5.028,5.028,0,0,0,2.325-2.974,4.59,4.59,0,0,0-.98-4.38,4.782,4.782,0,0,0-3.835-1.471,5.468,5.468,0,0,0-2.306.669,5.707,5.707,0,0,0-1.8,1.7,6.808,6.808,0,0,0-1.163,3.877,2.423,2.423,0,0,0,2.4,2.4,2.444,2.444,0,0,0,2.4-2.4,5.909,5.909,0,0,1,.044-.656l-.086.638a5.048,5.048,0,0,1,.311-1.165l-.241.573a4.326,4.326,0,0,1,.48-.846l-.375.486a3.71,3.71,0,0,1,.6-.613l-.485.375a3.142,3.142,0,0,1,.6-.355l-.573.242a3.23,3.23,0,0,1,.742-.2l-.638.085a3.244,3.244,0,0,1,.766,0l-.638-.085a2.971,2.971,0,0,1,.638.168l-.572-.242a2.606,2.606,0,0,1,.562.329l-.485-.375a2.482,2.482,0,0,1,.328.333l-.375-.486a2.389,2.389,0,0,1,.235.391l-.243-.573a2.289,2.289,0,0,1,.164.6l-.086-.638a2.822,2.822,0,0,1,0,.537l.086-.638a3.016,3.016,0,0,1-.186.7l.242-.573a3.148,3.148,0,0,1-.37.633l.375-.485a2.894,2.894,0,0,1-.454.45l.485-.375a2.631,2.631,0,0,1-.472.277l.572-.242a2.779,2.779,0,0,1-.662.178l.638-.085a3.194,3.194,0,0,1-.69,0l.637.085a3.506,3.506,0,0,1-.862-.239l.573.242a3.772,3.772,0,0,1-.694-.409l.485.375a3.694,3.694,0,0,1-.642-.642l.375.486a3.815,3.815,0,0,1-.374-.651l.242.573a4.2,4.2,0,0,1-.273-1l.086.638a4.688,4.688,0,0,1,.013-1.164l-.088.637a5.3,5.3,0,0,1,.312-1.132l-.242.573a4.9,4.9,0,0,1,.633-1.087l-.375.486a4.152,4.152,0,0,1,.631-.633l-.485.375a3.388,3.388,0,0,1,.665-.391l-.573.242a2.883,2.883,0,0,1,.64-.17l-.638.085a2.946,2.946,0,0,1,.644,0l-.638-.086a3.321,3.321,0,0,1,.723.2l-.574-.242a4.124,4.124,0,0,1,.855.509l-.485-.375a5.366,5.366,0,0,1,.876.9l-.375-.486a5.707,5.707,0,0,1,.669,1.166l-.242-.573a5.362,5.362,0,0,1,.329,1.184l-.085-.637a4.215,4.215,0,0,1,.015.98l.086-.638a3.3,3.3,0,0,1-.183.718l.242-.573a2.933,2.933,0,0,1-.314.557l.376-.486a3.088,3.088,0,0,1-.5.5l.485-.375a4.387,4.387,0,0,1-.845.482l.573-.242a5.583,5.583,0,0,1-1.343.369l.639-.086a5.237,5.237,0,0,1-1.268,0l.638.085a4.518,4.518,0,0,1-1.1-.3l.573.242a3.994,3.994,0,0,1-.765-.453l.485.375a3.688,3.688,0,0,1-.571-.581l.374.486a3.893,3.893,0,0,1-.456-.8l.242.573a3.612,3.612,0,0,1-.214-.78l.085.637a3.351,3.351,0,0,1,0-.8l-.085.638a2.933,2.933,0,0,1,.187-.675l-.242.573a2.618,2.618,0,0,1,.276-.469l-.376.486a2.715,2.715,0,0,1,.438-.438l-.485.375a3.011,3.011,0,0,1,.615-.355l-.572.242a3.03,3.03,0,0,1,.685-.183l-.637.086a2.762,2.762,0,0,1,.61,0l-.638-.086a2.448,2.448,0,0,1,.58.157l-.573-.242a2.31,2.31,0,0,1,.375.217l-.485-.375a1.643,1.643,0,0,1,.136.112,2.556,2.556,0,0,0,1.7.7,2.438,2.438,0,0,0,1.7-.7,2.43,2.43,0,0,0,0-3.393Z" transform="translate(14763.487 6315.22)"/><path d="M-13321.91-203.469c-2.451-1.474-5.635.41-6.211,3.045a5.551,5.551,0,0,0,.473,3.662,6.273,6.273,0,0,0,2.119,2.346,5.571,5.571,0,0,0,6.031.215,6.367,6.367,0,0,0,2.848-5.055,5.778,5.778,0,0,0-2.66-5.168,6.471,6.471,0,0,0-5.547-.594,6.134,6.134,0,0,0-2.586,1.68,6.472,6.472,0,0,0-1.543,3.71,5.52,5.52,0,0,0,3.871,5.657,5.114,5.114,0,0,0,4.105-.512,9.884,9.884,0,0,0,2.715-2.717,6,6,0,0,0,1.16-3.109,3.515,3.515,0,0,0-.437-2,3.569,3.569,0,0,0-1.971-1.553,2.368,2.368,0,0,0-2.334.617,15.607,15.607,0,0,1-1.271,1.111l.486-.375a15.183,15.183,0,0,1-3.088,1.844,2.4,2.4,0,0,0-1.1,1.434,2.454,2.454,0,0,0,.242,1.849,2.421,2.421,0,0,0,1.434,1.1l.639.085a2.379,2.379,0,0,0,1.209-.327,16.857,16.857,0,0,0,4.846-3.331l-2.334.617.068.026-.572-.242a1.291,1.291,0,0,1,.234.136l-.486-.375a1.23,1.23,0,0,1,.133.133l-.375-.486a1.153,1.153,0,0,1,.127.213l-.242-.573a1.431,1.431,0,0,1,.084.312l-.086-.638a2.235,2.235,0,0,1-.008.5l.086-.638a3.71,3.71,0,0,1-.242.841l.242-.574a5.4,5.4,0,0,1-.705,1.146l.375-.486a8.279,8.279,0,0,1-1.322,1.413l.486-.375a3.937,3.937,0,0,1-.762.462l.574-.242a3.045,3.045,0,0,1-.742.208l.639-.086a2.97,2.97,0,0,1-.633,0l.637.085a3.205,3.205,0,0,1-.787-.213l.572.242a3.5,3.5,0,0,1-.709-.419l.484.375a3.554,3.554,0,0,1-.52-.518l.375.486a3.251,3.251,0,0,1-.381-.637l.242.574a3.551,3.551,0,0,1-.236-.87l.086.637a3.9,3.9,0,0,1,.006-.9l-.086.638a4.136,4.136,0,0,1,.264-.977l-.242.573a4.088,4.088,0,0,1,.512-.872l-.375.486a3.819,3.819,0,0,1,.584-.576l-.486.375a4.118,4.118,0,0,1,.846-.491l-.574.242a4.555,4.555,0,0,1,1.109-.3l-.637.085a4.646,4.646,0,0,1,1.148.006l-.637-.086a4.4,4.4,0,0,1,1.021.279l-.574-.242a3.765,3.765,0,0,1,.77.443l-.484-.375a3.648,3.648,0,0,1,.582.571l-.375-.486a3.392,3.392,0,0,1,.43.729l-.242-.573a3.747,3.747,0,0,1,.236.886l-.086-.638a4.256,4.256,0,0,1-.006,1.08l.084-.638a4.317,4.317,0,0,1-.289,1.045l.24-.573a4.1,4.1,0,0,1-.5.861l.375-.486a3.708,3.708,0,0,1-.588.594l.486-.375a3.268,3.268,0,0,1-.723.422l.574-.242a3.2,3.2,0,0,1-.721.193l.635-.085a3.354,3.354,0,0,1-.76,0l.639.085a3.756,3.756,0,0,1-.9-.24l.572.242a4.292,4.292,0,0,1-.891-.519l.484.375a4.241,4.241,0,0,1-.725-.73l.375.486a3.894,3.894,0,0,1-.43-.729l.242.573a3.4,3.4,0,0,1-.229-.8l.086.637a3.014,3.014,0,0,1,0-.762l-.086.638a2.506,2.506,0,0,1,.164-.583l-.24.573a2.751,2.751,0,0,1,.316-.532l-.375.486a3,3,0,0,1,.428-.439l-.484.375a2.486,2.486,0,0,1,.5-.3l-.572.242a2.1,2.1,0,0,1,.385-.112l-.637.086a1.6,1.6,0,0,1,.389-.008l-.637-.085a1.678,1.678,0,0,1,.307.08l-.574-.242a1.843,1.843,0,0,1,.221.115,2.428,2.428,0,0,0,3.283-.861,2.447,2.447,0,0,0-.861-3.282Z" transform="translate(14764.027 6314.342)"/><path d="M-13337.83-180.584a2.925,2.925,0,0,1,.317.008l-.637-.085c.133.018.267.074.4.088-.414-.186-.511-.227-.295-.124a1.984,1.984,0,0,1,.177.1c.325.178-.491-.454-.088-.051.373.37-.147-.263-.067-.122.063.11.142.211.2.321.289.523-.136-.449-.013-.068a4.85,4.85,0,0,1,.212.871l-.086-.637a4.042,4.042,0,0,1,0,.883l.085-.637a6.415,6.415,0,0,1-.289,1.169,1.347,1.347,0,0,0-.125.332c0-.079.218-.486.076-.178-.089.195-.18.391-.274.583-.442.9-.89,1.784-1.279,2.71a2.191,2.191,0,0,0,.121,1.562,2.294,2.294,0,0,0,.981,1.148,2.458,2.458,0,0,0,2.907-.375,8.625,8.625,0,0,0-.259-11.985,2.418,2.418,0,0,0-3.15-.187,2.434,2.434,0,0,0-.617,3.094q.256.545.5,1.1c.13.292-.023-.042-.062-.151.034.1.078.189.116.284q.127.321.245.646a12.12,12.12,0,0,1,.613,2.4l-.085-.637a7.387,7.387,0,0,1,.021,1.725l.086-.638a5.912,5.912,0,0,1-.153.77c-.032.115-.071.228-.107.344-.139.436.228-.485.015-.034a2.57,2.57,0,0,0-.241,1.849,2.44,2.44,0,0,0,1.1,1.434,2.428,2.428,0,0,0,3.281-.861,9.014,9.014,0,0,0,.613-5.81,21.516,21.516,0,0,0-1.8-4.842l-3.769,2.907c.112.1.222.208.324.32.065.068.121.147.188.212.188.185-.307-.441-.166-.218a9.458,9.458,0,0,1,.5.818c.022.044.1.155.1.2,0-.017-.222-.576-.111-.26.049.143.1.284.146.429a6.7,6.7,0,0,1,.216,1l-.085-.638a7.056,7.056,0,0,1,.007,1.7l.086-.638a6.752,6.752,0,0,1-.179.89c-.039.145-.085.29-.137.432-.186.52.134-.253.051-.1-.139.248-.253.5-.409.74-.043.063-.085.125-.129.186q-.215.292.168-.216c-.107.1-.2.23-.3.338l4.01,2.334c-.3.715.063-.109.146-.276.116-.238.236-.473.356-.709.239-.469.472-.94.68-1.425a7.563,7.563,0,0,0,.8-3.727,6.27,6.27,0,0,0-1.51-3.6,4.488,4.488,0,0,0-3.41-1.5,2.431,2.431,0,0,0-2.4,2.4,2.434,2.434,0,0,0,2.4,2.4Z" transform="translate(14764.482 6313.548)"/><path d="M-13296.637-188.917a5.64,5.64,0,0,0-5.08,3.381,6.262,6.262,0,0,0-.618,3.141,6.022,6.022,0,0,0,1.451,3.409,6.744,6.744,0,0,0,5.567,2.144,7.245,7.245,0,0,0,3.165-.968,6.339,6.339,0,0,0,2.65-3.163c.982-2.59-.526-5.283-2.637-6.757a7.132,7.132,0,0,0-7.105-.368,5.594,5.594,0,0,0-2.453,2.439,6.381,6.381,0,0,0-.587,3.889,5.045,5.045,0,0,0,5.018,4.2,5.338,5.338,0,0,0,3.568-1.393,4.112,4.112,0,0,0,1.192-4.2,3.254,3.254,0,0,0-2.432-2.173,7.155,7.155,0,0,0-2.357-.058,6.983,6.983,0,0,0-3.959,1.946,2.423,2.423,0,0,0,0,3.392,2.444,2.444,0,0,0,3.393,0c.087-.085.179-.165.27-.249.321-.3-.5.345-.045.047a4.919,4.919,0,0,1,.7-.376l-.572.242a5.19,5.19,0,0,1,1.173-.333l-.638.085a4.933,4.933,0,0,1,1.219-.013l-.639-.085a2.824,2.824,0,0,1,.482.106l-.574-.242c.227.113.161.048-.193-.194q-.381-.556-.21-.246l-.242-.573a1.336,1.336,0,0,1,.081.287l-.085-.638a2.019,2.019,0,0,1,0,.414l.085-.638a2.278,2.278,0,0,1-.105.386l.241-.573a3.343,3.343,0,0,1-.182.352c-.183.321.139-.224.193-.243-.047.016-.115.119-.15.155-.068.071-.271.22.078-.048s.122-.094.03-.036a2.928,2.928,0,0,1-.391.2l.573-.242a3.282,3.282,0,0,1-.776.2l.639-.085a3.4,3.4,0,0,1-.809-.006l.638.086a3.175,3.175,0,0,1-.689-.189l.573.242c-.123-.055-.237-.12-.355-.185-.325-.18.21.131.232.191-.019-.05-.131-.122-.17-.158-.07-.065-.236-.285.017.048.264.349.061.08.007-.008a3.177,3.177,0,0,1-.232-.455l.241.573a3.608,3.608,0,0,1-.2-.8l.085.638a4.013,4.013,0,0,1,.009-.937l-.085.637a4.149,4.149,0,0,1,.248-.912l-.242.573a4.014,4.014,0,0,1,.295-.557c.055-.086.261-.359,0-.012s-.019.042.055-.032a2.259,2.259,0,0,0,.206-.189c-.3.381-.371.268-.123.1a4.3,4.3,0,0,1,.594-.319l-.572.242a4.758,4.758,0,0,1,1.2-.321l-.638.085a5.348,5.348,0,0,1,1.257.011l-.638-.085a5.263,5.263,0,0,1,1.215.329l-.573-.242a4.561,4.561,0,0,1,.662.348c.05.031.1.063.146.1.2.143.128.088-.208-.164.077.084.18.154.263.232s.165.165.242.251c.052.059.1.117.15.178l-.236-.3c.16.077.329.547.4.692l-.242-.573a3.678,3.678,0,0,1,.248.854l-.087-.638a3.161,3.161,0,0,1,0,.774l.086-.638a3.324,3.324,0,0,1-.184.672l.241-.573c-.1.217-.259.41-.348.624q.387-.485.151-.2l-.081.089a3.939,3.939,0,0,1-.3.295c-.383.335.313-.211.106-.078-.087.056-.169.115-.257.168a4.549,4.549,0,0,1-.573.287l.573-.242a5.108,5.108,0,0,1-1.143.305l.637-.085a5.364,5.364,0,0,1-1.381,0l.638.085a5.117,5.117,0,0,1-1.224-.343l.575.242a4.423,4.423,0,0,1-.6-.317c-.081-.052-.156-.111-.236-.164.638.412.317.251.154.1-.081-.077-.16-.157-.235-.241-.15-.171-.2-.421.135.182-.11-.2-.238-.376-.333-.585l.241.573a3.5,3.5,0,0,1-.227-.806l.085.638a4,4,0,0,1,0-1.025l-.085.637a4.567,4.567,0,0,1,.276-1l-.242.573a4.5,4.5,0,0,1,.3-.585c.056-.089.322-.446.024-.065s-.021.034.049-.042.129-.132.2-.2c.4-.368-.446.292-.131.088a4.087,4.087,0,0,1,.549-.309l-.573.242a3.07,3.07,0,0,1,.7-.2l-.639.085a3.288,3.288,0,0,1,.466-.027,2.423,2.423,0,0,0,2.4-2.4,2.444,2.444,0,0,0-2.4-2.4Z" transform="translate(14762.949 6313.676)"/><path d="M-13310.017-156.165a4.736,4.736,0,0,0-4.353-.49,5.173,5.173,0,0,0-3.306,3.58,6.05,6.05,0,0,0,.86,4.748,6.989,6.989,0,0,0,4.072,2.8,8.555,8.555,0,0,0,4.732-.153,6.68,6.68,0,0,0,3.921-3.148,5.79,5.79,0,0,0,.064-5.267,5.223,5.223,0,0,0-4.243-2.631,5.3,5.3,0,0,0-4.547,1.907,6.413,6.413,0,0,0-1.262,5.536,2.419,2.419,0,0,0,2.951,1.675,2.453,2.453,0,0,0,1.676-2.951c-.053-.224-.018-.549,0,.146,0-.083-.017-.167-.02-.25,0-.126,0-.25,0-.376-.007-.391-.047.255-.047.264a1.913,1.913,0,0,1,.144-.609c.073-.229.271-.426-.061.109.065-.1.112-.223.176-.329.143-.239.327-.268-.093.081a1.954,1.954,0,0,0,.163-.185c.063-.067.183-.223.271-.254,0,0-.526.34-.186.154.05-.027.245-.184.3-.169.026.007-.629.212-.254.11.11-.03.223-.061.332-.094.4-.115-.62.029-.182.018.191,0,.388.015.577.009-.636.023-.471-.09-.241-.019.091.028.185.053.276.077.408.107-.441-.253-.2-.092a2.3,2.3,0,0,0,.249.136c.368.189-.354-.352-.166-.143a2.137,2.137,0,0,0,.282.279c-.392-.286-.272-.4-.162-.2s.142.471-.016-.121c.022.081.059.159.081.24.066.232.019.53.011-.141a4.788,4.788,0,0,0,0,.638c-.071-.441.092-.49.029-.255-.033.126-.048.4-.14.5,0,0,.285-.564.09-.215-.062.112-.129.225-.19.339-.1.195-.218.108.15-.171a3.477,3.477,0,0,0-.275.3c-.064.064-.133.124-.2.186-.358.333.478-.291.055-.045-.219.127-.431.251-.656.367-.287.149.588-.209.128-.059-.088.029-.174.059-.262.086-.222.067-.447.11-.673.162-.5.113.6-.047.091-.012-.091.007-.182.014-.272.019a7.844,7.844,0,0,1-.822-.013c-.508-.028.59.123.093.017-.089-.019-.179-.034-.268-.054-.224-.049-.438-.117-.656-.187-.472-.153.507.27.072.034-.078-.043-.161-.081-.239-.124-.119-.065-.229-.142-.346-.211-.37-.221.388.37.058.046-.148-.145-.295-.332-.45-.464.392.333.255.342.119.129-.057-.088-.109-.178-.158-.272-.036-.07-.212-.461-.036-.057s.018.012-.007-.067c-.029-.1-.056-.2-.076-.3-.116-.552.02.536.012.083,0-.083-.006-.164,0-.247s.006-.164.013-.247q-.1.651-.03.274c.023-.079.037-.159.062-.238a2.26,2.26,0,0,1,.081-.232q-.24.541-.113.293a1.184,1.184,0,0,0,.146-.242c-.205.5-.294.35-.1.149.176-.178.391-.217-.155.088.095-.053.181-.126.275-.18.222-.127.435-.1-.177.052.1-.026.206-.075.312-.1s.464-.081,0-.022c-.491.061.006.009.111.01.067,0,.146.014.214.011-.46-.072-.566-.083-.322-.036.068.016.137.036.2.058.223.057.095.187-.278-.121.107.088.251.148.363.233a2.406,2.406,0,0,0,1.848.242,2.449,2.449,0,0,0,1.435-1.1,2.43,2.43,0,0,0,.242-1.849,2.832,2.832,0,0,0-1.1-1.434Z" transform="translate(14763.575 6312.383)"/><path d="M-13464.428-301.178a67.6,67.6,0,0,0,4.156,22.553,23.7,23.7,0,0,0,2.776,5.492c.284.4,1.054.176.859-.363a46.383,46.383,0,0,1-2.614-11.874,43.282,43.282,0,0,1-.094-5.986,12.268,12.268,0,0,1,1.346-5.663l-.579-.157c.5,3.863,1.069,7.721,1.874,11.533.676,3.2,1.358,6.635,3.685,9.087a.487.487,0,0,0,.822-.341c-.229-2.663-.446-5.326-.684-7.987a50.3,50.3,0,0,1-.384-5.815l-.942.128a63.709,63.709,0,0,0,1.89,7.944,10.2,10.2,0,0,0,1.953,3.622c1.9,2.111,5.417.274,7.535-.469,3.044-1.069,6.207-1.791,9.174-3.07a24.379,24.379,0,0,0,8.772-6.159c.325-.375-.2-.914-.552-.551a25.9,25.9,0,0,1-7.223,5.223,70.985,70.985,0,0,1-8.928,3.122c-1.308.432-2.586.947-3.892,1.38-1.119.37-2.784.9-3.866.161a6.823,6.823,0,0,1-1.979-3.309,60,60,0,0,1-1.959-8.148c-.108-.545-.93-.4-.942.128a48.223,48.223,0,0,0,.35,5.815c.254,2.661.477,5.324.714,7.987l.821-.341c-2.254-2.363-2.918-5.774-3.623-8.85a103.345,103.345,0,0,1-1.994-11.088.314.314,0,0,0-.58-.156,12.248,12.248,0,0,0-1.467,5.423,45.484,45.484,0,0,0-.107,6.318,42.312,42.312,0,0,0,2.566,12.346l.859-.363a24.419,24.419,0,0,1-3.046-6.158,70.07,70.07,0,0,1-2.045-6.913,78.421,78.421,0,0,1-2.048-14.5.3.3,0,0,0-.605,0Z" transform="translate(14769.51 6318.233)" fill="#a8a8a8"/><path d="M-13424.6-272.786c5.2,8.465,16.873,9.252,25.791,9.417,13.189.243,26.294-1.708,39.477-1.741,2.908-.008,6.78-.225,8.973,2.08a7.322,7.322,0,0,1,1.365,3.007c.355,1.088.69,2.163,1.117,3.222a1.432,1.432,0,0,0,2.8-.379,8.307,8.307,0,0,0-.572-3.114,21.211,21.211,0,0,0-1.021-3.069,8.385,8.385,0,0,0-5.989-4.226c-3.067-.6-6.391-.285-9.493-.173-3.375.122-6.744.328-10.111.569-6.654.477-13.3,1.086-19.97,1.315a86.905,86.905,0,0,1-17.365-.713c-5.177-.874-10.662-2.792-14.34-6.705a.421.421,0,0,0-.659.509Z" transform="translate(14767.899 6317.098)"/><path d="M-13421.6-270.71c1.43-.6,2.585-1.643,4.227-1.715,2.064-.091,4.255.6,6.27.988l5.892,1.146a34.242,34.242,0,0,1,6.03,1.252l-.562-.432a6.078,6.078,0,0,1,.374,1.9,14.431,14.431,0,0,0,.424,2.093c.309.941,1.842.833,1.8-.243a21.766,21.766,0,0,0-.652-3.829c-.278-1.217-.983-1.374-2.143-1.6-2.95-.581-5.9-1.183-8.844-1.774-2.7-.542-5.593-1.469-8.361-1.457-2.016.008-4.569.85-5.207,2.922-.125.409.316.941.756.756Z" transform="translate(14767.808 6317.137)"/><path d="M-13600.663-312.576c1.323-1.654,2.739-3.284,4.137-4.881,1.424-1.626,2.889-3.186,4.456-4.676,2.729-2.594,6.725-5.011,10.614-3.655a4.958,4.958,0,0,1,1.321.688c-.2-.145.189.167.241.224s.225.273,0-.026a3.967,3.967,0,0,1,.5.957c1.021,2.668.863,5.849.757,8.65-.214,5.558-.768,11.31,2.041,16.375a12.433,12.433,0,0,0,5.722,5.44,13.313,13.313,0,0,0,4.938,1.036,17.883,17.883,0,0,0,2.389-.061c.881-.091,1.718-.428,2.593-.577,1.785-.3,1.364-3.226-.428-3.151-.738.032-1.435-.085-2.165-.11s-1.449.083-2.173.068a8.745,8.745,0,0,1-4.166-.982,9.725,9.725,0,0,1-4.1-5.093c-2.144-5.663-.812-11.979-1.524-17.861-.269-2.211-.629-5.033-2.286-6.693a7.117,7.117,0,0,0-3.108-1.655c-4.06-1.137-8.185.567-11.321,3.121a29.2,29.2,0,0,0-5.506,6.033c-1.393,2.025-2.252,4.314-3.436,6.446-.166.3.264.672.5.382Z" transform="translate(14775.047 6319.346)"/><path d="M-13554.07-333.279c.516,3.182-.82,6.818-1.793,9.817a38.185,38.185,0,0,0-2.121,9.327,11.184,11.184,0,0,0,.55,4.773c.631,1.55,2.033,2.361,3.414,3.179,1.235.734,2.712,1.445,3.471,2.729a2,2,0,0,1-.769,2.87c-1.317.593-.546,2.491.688,2.543,4.128.175,4.979-4.746,3.078-7.591a11.759,11.759,0,0,0-4.261-3.532,7.751,7.751,0,0,1-2.122-1.279,4.308,4.308,0,0,1-.612-2.213c-.409-3.552.673-7.036,1.327-10.487a29.674,29.674,0,0,0,.681-5.308,20.932,20.932,0,0,0-.751-5.042c-.124-.515-.862-.288-.78.215Z" transform="translate(14773.3 6319.542)"/><path d="M-13522.857-303.881s-7.543,6.237-6.8,22.548,8.715,21.668,8.715,21.668a106.548,106.548,0,0,1-26.679-1.892c-13.433-2.879-15.352-10.874-16.951-13.646s-6.808-5.261-2.764-10.679,7.241-6.592,13.1-10.536,8-3.518,8.315-6.184.72-1.252,5.624-.72S-13522.857-303.881-13522.857-303.881Z" transform="translate(14773.737 6318.344)"/><path d="M-13546.256-306.2c.8,2.8-1.919,4.4-1.919,4.4l-2.559.48s-3.438,6.4-12.234,6-7.383.907-5.863,1.546-3.491,1.013-4.691,5.171-.239,6.237,2.159,7.756,4.318.96,5.6-1.2,4.159-9.435,4.159-9.435,11.354-2.239,12.633-2.8,5.517-3.918,4.8-7.036A13.556,13.556,0,0,0-13546.256-306.2Z" transform="translate(14773.949 6318.426)"/><path d="M-13571.14-293.211a72.452,72.452,0,0,0-3.2,8.156c-.479,2.159-2.185-.693-3.3-2.132s-3.758-3.838-3.358-5.677S-13572.659-295.769-13571.14-293.211Z" transform="translate(14774.232 6317.961)"/><path d="M-13516.214-299.1a6.043,6.043,0,0,0-7.668-2.067c-2.964,1.519-4.525,4.959-5.405,8a47.975,47.975,0,0,0-1.424,11.347,26.711,26.711,0,0,0,.266,5.969,36.853,36.853,0,0,0,1.491,5.723c1.218,3.434,3.655,7.068,7.643,7.266a.245.245,0,0,0,.064-.479c-3.092-.8-5.242-3.416-6.392-6.27a36.1,36.1,0,0,1-1.48-4.959,22.484,22.484,0,0,1-.674-5.461,60.7,60.7,0,0,1,.7-10.441c.561-3.092,1.583-6.458,3.849-8.751a6.138,6.138,0,0,1,4.385-1.942,5.666,5.666,0,0,1,4.368,2.229c.118.167.4.01.278-.162Z" transform="translate(14772.195 6318.247)" fill="#a8a8a8"/><path d="M-13550.578-293.959a23.692,23.692,0,0,1,6.373-4.427l-.255-.2c-.444,1.355-1.652,2.256-2.246,3.531a2.24,2.24,0,0,0-.24,1.641c.217.484.726.363,1.094.136,1.354-.836,2.2-2.342,3.291-3.461a17.954,17.954,0,0,1,4.336-3.25l-.319-.183c-.088.77-.771,1.292-1.264,1.83q-.639.7-1.21,1.458c-.64.848-1.54,1.918-1.235,3.055a.242.242,0,0,0,.354.144c2.595-1.825,4.62-4.849,7.837-5.628l-.252-.328q-1.143,1.5-2.287,2.993a14.046,14.046,0,0,0-1.845,2.618c-.24.537-.5,1.536.085,1.968.675.5,1.459-.318,1.909-.745,1.546-1.466,2.76-3.276,4.465-4.575a10.509,10.509,0,0,1,2.7-1.486,14.53,14.53,0,0,1,3.095-.659c.36-.05.265-.626-.086-.626a10.214,10.214,0,0,0-4.874,1.455,16,16,0,0,0-3.919,3.484,26.793,26.793,0,0,1-1.916,2.022c-.243.225-1.048.984-1.069.23a2.687,2.687,0,0,1,.5-1.444c1.073-1.742,2.417-3.358,3.624-5.009.121-.165-.077-.374-.253-.328-3.292.866-5.239,3.837-7.961,5.644l.354.144a2.613,2.613,0,0,1,.689-1.978,19.1,19.1,0,0,1,1.253-1.686c.65-.78,1.587-1.486,1.726-2.552.022-.171-.192-.249-.318-.183a18.338,18.338,0,0,0-3.587,2.425,30.929,30.929,0,0,0-2.884,3.127c-.239.272-1.47,1.647-1.6.879-.094-.547.4-1.259.687-1.683a9.132,9.132,0,0,0,1.7-2.886.176.176,0,0,0-.255-.2,17.6,17.6,0,0,0-6.32,4.6.086.086,0,0,0,.122.122Z" transform="translate(14773.005 6318.189)" fill="#a8a8a8"/><path d="M-13569.338-281.112a15.579,15.579,0,0,1,.274-4.913,17.884,17.884,0,0,1,.686-2.273c.15-.415.306-.835.472-1.241.146-.357.354-.688.484-1.052.06-.172-.165-.265-.282-.164a6.679,6.679,0,0,0-1.44,2.048,10.292,10.292,0,0,0-.842,2.509,10.85,10.85,0,0,0,.17,5.151c.069.256.511.215.479-.065Z" transform="translate(14773.795 6317.801)" fill="#a8a8a8"/><path d="M-13573.881-287.515a3.059,3.059,0,0,0,0-.886,1.669,1.669,0,0,1,.119-.749,5.107,5.107,0,0,1,.32-.618,1.842,1.842,0,0,0,.334-.791l-.047.168a2.378,2.378,0,0,0,.24-.768.211.211,0,0,0-.357-.148c-.107.123-.2.258-.3.384a.94.94,0,0,1-.168.154,1.394,1.394,0,0,0-.205.246,4.249,4.249,0,0,0-.566.876c-.3.679-.426,1.793.291,2.27a.235.235,0,0,0,.342-.139Z" transform="translate(14773.978 6317.825)" fill="#a8a8a8"/><path d="M-13580.578-291.474a4.536,4.536,0,0,1,.569-.634c.209-.193.408-.4.621-.588.1-.091.207-.177.311-.266a1.783,1.783,0,0,0,.335-.308c.147-.225.432-.36.625-.544a.132.132,0,0,0-.127-.22c-.283.073-.518.265-.792.351a1.492,1.492,0,0,0-.426.279,3.479,3.479,0,0,0-.331.3,5.782,5.782,0,0,0-1.03,1.484.142.142,0,0,0,.245.144Z" transform="translate(14774.224 6317.933)" fill="#a8a8a8"/><path d="M-13666.911-259.369c13.112.16,21.508,4.238,24.067,6.556s1.679,4.718-1.6,9.276a30.661,30.661,0,0,0-4.478,9.435,13.263,13.263,0,0,1-7.037-1.119c-3.6-1.679-13.112-6.4-12.793-7.676S-13666.911-259.369-13666.911-259.369Z" transform="translate(14777.785 6316.529)"/><path d="M-13346.182-236.245q11.965-2.95,24.123-5.017c8.088-1.369,16.434-2.921,24.666-2.677l-.256-1.884a31.775,31.775,0,0,1-6.883,1.29q-3.4.484-6.793.994c-4.754.719-9.5,1.493-14.223,2.38a203.171,203.171,0,0,0-27.654,7.021.961.961,0,0,0,.512,1.851,426.4,426.4,0,0,1,55.6-9.315l-.254-1.885a8.5,8.5,0,0,1-1.857.178.96.96,0,0,0,0,1.919,10.956,10.956,0,0,0,2.367-.247c1.041-.22.83-1.993-.256-1.884a430.416,430.416,0,0,0-56.115,9.383l.512,1.851a202.933,202.933,0,0,1,27.652-7.021c4.65-.873,9.318-1.637,13.994-2.346q3.51-.531,7.021-1.028a31.754,31.754,0,0,0,6.883-1.291.964.964,0,0,0-.254-1.884c-8.242-.244-16.613,1.308-24.713,2.667q-12.384,2.078-24.586,5.095a.961.961,0,0,0,.51,1.851Z" transform="translate(14765.032 6315.983)"/><path d="M-13338.869-217.637c-1.188-1.309-3.192-.116-4.42.506a25.948,25.948,0,0,0-4.252,2.731c-1.217.954-2.6,2.263-1.8,3.947a4.175,4.175,0,0,0,3.238,1.947,22.62,22.62,0,0,0,6.276.087.99.99,0,0,0,.96-.96.973.973,0,0,0-.96-.96.726.726,0,0,1-.473-.123,1.568,1.568,0,0,1-.4-.372,2.891,2.891,0,0,1-.492-1.273,12.665,12.665,0,0,1,.007-1.961,8.025,8.025,0,0,0-.2-2.31.956.956,0,0,0-1.052-.687.976.976,0,0,0-.833.942,29.209,29.209,0,0,0,.066,6.9l1.885-.255a23.23,23.23,0,0,1-1.7-6.446.973.973,0,0,0-.832-.942.949.949,0,0,0-1.053.687l-.944,6h1.851a7.911,7.911,0,0,1-.374-3.846.988.988,0,0,0-.669-1.18.968.968,0,0,0-1.181.671,12.021,12.021,0,0,1-.97,3.117l1.754.74.655-2.555c.224-.87-.959-1.7-1.6-.934l-.781.931a.964.964,0,0,0,1.164,1.506,28.593,28.593,0,0,0,5.855-3.909l-1.639-.678.012,5.973,1.885-.255-.793-5.867c-.145-1.061-1.992-.822-1.886.254l.727,7.289a.986.986,0,0,0,.959.96.966.966,0,0,0,.96-.96l-.727-7.289-1.885.255.795,5.868a.948.948,0,0,0,1.053.687.959.959,0,0,0,.831-.942l-.011-5.973a.972.972,0,0,0-1.639-.678,26.631,26.631,0,0,1-5.467,3.609l1.161,1.507.782-.931-1.6-.934-.657,2.555c-.259,1.015,1.271,1.753,1.755.74a13.745,13.745,0,0,0,1.162-3.577l-1.85-.509a9.928,9.928,0,0,0,.373,4.866.989.989,0,0,0,.926.7.962.962,0,0,0,.925-.7l.943-6-1.884-.255a24.9,24.9,0,0,0,1.772,6.956.973.973,0,0,0,1.053.687.947.947,0,0,0,.832-.942,29.157,29.157,0,0,1-.065-6.9l-1.885.255c.41,1.592-.191,3.274.336,4.86a3.4,3.4,0,0,0,3.065,2.589v-1.919a22.024,22.024,0,0,1-4.455.123,5.83,5.83,0,0,1-3.069-.767.844.844,0,0,1-.139-.13.512.512,0,0,1-.1-.13,1.267,1.267,0,0,1-.072-.133c.015.032.03.082.012-.009-.007-.037-.028-.016-.014-.1.086-.519.678-.907,1.054-1.215a23.272,23.272,0,0,1,3.185-2.177q.993-.568,2.038-1.044a5.737,5.737,0,0,1,.836-.334c.117-.033.192-.03.3-.052-.086.017.126-.07.033,0,.078.025.074.017-.012-.025-.1-.065-.094-.05.011.047.832.916,2.187-.443,1.356-1.357Z" transform="translate(14764.859 6314.862)"/><path d="M-13716.064-205.956c21.4,1.043,41.554,3.921,62.663,6.8-2.519,10.075-5.037,20.285-7.554,30.509l-2.517,10.226c-5.281,20.673-10.079,42.741-15.943,64.251l-1.172,4.716s-4.132-.379-10.428-.86c-16.119-.419-31.471-3.3-48.043-2.652-3.547-.013-6.654.067-9.073.272a13.567,13.567,0,0,0-4.952,1.02c-.978.594-.792-1.659.222-5.9.508-2.121,1.223-4.742,2.1-7.75q12.183-37.117,25.956-74.985,1.494-4.242,2.92-8.53t2.743-8.682C-13717.237-202.769-13716.064-205.956-13716.064-205.956Z" transform="translate(14781.226 6314.366)"/><path d="M-13287.675-218.313l-58.172,9.245s-.281,6.064-.708,15.306c4.095,17.12,5.384,82.446,8.048,94.854,8.463-1.083,24.146-7.509,32.892-8.555,3.975-.415,7.738-.752,11.041-.964,6.605-.425,11.361-.352,12.3.6C-13278.5-104.021-13287.675-218.313-13287.675-218.313Z" transform="translate(14764.737 6314.867)"/><path d="M-13678.7-91.937c0-1.071-.422-.686-.687-.686-3.547,0-7.094.021-10.641.08-.489.008-.792-.262-.991-1.217l0-.013a33.809,33.809,0,0,0-7.206.57c.058.687-.046.691-.633.694l-2.817.015c-7.287,1.682-14.6,4.276-21.865,3.239-5.9-.841-11.709-2.6-17.672-2.509-1.642.026-3.29.1-4.936.122a4.425,4.425,0,0,1-.286.721c-.248.359-.257-.386-.4-.715-1.1.007-2.2-.016-3.3-.093-.891.007-1.783.012-2.676.022-.365,0-.5.335-.354,1.075.138.693.248,1.412.364,2.125a1.724,1.724,0,0,1-.181,1.167c-.085.147-.179.268-.28.129a1.619,1.619,0,0,1-.117-.926c0-.216.014-.433.008-.645s-.057-.422-.162-.477c-.121-.064-.2.139-.236.344a3.8,3.8,0,0,0-.177,1.588,3.038,3.038,0,0,1-.219,2.213,1.244,1.244,0,0,0,.045,1.357,6.388,6.388,0,0,0,2.168,1.849c.229.127.487.1.7-.356.155-.328.306-.531.391.113s.2,1.319.618,1.292c.449-.029.569-.769.738-1.45.231-.929.576-1.086.9-.389.171.376.41.4.555.2.7-1.007.9-.27.953,1.424.355-1.875.6-1.205.856-.487.351.991,1.148,1.244,1.675.541.719-.961,1.031-.889,1.522.518.193.553.37.187.526,0,.746-.9,1.34-.855,2.019.239.933,1.5,1.091,1.3,1.825-.777.207-.584.309-1.685.813-.811.245.423.8-.469.874.9a2.532,2.532,0,0,0,.691,1.424c.278.307.384-.524.577-.817.374-.568.75-.279.937.24.417,1.167.9.91,1.462.427.377-.324.772-.544,1.065.231.182.48.37.251.595-.016.392-.465.924-.947,1.227-.531a8.444,8.444,0,0,1,1.174,1.625c.322.713.605.393.671-.366.113-1.319.33-.807.623-.454a3.448,3.448,0,0,1,.41.7c.1.213.215.386.377.259.191-.148.2-.5.254-.846.077-.511-.169-1.007.059-1.677.1.617.167,1.078.238,1.54.1.615.3,1.032.613,1s.3-.632.343-1.1a.89.89,0,0,1,.459-.819c.192-.1.307.226.36.531a8.388,8.388,0,0,0,.595,1.843c.36.866.582.828.983-.075.979-2.206.827-2.186,1.389.191.159.674.323.873.723.434s.809-1.35,1.32-.968c.483.36.933.915,1.5.271.049-.057.161.06.221.155.257.409.577.345.817.031.412-.542.628-.231.843.388.08.231.183.462.359.253.73-.857,1.422-.252,1.956.382.484.574.708.455,1.021-.526.205.958.536.955.925.6.233-.214.481-.359.706-.6.339-.367.632-.326.8.314.271,1,.5,2.095,1.182.757.651.491,1.066-.543,1.468-1.336.333-.66.463-.448.569.193.226,1.35,1.019,1.1,1.393,2.06.083.217.358.039.418-.341.117-.751.526-1.173.53-2.073,0-.5.229-.855.485-.892.535-.08.978,1.042,1.57.272.012-.016.054.011.055.03.079,1.091.661,1.037.916,1.718.1.264.163.624.372.433.171-.157.147-.532.14-.808-.028-1.059.248-1.236.67-1.17.282.045.3.7.479.822.411.272.145-1.029.388-.922a5.5,5.5,0,0,1,.968.368c.141.094.208.714.427.328a1.608,1.608,0,0,0,0-1.07c-.069-.39-.2-.847.05-1.149.294-.358.368.3.511.586.118.234.129.882.366.63.544-.57.767.158,1.037.79.15.35.342,1,.585.4.474-1.155.951-.711,1.448-.513.059-.275-.074-.573.067-.848a.981.981,0,0,1,1.593,0c.083.173.179.472.267.454.6-.122.851.7,1.124,1.546.119.37.374.861.608.283s.54-.6.806-.9c.219-.249.528-.14.664-.661.3-1.153.542-.754.749-.023.193.685.384.814.644.053.107-.312.246-.644.4-.286.384.9.644.453.921-.39a.823.823,0,0,1,.368-.491c1.047-.357,1.834-1.693,2.6-3.158.184-.352.442-.9.646-.744.848.666,1-.906,1.242-1.84.181-.7.344-.9.663-.9a1.2,1.2,0,0,0,.893-.519,3.485,3.485,0,0,0,.791-2.145,1.478,1.478,0,0,1,.435-1.037C-13678.611-89.9-13678.7-90.977-13678.7-91.937Z" transform="translate(14781.25 6309.824)" fill="#030504"/><path d="M-13288.181-216.034c-.6.014-.371.675-.361,1.1q.195,8.42.43,16.843c.022.773-.118,1.257-.648,1.584l-.007,0c.031,3.795.256,7.594.581,11.4.385-.1.391.064.413.993l.111,4.459c1.211,11.515,2.935,23.054,2.615,34.569-.26,9.353-1.041,18.568-.773,28.006.074,2.6.175,5.206.247,7.812a2.366,2.366,0,0,1,.417.444c.211.386-.208.411-.389.644.044,1.743.07,3.486.067,5.222q.054,2.119.11,4.237c.015.578.206.786.616.545.385-.226.786-.411,1.185-.6.249-.121.475-.024.662.27a.446.446,0,0,1,.083.443c-.118.257-.324.2-.518.2a2.706,2.706,0,0,0-.363,0,.288.288,0,0,0-.262.263.341.341,0,0,0,.2.371c.3.151.647.477.9.259.491-.424.878-.116,1.254.318.336.388.563.352.762-.089a14.116,14.116,0,0,0,.963-3.454,1.364,1.364,0,0,0-.226-1.105c-.19-.241-.311-.478.049-.618a.9.9,0,0,0,.706-1c-.033-.708-.453-.89-.843-1.149a.913.913,0,0,1-.251-1.411.871.871,0,0,0,.09-.88c-.592-1.09-.185-1.425.768-1.528-1.069-.537-.7-.94-.307-1.351a2.6,2.6,0,0,0,.245-2.656c-.568-1.125-.538-1.622.236-2.418.3-.312.093-.586-.021-.833a3.234,3.234,0,0,1,.063-3.2c.813-1.495.693-1.743-.5-2.879-.338-.32-.96-.467-.485-1.277.229-.392-.295-1.254.474-1.4.318-.059.61-.655.776-1.111s-.309-.6-.48-.9a1.268,1.268,0,0,1,.1-1.487c.642-.675.479-1.436.187-2.319a1.635,1.635,0,0,1,.093-1.69c.263-.294.128-.59-.031-.942a2.813,2.813,0,0,1-.344-1.933,10.425,10.425,0,0,1,.872-1.88c.391-.519.2-.964-.229-1.057-.746-.162-.466-.511-.278-.981a3.2,3.2,0,0,1,.382-.657.645.645,0,0,0,.132-.6c-.091-.3-.29-.313-.486-.391-.29-.116-.561.281-.946-.071l.859-.4a.949.949,0,0,0,.54-.985c-.027-.494-.366-.468-.628-.528-.3-.067-.411-.4-.479-.715a.506.506,0,0,1,.286-.579,3.556,3.556,0,0,0,1.015-.965c.476-.581.446-.931-.077-1.553-1.276-1.523-1.26-1.282.058-2.2.373-.26.479-.523.218-1.149-.27-.644-.789-1.262-.593-2.078a3.388,3.388,0,0,0,.1-2.371.556.556,0,0,1,.079-.352,1.45,1.45,0,0,0-.013-1.294,1,1,0,0,1,.188-1.339.463.463,0,0,0,.128-.573,3.9,3.9,0,0,1,.146-3.1c.306-.774.23-1.125-.333-1.608.531-.338.518-.861.3-1.472-.129-.367-.219-.756-.365-1.11-.218-.532-.206-1,.147-1.277.557-.443,1.162-.809.383-1.879a2.6,2.6,0,0,0-.8-2.306c-.382-.519-.268-.726.088-.9.752-.374.584-1.628,1.109-2.23a.537.537,0,0,0-.207-.658c-.427-.177-.679-.818-1.187-.812-.281,0-.488-.354-.52-.758-.062-.845.552-1.559.1-2.489a.121.121,0,0,1,.015-.088c.611-.139.56-1.059.933-1.471.146-.16.346-.266.23-.594-.094-.269-.3-.227-.459-.212-.6.058-.705-.376-.683-1.044.015-.447.385-.482.445-.769.138-.653-.585-.217-.534-.6.068-.512.069-1.05.174-1.536.047-.225.394-.339.169-.682-.182-.276-.408-.088-.6.017-.216.117-.47.327-.648-.062-.214-.46.156-.586.311-.817.128-.189.493-.213.343-.588-.34-.853.062-1.213.406-1.65.191-.243.552-.554.207-.932-.668-.733-.435-1.5-.342-2.286-.156-.089-.319.124-.479-.094a3.582,3.582,0,0,1-.058-2.523c.094-.133.259-.29.246-.429a1.936,1.936,0,0,1,.829-1.8.676.676,0,0,0,.138-.968,3.884,3.884,0,0,1-.539-1.263c-.147-.345-.1-.836-.4-1.043-.66-.459-.445-.848-.041-1.186.379-.316.444-.618.007-1.02-.18-.165-.372-.38-.175-.627.492-.619.231-1.025-.254-1.452a1.074,1.074,0,0,1-.289-.576,9.071,9.071,0,0,0-1.871-4.075c-.205-.286-.524-.69-.442-1.011.344-1.351-.546-1.574-1.08-1.943a1.079,1.079,0,0,1-.529-1.04,3.6,3.6,0,0,0-.324-1.4,1.768,1.768,0,0,0-1.237-1.222.894.894,0,0,1-.6-.677C-13287.036-216.194-13287.64-216.047-13288.181-216.034Z" transform="translate(14762.397 6314.775)" fill="#030504"/><path d="M-13663.062-190.936c-2.087-.107-3.814,1.318-5.423,2.457a60.469,60.469,0,0,0-5.105,3.942,29.372,29.372,0,0,0-2.33,2.288c-.471.522-1.06,1.268-.507,1.953a1.816,1.816,0,0,0,1.738.411,20.823,20.823,0,0,0,3.131-1.055c2.6-.909,5.192-1.843,7.813-2.689l-.234-.556c-3.316,1.891-6.735,3.891-9.2,6.879a5.853,5.853,0,0,0-1.461,2.284c-.115.742.53,1.13,1.156,1.293a9.348,9.348,0,0,0,5.917-.553l-.26-.613a20.585,20.585,0,0,0-5.748,5.224c-.519.692-1.62,1.9-1.147,2.852.26.524,1.062.414,1.223.894.145.427-.289,1.2-.471,1.583a.256.256,0,0,0,.4.309,2.107,2.107,0,0,0,.738-2.382,1.114,1.114,0,0,0-.343-.39c-.222-.16-.551-.167-.728-.368-.238-.271,0-.614.167-.9s.351-.55.536-.817a19.65,19.65,0,0,1,5.713-5.429.336.336,0,0,0-.34-.579,8.726,8.726,0,0,1-5.26.509c-.525-.114-.937-.263-.647-.916a5.541,5.541,0,0,1,.656-.956,16.713,16.713,0,0,1,1.649-1.871,40.416,40.416,0,0,1,7.752-5.531c.285-.172.1-.673-.234-.556-1.93.675-3.88,1.294-5.825,1.922l-2.919.941a8.648,8.648,0,0,1-2.492.689c-.2,0-.595-.007-.647-.259-.071-.332.694-.968.9-1.189.626-.666,1.287-1.3,1.971-1.9,1.4-1.24,2.895-2.365,4.406-3.464,1.587-1.153,3.374-2.813,5.449-2.813a.323.323,0,0,0,0-.645Z" transform="translate(14778.104 6313.758)" fill="#a8a8a8"/></g></svg>