<svg xmlns="http://www.w3.org/2000/svg" width="105" height="70" viewBox="0 0 105 70"><g transform="translate(-4645.164 -626.869)"><g transform="translate(4653.748 645.063)"><path d="M4654.008,685.184c14.73.529,29.473.732,44.208.257,3.915-.127,7.829-.321,11.735-.618a1.058,1.058,0,0,0,1.038-1.035q-.135-16.848-.292-33.7c-.011-1.133-.018-2.266-.032-3.4,0-.327-.007-.655-.03-.982-.012-.169-.033-.335-.047-.5.033.412.033.252.032.159a1.028,1.028,0,0,0-2.055,0,.316.316,0,0,1,0,.064c.112-.525,0,.028-.006.19-.008.271-.015.543-.017.813,0,.918.017,1.836.025,2.754l.083,9.176q.093,10.35.212,20.7l.051,4.726,1.037-1.035c-14.688,1.157-29.46,1.171-44.186,1.18-3.92,0-7.838.017-11.757,0a.626.626,0,0,0,0,1.251Z" transform="translate(-4653.403 -644.374)"/></g><g transform="translate(4652.694 644.857)"><path d="M4709.006,644.208c-14.49.17-28.963.51-43.457.28q-6.045-.1-12.088-.312a1.079,1.079,0,0,0-1.07,1.067q.262,16.626.561,33.251c.021,1.18.006,2.367.08,3.544.045.7.046,1.717.654,2.175l-.426-.741,0,.088a.86.86,0,0,0,1.719,0l0-.088-.251.607c.421-.34.4-1.386.424-1.852.049-.98-.006-1.969-.022-2.95l-.156-9.2q-.173-10.12-.357-20.239l-.085-4.591-1.07,1.066c14.476.479,28.992.482,43.463-.2,4.031-.19,8.063-.43,12.082-.8.694-.064.722-1.109,0-1.1Z" transform="translate(-4652.392 -644.175)"/></g><g transform="translate(4653.609 653.684)"><path d="M4653.55,653.769a46,46,0,0,0,6.928,3.351c2.516,1.142,5.041,2.264,7.559,3.4q3.731,1.681,7.47,3.339,1.853.818,3.71,1.633a8.824,8.824,0,0,0,3.622,1.171.753.753,0,0,0,.527-1.27,8.863,8.863,0,0,0-3.281-1.8q-1.864-.8-3.726-1.611-3.858-1.674-7.717-3.34c-2.447-1.056-4.888-2.123-7.343-3.156a42.453,42.453,0,0,0-7.291-2.8.6.6,0,0,0-.458,1.084Z" transform="translate(-4653.27 -652.669)"/></g><g transform="translate(4681.977 653.252)"><path d="M4681.24,666.411c5-1.01,9.862-3.423,14.437-5.61,2.414-1.154,4.795-2.379,7.153-3.644q1.639-.879,3.26-1.791c.935-.526,2.369-1.033,2.92-1.984a.757.757,0,0,0-.648-1.129c-1.037.016-2.005.854-2.885,1.352q-1.694.957-3.407,1.878-3.533,1.9-7.141,3.649c-4.64,2.257-9.458,4.071-14.134,6.224-.626.288-.161,1.178.445,1.055Z" transform="translate(-4680.497 -652.253)"/></g><g transform="translate(4715.976 626.896)"><g transform="translate(0.297)"><path d="M4714.434,637.223c2.8-5.131,8.121-9.219,14.226-8.4,5.037.673,10.882,4.032,12.085,9.293.271,1.184,2.094.683,1.824-.5-1.367-6.021-7.9-9.852-13.665-10.6-7-.906-12.594,3.6-15.432,9.651-.3.637.614,1.2.962.56Z" transform="translate(-4713.413 -626.895)"/></g><g transform="translate(0 9.903)"><path d="M4741.271,637a31.673,31.673,0,0,1-6.8,5.233,15.793,15.793,0,0,1-7.826,1.829,15.107,15.107,0,0,1-6.913-2.192,15.555,15.555,0,0,1-3.047-2.42c-.874-.88-1.469-2.016-2.38-2.851a.7.7,0,0,0-1.172.484c.186,2.734,3.1,5.109,5.248,6.454a17.507,17.507,0,0,0,7.964,2.637,18.767,18.767,0,0,0,16.187-8.208c.5-.794-.6-1.561-1.257-.968Z" transform="translate(-4713.128 -636.424)"/></g><g transform="translate(8.435 4.282)"><path d="M4731.635,633.273a3.7,3.7,0,0,0-.783-.9c-.206-.207-.235-.166-.235-.166a5.784,5.784,0,0,0-4.81-1.027,6.438,6.438,0,0,0-4.537,5.408,4.917,4.917,0,0,0,.114,1.943,4.45,4.45,0,0,0,2.388,2.686,8.649,8.649,0,0,0,3.479.719,4.967,4.967,0,0,0,3.151-.676C4731.643,640.363,4734.184,636.8,4731.635,633.273Z" transform="translate(-4721.224 -631.015)"/></g></g><g transform="translate(4717.918 652.499)"><path d="M4740.612,654.7c-5.248,7.423-8.619,13.243-14.97,19.626-2.834-2.278-8.387-6.273-10.649-8.977l3.827-3.828a39.959,39.959,0,0,0,5.619,5.495c4.652-4.675,7.793-10.049,11.638-15.487Z" transform="translate(-4714.992 -651.529)"/></g><g transform="translate(4645.211 626.869)"><path d="M4713.08,627.223c-16.929-.587-33.841-.3-50.776-.167-2.57.019-5.139.03-7.708.063a57.588,57.588,0,0,0-8.693.328.97.97,0,0,0,0,1.858,49.412,49.412,0,0,0,7.668.236c2.355,0,4.712-.015,7.068-.033q6.172-.05,12.343-.116,11.8-.123,23.589-.3c5.511-.087,11.005-.391,16.509-.633a.619.619,0,0,0,0-1.238Z" transform="translate(-4645.209 -626.869)"/></g><g transform="translate(4645.164 627.528)"><path d="M4645.164,628.141c.08,18.057.306,36.112.387,54.169q.03,6.853.069,13.708a.858.858,0,0,0,1.714,0q.078-26.91-.46-53.824-.135-7.03-.384-14.053a.664.664,0,0,0-1.327,0Z" transform="translate(-4645.164 -627.503)"/></g><g transform="translate(4646.062 694.023)"><path d="M4646.687,694.224c13.122.053,26.243.1,39.364.045,13.977-.064,27.955-.2,41.927-.57,7.129-.188,14.373-.15,21.451-1.066a.561.561,0,0,0,0-1.121c-6.271-.155-12.57.314-18.841.5q-10.245.3-20.493.443c-13.978.211-27.957.27-41.935.292-7.158.011-14.316.073-21.473.113a.684.684,0,0,0,0,1.367Z" transform="translate(-4646.025 -691.48)"/></g><g transform="translate(4747.695 644.704)"><path d="M4743.572,644.622c.564,8.236.726,16.481.694,24.735-.014,3.894-.086,7.788-.1,11.682-.01,2.044,0,4.089.016,6.133a31.56,31.56,0,0,0,.452,6.732.552.552,0,0,0,1.057,0,35.021,35.021,0,0,0,.333-6.732c0-2.044.015-4.089.018-6.133q.007-5.842-.043-11.682c-.073-8.26-.44-16.506-1.183-24.735-.07-.783-1.294-.8-1.241,0Z" transform="translate(-4743.57 -644.029)"/></g><g transform="translate(4653.276 633.329)"><ellipse cx="2.576" cy="2.57" rx="2.576" ry="2.57"/></g><g transform="translate(4660.656 633.329)"><ellipse cx="2.576" cy="2.57" rx="2.576" ry="2.57"/></g><g transform="translate(4668.663 633.329)"><ellipse cx="2.576" cy="2.57" rx="2.576" ry="2.57"/></g></g></svg>