<svg xmlns="http://www.w3.org/2000/svg" width="49.112" height="50.01" viewBox="0 0 49.112 50.01"><g transform="translate(-400 -7889.801)"><path d="M17.029,7.224C11.369,5.881,3.09,3.16.587.094A.344.344,0,0,0,0,.416,12.63,12.63,0,0,0,3.01,7.89c5.385,6.074,14.927,11.149,23.882,10.334C34.792,17.053,23.057,8.488,17.029,7.224ZM47.468,3.332c-1.539,1.676-3.031,2.009-9.484,5.087-3.95,1.676-2.3,7.314-6.774,9.335C33.873,17.237,44.069,14.6,47.215,7.1a40.35,40.35,0,0,0,1.527-4.409c.276-.942-.758.1-1.263.643Zm.253,8.474a19.519,19.519,0,0,1-13.273,9.071c-11,2.3-26.489-.8-32.241-9.323C.541,9.188.277,10.738.266,11.243,0,20.532,14.193,30.051,28.626,28.707c15.007-1.481,19.026-10.873,19.91-15.8.379-2.032-.448-1.768-.827-1.1Z" transform="translate(400.01 7910.977)" fill="#1d1c1d"/><path d="M49.074,12.923C48.558,7.331,37.891-.684,24.721.005,12.723.729,1.424,7.262.069,14.633c-1.217,6.6,13.021,10.127,27.9,9.645S49.649,19.318,49.074,12.923Zm-28.1-9.186c-7.107,2.457-12.412,7.6-13.939,12.63-2.1-.942-3.112-2.388-2.721-4.248.689-2.629,7.8-8.853,18.371-10.495C29.865.476,35.928,2.2,38.3,4.61c-4.019-2.664-11.069-3-17.338-.827Zm26.1,11.195a1.883,1.883,0,0,1-2.618,1.286,2.721,2.721,0,0,1-.574-3.307,1.872,1.872,0,0,1,2.3-1.378l.31.1a2.733,2.733,0,0,1,.586,3.3Z" transform="translate(400.004 7889.837)" fill="#1d1c1d"/></g></svg>