<svg xmlns="http://www.w3.org/2000/svg" width="182" height="46" viewBox="0 0 182 46"><g transform="translate(-709 -1300)"><rect width="182" height="46" transform="translate(709 1300)" fill="#fff" opacity="0"/><g transform="translate(709 1305)" style="mix-blend-mode:luminosity;isolation:isolate"><path d="M6.325,19.707c-2.9-1.472-4.365-4.146-4.365-7.946a9.984,9.984,0,0,1,10.367-9.8A12.548,12.548,0,0,1,19.587,4.2a.981.981,0,0,0,1.141-1.595h0A14.529,14.529,0,0,0,12.327,0C5.414,0,0,5.166,0,11.761c0,4.534,1.88,7.886,5.437,9.694a.98.98,0,0,0,.888-1.748ZM31.78,0c-4.694,0-7.052,2.491-9.332,4.9-2.386,2.52-4.639,4.9-9.705,4.9a.98.98,0,0,0,0,1.96h0c5.91,0,8.683-2.929,11.129-5.514,2.177-2.3,4.059-4.287,7.909-4.287,7.409,0,9.386,6.16,9.386,9.8,0,2.592-.758,6.075-4.372,7.951a.98.98,0,0,0,.9,1.74c3.552-1.843,5.429-5.195,5.429-9.69C43.127,6.1,39.576,0,31.78,0ZM29.632,17.014,24.79,22.828c-.5.505-1.379.693-3.227.693s-2.722-.188-3.168-.627l-4.9-5.881a.98.98,0,1,0-1.505,1.255l4.961,5.946C18,25.27,19.5,25.481,21.563,25.481s3.559-.212,4.673-1.332l4.9-5.88a.98.98,0,1,0-1.506-1.255ZM15.97,26.749l-2.941,2.94a.98.98,0,0,0,1.386,1.386l2.94-2.94a.98.98,0,1,0-1.386-1.385Zm12.168,0a.98.98,0,1,0-1.386,1.385h0l2.94,2.94a.98.98,0,1,0,1.4-1.374l-.012-.012ZM35,14.7a1,1,0,0,0-1,.98V32.229C34,32.815,32.91,34,32.38,34h-21.6c-.53,0-1.772-1.185-1.772-1.772V15.681a1,1,0,0,0-2,0V32.229A4.546,4.546,0,0,0,10.782,36h21.6C33.982,36,36,33.887,36,32.229V15.681A1,1,0,0,0,35,14.7Zm2.241-1.96a.98.98,0,0,0,.98-.98A7.04,7.04,0,0,0,31.365,4.9a.98.98,0,0,0,0,1.96,5.029,5.029,0,0,1,4.9,4.9A.98.98,0,0,0,37.246,12.741Z" transform="translate(0 0)" fill="#e0593b" fill-rule="evenodd"/><g transform="translate(51.92 12.198)"><path d="M203.359,50.177a1.226,1.226,0,0,1,1.194-.834,1.171,1.171,0,0,1,1.216,1.262V63.455a1.2,1.2,0,0,1-1.238,1.263,1.226,1.226,0,0,1-1.239-1.263V55.79L200,63.883a1.147,1.147,0,0,1-2.207,0l-3.288-8.093v7.664a1.226,1.226,0,0,1-1.239,1.263,1.2,1.2,0,0,1-1.239-1.263V50.605a1.171,1.171,0,0,1,1.216-1.262,1.226,1.226,0,0,1,1.194.834L198.9,61Z" transform="translate(-192.032 -49.343)" fill="#e0593b"/><path d="M269.046,62.981a1.224,1.224,0,0,1-1.171,1.736,1.1,1.1,0,0,1-1.148-.789l-1.014-2.547h-5.945l-1.014,2.547a1.1,1.1,0,0,1-1.148.789,1.224,1.224,0,0,1-1.171-1.736l5.089-12.8a1.3,1.3,0,0,1,2.432,0ZM262.74,53.4l-2.117,5.635h4.233Z" transform="translate(-240.445 -49.343)" fill="#e0593b"/><path d="M320.122,63.364a1.314,1.314,0,0,1-1.351,1.353,1.328,1.328,0,0,1-1.351-1.353V50.7a1.351,1.351,0,1,1,2.7,0Z" transform="translate(-286.453 -49.343)" fill="#e0593b"/><path d="M349.8,64.537h-6.846a1.361,1.361,0,0,1-1.374-1.352V50.718a1.351,1.351,0,1,1,2.7,0V62.057H349.8a1.222,1.222,0,0,1,1.239,1.24A1.236,1.236,0,0,1,349.8,64.537Z" transform="translate(-304.65 -49.343)" fill="#e0593b"/><path d="M415.743,65.086h-4.414a1.355,1.355,0,0,1-1.351-1.352V51.426a1.341,1.341,0,0,1,1.351-1.353h4.121c2.95,0,4.639,1.578,4.639,3.81a3.551,3.551,0,0,1-2.387,3.336,3.617,3.617,0,0,1,3.2,3.607C420.9,63.148,419.211,65.086,415.743,65.086Zm-.338-12.624H412.68v3.7h2.725a1.8,1.8,0,0,0,1.959-1.848A1.76,1.76,0,0,0,415.405,52.462ZM412.68,62.7h3.13c1.531,0,2.387-.856,2.387-2.1a2.183,2.183,0,0,0-2.432-2.051H412.68Z" transform="translate(-356.153 -49.893)" fill="#e0593b"/><path d="M471.945,62.981a1.224,1.224,0,0,1-1.171,1.736,1.1,1.1,0,0,1-1.148-.789l-1.014-2.547h-5.945l-1.014,2.547a1.1,1.1,0,0,1-1.148.789,1.224,1.224,0,0,1-1.171-1.736l5.089-12.8a1.3,1.3,0,0,1,2.432,0ZM465.639,53.4l-2.117,5.635h4.234Z" transform="translate(-393.235 -49.343)" fill="#e0593b"/><path d="M529.659,64.717a1.192,1.192,0,0,1-1.148-.654l-3.581-6.6L522.565,60.1v3.246a1.32,1.32,0,0,1-1.351,1.375,1.288,1.288,0,0,1-1.351-1.353V50.718a1.3,1.3,0,0,1,1.351-1.375,1.314,1.314,0,0,1,1.351,1.353v5.545l5.562-6.425a1.145,1.145,0,0,1,.946-.473,1.222,1.222,0,0,1,1.261,1.218,1.4,1.4,0,0,1-.293.857l-3.4,4.035,4.054,7.394a1.346,1.346,0,0,1,.18.631A1.176,1.176,0,0,1,529.659,64.717Z" transform="translate(-438.901 -49.343)" fill="#e0593b"/><path d="M582.132,65.086h-7.184a1.328,1.328,0,0,1-1.374-1.33V51.4a1.3,1.3,0,0,1,1.351-1.33h7.026a1.241,1.241,0,0,1,1.284,1.217,1.222,1.222,0,0,1-1.261,1.218h-5.7v3.764h3.265a1.222,1.222,0,0,1,1.261,1.218,1.208,1.208,0,0,1-1.261,1.217h-3.265v3.945h5.855a1.218,1.218,0,1,1,0,2.434Z" transform="translate(-479.347 -49.893)" fill="#e0593b"/><path d="M631.145,58.8l2.364,4.531a1.467,1.467,0,0,1,.18.631,1.347,1.347,0,0,1-1.351,1.308,1.187,1.187,0,0,1-1.239-.7l-2.77-5.343h-3.175v4.689a1.351,1.351,0,1,1-2.7,0V51.426a1.341,1.341,0,0,1,1.351-1.353H628.4c3.828,0,5.45,2.187,5.45,4.644A4.069,4.069,0,0,1,631.145,58.8Zm-2.3-6.244h-3.693v4.328h3.671a2.167,2.167,0,1,0,.023-4.328Z" transform="translate(-516.154 -49.893)" fill="#e0593b"/><path d="M681.64,49.974a1.119,1.119,0,0,1,1.081-.631A1.237,1.237,0,0,1,684,50.605a1.384,1.384,0,0,1-.2.7l-4.144,7.033v5.027a1.351,1.351,0,1,1-2.7,0V58.337L672.812,51.3a1.383,1.383,0,0,1-.2-.7,1.237,1.237,0,0,1,1.284-1.262,1.119,1.119,0,0,1,1.081.631l3.333,6.041Z" transform="translate(-553.924 -49.343)" fill="#e0593b"/></g></g></g></svg>