<svg xmlns="http://www.w3.org/2000/svg" width="35.006" height="32.999" viewBox="0 0 35.006 32.999"><g transform="translate(0.504 0.495)"><path d="M628.481,399.035a3.91,3.91,0,0,1-2.7-1.112,3.567,3.567,0,0,1-1.07-2.665v-9.577a7.2,7.2,0,0,1-5.3-6.843,7.29,7.29,0,0,1,7.342-7.191,6.958,6.958,0,0,1,1.162.08,10.026,10.026,0,0,1,16.968-.006,7.463,7.463,0,0,1,8.471,6.511l.057.034-.013.58a7.286,7.286,0,0,1-5.273,6.845l.044,9.6a3.549,3.549,0,0,1-1.071,2.635,3.9,3.9,0,0,1-2.688,1.113Zm-1.762-25.389a5.3,5.3,0,0,0-5.3,5.193,5.2,5.2,0,0,0,4.445,5.046l.851.128v11.279a1.582,1.582,0,0,0,.468,1.2,1.909,1.909,0,0,0,1.313.543h15.9a1.9,1.9,0,0,0,1.3-.544,1.561,1.561,0,0,0,.468-1.166l-.051-11.282.844-.137a5.287,5.287,0,0,0,4.434-5.01v-.043a5.449,5.449,0,0,0-6.791-5.04l-.8.207-.357-.74a7.977,7.977,0,0,0-14.1.01l-.361.749-.8-.217a5.32,5.32,0,0,0-1.426-.177Z" transform="translate(-619.415 -367.035)" fill="#1d1c1d" stroke="rgba(0,0,0,0)" stroke-width="1"/><g transform="translate(11.793 19.739)"><path d="M638.374,388.773h-6.165a1,1,0,0,1,0-2h6.165a1,1,0,0,1,0,2Z" transform="translate(-631.208 -386.774)" fill="#ed553b"/></g><g transform="translate(11.793 23.502)"><path d="M641.744,392.536h-9.535a1,1,0,0,1,0-2h9.535a1,1,0,0,1,0,2Z" transform="translate(-631.208 -390.537)" fill="#ed553b"/></g></g></svg>