<svg xmlns="http://www.w3.org/2000/svg" width="112.57" height="46" viewBox="0 0 112.57 46"><g transform="translate(-1064 -1300)"><rect width="112" height="46" transform="translate(1064 1300)" fill="#fff" opacity="0"/><g transform="translate(1063.4 1300.1)" style="mix-blend-mode:luminosity;isolation:isolate"><g transform="translate(0.6 -0.1)"><path d="M47.994,38.478c-3.278-2.863-4.144-5.953-2.863-9.72a18.456,18.456,0,0,0,2.034-8.439C47.165,9.017,37.031-.1,24.636-.1h-.113C12.166-.062,2.032,9.055,2.032,20.282a19.1,19.1,0,0,0,2.034,8.477c1.959,4.333.49,6.744-2.826,9.645l-.64.6.452.64c.188.226,4.446,6.216,18.2,6.216h1.469V40.55a22.613,22.613,0,0,0,7.648.075h.113V45.9h1.469c13.751,0,18.008-5.915,18.2-6.216l.452-.64ZM30.287,44.016V39.985a12.212,12.212,0,0,0,4.257-2.562,16.559,16.559,0,0,0,2.11-4.333c.3-.753.6-1.507.829-2.11.188-.339.339-.753.527-1.168a6.559,6.559,0,0,1-2.562,1.281c-.188.414-.339.867-.527,1.356a13.271,13.271,0,0,1-1.771,3.73l-.075.113c-1.168,1.62-4.634,2.826-8.364,2.826-3.315,0-6.442-.867-7.912-2.3h-.075c-.829-.716-1.7-2.562-2.449-4.446a7.226,7.226,0,0,1-2.562-1.469,6.281,6.281,0,0,1,.3.753c.98,2.524,2.11,5.312,3.466,6.48a9.977,9.977,0,0,0,3.391,1.884v3.993c-9.946-.075-14.429-3.391-15.861-4.785,3.278-3.052,4.86-6.216,2.675-11.152V28A16.632,16.632,0,0,1,3.8,20.357c0-10.285,9.305-18.611,20.683-18.611h.151c11.415,0,20.683,8.288,20.683,18.536a16.405,16.405,0,0,1-1.884,7.648l-.075.113c-1.507,4.219-.64,7.912,2.675,11.114C44.754,40.588,40.233,43.9,30.287,44.016Z" transform="translate(-0.6 0.1)" fill="#e95c64"/><path d="M48.83,27.171c-4.9,4.86-8.552,6.781-15.6,6.141a27.835,27.835,0,0,1-8.816-2.223s-.113,2.562,0,5.387h0a16.279,16.279,0,0,1,1.884-.113c-.075-1.243-.113-2.3-.113-2.637a28.765,28.765,0,0,0,6.857,1.394c4.973.452,9.871.339,16.727-6.48a23.629,23.629,0,0,0,2.3,5.726,12.8,12.8,0,0,1,1.808-.188A67.157,67.157,0,0,1,50.563,25.4Z" transform="translate(-15.413 -15.793)" fill="#e95c64"/><path d="M52.269,51.7c-1.356-.64-8.7-.527-15.371,3.089a2.808,2.808,0,0,1-1.055.414,11.432,11.432,0,0,1-1.582.226c-.339,0-.716.075-.98.075a5.357,5.357,0,0,1-1.356-.188.984.984,0,0,0-.3-.113,1.135,1.135,0,0,0-.452-.113c-.3-.113-.6-.188-.866-.3a12.249,12.249,0,0,0-1.582-.414,29.575,29.575,0,0,0-3.579-.6,31.262,31.262,0,0,0-3.278-.188,21.5,21.5,0,0,0-2.75.188,16.362,16.362,0,0,0-2.034.339,3.91,3.91,0,0,0-1.168.414c-1.356.867,2.336,2.637,3.805,5.011.867,1.582,2.826,4.106,5.952,4.219a7.965,7.965,0,0,0,1.356-.075,7.506,7.506,0,0,0,5.274-2.3,4.7,4.7,0,0,0,.98-2.11,2.626,2.626,0,0,1,.64-1.281,1.132,1.132,0,0,1,.414-.226.77.77,0,0,1,.64.113,2.461,2.461,0,0,1,.452.414,4.006,4.006,0,0,1,.414.716,5.218,5.218,0,0,0,1.281,1.921c1.281,1.168,3.2,1.62,5.538,1.469.414-.075.867-.113,1.356-.188,3.165-.527,4.672-3.391,5.274-5.011C50.423,54.679,53.738,52.381,52.269,51.7Zm-21.625,8.59h0c-.867,1.055-2.637,1.62-4.86,1.62-2.223-.075-3.692-2.034-4.333-3.2-.6-1.469.829-2.3,1.168-2.524a11.841,11.841,0,0,1,7.007.3,6.388,6.388,0,0,1,1.582.753A3.624,3.624,0,0,1,30.644,60.293Zm16.8-3.654c-.452,1.281-1.582,3.466-3.73,3.843-2.147.414-4.031.075-5.011-.829h0a3.359,3.359,0,0,1-.98-2.939,5.065,5.065,0,0,1,1.394-.98,11.244,11.244,0,0,1,6.894-1.356C46.279,54.491,47.786,55.131,47.447,56.638Z" transform="translate(-9.961 -32)" fill="#3dacab"/><g transform="translate(21.851 32.588)"><path d="M58.9,88.585l-.3,1.62a14.912,14.912,0,0,0,2.223.188c2.147,0,5.387-.452,7.12-3.052L66.587,86.4C64.515,89.527,58.939,88.585,58.9,88.585Z" transform="translate(-58.6 -86.4)" fill="#e95c64"/></g></g><g transform="translate(54.172 8.452)"><g transform="translate(0 15.936)"><path d="M159.49,76.2h-2.75V70.174a4.979,4.979,0,0,0-.452-2.336,1.779,1.779,0,0,0-1.582-.716,1.971,1.971,0,0,0-1.7.6,2.622,2.622,0,0,0-.452,1.582V76.2h-2.75V70.174a13.8,13.8,0,0,0-.113-1.469,1.861,1.861,0,0,0-1.13-1.469,2.8,2.8,0,0,0-.98-.113,2.5,2.5,0,0,0-2.034.942V76.2H142.8V65.088h2.3l.188.866A4.349,4.349,0,0,1,148.15,64.9a4,4,0,0,1,1.921.414,3.935,3.935,0,0,1,1.469,1.243,1.963,1.963,0,0,1,.527-.6,3.111,3.111,0,0,1,.829-.527,5.118,5.118,0,0,1,1.055-.414,4.776,4.776,0,0,1,1.281-.113,5.138,5.138,0,0,1,1.921.339,3.521,3.521,0,0,1,1.394,1.055,4.752,4.752,0,0,1,.829,1.7,7.781,7.781,0,0,1,.3,2.147v6.028h-.188Z" transform="translate(-142.8 -64.9)" fill="#3dacab"/><path d="M201.7,74.292l-.226,2.3h-.98a2.6,2.6,0,0,1-2.524-1.281,4.3,4.3,0,0,1-3.391,1.281,3.668,3.668,0,0,1-1.281-.226,3.3,3.3,0,0,1-1.055-.64,3.479,3.479,0,0,1-.716-1.055,3.29,3.29,0,0,1-.226-1.394,2.849,2.849,0,0,1,.64-1.884,4.783,4.783,0,0,1,1.62-1.243,7.974,7.974,0,0,1,2.034-.64,13.147,13.147,0,0,1,1.921-.226,2.531,2.531,0,0,0-.452-1.394,2.122,2.122,0,0,0-1.507-.414,7.754,7.754,0,0,0-3.052.829l-.226-2.223a9.721,9.721,0,0,1,4.031-.98c2.675,0,4.031,1.469,4.031,4.446v2.976a3.252,3.252,0,0,0,.075.942,1.582,1.582,0,0,0,.113.527c.038.113.188.188.3.226a1.041,1.041,0,0,0,.527.075Zm-4.106-.64V71.128c-.414.075-.867.113-1.243.188a3.853,3.853,0,0,0-1.055.414,2.051,2.051,0,0,0-.753.6,1.316,1.316,0,0,0-.3.829,1.283,1.283,0,0,0,1.469,1.356A3.343,3.343,0,0,0,197.592,73.652Z" transform="translate(-173.028 -65.025)" fill="#3dacab"/><path d="M239.99,76.2h-2.75V70.174a4.979,4.979,0,0,0-.452-2.336,1.779,1.779,0,0,0-1.582-.716,1.971,1.971,0,0,0-1.7.6,2.622,2.622,0,0,0-.452,1.582V76.2h-2.75V70.174a13.813,13.813,0,0,0-.113-1.469,1.861,1.861,0,0,0-1.13-1.469,2.8,2.8,0,0,0-.979-.113,2.5,2.5,0,0,0-2.034.942V76.2H223.3V65.088h2.3l.188.866A4.349,4.349,0,0,1,228.65,64.9a4,4,0,0,1,1.921.414,3.935,3.935,0,0,1,1.469,1.243,1.964,1.964,0,0,1,.527-.6,3.111,3.111,0,0,1,.829-.527,5.117,5.117,0,0,1,1.055-.414,4.776,4.776,0,0,1,1.281-.113,5.138,5.138,0,0,1,1.921.339,3.521,3.521,0,0,1,1.394,1.055,4.752,4.752,0,0,1,.829,1.7,7.781,7.781,0,0,1,.3,2.147v6.028h-.188Z" transform="translate(-192.972 -64.9)" fill="#3dacab"/><path d="M282.2,74.292l-.226,2.3h-.979a2.6,2.6,0,0,1-2.524-1.281,4.3,4.3,0,0,1-3.391,1.281,3.669,3.669,0,0,1-1.281-.226,3.3,3.3,0,0,1-1.055-.64,3.479,3.479,0,0,1-.716-1.055,3.291,3.291,0,0,1-.226-1.394,2.849,2.849,0,0,1,.641-1.884,4.782,4.782,0,0,1,1.62-1.243,7.975,7.975,0,0,1,2.034-.64,13.149,13.149,0,0,1,1.921-.226,2.53,2.53,0,0,0-.452-1.394,2.122,2.122,0,0,0-1.507-.414,7.754,7.754,0,0,0-3.052.829l-.226-2.223a9.721,9.721,0,0,1,4.031-.98c2.675,0,4.031,1.469,4.031,4.446v2.976a3.248,3.248,0,0,0,.075.942,1.582,1.582,0,0,0,.113.527c.038.113.188.188.3.226a1.041,1.041,0,0,0,.527.075Zm-4.069-.64V71.128c-.414.075-.867.113-1.243.188a3.853,3.853,0,0,0-1.055.414,2.05,2.05,0,0,0-.753.6,1.317,1.317,0,0,0-.3.829,1.283,1.283,0,0,0,1.469,1.356A3.46,3.46,0,0,0,278.129,73.652Z" transform="translate(-223.2 -65.025)" fill="#3dacab"/></g><g transform="translate(0.038)"><path d="M149.3,30.675v.452l-1.469.075a2.611,2.611,0,0,1,.6,1.62,2.159,2.159,0,0,1-.678,1.658,2.614,2.614,0,0,1-1.846.64,2.889,2.889,0,0,1-.678-.038,2.011,2.011,0,0,0-.6.49.851.851,0,0,0-.188.565.511.511,0,0,0,.264.49,1.7,1.7,0,0,0,.866.151h1.243a3,3,0,0,1,1.771.452,1.583,1.583,0,0,1,.6,1.394,1.972,1.972,0,0,1-.9,1.733,4.577,4.577,0,0,1-2.6.6,3.576,3.576,0,0,1-2.072-.527,1.808,1.808,0,0,1-.264-2.637,2.193,2.193,0,0,1,1.243-.64,1.352,1.352,0,0,1-.527-.377,1.015,1.015,0,0,1-.188-.565,1.46,1.46,0,0,1,.9-1.243,2.285,2.285,0,0,1-.98-.791,2.371,2.371,0,0,1-.339-1.243,2.186,2.186,0,0,1,.678-1.7,2.582,2.582,0,0,1,1.808-.64,2.931,2.931,0,0,1,1.093.151h2.26Zm-5.764,8.288c0,.98.716,1.469,2.185,1.469,1.846,0,2.788-.6,2.788-1.771a1.051,1.051,0,0,0-.452-.942,2.7,2.7,0,0,0-1.432-.3h-1.168C144.181,37.419,143.54,37.946,143.54,38.964Zm.527-6.066a1.6,1.6,0,0,0,.49,1.281,1.933,1.933,0,0,0,1.319.452,1.842,1.842,0,0,0,1.356-.452,1.823,1.823,0,0,0,.49-1.319,1.713,1.713,0,0,0-.49-1.356,1.966,1.966,0,0,0-1.356-.452,1.68,1.68,0,0,0-1.319.49A1.854,1.854,0,0,0,144.068,32.9Z" transform="translate(-142.9 -27.586)" fill="#585a5a"/><path d="M166.613,30.4a9.276,9.276,0,0,1,.979.075l-.113.6a3.716,3.716,0,0,0-.9-.113,1.787,1.787,0,0,0-1.469.753,3.257,3.257,0,0,0-.565,1.959V37.6h-.64V30.551h.565l.075,1.281h.038a2.783,2.783,0,0,1,.942-1.093A1.581,1.581,0,0,1,166.613,30.4Z" transform="translate(-155.988 -27.461)" fill="#585a5a"/><path d="M180.985,37.7l-.151-1.13H180.8a3.264,3.264,0,0,1-1.093.98,2.956,2.956,0,0,1-1.319.3,2.391,2.391,0,0,1-1.62-.527,1.93,1.93,0,0,1-.565-1.469,1.877,1.877,0,0,1,.867-1.62,4.476,4.476,0,0,1,2.486-.6l1.356-.038v-.452a2.6,2.6,0,0,0-.414-1.545,1.594,1.594,0,0,0-1.319-.527,4.267,4.267,0,0,0-2.034.565l-.226-.565a5.29,5.29,0,0,1,2.3-.565,2.205,2.205,0,0,1,1.733.6,2.681,2.681,0,0,1,.565,1.884V37.7Zm-2.6-.452a2.582,2.582,0,0,0,1.808-.64,2.313,2.313,0,0,0,.64-1.808v-.716l-1.243.038a4.807,4.807,0,0,0-2.147.452,1.38,1.38,0,0,0-.64,1.243,1.276,1.276,0,0,0,.414,1.017A1.537,1.537,0,0,0,178.385,37.244Z" transform="translate(-163.655 -27.524)" fill="#585a5a"/><path d="M199.476,37.846A2.547,2.547,0,0,1,197.1,36.6h-.038l.038.565c0,.339.038.678.038,1.055v2.713h-.64V30.613h.565l.113,1.017h.038a2.991,2.991,0,0,1,4.521-.188,4.427,4.427,0,0,1,.753,2.75A4.157,4.157,0,0,1,201.7,36.9,3.014,3.014,0,0,1,199.476,37.846Zm-.038-.6a2.04,2.04,0,0,0,1.7-.791,3.589,3.589,0,0,0,.6-2.26c0-2.072-.753-3.127-2.26-3.127a2.225,2.225,0,0,0-1.808.678,3.5,3.5,0,0,0-.565,2.223v.226a3.928,3.928,0,0,0,.565,2.373A2.094,2.094,0,0,0,199.439,37.244Z" transform="translate(-176.307 -27.524)" fill="#585a5a"/><path d="M222.435,32.772v-4.6a2.162,2.162,0,0,0-.452-1.545,1.747,1.747,0,0,0-1.394-.49,2.376,2.376,0,0,0-1.846.64,3.089,3.089,0,0,0-.6,2.072v3.918h-.64V22.6h.64v3.24l-.038.9h.038a2.437,2.437,0,0,1,1.017-.942,3.575,3.575,0,0,1,1.507-.3c1.62,0,2.411.867,2.411,2.6v4.634h-.64Z" transform="translate(-189.395 -22.6)" fill="#585a5a"/><path d="M238.1,24.54c0-.414.151-.64.414-.64a.306.306,0,0,1,.3.151.96.96,0,0,1,0,.9.384.384,0,0,1-.3.188C238.251,25.143,238.1,24.955,238.1,24.54Zm.754,9.042h-.641V26.5h.641Z" transform="translate(-202.234 -23.41)" fill="#585a5a"/><path d="M248.54,37.846a2.988,2.988,0,0,1-2.373-.942,3.935,3.935,0,0,1-.866-2.675,3.968,3.968,0,0,1,.9-2.75,3.176,3.176,0,0,1,2.449-.98,5.637,5.637,0,0,1,1.771.3l-.188.565a5.5,5.5,0,0,0-1.582-.3,2.371,2.371,0,0,0-1.959.791,3.525,3.525,0,0,0-.678,2.336,3.514,3.514,0,0,0,.678,2.26,2.393,2.393,0,0,0,1.884.829,4.824,4.824,0,0,0,1.808-.339v.6A5.413,5.413,0,0,1,248.54,37.846Z" transform="translate(-206.722 -27.524)" fill="#585a5a"/></g></g></g></g></svg>