<svg xmlns="http://www.w3.org/2000/svg" width="94" height="46" viewBox="0 0 94 46"><g transform="translate(-433 -1300)"><rect width="94" height="46" transform="translate(433 1300)" fill="#fff" opacity="0"/><g transform="translate(432.99 1303.001)"><path d="M1384,105.766a.57.57,0,0,0-.163-.531.613.613,0,0,0-.547-.158h-.03a.613.613,0,0,0-.547.158.57.57,0,0,0-.163.531v11.058a.57.57,0,0,0,.163.531.613.613,0,0,0,.547.158h.03a.613.613,0,0,0,.547-.158.57.57,0,0,0,.163-.531v-5h2.36v5a.569.569,0,0,0,.162.531.613.613,0,0,0,.548.158h.04a.613.613,0,0,0,.547-.158.57.57,0,0,0,.163-.531V105.766a.569.569,0,0,0-.162-.531.613.613,0,0,0-.547-.158h-.04a.613.613,0,0,0-.548.158.57.57,0,0,0-.163.531V110.5H1384Zm9.34.654a.552.552,0,0,0,.51-.141.512.512,0,0,0,.14-.5v-.035a.512.512,0,0,0-.14-.5.552.552,0,0,0-.51-.14h-4.04a.551.551,0,0,0-.51.14.512.512,0,0,0-.14.5v.035a.512.512,0,0,0,.14.5.552.552,0,0,0,.51.141h1.29v10.4a.57.57,0,0,0,.163.531.613.613,0,0,0,.547.158h.04a.613.613,0,0,0,.548-.158.57.57,0,0,0,.163-.531v-10.4h1.29Zm5.39,11.093a.747.747,0,0,0,.562-.162.7.7,0,0,0,.258-.51l1.63-9.627v9.627a.559.559,0,0,0,.16.514.6.6,0,0,0,.53.158h.04a.6.6,0,0,0,.53-.158.56.56,0,0,0,.16-.514V105.892a.676.676,0,0,0-.195-.625.727.727,0,0,0-.645-.188h-.71a.721.721,0,0,0-.57.162.675.675,0,0,0-.24.526l-1.51,9.15-1.51-9.15a.678.678,0,0,0-.244-.529.725.725,0,0,0-.576-.159h-.74a.727.727,0,0,0-.645.188.676.676,0,0,0-.195.625V116.86a.565.565,0,0,0,.169.494.606.606,0,0,0,.511.16h.03a.6.6,0,0,0,.507-.161.558.558,0,0,0,.163-.493v-9.644l1.64,9.627a.7.7,0,0,0,.257.511.742.742,0,0,0,.563.16h.07Zm5.25-.848a.669.669,0,0,0,.189.623.72.72,0,0,0,.641.189h2.4a.552.552,0,0,0,.51-.14.512.512,0,0,0,.14-.5v-.035a.512.512,0,0,0-.14-.5.551.551,0,0,0-.51-.141h-1.78v-10.4a.57.57,0,0,0-.163-.531.613.613,0,0,0-.547-.158h-.04a.612.612,0,0,0-.54.163.57.57,0,0,0-.16.526Zm-14.9,7.623a2.354,2.354,0,0,0-.7-2.043,2.526,2.526,0,0,0-2.1-.683h-2.87a.773.773,0,0,0-.649.209.72.72,0,0,0-.211.63v13a.719.719,0,0,0,.211.63.772.772,0,0,0,.649.208h2.91a2.521,2.521,0,0,0,2.107-.68,2.35,2.35,0,0,0,.693-2.044v-2.7a1.964,1.964,0,0,0-1.31-2.117,2.1,2.1,0,0,0,1.27-2.244v-2.162Zm-2.29,2.6a.8.8,0,0,1-.235.686.858.858,0,0,1-.705.236h-1.02v-4.277h1.1a.772.772,0,0,1,.649.209.719.719,0,0,1,.211.631v2.519Zm-.9,2.83a.865.865,0,0,1,.709.235.807.807,0,0,1,.241.688v2.788a.72.72,0,0,1-.211.63.773.773,0,0,1-.649.209h-1.15v-4.549h1.06Zm9.79-8.156a.773.773,0,0,0-.649.209.72.72,0,0,0-.211.63v11.132a.736.736,0,0,1-.212.641.79.79,0,0,1-.657.218h-.36a.809.809,0,0,1-.663-.218.754.754,0,0,1-.227-.642V122.4a.72.72,0,0,0-.211-.63.773.773,0,0,0-.649-.209h-.58a.773.773,0,0,0-.649.209.72.72,0,0,0-.211.63v11.24a2.35,2.35,0,0,0,.693,2.044,2.521,2.521,0,0,0,2.107.68h1.12a2.521,2.521,0,0,0,2.107-.68,2.35,2.35,0,0,0,.693-2.044V122.4a.72.72,0,0,0-.211-.63.773.773,0,0,0-.649-.209h-.58Zm7.09,5.933a.79.79,0,0,1-.242.682.847.847,0,0,1-.708.22h-1.03v-4.845h1.12a.772.772,0,0,1,.649.208.72.72,0,0,1,.211.63v3.1Zm2.31-3.207a2.354,2.354,0,0,0-.695-2.043,2.526,2.526,0,0,0-2.1-.683h-2.93a.776.776,0,0,0-.655.206.723.723,0,0,0-.216.633v13a.722.722,0,0,0,.215.633.775.775,0,0,0,.654.205h.58a.772.772,0,0,0,.649-.208.719.719,0,0,0,.211-.63v-5.052h1.03a.874.874,0,0,1,.729.236.815.815,0,0,1,.241.707V135.4a.722.722,0,0,0,.215.633.776.776,0,0,0,.655.205h.58a.772.772,0,0,0,.649-.208.719.719,0,0,0,.211-.63v-4.151a1.68,1.68,0,0,0-1.34-1.928,2.168,2.168,0,0,0,1.32-2.264v-2.77Zm5.91,9.245a.749.749,0,0,1-.225.644.8.8,0,0,1-.665.216h-.51a.8.8,0,0,1-.665-.216.751.751,0,0,1-.225-.644v-9.266a.751.751,0,0,1,.225-.643.806.806,0,0,1,.665-.216h.47a.788.788,0,0,1,.651.222.734.734,0,0,1,.209.638V125.8a.643.643,0,0,0,.193.548.69.69,0,0,0,.567.185h.75a.69.69,0,0,0,.567-.185.643.643,0,0,0,.193-.548v-1.656a2.341,2.341,0,0,0-.693-2.025,2.512,2.512,0,0,0-2.087-.679h-1.21a2.521,2.521,0,0,0-2.107.68,2.35,2.35,0,0,0-.693,2.044v9.477a2.35,2.35,0,0,0,.693,2.044,2.521,2.521,0,0,0,2.107.68h1.23a2.525,2.525,0,0,0,2.1-.682,2.353,2.353,0,0,0,.7-2.043v-4.592a.713.713,0,0,0-.218-.618.765.765,0,0,0-.642-.2h-1.88a.65.65,0,0,0-.543.168.606.606,0,0,0-.186.523v.609a.553.553,0,0,0,.172.477.594.594,0,0,0,.5.152h.56v3.375Zm3.56,1.866a.719.719,0,0,0,.211.63.772.772,0,0,0,.649.208h3.45a.772.772,0,0,0,.649-.208.719.719,0,0,0,.211-.63v-.359a.719.719,0,0,0-.211-.63.772.772,0,0,0-.649-.208h-2.01v-4.423h1.86a.773.773,0,0,0,.649-.209.72.72,0,0,0,.211-.63v-.357a.719.719,0,0,0-.211-.63.772.772,0,0,0-.649-.208h-1.86v-4.151h1.97a.772.772,0,0,0,.649-.208.719.719,0,0,0,.211-.63V122.4a.72.72,0,0,0-.211-.63.773.773,0,0,0-.649-.209h-3.41a.773.773,0,0,0-.649.209.72.72,0,0,0-.211.63v13Zm10.69-7.9a.789.789,0,0,1-.242.682.847.847,0,0,1-.708.22h-1.03v-4.845h1.12a.772.772,0,0,1,.649.208.719.719,0,0,1,.211.63v3.1Zm2.31-3.207a2.355,2.355,0,0,0-.7-2.043,2.526,2.526,0,0,0-2.1-.683h-2.94a.773.773,0,0,0-.649.209.72.72,0,0,0-.211.63v13a.719.719,0,0,0,.211.63.772.772,0,0,0,.649.208h.59a.772.772,0,0,0,.649-.208.719.719,0,0,0,.211-.63v-5.052h1.03a.874.874,0,0,1,.729.236.815.815,0,0,1,.241.707V135.4a.722.722,0,0,0,.215.633.776.776,0,0,0,.655.205h.58a.772.772,0,0,0,.649-.208.719.719,0,0,0,.211-.63v-4.151a1.68,1.68,0,0,0-1.34-1.928,2.168,2.168,0,0,0,1.32-2.264v-2.77Z" transform="translate(-1334.338 -101)" fill="#353535" fill-rule="evenodd"/><path d="M1346.01,123.62c-4.65-1.089-11.47-3.275-13.53-5.742-.15-.183-.48-.064-.47.256a9.976,9.976,0,0,0,2.46,6.022c4.43,4.9,12.31,8.975,19.66,8.348C1360.62,131.534,1350.97,124.632,1346.01,123.62Zm25.04-3.136c-1.31,1.348-2.49,1.618-7.8,4.1-3.25,1.351-1.92,5.887-5.58,7.52,2.2-.419,10.58-2.545,13.17-8.579a32.708,32.708,0,0,0,1.26-3.549C1372.32,119.206,1371.47,120.054,1371.05,120.483Zm.2,6.829c-1.92,3.347-5.65,6.209-10.94,7.309-9.05,1.881-21.79-.644-26.53-7.512-1.33-1.932-1.55-.659-1.56-.249-.21,7.472,11.45,15.147,23.33,14.029,12.37-1.162,15.65-8.725,16.39-12.695.3-1.636-.38-1.426-.69-.887Zm1.58-15.907c-.42-4.5-9.22-10.962-20.04-10.368-9.87.54-19.17,5.805-20.28,11.739-1,5.317,10.71,8.159,22.96,7.765,12.29-.4,17.83-3.995,17.36-9.14Zm-23.12-7.368c-5.85,1.98-10.21,6.126-11.47,10.2-1.73-.761-2.56-1.927-2.25-3.414.57-2.119,6.42-7.132,15.13-8.458,5.9-.895,10.89.459,12.86,2.408-3.32-2.219-9.12-2.479-14.27-.737Zm21.47,8.987c-.45,1.032-1.42,1.5-2.16,1.035a2.177,2.177,0,0,1-.47-2.669c.46-1.01,1.41-1.463,2.12-1.022a2.159,2.159,0,0,1,.51,2.653Z" transform="translate(-1332 -101)" fill="#353535" fill-rule="evenodd"/></g></g></svg>